<svg width="162" height="163" viewBox="0 0 162 163" fill="none" xmlns="http://www.w3.org/2000/svg">
<g clip-path="url(#clip0_221_145970)">
<path d="M2.9778 6.4556C4.62239 6.4556 5.9556 5.12239 5.9556 3.4778C5.9556 1.83321 4.62239 0.5 2.9778 0.5C1.33321 0.5 0 1.83321 0 3.4778C0 5.12239 1.33321 6.4556 2.9778 6.4556Z" fill="url(#paint0_linear_221_145970)"/>
<path d="M2.9778 32.4112C4.62239 32.4112 5.9556 31.078 5.9556 29.4334C5.9556 27.7888 4.62239 26.4556 2.9778 26.4556C1.33321 26.4556 0 27.7888 0 29.4334C0 31.078 1.33321 32.4112 2.9778 32.4112Z" fill="url(#paint1_linear_221_145970)"/>
<path d="M2.9778 84.3223C4.62239 84.3223 5.9556 82.9891 5.9556 81.3445C5.9556 79.6999 4.62239 78.3667 2.9778 78.3667C1.33321 78.3667 0 79.6999 0 81.3445C0 82.9891 1.33321 84.3223 2.9778 84.3223Z" fill="url(#paint2_linear_221_145970)"/>
<path d="M2.9778 136.234C4.62239 136.234 5.9556 134.901 5.9556 133.256C5.9556 131.612 4.62239 130.278 2.9778 130.278C1.33321 130.278 0 131.612 0 133.256C0 134.901 1.33321 136.234 2.9778 136.234Z" fill="url(#paint3_linear_221_145970)"/>
<path d="M2.9778 162.189C4.62239 162.189 5.9556 160.856 5.9556 159.211C5.9556 157.567 4.62239 156.233 2.9778 156.233C1.33321 156.233 0 157.567 0 159.211C0 160.856 1.33321 162.189 2.9778 162.189Z" fill="url(#paint4_linear_221_145970)"/>
<path d="M2.9778 58.3667C4.62239 58.3667 5.9556 57.0335 5.9556 55.3889C5.9556 53.7443 4.62239 52.4111 2.9778 52.4111C1.33321 52.4111 0 53.7443 0 55.3889C0 57.0335 1.33321 58.3667 2.9778 58.3667Z" fill="url(#paint5_linear_221_145970)"/>
<path d="M2.9778 110.278C4.62239 110.278 5.9556 108.945 5.9556 107.3C5.9556 105.655 4.62239 104.322 2.9778 104.322C1.33321 104.322 0 105.655 0 107.3C0 108.945 1.33321 110.278 2.9778 110.278Z" fill="url(#paint6_linear_221_145970)"/>
<path d="M28.9334 6.4556C30.578 6.4556 31.9112 5.12239 31.9112 3.4778C31.9112 1.83321 30.578 0.5 28.9334 0.5C27.2888 0.5 25.9556 1.83321 25.9556 3.4778C25.9556 5.12239 27.2888 6.4556 28.9334 6.4556Z" fill="url(#paint7_linear_221_145970)"/>
<path d="M28.9334 32.4112C30.578 32.4112 31.9112 31.078 31.9112 29.4334C31.9112 27.7888 30.578 26.4556 28.9334 26.4556C27.2888 26.4556 25.9556 27.7888 25.9556 29.4334C25.9556 31.078 27.2888 32.4112 28.9334 32.4112Z" fill="url(#paint8_linear_221_145970)"/>
<path d="M28.9334 84.3223C30.578 84.3223 31.9112 82.9891 31.9112 81.3445C31.9112 79.6999 30.578 78.3667 28.9334 78.3667C27.2888 78.3667 25.9556 79.6999 25.9556 81.3445C25.9556 82.9891 27.2888 84.3223 28.9334 84.3223Z" fill="url(#paint9_linear_221_145970)"/>
<path d="M28.9334 136.234C30.578 136.234 31.9112 134.901 31.9112 133.256C31.9112 131.612 30.578 130.278 28.9334 130.278C27.2888 130.278 25.9556 131.612 25.9556 133.256C25.9556 134.901 27.2888 136.234 28.9334 136.234Z" fill="url(#paint10_linear_221_145970)"/>
<path d="M28.9334 162.189C30.578 162.189 31.9112 160.856 31.9112 159.211C31.9112 157.567 30.578 156.233 28.9334 156.233C27.2888 156.233 25.9556 157.567 25.9556 159.211C25.9556 160.856 27.2888 162.189 28.9334 162.189Z" fill="url(#paint11_linear_221_145970)"/>
<path d="M28.9334 58.3667C30.578 58.3667 31.9112 57.0335 31.9112 55.3889C31.9112 53.7443 30.578 52.4111 28.9334 52.4111C27.2888 52.4111 25.9556 53.7443 25.9556 55.3889C25.9556 57.0335 27.2888 58.3667 28.9334 58.3667Z" fill="url(#paint12_linear_221_145970)"/>
<path d="M28.9334 110.278C30.578 110.278 31.9112 108.945 31.9112 107.3C31.9112 105.655 30.578 104.322 28.9334 104.322C27.2888 104.322 25.9556 105.655 25.9556 107.3C25.9556 108.945 27.2888 110.278 28.9334 110.278Z" fill="url(#paint13_linear_221_145970)"/>
<path d="M54.8889 6.4556C56.5335 6.4556 57.8667 5.12239 57.8667 3.4778C57.8667 1.83321 56.5335 0.5 54.8889 0.5C53.2443 0.5 51.9111 1.83321 51.9111 3.4778C51.9111 5.12239 53.2443 6.4556 54.8889 6.4556Z" fill="url(#paint14_linear_221_145970)"/>
<path d="M54.8889 32.4112C56.5335 32.4112 57.8667 31.078 57.8667 29.4334C57.8667 27.7888 56.5335 26.4556 54.8889 26.4556C53.2443 26.4556 51.9111 27.7888 51.9111 29.4334C51.9111 31.078 53.2443 32.4112 54.8889 32.4112Z" fill="url(#paint15_linear_221_145970)"/>
<path d="M54.8889 84.3223C56.5335 84.3223 57.8667 82.9891 57.8667 81.3445C57.8667 79.6999 56.5335 78.3667 54.8889 78.3667C53.2443 78.3667 51.9111 79.6999 51.9111 81.3445C51.9111 82.9891 53.2443 84.3223 54.8889 84.3223Z" fill="url(#paint16_linear_221_145970)"/>
<path d="M54.8889 136.234C56.5335 136.234 57.8667 134.901 57.8667 133.256C57.8667 131.612 56.5335 130.278 54.8889 130.278C53.2443 130.278 51.9111 131.612 51.9111 133.256C51.9111 134.901 53.2443 136.234 54.8889 136.234Z" fill="url(#paint17_linear_221_145970)"/>
<path d="M54.8889 162.189C56.5335 162.189 57.8667 160.856 57.8667 159.211C57.8667 157.567 56.5335 156.233 54.8889 156.233C53.2443 156.233 51.9111 157.567 51.9111 159.211C51.9111 160.856 53.2443 162.189 54.8889 162.189Z" fill="url(#paint18_linear_221_145970)"/>
<path d="M54.8889 58.3667C56.5335 58.3667 57.8667 57.0335 57.8667 55.3889C57.8667 53.7443 56.5335 52.4111 54.8889 52.4111C53.2443 52.4111 51.9111 53.7443 51.9111 55.3889C51.9111 57.0335 53.2443 58.3667 54.8889 58.3667Z" fill="url(#paint19_linear_221_145970)"/>
<path d="M54.8889 110.278C56.5335 110.278 57.8667 108.945 57.8667 107.3C57.8667 105.655 56.5335 104.322 54.8889 104.322C53.2443 104.322 51.9111 105.655 51.9111 107.3C51.9111 108.945 53.2443 110.278 54.8889 110.278Z" fill="url(#paint20_linear_221_145970)"/>
<path d="M80.8445 6.4556C82.4891 6.4556 83.8223 5.12239 83.8223 3.4778C83.8223 1.83321 82.4891 0.5 80.8445 0.5C79.1999 0.5 77.8667 1.83321 77.8667 3.4778C77.8667 5.12239 79.1999 6.4556 80.8445 6.4556Z" fill="url(#paint21_linear_221_145970)"/>
<path d="M80.8445 32.4112C82.4891 32.4112 83.8223 31.078 83.8223 29.4334C83.8223 27.7888 82.4891 26.4556 80.8445 26.4556C79.1999 26.4556 77.8667 27.7888 77.8667 29.4334C77.8667 31.078 79.1999 32.4112 80.8445 32.4112Z" fill="url(#paint22_linear_221_145970)"/>
<path d="M80.8445 84.3223C82.4891 84.3223 83.8223 82.9891 83.8223 81.3445C83.8223 79.6999 82.4891 78.3667 80.8445 78.3667C79.1999 78.3667 77.8667 79.6999 77.8667 81.3445C77.8667 82.9891 79.1999 84.3223 80.8445 84.3223Z" fill="url(#paint23_linear_221_145970)"/>
<path d="M80.8445 136.234C82.4891 136.234 83.8223 134.901 83.8223 133.256C83.8223 131.612 82.4891 130.278 80.8445 130.278C79.1999 130.278 77.8667 131.612 77.8667 133.256C77.8667 134.901 79.1999 136.234 80.8445 136.234Z" fill="url(#paint24_linear_221_145970)"/>
<path d="M80.8445 162.189C82.4891 162.189 83.8223 160.856 83.8223 159.211C83.8223 157.567 82.4891 156.233 80.8445 156.233C79.1999 156.233 77.8667 157.567 77.8667 159.211C77.8667 160.856 79.1999 162.189 80.8445 162.189Z" fill="url(#paint25_linear_221_145970)"/>
<path d="M80.8445 58.3667C82.4891 58.3667 83.8223 57.0335 83.8223 55.3889C83.8223 53.7443 82.4891 52.4111 80.8445 52.4111C79.1999 52.4111 77.8667 53.7443 77.8667 55.3889C77.8667 57.0335 79.1999 58.3667 80.8445 58.3667Z" fill="url(#paint26_linear_221_145970)"/>
<path d="M80.8445 110.278C82.4891 110.278 83.8223 108.945 83.8223 107.3C83.8223 105.655 82.4891 104.322 80.8445 104.322C79.1999 104.322 77.8667 105.655 77.8667 107.3C77.8667 108.945 79.1999 110.278 80.8445 110.278Z" fill="url(#paint27_linear_221_145970)"/>
<path d="M106.8 6.4556C108.445 6.4556 109.778 5.12239 109.778 3.4778C109.778 1.83321 108.445 0.5 106.8 0.5C105.155 0.5 103.822 1.83321 103.822 3.4778C103.822 5.12239 105.155 6.4556 106.8 6.4556Z" fill="url(#paint28_linear_221_145970)"/>
<path d="M106.8 32.4112C108.445 32.4112 109.778 31.078 109.778 29.4334C109.778 27.7888 108.445 26.4556 106.8 26.4556C105.155 26.4556 103.822 27.7888 103.822 29.4334C103.822 31.078 105.155 32.4112 106.8 32.4112Z" fill="url(#paint29_linear_221_145970)"/>
<path d="M106.8 84.3223C108.445 84.3223 109.778 82.9891 109.778 81.3445C109.778 79.6999 108.445 78.3667 106.8 78.3667C105.155 78.3667 103.822 79.6999 103.822 81.3445C103.822 82.9891 105.155 84.3223 106.8 84.3223Z" fill="url(#paint30_linear_221_145970)"/>
<path d="M106.8 136.234C108.445 136.234 109.778 134.901 109.778 133.256C109.778 131.612 108.445 130.278 106.8 130.278C105.155 130.278 103.822 131.612 103.822 133.256C103.822 134.901 105.155 136.234 106.8 136.234Z" fill="url(#paint31_linear_221_145970)"/>
<path d="M106.8 162.189C108.445 162.189 109.778 160.856 109.778 159.211C109.778 157.567 108.445 156.233 106.8 156.233C105.155 156.233 103.822 157.567 103.822 159.211C103.822 160.856 105.155 162.189 106.8 162.189Z" fill="url(#paint32_linear_221_145970)"/>
<path d="M106.8 58.3667C108.445 58.3667 109.778 57.0335 109.778 55.3889C109.778 53.7443 108.445 52.4111 106.8 52.4111C105.155 52.4111 103.822 53.7443 103.822 55.3889C103.822 57.0335 105.155 58.3667 106.8 58.3667Z" fill="url(#paint33_linear_221_145970)"/>
<path d="M106.8 110.278C108.445 110.278 109.778 108.945 109.778 107.3C109.778 105.655 108.445 104.322 106.8 104.322C105.155 104.322 103.822 105.655 103.822 107.3C103.822 108.945 105.155 110.278 106.8 110.278Z" fill="url(#paint34_linear_221_145970)"/>
<path d="M132.756 6.4556C134.401 6.4556 135.734 5.12239 135.734 3.4778C135.734 1.83321 134.401 0.5 132.756 0.5C131.112 0.5 129.778 1.83321 129.778 3.4778C129.778 5.12239 131.112 6.4556 132.756 6.4556Z" fill="url(#paint35_linear_221_145970)"/>
<path d="M132.756 32.4112C134.401 32.4112 135.734 31.078 135.734 29.4334C135.734 27.7888 134.401 26.4556 132.756 26.4556C131.112 26.4556 129.778 27.7888 129.778 29.4334C129.778 31.078 131.112 32.4112 132.756 32.4112Z" fill="url(#paint36_linear_221_145970)"/>
<path d="M132.756 84.3223C134.401 84.3223 135.734 82.9891 135.734 81.3445C135.734 79.6999 134.401 78.3667 132.756 78.3667C131.112 78.3667 129.778 79.6999 129.778 81.3445C129.778 82.9891 131.112 84.3223 132.756 84.3223Z" fill="url(#paint37_linear_221_145970)"/>
<path d="M132.756 136.234C134.401 136.234 135.734 134.901 135.734 133.256C135.734 131.612 134.401 130.278 132.756 130.278C131.112 130.278 129.778 131.612 129.778 133.256C129.778 134.901 131.112 136.234 132.756 136.234Z" fill="url(#paint38_linear_221_145970)"/>
<path d="M132.756 162.189C134.401 162.189 135.734 160.856 135.734 159.211C135.734 157.567 134.401 156.233 132.756 156.233C131.112 156.233 129.778 157.567 129.778 159.211C129.778 160.856 131.112 162.189 132.756 162.189Z" fill="url(#paint39_linear_221_145970)"/>
<path d="M132.756 58.3667C134.401 58.3667 135.734 57.0335 135.734 55.3889C135.734 53.7443 134.401 52.4111 132.756 52.4111C131.112 52.4111 129.778 53.7443 129.778 55.3889C129.778 57.0335 131.112 58.3667 132.756 58.3667Z" fill="url(#paint40_linear_221_145970)"/>
<path d="M132.756 110.278C134.401 110.278 135.734 108.945 135.734 107.3C135.734 105.655 134.401 104.322 132.756 104.322C131.112 104.322 129.778 105.655 129.778 107.3C129.778 108.945 131.112 110.278 132.756 110.278Z" fill="url(#paint41_linear_221_145970)"/>
<path d="M158.711 6.4556C160.356 6.4556 161.689 5.12239 161.689 3.4778C161.689 1.83321 160.356 0.5 158.711 0.5C157.067 0.5 155.733 1.83321 155.733 3.4778C155.733 5.12239 157.067 6.4556 158.711 6.4556Z" fill="url(#paint42_linear_221_145970)"/>
<path d="M158.711 32.4112C160.356 32.4112 161.689 31.078 161.689 29.4334C161.689 27.7888 160.356 26.4556 158.711 26.4556C157.067 26.4556 155.733 27.7888 155.733 29.4334C155.733 31.078 157.067 32.4112 158.711 32.4112Z" fill="url(#paint43_linear_221_145970)"/>
<path d="M158.711 84.3223C160.356 84.3223 161.689 82.9891 161.689 81.3445C161.689 79.6999 160.356 78.3667 158.711 78.3667C157.067 78.3667 155.733 79.6999 155.733 81.3445C155.733 82.9891 157.067 84.3223 158.711 84.3223Z" fill="url(#paint44_linear_221_145970)"/>
<path d="M158.711 136.234C160.356 136.234 161.689 134.901 161.689 133.256C161.689 131.612 160.356 130.278 158.711 130.278C157.067 130.278 155.733 131.612 155.733 133.256C155.733 134.901 157.067 136.234 158.711 136.234Z" fill="url(#paint45_linear_221_145970)"/>
<path d="M158.711 162.189C160.356 162.189 161.689 160.856 161.689 159.211C161.689 157.567 160.356 156.233 158.711 156.233C157.067 156.233 155.733 157.567 155.733 159.211C155.733 160.856 157.067 162.189 158.711 162.189Z" fill="url(#paint46_linear_221_145970)"/>
<path d="M158.711 58.3667C160.356 58.3667 161.689 57.0335 161.689 55.3889C161.689 53.7443 160.356 52.4111 158.711 52.4111C157.067 52.4111 155.733 53.7443 155.733 55.3889C155.733 57.0335 157.067 58.3667 158.711 58.3667Z" fill="url(#paint47_linear_221_145970)"/>
<path d="M158.711 110.278C160.356 110.278 161.689 108.945 161.689 107.3C161.689 105.655 160.356 104.322 158.711 104.322C157.067 104.322 155.733 105.655 155.733 107.3C155.733 108.945 157.067 110.278 158.711 110.278Z" fill="url(#paint48_linear_221_145970)"/>
</g>
<defs>
<linearGradient id="paint0_linear_221_145970" x1="5.14347" y1="1.71819" x2="0.98132" y2="5.91418" gradientUnits="userSpaceOnUse">
<stop stop-color="#40A7EA"/>
<stop offset="1" stop-color="#294F96"/>
</linearGradient>
<linearGradient id="paint1_linear_221_145970" x1="5.14347" y1="27.6738" x2="0.981321" y2="31.8697" gradientUnits="userSpaceOnUse">
<stop stop-color="#40A7EA"/>
<stop offset="1" stop-color="#294F96"/>
</linearGradient>
<linearGradient id="paint2_linear_221_145970" x1="5.14347" y1="79.5849" x2="0.981317" y2="83.7809" gradientUnits="userSpaceOnUse">
<stop stop-color="#40A7EA"/>
<stop offset="1" stop-color="#294F96"/>
</linearGradient>
<linearGradient id="paint3_linear_221_145970" x1="5.14347" y1="131.497" x2="0.981322" y2="135.693" gradientUnits="userSpaceOnUse">
<stop stop-color="#40A7EA"/>
<stop offset="1" stop-color="#294F96"/>
</linearGradient>
<linearGradient id="paint4_linear_221_145970" x1="5.14347" y1="157.452" x2="0.981322" y2="161.648" gradientUnits="userSpaceOnUse">
<stop stop-color="#40A7EA"/>
<stop offset="1" stop-color="#294F96"/>
</linearGradient>
<linearGradient id="paint5_linear_221_145970" x1="5.14347" y1="53.6293" x2="0.98132" y2="57.8253" gradientUnits="userSpaceOnUse">
<stop stop-color="#40A7EA"/>
<stop offset="1" stop-color="#294F96"/>
</linearGradient>
<linearGradient id="paint6_linear_221_145970" x1="5.14347" y1="105.54" x2="0.981317" y2="109.736" gradientUnits="userSpaceOnUse">
<stop stop-color="#40A7EA"/>
<stop offset="1" stop-color="#294F96"/>
</linearGradient>
<linearGradient id="paint7_linear_221_145970" x1="31.099" y1="1.71819" x2="26.9369" y2="5.91418" gradientUnits="userSpaceOnUse">
<stop stop-color="#40A7EA"/>
<stop offset="1" stop-color="#294F96"/>
</linearGradient>
<linearGradient id="paint8_linear_221_145970" x1="31.099" y1="27.6738" x2="26.9369" y2="31.8697" gradientUnits="userSpaceOnUse">
<stop stop-color="#40A7EA"/>
<stop offset="1" stop-color="#294F96"/>
</linearGradient>
<linearGradient id="paint9_linear_221_145970" x1="31.099" y1="79.5849" x2="26.9369" y2="83.7809" gradientUnits="userSpaceOnUse">
<stop stop-color="#40A7EA"/>
<stop offset="1" stop-color="#294F96"/>
</linearGradient>
<linearGradient id="paint10_linear_221_145970" x1="31.099" y1="131.497" x2="26.9369" y2="135.693" gradientUnits="userSpaceOnUse">
<stop stop-color="#40A7EA"/>
<stop offset="1" stop-color="#294F96"/>
</linearGradient>
<linearGradient id="paint11_linear_221_145970" x1="31.099" y1="157.452" x2="26.9369" y2="161.648" gradientUnits="userSpaceOnUse">
<stop stop-color="#40A7EA"/>
<stop offset="1" stop-color="#294F96"/>
</linearGradient>
<linearGradient id="paint12_linear_221_145970" x1="31.099" y1="53.6293" x2="26.9369" y2="57.8253" gradientUnits="userSpaceOnUse">
<stop stop-color="#40A7EA"/>
<stop offset="1" stop-color="#294F96"/>
</linearGradient>
<linearGradient id="paint13_linear_221_145970" x1="31.099" y1="105.54" x2="26.9369" y2="109.736" gradientUnits="userSpaceOnUse">
<stop stop-color="#40A7EA"/>
<stop offset="1" stop-color="#294F96"/>
</linearGradient>
<linearGradient id="paint14_linear_221_145970" x1="57.0546" y1="1.71819" x2="52.8925" y2="5.91418" gradientUnits="userSpaceOnUse">
<stop stop-color="#40A7EA"/>
<stop offset="1" stop-color="#294F96"/>
</linearGradient>
<linearGradient id="paint15_linear_221_145970" x1="57.0546" y1="27.6738" x2="52.8925" y2="31.8697" gradientUnits="userSpaceOnUse">
<stop stop-color="#40A7EA"/>
<stop offset="1" stop-color="#294F96"/>
</linearGradient>
<linearGradient id="paint16_linear_221_145970" x1="57.0546" y1="79.5849" x2="52.8925" y2="83.7809" gradientUnits="userSpaceOnUse">
<stop stop-color="#40A7EA"/>
<stop offset="1" stop-color="#294F96"/>
</linearGradient>
<linearGradient id="paint17_linear_221_145970" x1="57.0546" y1="131.497" x2="52.8925" y2="135.693" gradientUnits="userSpaceOnUse">
<stop stop-color="#40A7EA"/>
<stop offset="1" stop-color="#294F96"/>
</linearGradient>
<linearGradient id="paint18_linear_221_145970" x1="57.0546" y1="157.452" x2="52.8925" y2="161.648" gradientUnits="userSpaceOnUse">
<stop stop-color="#40A7EA"/>
<stop offset="1" stop-color="#294F96"/>
</linearGradient>
<linearGradient id="paint19_linear_221_145970" x1="57.0546" y1="53.6293" x2="52.8925" y2="57.8253" gradientUnits="userSpaceOnUse">
<stop stop-color="#40A7EA"/>
<stop offset="1" stop-color="#294F96"/>
</linearGradient>
<linearGradient id="paint20_linear_221_145970" x1="57.0546" y1="105.54" x2="52.8925" y2="109.736" gradientUnits="userSpaceOnUse">
<stop stop-color="#40A7EA"/>
<stop offset="1" stop-color="#294F96"/>
</linearGradient>
<linearGradient id="paint21_linear_221_145970" x1="83.0102" y1="1.71819" x2="78.848" y2="5.91418" gradientUnits="userSpaceOnUse">
<stop stop-color="#40A7EA"/>
<stop offset="1" stop-color="#294F96"/>
</linearGradient>
<linearGradient id="paint22_linear_221_145970" x1="83.0102" y1="27.6738" x2="78.848" y2="31.8698" gradientUnits="userSpaceOnUse">
<stop stop-color="#40A7EA"/>
<stop offset="1" stop-color="#294F96"/>
</linearGradient>
<linearGradient id="paint23_linear_221_145970" x1="83.0102" y1="79.5849" x2="78.848" y2="83.7809" gradientUnits="userSpaceOnUse">
<stop stop-color="#40A7EA"/>
<stop offset="1" stop-color="#294F96"/>
</linearGradient>
<linearGradient id="paint24_linear_221_145970" x1="83.0102" y1="131.497" x2="78.848" y2="135.693" gradientUnits="userSpaceOnUse">
<stop stop-color="#40A7EA"/>
<stop offset="1" stop-color="#294F96"/>
</linearGradient>
<linearGradient id="paint25_linear_221_145970" x1="83.0102" y1="157.452" x2="78.848" y2="161.648" gradientUnits="userSpaceOnUse">
<stop stop-color="#40A7EA"/>
<stop offset="1" stop-color="#294F96"/>
</linearGradient>
<linearGradient id="paint26_linear_221_145970" x1="83.0102" y1="53.6293" x2="78.848" y2="57.8253" gradientUnits="userSpaceOnUse">
<stop stop-color="#40A7EA"/>
<stop offset="1" stop-color="#294F96"/>
</linearGradient>
<linearGradient id="paint27_linear_221_145970" x1="83.0102" y1="105.54" x2="78.848" y2="109.736" gradientUnits="userSpaceOnUse">
<stop stop-color="#40A7EA"/>
<stop offset="1" stop-color="#294F96"/>
</linearGradient>
<linearGradient id="paint28_linear_221_145970" x1="108.966" y1="1.71819" x2="104.804" y2="5.91418" gradientUnits="userSpaceOnUse">
<stop stop-color="#40A7EA"/>
<stop offset="1" stop-color="#294F96"/>
</linearGradient>
<linearGradient id="paint29_linear_221_145970" x1="108.966" y1="27.6738" x2="104.804" y2="31.8698" gradientUnits="userSpaceOnUse">
<stop stop-color="#40A7EA"/>
<stop offset="1" stop-color="#294F96"/>
</linearGradient>
<linearGradient id="paint30_linear_221_145970" x1="108.966" y1="79.5849" x2="104.804" y2="83.7809" gradientUnits="userSpaceOnUse">
<stop stop-color="#40A7EA"/>
<stop offset="1" stop-color="#294F96"/>
</linearGradient>
<linearGradient id="paint31_linear_221_145970" x1="108.966" y1="131.497" x2="104.804" y2="135.693" gradientUnits="userSpaceOnUse">
<stop stop-color="#40A7EA"/>
<stop offset="1" stop-color="#294F96"/>
</linearGradient>
<linearGradient id="paint32_linear_221_145970" x1="108.966" y1="157.452" x2="104.804" y2="161.648" gradientUnits="userSpaceOnUse">
<stop stop-color="#40A7EA"/>
<stop offset="1" stop-color="#294F96"/>
</linearGradient>
<linearGradient id="paint33_linear_221_145970" x1="108.966" y1="53.6293" x2="104.804" y2="57.8253" gradientUnits="userSpaceOnUse">
<stop stop-color="#40A7EA"/>
<stop offset="1" stop-color="#294F96"/>
</linearGradient>
<linearGradient id="paint34_linear_221_145970" x1="108.966" y1="105.54" x2="104.804" y2="109.736" gradientUnits="userSpaceOnUse">
<stop stop-color="#40A7EA"/>
<stop offset="1" stop-color="#294F96"/>
</linearGradient>
<linearGradient id="paint35_linear_221_145970" x1="134.922" y1="1.71819" x2="130.76" y2="5.91418" gradientUnits="userSpaceOnUse">
<stop stop-color="#40A7EA"/>
<stop offset="1" stop-color="#294F96"/>
</linearGradient>
<linearGradient id="paint36_linear_221_145970" x1="134.922" y1="27.6738" x2="130.76" y2="31.8697" gradientUnits="userSpaceOnUse">
<stop stop-color="#40A7EA"/>
<stop offset="1" stop-color="#294F96"/>
</linearGradient>
<linearGradient id="paint37_linear_221_145970" x1="134.922" y1="79.5849" x2="130.76" y2="83.7809" gradientUnits="userSpaceOnUse">
<stop stop-color="#40A7EA"/>
<stop offset="1" stop-color="#294F96"/>
</linearGradient>
<linearGradient id="paint38_linear_221_145970" x1="134.922" y1="131.497" x2="130.76" y2="135.692" gradientUnits="userSpaceOnUse">
<stop stop-color="#40A7EA"/>
<stop offset="1" stop-color="#294F96"/>
</linearGradient>
<linearGradient id="paint39_linear_221_145970" x1="134.922" y1="157.452" x2="130.76" y2="161.648" gradientUnits="userSpaceOnUse">
<stop stop-color="#40A7EA"/>
<stop offset="1" stop-color="#294F96"/>
</linearGradient>
<linearGradient id="paint40_linear_221_145970" x1="134.922" y1="53.6293" x2="130.76" y2="57.8253" gradientUnits="userSpaceOnUse">
<stop stop-color="#40A7EA"/>
<stop offset="1" stop-color="#294F96"/>
</linearGradient>
<linearGradient id="paint41_linear_221_145970" x1="134.922" y1="105.54" x2="130.76" y2="109.736" gradientUnits="userSpaceOnUse">
<stop stop-color="#40A7EA"/>
<stop offset="1" stop-color="#294F96"/>
</linearGradient>
<linearGradient id="paint42_linear_221_145970" x1="160.877" y1="1.71819" x2="156.715" y2="5.91418" gradientUnits="userSpaceOnUse">
<stop stop-color="#40A7EA"/>
<stop offset="1" stop-color="#294F96"/>
</linearGradient>
<linearGradient id="paint43_linear_221_145970" x1="160.877" y1="27.6738" x2="156.715" y2="31.8697" gradientUnits="userSpaceOnUse">
<stop stop-color="#40A7EA"/>
<stop offset="1" stop-color="#294F96"/>
</linearGradient>
<linearGradient id="paint44_linear_221_145970" x1="160.877" y1="79.5849" x2="156.715" y2="83.7809" gradientUnits="userSpaceOnUse">
<stop stop-color="#40A7EA"/>
<stop offset="1" stop-color="#294F96"/>
</linearGradient>
<linearGradient id="paint45_linear_221_145970" x1="160.877" y1="131.497" x2="156.715" y2="135.692" gradientUnits="userSpaceOnUse">
<stop stop-color="#40A7EA"/>
<stop offset="1" stop-color="#294F96"/>
</linearGradient>
<linearGradient id="paint46_linear_221_145970" x1="160.877" y1="157.452" x2="156.715" y2="161.648" gradientUnits="userSpaceOnUse">
<stop stop-color="#40A7EA"/>
<stop offset="1" stop-color="#294F96"/>
</linearGradient>
<linearGradient id="paint47_linear_221_145970" x1="160.877" y1="53.6293" x2="156.715" y2="57.8253" gradientUnits="userSpaceOnUse">
<stop stop-color="#40A7EA"/>
<stop offset="1" stop-color="#294F96"/>
</linearGradient>
<linearGradient id="paint48_linear_221_145970" x1="160.877" y1="105.54" x2="156.715" y2="109.736" gradientUnits="userSpaceOnUse">
<stop stop-color="#40A7EA"/>
<stop offset="1" stop-color="#294F96"/>
</linearGradient>
<clipPath id="clip0_221_145970">
<rect width="162" height="162" fill="white" transform="translate(0 0.5)"/>
</clipPath>
</defs>
</svg>
