<svg width="14" height="14" viewBox="0 0 14 14" fill="none" xmlns="http://www.w3.org/2000/svg">
<path d="M3.89352 7.5139V1.72686C3.89352 1.53501 3.81731 1.35102 3.68165 1.21536C3.54599 1.0797 3.36199 1.00348 3.17014 1.00348H1.72338C1.53153 1.00348 1.34753 1.0797 1.21187 1.21536C1.07621 1.35102 1 1.53501 1 1.72686V6.79052C1 6.98237 1.07621 7.16637 1.21187 7.30203C1.34753 7.43769 1.53153 7.5139 1.72338 7.5139H3.89352ZM3.89352 7.5139C4.66093 7.5139 5.39691 7.81875 5.93955 8.36139C6.48219 8.90403 6.78704 9.64001 6.78704 10.4074V11.1308C6.78704 11.5145 6.93946 11.8825 7.21078 12.1538C7.4821 12.4251 7.85009 12.5776 8.2338 12.5776C8.6175 12.5776 8.98549 12.4251 9.25681 12.1538C9.52813 11.8825 9.68056 11.5145 9.68056 11.1308V7.5139H11.8507C12.2344 7.5139 12.6024 7.36147 12.8737 7.09015C13.145 6.81883 13.2975 6.45085 13.2975 6.06714L12.5741 2.45024C12.47 2.00647 12.2727 1.62541 12.0118 1.36448C11.7508 1.10354 11.4404 0.976846 11.1273 1.00348H6.06366C5.4881 1.00348 4.93612 1.23212 4.52914 1.6391C4.12216 2.04608 3.89352 2.59807 3.89352 3.17362" stroke="#A9C8FF" stroke-linecap="round" stroke-linejoin="round"/>
</svg>
