<svg width="15" height="13" viewBox="0 0 15 13" fill="none" xmlns="http://www.w3.org/2000/svg">
<path d="M4.22947 5.73553V11.5226C4.22947 11.7144 4.15325 11.8984 4.01759 12.0341C3.88193 12.1697 3.69794 12.246 3.50608 12.246H2.05932C1.86747 12.246 1.68347 12.1697 1.54781 12.0341C1.41215 11.8984 1.33594 11.7144 1.33594 11.5226V6.45891C1.33594 6.26706 1.41215 6.08307 1.54781 5.94741C1.68347 5.81175 1.86747 5.73553 2.05932 5.73553H4.22947ZM4.22947 5.73553C4.99688 5.73553 5.73286 5.43068 6.2755 4.88804C6.81814 4.3454 7.123 3.60942 7.123 2.84201V2.11863C7.123 1.73493 7.27542 1.36694 7.54675 1.09562C7.81807 0.824301 8.18606 0.671875 8.56976 0.671875C8.95347 0.671875 9.32146 0.824301 9.59278 1.09562C9.8641 1.36694 10.0165 1.73493 10.0165 2.11863V5.73553H12.1867C12.5704 5.73553 12.9384 5.88796 13.2097 6.15928C13.481 6.4306 13.6334 6.79859 13.6334 7.18229L12.9101 10.7992C12.806 11.243 12.6087 11.624 12.3477 11.885C12.0868 12.1459 11.7764 12.2726 11.4633 12.246H6.39961C5.82406 12.246 5.27207 12.0173 4.86509 11.6103C4.45811 11.2034 4.22947 10.6514 4.22947 10.0758" stroke="url(#paint0_linear_5553_63661)" stroke-linecap="round" stroke-linejoin="round"/>
<defs>
<linearGradient id="paint0_linear_5553_63661" x1="1.33594" y1="0.671875" x2="15.7551" y2="4.75272" gradientUnits="userSpaceOnUse">
<stop stop-color="#14B467"/>
<stop offset="1" stop-color="#1DE083"/>
</linearGradient>
</defs>
</svg>
