<svg width="58" height="55" viewBox="0 0 58 55" fill="none" xmlns="http://www.w3.org/2000/svg">
<path d="M29.0909 47.5859C40.7391 47.5859 50.1818 38.6316 50.1818 27.5859C50.1818 16.5402 40.7391 7.58594 29.0909 7.58594C17.4427 7.58594 8 16.5402 8 27.5859C8 38.6316 17.4427 47.5859 29.0909 47.5859Z" fill="#14B467" fill-opacity="0.13"/>
<path d="M28.4848 52.1223C42.5597 52.1223 53.9696 41.3026 53.9696 27.9557C53.9696 14.6088 42.5597 3.78906 28.4848 3.78906C14.4099 3.78906 3 14.6088 3 27.9557C3 41.3026 14.4099 52.1223 28.4848 52.1223Z" fill="#14B467" fill-opacity="0.05"/>
<path d="M29 55C45.0163 55 58 42.6878 58 27.5C58 12.3122 45.0163 0 29 0C12.9837 0 0 12.3122 0 27.5C0 42.6878 12.9837 55 29 55Z" fill="#14B467" fill-opacity="0.07"/>
<g clip-path="url(#clip0_4482_140365)">
<path d="M18 27.5003L25.6667 35.0865L41 19.9141" stroke="#14B467" stroke-width="2.5" stroke-linecap="round" stroke-linejoin="round"/>
</g>
<defs>
<clipPath id="clip0_4482_140365">
<rect width="32" height="30.3448" fill="white" transform="translate(13 12.3281)"/>
</clipPath>
</defs>
</svg>
