<svg width="200" height="47" viewBox="0 0 200 47" fill="none" xmlns="http://www.w3.org/2000/svg">
<path d="M68.9121 25.7676C68.7214 22.9614 67.4999 20.3193 65.4753 18.3341C63.7016 16.5882 61.41 15.4418 58.9312 15.0605C56.4524 14.6793 53.9147 15.0828 51.6841 16.2128C51.5708 14.5037 50.8012 12.9009 49.5313 11.7296C48.2614 10.5582 46.5864 9.90606 44.8458 9.90527C44.7615 9.90527 44.6806 9.93825 44.621 9.99694C44.5613 10.0556 44.5278 10.1352 44.5278 10.2183V22.4725L42.8271 24.1505L42.5223 24.4504L40.371 26.5631L36.7928 30.0841C35.9056 30.9758 34.7111 31.508 33.4449 31.5757C32.1786 31.6435 30.9325 31.242 29.9522 30.4503C28.972 29.6586 28.3287 28.5342 28.1492 27.2989C27.9698 26.0635 28.2672 24.8069 28.9828 23.7766C29.1649 23.5117 29.3719 23.2643 29.6012 23.0376C29.6808 22.9594 29.7647 22.8855 29.8486 22.8159C30.8163 21.9812 32.0702 21.5397 33.3564 21.5808C34.6425 21.622 35.8647 22.1428 36.7752 23.0376L34.6857 20.9858C34.5532 20.8554 34.4163 20.7294 34.2749 20.612C32.7431 19.3004 30.7627 18.6095 28.7334 18.6789C26.7042 18.7483 24.7773 19.5728 23.3417 20.9858C22.034 22.2697 21.2177 23.9591 21.0314 25.7676C20.996 26.3002 20.996 26.8346 21.0314 27.3673C21.225 30.174 22.446 32.8165 24.4682 34.805C26.6882 36.9884 29.6984 38.2148 32.837 38.2148C35.9757 38.2148 38.9859 36.9884 41.2059 34.805L41.2766 34.7355L44.9607 31.1057L47.1164 28.9887L47.4212 28.6887L49.5681 26.5761L53.1507 23.0507C54.0379 22.159 55.2324 21.6269 56.4986 21.5591C57.7649 21.4913 59.011 21.8928 59.9913 22.6845C60.9715 23.4762 61.6148 24.6006 61.7943 25.8359C61.9737 27.0713 61.6763 28.328 60.9607 29.3582C60.7768 29.623 60.5683 29.8704 60.3378 30.0972L60.0949 30.3232C59.1262 31.1564 57.8722 31.5966 56.5863 31.5546C55.3004 31.5126 54.0788 30.9917 53.1683 30.0972L55.218 32.1533C55.3505 32.2837 55.4875 32.4055 55.6288 32.5272C57.1618 33.8381 59.1427 34.5285 61.1724 34.4591C63.2021 34.3897 65.1296 33.5658 66.5664 32.1533C67.8762 30.8714 68.6915 29.1807 68.8724 27.3716C68.9256 26.8386 68.9389 26.3025 68.9121 25.7676Z" fill="url(#paint0_linear_1757_44633)"/>
<path d="M66.584 32.1529C65.1512 33.566 63.2273 34.392 61.2001 34.4646C59.1729 34.5372 57.1931 33.851 55.6597 32.5441C55.5183 32.4268 55.3814 32.3007 55.2489 32.1703L53.1594 30.1185L50.2792 27.2799L41.2058 18.3381C39.5297 16.6873 37.3882 15.5701 35.0591 15.1314C32.7299 14.6927 30.3206 14.9527 28.1434 15.8776C27.9495 14.2346 27.1491 12.7189 25.8941 11.6185C24.6391 10.5182 23.017 9.90986 21.3361 9.90918C21.2518 9.90918 21.1709 9.94215 21.1112 10.0009C21.0516 10.0595 21.0181 10.1392 21.0181 10.2222V26.1236C21.0181 25.9888 21.0181 25.8454 21.0402 25.6889C21.2382 23.9066 22.0486 22.2442 23.3372 20.9767C24.773 19.5624 26.7008 18.7371 28.7311 18.6677C30.7614 18.5984 32.7428 19.29 34.2748 20.6029C34.4162 20.7202 34.5531 20.8463 34.6857 20.9767L36.7751 23.0285L44.9827 31.0922L48.7287 34.7785C49.8274 35.8606 51.132 36.7191 52.568 37.3048C54.0039 37.8905 55.5431 38.1919 57.0976 38.1919C58.652 38.1919 60.1912 37.8905 61.6272 37.3048C63.0632 36.7191 64.3678 35.8606 65.4664 34.7785C67.4884 32.8013 68.7127 30.1693 68.912 27.3712C68.7252 29.1831 67.9019 30.8742 66.584 32.1529Z" fill="url(#paint1_linear_1757_44633)"/>
<path d="M88.6362 16.8379C91.2557 16.8379 93.1111 18.3289 93.1111 20.6502C93.1429 21.1131 93.057 21.5765 92.8611 21.9985C92.6652 22.4206 92.3655 22.7878 91.989 23.0672C93.3143 23.741 94.1094 24.8973 94.1094 26.6491C94.1094 29.0965 92.0906 31.0787 89.343 31.0787H79.3242V16.8379H88.6362ZM82.6064 22.3238H88.7555C89.0876 22.3048 89.3984 22.1567 89.6196 21.9121C89.8408 21.6676 89.9542 21.3466 89.9349 21.0197C89.9349 20.4024 89.5948 19.7156 88.4948 19.7156H82.6064V22.3238ZM82.6064 28.1662H89.2326C90.2795 28.1662 90.9068 27.5229 90.9068 26.6491C90.9161 26.4428 90.8809 26.2368 90.8034 26.0448C90.7259 25.8528 90.6079 25.6792 90.4571 25.5355C90.3064 25.3917 90.1264 25.281 89.9291 25.2107C89.7317 25.1404 89.5214 25.1121 89.3121 25.1277H82.6064V28.1662Z" fill="white"/>
<path d="M109.416 16.8379V19.746H99.552V22.3543H108.422V25.2668H99.552V28.101H109.783V31.0613H96.3008V16.8379H109.416Z" fill="white"/>
<path d="M120.751 16.8379C124.152 16.8379 126.719 19.0766 126.719 22.4238C126.751 23.3927 126.505 24.3508 126.01 25.1888C125.515 26.0267 124.79 26.7105 123.918 27.1621L126.127 31.0744H122.566L120.866 27.9054H115.476V31.0744H112.203V16.8379H120.751ZM115.49 24.9755H120.618C122.293 24.9755 123.446 24.0757 123.446 22.4238C123.446 20.7719 122.293 19.7721 120.618 19.7721H115.49V24.9755Z" fill="white"/>
<path d="M132.135 16.8379V31.0787H128.866V16.8379H132.135Z" fill="white"/>
<path d="M144.066 16.8379C146.686 16.8379 148.541 18.3289 148.541 20.6502C148.573 21.1131 148.487 21.5765 148.291 21.9985C148.095 22.4206 147.796 22.7878 147.419 23.0672C148.744 23.741 149.54 24.8973 149.54 26.6491C149.54 29.0965 147.521 31.0787 144.773 31.0787H134.754V16.8379H144.066ZM138.023 22.3238H144.172C144.505 22.3048 144.815 22.1567 145.037 21.9121C145.258 21.6676 145.371 21.3466 145.352 21.0197C145.352 20.4024 145.012 19.7156 143.912 19.7156H138.023V22.3238ZM138.023 28.1662H144.672C145.718 28.1662 146.346 27.5229 146.346 26.6491C146.355 26.4428 146.32 26.2368 146.242 26.0448C146.165 25.8528 146.047 25.6792 145.896 25.5355C145.745 25.3917 145.565 25.281 145.368 25.2107C145.171 25.1404 144.96 25.1121 144.751 25.1277H138.023V28.1662Z" fill="white"/>
<path d="M154.982 16.8379V31.0787H151.713V16.8379H154.982Z" fill="white"/>
<path d="M172.122 16.8379V19.72H166.233V31.0787H162.964V19.72H157.076V16.8379H172.122Z" fill="white"/>
<defs>
<linearGradient id="paint0_linear_1757_44633" x1="12.0021" y1="14.5305" x2="80.8859" y2="40.2159" gradientUnits="userSpaceOnUse">
<stop stop-color="#A7FAFA"/>
<stop offset="0.2" stop-color="#83C4C8"/>
<stop offset="0.48" stop-color="#527C85"/>
<stop offset="0.72" stop-color="#2E4855"/>
<stop offset="0.9" stop-color="#182736"/>
<stop offset="1" stop-color="#101B2B"/>
</linearGradient>
<linearGradient id="paint1_linear_1757_44633" x1="8781.79" y1="3096.41" x2="4874.77" y2="-854.888" gradientUnits="userSpaceOnUse">
<stop stop-color="#213A5C"/>
<stop offset="0.13" stop-color="#27496E"/>
<stop offset="0.53" stop-color="#3874A2"/>
<stop offset="0.83" stop-color="#438FC3"/>
<stop offset="1" stop-color="#4799CF"/>
</linearGradient>
</defs>
</svg>
