<svg width="32" height="32" viewBox="0 0 32 32" fill="none" xmlns="http://www.w3.org/2000/svg">
<path d="M13.3335 6.66667C13.3335 5.95942 13.6144 5.28115 14.1145 4.78105C14.6146 4.28095 15.2929 4 16.0002 4C16.7074 4 17.3857 4.28095 17.8858 4.78105C18.3859 5.28115 18.6668 5.95942 18.6668 6.66667C20.198 7.3907 21.5034 8.51777 22.4429 9.92707C23.3824 11.3364 23.9207 12.9748 24.0002 14.6667V18.6667C24.1005 19.4956 24.3941 20.2894 24.8572 20.9842C25.3204 21.6789 25.9402 22.2552 26.6668 22.6667H5.3335C6.06008 22.2552 6.67991 21.6789 7.14308 20.9842C7.60625 20.2894 7.89982 19.4956 8.00016 18.6667V14.6667C8.07958 12.9748 8.6179 11.3364 9.55743 9.92707C10.497 8.51777 11.8023 7.3907 13.3335 6.66667" stroke="white" stroke-width="2" stroke-linecap="round" stroke-linejoin="round"/>
<path d="M12 22.667V24.0003C12 25.0612 12.4214 26.0786 13.1716 26.8288C13.9217 27.5789 14.9391 28.0003 16 28.0003C17.0609 28.0003 18.0783 27.5789 18.8284 26.8288C19.5786 26.0786 20 25.0612 20 24.0003V22.667" stroke="white" stroke-width="2" stroke-linecap="round" stroke-linejoin="round"/>
</svg>
