<svg width="32" height="32" viewBox="0 0 32 32" fill="none" xmlns="http://www.w3.org/2000/svg">
<path d="M16.0002 10.6665C19.5308 10.6665 22.7042 11.7678 24.9002 13.5198C25.6514 13.2565 26.4721 13.2707 27.2138 13.5599C27.9554 13.8491 28.5691 14.3942 28.9438 15.0965C29.3185 15.7989 29.4295 16.6122 29.2566 17.3892C29.0838 18.1663 28.6386 18.8559 28.0015 19.3332C28.0015 24.1198 22.6282 27.9998 16.0015 27.9998C9.5015 27.9998 4.20816 24.2665 4.0015 19.6078L2.66816 19.3332C2.03108 18.8559 1.58585 18.1663 1.41302 17.3892C1.24018 16.6122 1.35115 15.7989 1.72585 15.0965C2.10054 14.3942 2.71423 13.8491 3.4559 13.5599C4.19758 13.2707 5.01825 13.2565 5.7695 13.5198C7.96416 11.7692 11.1375 10.6665 14.6682 10.6665H16.0002Z" stroke="white" stroke-width="2" stroke-linecap="round" stroke-linejoin="round"/>
<path d="M16 10.6667L17.3333 4L25.3333 5.33333" stroke="white" stroke-width="2" stroke-linecap="round" stroke-linejoin="round"/>
<path d="M25.3333 6.66667C26.0697 6.66667 26.6667 6.06971 26.6667 5.33333C26.6667 4.59695 26.0697 4 25.3333 4C24.597 4 24 4.59695 24 5.33333C24 6.06971 24.597 6.66667 25.3333 6.66667Z" stroke="white" stroke-width="2" stroke-linecap="round" stroke-linejoin="round"/>
<path d="M12.0002 17.9998C12.3684 17.9998 12.6668 17.7014 12.6668 17.3332C12.6668 16.965 12.3684 16.6665 12.0002 16.6665C11.632 16.6665 11.3335 16.965 11.3335 17.3332C11.3335 17.7014 11.632 17.9998 12.0002 17.9998Z" fill="black" stroke="white" stroke-width="2" stroke-linecap="round" stroke-linejoin="round"/>
<path d="M20.0002 17.9998C20.3684 17.9998 20.6668 17.7014 20.6668 17.3332C20.6668 16.965 20.3684 16.6665 20.0002 16.6665C19.632 16.6665 19.3335 16.965 19.3335 17.3332C19.3335 17.7014 19.632 17.9998 20.0002 17.9998Z" fill="black" stroke="white" stroke-width="2" stroke-linecap="round" stroke-linejoin="round"/>
<path d="M13.3335 22.6665C14.2228 23.1105 15.1108 23.3332 16.0002 23.3332C16.8895 23.3332 17.7775 23.1105 18.6668 22.6665" stroke="white" stroke-width="2" stroke-linecap="round" stroke-linejoin="round"/>
</svg>
