<svg width="20" height="20" viewBox="0 0 20 20" fill="none" xmlns="http://www.w3.org/2000/svg">
<path fill-rule="evenodd" clip-rule="evenodd" d="M11.6 2.5C8.3415 2.5 5.69998 5.14152 5.69998 8.4C5.69998 10.051 6.37746 11.5429 7.47086 12.6143C8.53551 13.6576 9.99222 14.3 11.6 14.3C14.8585 14.3 17.5 11.6585 17.5 8.4C17.5 5.14152 14.8585 2.5 11.6 2.5ZM4.69998 8.4C4.69998 4.58924 7.78922 1.5 11.6 1.5C15.4107 1.5 18.5 4.58924 18.5 8.4C18.5 12.2108 15.4107 15.3 11.6 15.3C9.89677 15.3 8.337 14.6823 7.13368 13.6596L2.3503 18.3568L1.64966 17.6432L6.42026 12.9587C5.34992 11.7433 4.69998 10.1472 4.69998 8.4Z" fill="#2E3D5A"/>
</svg>
