<svg width="30" height="24" viewBox="0 0 30 24" fill="none" xmlns="http://www.w3.org/2000/svg">
<path d="M28.3332 1.34668C26.9998 2.00002 25.6932 2.26535 24.3332 2.66668C22.8385 0.980018 20.6225 0.886684 18.4932 1.68402C16.3638 2.48135 14.9692 4.43068 14.9998 6.66668V8.00002C10.6732 8.11068 6.81984 6.14002 4.33317 2.66668C4.33317 2.66668 -1.24283 12.5774 9.6665 17.3334C7.1705 18.996 4.68117 20.1174 1.6665 20C6.07717 22.404 10.8838 23.2307 15.0452 22.0227C19.8185 20.636 23.7412 17.0587 25.2465 11.7C25.6956 10.0702 25.9185 8.3865 25.9092 6.69602C25.9065 6.36402 27.9225 3.00002 28.3332 1.34535V1.34668Z" stroke="white" stroke-width="2" stroke-linecap="round" stroke-linejoin="round"/>
</svg>
