<svg width="273" height="52" viewBox="0 0 273 52" fill="none" xmlns="http://www.w3.org/2000/svg">
<path d="M272.5 26C272.5 27.6038 271.649 29.2332 269.886 30.8739C268.124 32.5142 265.497 34.1202 262.068 35.6645C255.213 38.7516 245.262 41.544 232.927 43.8936C208.264 48.5912 174.172 51.5 136.5 51.5C98.8281 51.5 64.7359 48.5912 40.0735 43.8936C27.7381 41.544 17.7873 38.7516 10.9322 35.6645C7.50299 34.1202 4.87606 32.5142 3.11386 30.8739C1.35122 29.2332 0.5 27.6038 0.5 26C0.5 24.3962 1.35122 22.7668 3.11386 21.1261C4.87606 19.4858 7.50299 17.8798 10.9322 16.3355C17.7873 13.2484 27.7381 10.456 40.0735 8.10639C64.7359 3.40879 98.8281 0.5 136.5 0.5C174.172 0.5 208.264 3.40879 232.927 8.10639C245.262 10.456 255.213 13.2484 262.068 16.3355C265.497 17.8798 268.124 19.4858 269.886 21.1261C271.649 22.7668 272.5 24.3962 272.5 26Z" stroke="url(#paint0_linear_2190_65438)"/>
<defs>
<linearGradient id="paint0_linear_2190_65438" x1="136" y1="52" x2="131.975" y2="-0.0367209" gradientUnits="userSpaceOnUse">
<stop stop-color="#89CBF6"/>
<stop offset="1" stop-color="#C5DFFA"/>
</linearGradient>
</defs>
</svg>
