<svg width="91" height="91" viewBox="0 0 91 91" fill="none" xmlns="http://www.w3.org/2000/svg">
<circle cx="45.5" cy="44.8116" r="33.0909" fill="white" fill-opacity="0.13"/>
<circle cx="45.5005" cy="45.5005" r="39.9848" fill="white" fill-opacity="0.05"/>
<circle cx="45.5" cy="45.5" r="45.5" fill="white" fill-opacity="0.07"/>
<g clip-path="url(#clip0_3398_95373)">
<path d="M41.8125 26.7925C42.8775 22.4025 49.1225 22.4025 50.1875 26.7925C50.3473 27.452 50.6606 28.0644 51.1018 28.58C51.543 29.0956 52.0997 29.4996 52.7266 29.7594C53.3535 30.0191 54.0329 30.1271 54.7095 30.0747C55.386 30.0222 56.0406 29.8108 56.62 29.4575C60.4775 27.1075 64.895 31.5225 62.545 35.3825C62.1922 35.9616 61.9811 36.6158 61.9288 37.2919C61.8765 37.968 61.9844 38.6469 62.2438 39.2734C62.5032 39.9 62.9068 40.4564 63.4218 40.8976C63.9368 41.3388 64.5486 41.6523 65.2075 41.8125C69.5975 42.8775 69.5975 49.1225 65.2075 50.1875C64.548 50.3473 63.9356 50.6606 63.42 51.1018C62.9044 51.543 62.5004 52.0997 62.2406 52.7266C61.9809 53.3535 61.8729 54.0329 61.9253 54.7095C61.9778 55.386 62.1892 56.0406 62.5425 56.62C64.8925 60.4775 60.4775 64.895 56.6175 62.545C56.0384 62.1922 55.3842 61.9811 54.7081 61.9288C54.032 61.8765 53.3531 61.9844 52.7266 62.2438C52.1 62.5032 51.5436 62.9068 51.1024 63.4218C50.6612 63.9368 50.3477 64.5486 50.1875 65.2075C49.1225 69.5975 42.8775 69.5975 41.8125 65.2075C41.6527 64.548 41.3394 63.9356 40.8982 63.42C40.457 62.9044 39.9003 62.5004 39.2734 62.2406C38.6465 61.9809 37.9671 61.8729 37.2905 61.9253C36.614 61.9778 35.9594 62.1892 35.38 62.5425C31.5225 64.8925 27.105 60.4775 29.455 56.6175C29.8078 56.0384 30.0189 55.3842 30.0712 54.7081C30.1235 54.032 30.0156 53.3531 29.7562 52.7266C29.4968 52.1 29.0932 51.5436 28.5782 51.1024C28.0632 50.6612 27.4514 50.3477 26.7925 50.1875C22.4025 49.1225 22.4025 42.8775 26.7925 41.8125C27.452 41.6527 28.0644 41.3394 28.58 40.8982C29.0956 40.457 29.4996 39.9003 29.7594 39.2734C30.0191 38.6465 30.1271 37.9671 30.0747 37.2905C30.0222 36.614 29.8108 35.9594 29.4575 35.38C27.1075 31.5225 31.5225 27.105 35.3825 29.455C37.8825 30.975 41.1225 29.63 41.8125 26.7925Z" stroke="white" stroke-width="3" stroke-linecap="round" stroke-linejoin="round"/>
<path d="M46 53.5C50.1421 53.5 53.5 50.1421 53.5 46C53.5 41.8579 50.1421 38.5 46 38.5C41.8579 38.5 38.5 41.8579 38.5 46C38.5 50.1421 41.8579 53.5 46 53.5Z" stroke="white" stroke-width="3" stroke-linecap="round" stroke-linejoin="round"/>
</g>
<defs>
<clipPath id="clip0_3398_95373">
<rect width="60" height="60" fill="white" transform="translate(16 16)"/>
</clipPath>
</defs>
</svg>
