<svg width="24" height="25" viewBox="0 0 24 25" fill="none" xmlns="http://www.w3.org/2000/svg">
<path d="M16 9.5C18.7614 9.5 21 8.15685 21 6.5C21 4.84315 18.7614 3.5 16 3.5C13.2386 3.5 11 4.84315 11 6.5C11 8.15685 13.2386 9.5 16 9.5Z" stroke="#40A7EA" stroke-width="1.5" stroke-linecap="round" stroke-linejoin="round"/>
<path d="M11 6.5V10.5C11 12.157 13.239 13.5 16 13.5C18.761 13.5 21 12.157 21 10.5V6.5" stroke="#40A7EA" stroke-width="1.5" stroke-linecap="round" stroke-linejoin="round"/>
<path d="M11 10.5V14.5C11 16.157 13.239 17.5 16 17.5C18.761 17.5 21 16.157 21 14.5V10.5" stroke="#40A7EA" stroke-width="1.5" stroke-linecap="round" stroke-linejoin="round"/>
<path d="M11 14.5V18.5C11 20.157 13.239 21.5 16 21.5C18.761 21.5 21 20.157 21 18.5V14.5" stroke="#40A7EA" stroke-width="1.5" stroke-linecap="round" stroke-linejoin="round"/>
<path d="M7 9.5H4.5C4.10218 9.5 3.72064 9.65804 3.43934 9.93934C3.15804 10.2206 3 10.6022 3 11C3 11.3978 3.15804 11.7794 3.43934 12.0607C3.72064 12.342 4.10218 12.5 4.5 12.5H5.5C5.89783 12.5 6.27936 12.658 6.56066 12.9393C6.84197 13.2206 7 13.6022 7 14C7 14.3978 6.84197 14.7794 6.56066 15.0607C6.27936 15.342 5.89783 15.5 5.5 15.5H3" stroke="#40A7EA" stroke-width="1.5" stroke-linecap="round" stroke-linejoin="round"/>
<path d="M5 8.5V9.5M5 15.5V16.5V15.5Z" stroke="#40A7EA" stroke-width="1.5" stroke-linecap="round" stroke-linejoin="round"/>
</svg>
