<svg width="24" height="25" viewBox="0 0 24 25" fill="none" xmlns="http://www.w3.org/2000/svg">
<path d="M8 13.5V5C8 4.60218 8.15804 4.22064 8.43934 3.93934C8.72064 3.65804 9.10218 3.5 9.5 3.5C9.89782 3.5 10.2794 3.65804 10.5607 3.93934C10.842 4.22064 11 4.60218 11 5V12.5" stroke="#40A7EA" stroke-width="1.5" stroke-linecap="round" stroke-linejoin="round"/>
<path d="M11 12V10C11 9.60218 11.158 9.22064 11.4393 8.93934C11.7206 8.65804 12.1022 8.5 12.5 8.5C12.8978 8.5 13.2794 8.65804 13.5607 8.93934C13.842 9.22064 14 9.60218 14 10V12.5" stroke="#40A7EA" stroke-width="1.5" stroke-linecap="round" stroke-linejoin="round"/>
<path d="M14 11C14 10.6022 14.158 10.2206 14.4393 9.93934C14.7206 9.65804 15.1022 9.5 15.5 9.5C15.8978 9.5 16.2794 9.65804 16.5607 9.93934C16.842 10.2206 17 10.6022 17 11V12.5" stroke="#40A7EA" stroke-width="1.5" stroke-linecap="round" stroke-linejoin="round"/>
<path d="M16.9999 12C16.9999 11.6022 17.158 11.2206 17.4393 10.9393C17.7206 10.658 18.1021 10.5 18.4999 10.5C18.8978 10.5 19.2793 10.658 19.5606 10.9393C19.8419 11.2206 19.9999 11.6022 19.9999 12V16.5C19.9999 18.0913 19.3678 19.6174 18.2426 20.7426C17.1174 21.8679 15.5912 22.5 13.9999 22.5H11.9999H12.2079C11.2143 22.5002 10.2361 22.2535 9.36132 21.7823C8.48652 21.311 7.74245 20.6299 7.19594 19.8L6.99994 19.5C6.68794 19.021 5.59294 17.112 3.71394 13.772C3.52239 13.4315 3.47122 13.0298 3.57132 12.6522C3.67142 12.2745 3.91489 11.9509 4.24994 11.75C4.60682 11.5359 5.02501 11.4471 5.4381 11.4978C5.85119 11.5486 6.23548 11.7359 6.52994 12.03L7.99994 13.5" stroke="#40A7EA" stroke-width="1.5" stroke-linecap="round" stroke-linejoin="round"/>
<path d="M2.54102 6.09399C3.30843 5.53296 4.13302 5.05463 5.00102 4.66699" stroke="#40A7EA" stroke-width="1.5" stroke-linecap="round" stroke-linejoin="round"/>
<path d="M14 3.95801C15.32 4.31201 16.558 4.86001 17.685 5.57001" stroke="#40A7EA" stroke-width="1.5" stroke-linecap="round" stroke-linejoin="round"/>
</svg>
