<svg width="24" height="21" viewBox="0 0 24 21" fill="none" xmlns="http://www.w3.org/2000/svg">
<path d="M8 1H4C3.44772 1 3 1.44772 3 2V6C3 6.55229 3.44772 7 4 7H8C8.55229 7 9 6.55229 9 6V2C9 1.44772 8.55229 1 8 1Z" stroke="#40A7EA" stroke-width="1.5" stroke-linecap="round" stroke-linejoin="round"/>
<path d="M20 13H16C15.4477 13 15 13.4477 15 14V18C15 18.5523 15.4477 19 16 19H20C20.5523 19 21 18.5523 21 18V14C21 13.4477 20.5523 13 20 13Z" stroke="#40A7EA" stroke-width="1.5" stroke-linecap="round" stroke-linejoin="round"/>
<path d="M21 9V6M21 6C21 5.46957 20.7893 4.96086 20.4142 4.58579M21 6L20.4142 4.58579M20.4142 4.58579C20.0391 4.21071 19.5304 4 19 4M20.4142 4.58579L19 4M19 4H13M13 4L16 7M13 4L16 1" stroke="#40A7EA" stroke-width="1.5" stroke-linecap="round" stroke-linejoin="round"/>
<path d="M3 11V14M3 14C3 14.5304 3.21071 15.0391 3.58579 15.4142M3 14L3.58579 15.4142M3.58579 15.4142C3.96086 15.7893 4.46957 16 5 16M3.58579 15.4142L5 16M5 16H11M11 16L8 13M11 16L8 19" stroke="#40A7EA" stroke-width="1.5" stroke-linecap="round" stroke-linejoin="round"/>
</svg>
