<svg width="96" height="96" viewBox="0 0 96 96" fill="none" xmlns="http://www.w3.org/2000/svg">
<rect x="1" y="1" width="94" height="94" rx="24" fill="#CCEAFF" fill-opacity="0.8" stroke="#A4C2F2" stroke-width="2"/>
<rect x="16" y="23" width="32" height="32" rx="10" fill="url(#paint0_linear_236_143278)"/>
<g filter="url(#filter0_b_236_143278)">
<circle cx="56.5" cy="53.5" r="25.5" fill="#FF54E4" fill-opacity="0.35"/>
<circle cx="56.5" cy="53.5" r="26" stroke="url(#paint1_linear_236_143278)" stroke-linecap="round"/>
</g>
<g filter="url(#filter1_d_236_143278)">
<path fill-rule="evenodd" clip-rule="evenodd" d="M48.8427 43.989C47.6509 43.989 46.6412 43.989 45.7711 44.011C45.8974 43.2183 46.0915 42.5621 46.3901 41.9699C47.1409 40.4807 48.339 39.2699 49.8126 38.5111C51.4878 37.6484 53.6809 37.6484 58.0669 37.6484H61.1995C65.5856 37.6484 67.7786 37.6484 69.4539 38.5111C70.9275 39.2699 72.1255 40.4807 72.8764 41.9699C73.73 43.663 73.73 45.8793 73.73 50.312V57.0052C73.73 60.3025 71.0851 62.9755 67.8224 62.9755H66.8799C65.6596 62.9755 64.8251 64.2211 65.2783 65.3661C65.9181 66.9826 64.0761 68.444 62.6742 67.4321L59.8073 65.3625C61.5121 64.1419 62.6525 62.1625 62.7577 59.9033C62.7654 59.736 62.7654 59.538 62.7654 59.1419V55.3195C62.7654 51.3535 62.7654 49.3704 62.0067 47.8556C61.3393 46.5231 60.2743 45.4398 58.9645 44.7608C57.4754 43.989 55.526 43.989 51.6273 43.989H48.8427ZM61.1988 55.5716C61.1988 52.0722 61.1988 50.3224 60.5349 48.9858C59.9509 47.8101 59.0191 46.8542 57.8729 46.2552C56.5699 45.5741 54.8643 45.5741 51.4529 45.5741H49.0164C45.605 45.5741 43.8993 45.5741 42.5964 46.2552C41.4502 46.8542 40.5184 47.8101 39.9344 48.9858C39.2705 50.3224 39.2705 52.0722 39.2705 55.5716V60.8558C39.2705 63.4589 41.3277 65.5692 43.8653 65.5692H44.5984C45.5475 65.5692 46.1965 66.5525 45.844 67.4565C45.3464 68.7327 46.7791 69.8864 47.8694 69.0875L51.0499 66.7571L51.1145 66.7099C52.1305 65.9755 53.3412 65.5775 54.5841 65.5693L54.6816 65.5692C55.0617 65.5692 55.2517 65.5692 55.3956 65.5622C58.5333 65.4098 61.0434 62.8348 61.192 59.6162C61.1988 59.4685 61.1988 59.2938 61.1988 58.9444V55.5716ZM44.0946 56.6012C44.0946 56.0302 44.6191 55.5674 45.2662 55.5674H54.6392C55.2863 55.5674 55.8108 56.0302 55.8108 56.6012C55.8108 57.1721 55.2863 57.635 54.6392 57.635H45.2662C44.6191 57.635 44.0946 57.1721 44.0946 56.6012Z" fill="url(#paint2_linear_236_143278)"/>
</g>
<defs>
<filter id="filter0_b_236_143278" x="6" y="3" width="101" height="101" filterUnits="userSpaceOnUse" color-interpolation-filters="sRGB">
<feFlood flood-opacity="0" result="BackgroundImageFix"/>
<feGaussianBlur in="BackgroundImageFix" stdDeviation="12"/>
<feComposite in2="SourceAlpha" operator="in" result="effect1_backgroundBlur_236_143278"/>
<feBlend mode="normal" in="SourceGraphic" in2="effect1_backgroundBlur_236_143278" result="shape"/>
</filter>
<filter id="filter1_d_236_143278" x="36.2705" y="34.6484" width="50.4595" height="47.7031" filterUnits="userSpaceOnUse" color-interpolation-filters="sRGB">
<feFlood flood-opacity="0" result="BackgroundImageFix"/>
<feColorMatrix in="SourceAlpha" type="matrix" values="0 0 0 0 0 0 0 0 0 0 0 0 0 0 0 0 0 0 127 0" result="hardAlpha"/>
<feOffset dx="5" dy="5"/>
<feGaussianBlur stdDeviation="4"/>
<feColorMatrix type="matrix" values="0 0 0 0 0.176471 0 0 0 0 0.556863 0 0 0 0 0.678431 0 0 0 0.5 0"/>
<feBlend mode="normal" in2="BackgroundImageFix" result="effect1_dropShadow_236_143278"/>
<feBlend mode="normal" in="SourceGraphic" in2="effect1_dropShadow_236_143278" result="shape"/>
</filter>
<linearGradient id="paint0_linear_236_143278" x1="16" y1="55" x2="48.6819" y2="23.7122" gradientUnits="userSpaceOnUse">
<stop stop-color="#D33C97"/>
<stop offset="1" stop-color="#FF76E1"/>
</linearGradient>
<linearGradient id="paint1_linear_236_143278" x1="31" y1="28" x2="82.0258" y2="78.9741" gradientUnits="userSpaceOnUse">
<stop stop-color="white" stop-opacity="0.25"/>
<stop offset="1" stop-color="white" stop-opacity="0"/>
</linearGradient>
<linearGradient id="paint2_linear_236_143278" x1="56.7904" y1="76.1052" x2="100.466" y2="29.5695" gradientUnits="userSpaceOnUse">
<stop stop-color="white"/>
<stop offset="1" stop-color="white" stop-opacity="0.2"/>
</linearGradient>
</defs>
</svg>
