<svg width="96" height="96" viewBox="0 0 96 96" fill="none" xmlns="http://www.w3.org/2000/svg">
<rect x="1" y="1" width="94" height="94" rx="24" fill="#CCEAFF" fill-opacity="0.8" stroke="#A4C2F2" stroke-width="2"/>
<rect x="19.8008" y="22.9336" width="31.3333" height="31.3333" rx="10" fill="url(#paint0_linear_236_143262)"/>
<g filter="url(#filter0_b_236_143262)">
<path fill-rule="evenodd" clip-rule="evenodd" d="M39.4239 29.8262C33.4312 29.8262 28.5732 34.6842 28.5732 40.6768C28.5732 42.4142 29.5696 43.9976 31.1359 44.7495L32.154 45.2381C34.5583 46.3922 34.5583 49.8157 32.154 50.9698L31.1359 51.4584C29.5696 52.2103 28.5732 53.7937 28.5732 55.5311C28.5732 61.5237 33.4312 66.3817 39.4239 66.3817H62.6337C68.6264 66.3817 73.4844 61.5237 73.4844 55.5311C73.4844 53.7937 72.488 52.2103 70.9217 51.4584L69.9036 50.9698C67.4993 49.8157 67.4993 46.3922 69.9036 45.2381L70.9217 44.7495C72.488 43.9976 73.4844 42.4142 73.4844 40.6768C73.4844 34.6842 68.6264 29.8262 62.6337 29.8262H39.4239Z" fill="#5925BA" fill-opacity="0.35"/>
<path d="M39.4239 29.3262C33.1551 29.3262 28.0732 34.408 28.0732 40.6768C28.0732 42.6065 29.1799 44.3652 30.9195 45.2002L31.9376 45.6889C33.9638 46.6615 33.9638 49.5464 31.9376 50.519L30.9195 51.0077C29.1799 51.8427 28.0732 53.6014 28.0732 55.5311C28.0732 61.7999 33.1551 66.8817 39.4239 66.8817H62.6337C68.9025 66.8817 73.9844 61.7999 73.9844 55.5311C73.9844 53.6014 72.8777 51.8427 71.1381 51.0077L70.12 50.519C68.0938 49.5464 68.0938 46.6615 70.12 45.6889L71.1381 45.2002C72.8777 44.3652 73.9844 42.6065 73.9844 40.6768C73.9844 34.408 68.9025 29.3262 62.6337 29.3262H39.4239Z" stroke="url(#paint1_linear_236_143262)" stroke-linecap="round"/>
</g>
<g filter="url(#filter1_d_236_143262)">
<path d="M57.6866 41.4459C58.2984 42.0578 58.2984 43.0497 57.6866 43.6615L45.87 55.4781C45.2582 56.0899 44.2662 56.0899 43.6544 55.4781C43.0426 54.8662 43.0426 53.8743 43.6544 53.2625L55.471 41.4459C56.0828 40.8341 57.0747 40.8341 57.6866 41.4459Z" fill="url(#paint2_linear_236_143262)"/>
<path d="M44.7622 43.9258C43.6086 43.9258 42.6733 42.9906 42.6733 41.8369C42.6733 40.6833 43.6086 39.748 44.7622 39.748C45.9159 39.748 46.8511 40.6833 46.8511 41.8369C46.8511 42.9906 45.9159 43.9258 44.7622 43.9258Z" fill="url(#paint3_linear_236_143262)"/>
<path d="M57.2956 56.4592C56.1419 56.4592 55.2067 55.5239 55.2067 54.3703C55.2067 53.2166 56.1419 52.2814 57.2956 52.2814C58.4492 52.2814 59.3845 53.2166 59.3845 54.3703C59.3845 55.5239 58.4492 56.4592 57.2956 56.4592Z" fill="url(#paint4_linear_236_143262)"/>
</g>
<defs>
<filter id="filter0_b_236_143262" x="3.57324" y="4.82617" width="94.9111" height="86.5557" filterUnits="userSpaceOnUse" color-interpolation-filters="sRGB">
<feFlood flood-opacity="0" result="BackgroundImageFix"/>
<feGaussianBlur in="BackgroundImageFix" stdDeviation="12"/>
<feComposite in2="SourceAlpha" operator="in" result="effect1_backgroundBlur_236_143262"/>
<feBlend mode="normal" in="SourceGraphic" in2="effect1_backgroundBlur_236_143262" result="shape"/>
</filter>
<filter id="filter1_d_236_143262" x="39.4175" y="36.4922" width="29.7343" height="29.7343" filterUnits="userSpaceOnUse" color-interpolation-filters="sRGB">
<feFlood flood-opacity="0" result="BackgroundImageFix"/>
<feColorMatrix in="SourceAlpha" type="matrix" values="0 0 0 0 0 0 0 0 0 0 0 0 0 0 0 0 0 0 127 0" result="hardAlpha"/>
<feOffset dx="3.25583" dy="3.25583"/>
<feGaussianBlur stdDeviation="3.25583"/>
<feColorMatrix type="matrix" values="0 0 0 0 0.376471 0 0 0 0 0.156863 0 0 0 0 0.811765 0 0 0 0.5 0"/>
<feBlend mode="normal" in2="BackgroundImageFix" result="effect1_dropShadow_236_143262"/>
<feBlend mode="normal" in="SourceGraphic" in2="effect1_dropShadow_236_143262" result="shape"/>
</filter>
<linearGradient id="paint0_linear_236_143262" x1="19.8008" y1="54.2669" x2="51.8018" y2="23.631" gradientUnits="userSpaceOnUse">
<stop stop-color="#4C2094"/>
<stop offset="1" stop-color="#712EFF"/>
</linearGradient>
<linearGradient id="paint1_linear_236_143262" x1="28.5732" y1="29.8262" x2="64.3932" y2="73.789" gradientUnits="userSpaceOnUse">
<stop stop-color="white" stop-opacity="0.25"/>
<stop offset="1" stop-color="white" stop-opacity="0"/>
</linearGradient>
<linearGradient id="paint2_linear_236_143262" x1="51.1696" y1="60.0193" x2="74.2336" y2="37.4109" gradientUnits="userSpaceOnUse">
<stop stop-color="white"/>
<stop offset="1" stop-color="white" stop-opacity="0.2"/>
</linearGradient>
<linearGradient id="paint3_linear_236_143262" x1="51.1696" y1="60.0193" x2="74.2336" y2="37.4109" gradientUnits="userSpaceOnUse">
<stop stop-color="white"/>
<stop offset="1" stop-color="white" stop-opacity="0.2"/>
</linearGradient>
<linearGradient id="paint4_linear_236_143262" x1="51.1696" y1="60.0193" x2="74.2336" y2="37.4109" gradientUnits="userSpaceOnUse">
<stop stop-color="white"/>
<stop offset="1" stop-color="white" stop-opacity="0.2"/>
</linearGradient>
</defs>
</svg>
