<svg width="96" height="96" viewBox="0 0 96 96" fill="none" xmlns="http://www.w3.org/2000/svg">
<rect x="1" y="1" width="94" height="94" rx="24" fill="#406681" fill-opacity="0.3" stroke="white" stroke-width="2"/>
<rect x="16" y="23" width="43" height="29" rx="10" fill="url(#paint0_linear_236_142633)"/>
<g filter="url(#filter0_b_236_142633)">
<path fill-rule="evenodd" clip-rule="evenodd" d="M53.8886 28H54.1114C58.6321 28 62.1757 28 64.9871 28.3046C67.8561 28.6154 70.1808 29.2611 72.1656 30.7031C73.3672 31.5761 74.4239 32.6328 75.2969 33.8344C76.7389 35.8192 77.3846 38.1439 77.6954 41.0129C78 43.8242 78 47.3678 78 51.8884V52.1114C78 56.632 78 60.1758 77.6954 62.9871C77.3846 65.8561 76.7389 68.1808 75.2969 70.1656C74.4239 71.3672 73.3672 72.4239 72.1656 73.2969C70.1808 74.7389 67.8561 75.3846 64.9871 75.6954C62.1758 76 58.6322 76 54.1116 76H53.8886C49.368 76 45.8242 76 43.0129 75.6954C40.1439 75.3846 37.8192 74.7389 35.8344 73.2969C34.6328 72.4239 33.5761 71.3672 32.7031 70.1656C31.2611 68.1808 30.6154 65.8561 30.3046 62.9871C30 60.1757 30 56.6321 30 52.1114V51.8886C30 47.3679 30 43.8243 30.3046 41.0129C30.6154 38.1438 31.2611 35.8192 32.7031 33.8344C33.5761 32.6328 34.6328 31.5761 35.8344 30.7031C37.8192 29.2611 40.1438 28.6154 43.0129 28.3046C45.8243 28 49.3679 28 53.8886 28Z" fill="#31D1AB" fill-opacity="0.35"/>
<path fill-rule="evenodd" clip-rule="evenodd" d="M53.8886 28H54.1114C58.6321 28 62.1757 28 64.9871 28.3046C67.8561 28.6154 70.1808 29.2611 72.1656 30.7031C73.3672 31.5761 74.4239 32.6328 75.2969 33.8344C76.7389 35.8192 77.3846 38.1439 77.6954 41.0129C78 43.8242 78 47.3678 78 51.8884V52.1114C78 56.632 78 60.1758 77.6954 62.9871C77.3846 65.8561 76.7389 68.1808 75.2969 70.1656C74.4239 71.3672 73.3672 72.4239 72.1656 73.2969C70.1808 74.7389 67.8561 75.3846 64.9871 75.6954C62.1758 76 58.6322 76 54.1116 76H53.8886C49.368 76 45.8242 76 43.0129 75.6954C40.1439 75.3846 37.8192 74.7389 35.8344 73.2969C34.6328 72.4239 33.5761 71.3672 32.7031 70.1656C31.2611 68.1808 30.6154 65.8561 30.3046 62.9871C30 60.1757 30 56.6321 30 52.1114V51.8886C30 47.3679 30 43.8243 30.3046 41.0129C30.6154 38.1438 31.2611 35.8192 32.7031 33.8344C33.5761 32.6328 34.6328 31.5761 35.8344 30.7031C37.8192 29.2611 40.1438 28.6154 43.0129 28.3046C45.8243 28 49.3679 28 53.8886 28Z" stroke="url(#paint1_linear_236_142633)" stroke-linecap="round"/>
</g>
<g filter="url(#filter1_d_236_142633)">
<path d="M56.8171 64.0617L56.8171 66.5617L56.8171 64.0617ZM56.8171 39.4463L56.8167 41.9463L56.8171 39.4463ZM43.377 41.9078V51.754H48.377V41.9078H43.377ZM43.377 51.754V61.6001H48.377V51.754H43.377ZM45.877 54.254L56.8171 54.254L56.8171 49.254L45.877 49.254L45.877 54.254ZM56.8171 51.754C56.8171 54.254 56.8185 54.254 56.8199 54.254C56.8204 54.254 56.8219 54.254 56.8229 54.254C56.8249 54.254 56.827 54.254 56.8292 54.254C56.8336 54.2539 56.8383 54.2539 56.8434 54.2539C56.8536 54.2538 56.8652 54.2536 56.8782 54.2534C56.9041 54.2529 56.9356 54.2521 56.9722 54.2507C57.0455 54.248 57.1398 54.243 57.2524 54.2339C57.4767 54.2159 57.7783 54.1814 58.1325 54.115C58.8307 53.9841 59.7921 53.7182 60.7778 53.1637C62.9131 51.9626 64.7872 49.6023 64.7872 45.6001H59.7872C59.7872 47.7518 58.9263 48.4684 58.3265 48.8058C57.9448 49.0205 57.5386 49.1392 57.2111 49.2006C57.0525 49.2304 56.9268 49.244 56.8519 49.25C56.8149 49.253 56.7918 49.254 56.7849 49.2542C56.7815 49.2544 56.7822 49.2543 56.7875 49.2542C56.7901 49.2542 56.7938 49.2541 56.7988 49.2541C56.8012 49.254 56.804 49.254 56.807 49.254C56.8086 49.254 56.8102 49.254 56.8119 49.254C56.8127 49.254 56.814 49.254 56.8144 49.254C56.8158 49.254 56.8171 49.254 56.8171 51.754ZM64.7872 45.6001C64.7872 41.5991 62.9141 39.2389 60.7794 38.0375C58.8542 36.954 56.9714 36.9463 56.8175 36.9463L56.8167 41.9463C56.6656 41.9463 57.5179 41.9394 58.3271 42.3948C58.6938 42.6012 59.0284 42.8892 59.282 43.3173C59.5342 43.743 59.7872 44.4434 59.7872 45.6001H64.7872ZM56.817 36.9463H48.3385V41.9463H56.817V36.9463ZM48.3385 66.5617H56.8171V61.5617H48.3385V66.5617ZM56.8171 66.5617C56.9696 66.5617 58.8523 66.5545 60.7778 65.4714C62.9131 64.2703 64.7872 61.91 64.7872 57.9078H59.7872C59.7872 59.0649 59.534 59.7653 59.2818 60.191C59.0281 60.6192 58.6934 60.9071 58.3265 61.1135C57.517 61.5688 56.6647 61.5617 56.8171 61.5617L56.8171 66.5617ZM64.7872 57.9078C64.7872 53.9056 62.9131 51.5454 60.7778 50.3443C59.7921 49.7898 58.8307 49.5239 58.1325 49.393C57.7783 49.3265 57.4767 49.2921 57.2524 49.274C57.1398 49.265 57.0455 49.26 56.9722 49.2572C56.9356 49.2559 56.9041 49.2551 56.8782 49.2546C56.8652 49.2543 56.8536 49.2542 56.8434 49.2541C56.8383 49.2541 56.8336 49.254 56.8292 49.254C56.827 49.254 56.8249 49.254 56.8229 49.254C56.8219 49.254 56.8204 49.254 56.8199 49.254C56.8185 49.254 56.8171 49.254 56.8171 51.754C56.8171 54.254 56.8158 54.254 56.8144 54.254C56.814 54.254 56.8127 54.254 56.8119 54.254C56.8102 54.254 56.8086 54.254 56.807 54.254C56.804 54.2539 56.8012 54.2539 56.7988 54.2539C56.7938 54.2539 56.7901 54.2538 56.7875 54.2538C56.7822 54.2537 56.7815 54.2536 56.7849 54.2537C56.7918 54.254 56.8149 54.255 56.8519 54.258C56.9268 54.264 57.0525 54.2776 57.2111 54.3073C57.5386 54.3687 57.9448 54.4874 58.3265 54.7022C58.9263 55.0395 59.7872 55.7562 59.7872 57.9078H64.7872ZM43.377 61.6001C43.377 64.3403 45.5983 66.5617 48.3385 66.5617V61.5617C48.3379 61.5617 48.3399 61.5616 48.3436 61.5624C48.3472 61.5632 48.3509 61.5643 48.3542 61.5657C48.3606 61.5684 48.364 61.5713 48.3657 61.5729C48.3674 61.5746 48.3702 61.578 48.3729 61.5844C48.3743 61.5878 48.3755 61.5914 48.3762 61.595C48.377 61.5988 48.377 61.6008 48.377 61.6001H43.377ZM48.377 41.9078C48.377 41.9072 48.377 41.9092 48.3762 41.9129C48.3755 41.9165 48.3743 41.9202 48.3729 41.9236C48.3702 41.93 48.3674 41.9334 48.3657 41.935C48.364 41.9367 48.3606 41.9395 48.3542 41.9422C48.3509 41.9437 48.3472 41.9448 48.3436 41.9455C48.3399 41.9463 48.3379 41.9463 48.3385 41.9463V36.9463C45.5983 36.9463 43.377 39.1676 43.377 41.9078H48.377ZM56.8171 66.5617H56.8171L56.8171 61.5617H56.8171V66.5617ZM56.8175 36.9463H56.817V41.9463H56.8167L56.8175 36.9463Z" fill="url(#paint2_linear_236_142633)"/>
</g>
<defs>
<filter id="filter0_b_236_142633" x="5.5" y="3.5" width="97" height="97" filterUnits="userSpaceOnUse" color-interpolation-filters="sRGB">
<feFlood flood-opacity="0" result="BackgroundImageFix"/>
<feGaussianBlur in="BackgroundImageFix" stdDeviation="12"/>
<feComposite in2="SourceAlpha" operator="in" result="effect1_backgroundBlur_236_142633"/>
<feBlend mode="normal" in="SourceGraphic" in2="effect1_backgroundBlur_236_142633" result="shape"/>
</filter>
<filter id="filter1_d_236_142633" x="40.377" y="33.9463" width="37.4102" height="45.6152" filterUnits="userSpaceOnUse" color-interpolation-filters="sRGB">
<feFlood flood-opacity="0" result="BackgroundImageFix"/>
<feColorMatrix in="SourceAlpha" type="matrix" values="0 0 0 0 0 0 0 0 0 0 0 0 0 0 0 0 0 0 127 0" result="hardAlpha"/>
<feOffset dx="5" dy="5"/>
<feGaussianBlur stdDeviation="4"/>
<feColorMatrix type="matrix" values="0 0 0 0 0.176471 0 0 0 0 0.556863 0 0 0 0 0.678431 0 0 0 0.5 0"/>
<feBlend mode="normal" in2="BackgroundImageFix" result="effect1_dropShadow_236_142633"/>
<feBlend mode="normal" in="SourceGraphic" in2="effect1_dropShadow_236_142633" result="shape"/>
</filter>
<linearGradient id="paint0_linear_236_142633" x1="16" y1="52" x2="43.9156" y2="12.3735" gradientUnits="userSpaceOnUse">
<stop stop-color="#209494"/>
<stop offset="1" stop-color="#2EFF9B"/>
</linearGradient>
<linearGradient id="paint1_linear_236_142633" x1="30" y1="28" x2="78.0243" y2="75.9757" gradientUnits="userSpaceOnUse">
<stop stop-color="white" stop-opacity="0.25"/>
<stop offset="1" stop-color="white" stop-opacity="0"/>
</linearGradient>
<linearGradient id="paint2_linear_236_142633" x1="54.2203" y1="69.3058" x2="85.3413" y2="48.9683" gradientUnits="userSpaceOnUse">
<stop stop-color="white"/>
<stop offset="1" stop-color="white" stop-opacity="0.2"/>
</linearGradient>
</defs>
</svg>
