<svg width="21" height="21" viewBox="0 0 21 21" fill="none" xmlns="http://www.w3.org/2000/svg">
<path d="M12.7112 8.50081C12.8467 8.89225 13.2738 9.09977 13.6653 8.96432C14.0567 8.82887 14.2642 8.40174 14.1288 8.0103L12.7112 8.50081ZM11.8 7.03333L11.8329 6.28406C11.822 6.28357 11.811 6.28333 11.8 6.28333V7.03333ZM9.4 10.7V11.45V10.7ZM11.8 14.3667V15.1167V14.3667ZM9.4 14.3667L9.36705 15.1159C9.37802 15.1164 9.38901 15.1167 9.4 15.1167V14.3667ZM8.48876 12.8992C8.35331 12.5077 7.92618 12.3002 7.53474 12.4357C7.1433 12.5711 6.93578 12.9983 7.07123 13.3897L8.48876 12.8992ZM11.35 5.2C11.35 4.78578 11.0142 4.45 10.6 4.45C10.1858 4.45 9.85 4.78578 9.85 5.2H11.35ZM9.85 7.03333C9.85 7.44754 10.1858 7.78333 10.6 7.78333C11.0142 7.78333 11.35 7.44754 11.35 7.03333H9.85ZM11.35 14.3667C11.35 13.9525 11.0142 13.6167 10.6 13.6167C10.1858 13.6167 9.85 13.9525 9.85 14.3667H11.35ZM9.85 16.2C9.85 16.6142 10.1858 16.95 10.6 16.95C11.0142 16.95 11.35 16.6142 11.35 16.2H9.85ZM14.1288 8.0103C13.9611 7.52591 13.6543 7.10149 13.2455 6.79305L12.3421 7.99049C12.5106 8.11768 12.64 8.29493 12.7112 8.50081L14.1288 8.0103ZM13.2455 6.79305C12.8365 6.48448 12.3446 6.30655 11.8329 6.28406L11.767 7.78261C11.9733 7.79168 12.1736 7.86342 12.3421 7.99049L13.2455 6.79305ZM11.8 6.28333H9.4V7.78333H11.8V6.28333ZM9.4 6.28333C8.71921 6.28333 8.06915 6.55891 7.59203 7.04486L8.66238 8.09574C8.8604 7.89406 9.12601 7.78333 9.4 7.78333V6.28333ZM7.59203 7.04486C7.11538 7.53034 6.85 8.18592 6.85 8.86666H8.35C8.35 8.57495 8.4639 8.2979 8.66238 8.09574L7.59203 7.04486ZM6.85 8.86666C6.85 9.54741 7.11538 10.203 7.59203 10.6885L8.66238 9.63758C8.4639 9.43543 8.35 9.15838 8.35 8.86666H6.85ZM7.59203 10.6885C8.06915 11.1744 8.71921 11.45 9.4 11.45V9.95C9.12601 9.95 8.8604 9.83927 8.66238 9.63758L7.59203 10.6885ZM9.4 11.45H11.8V9.95H9.4V11.45ZM11.8 11.45C12.074 11.45 12.3396 11.5607 12.5376 11.7624L13.608 10.7115C13.1308 10.2256 12.4808 9.95 11.8 9.95V11.45ZM12.5376 11.7624C12.7361 11.9646 12.85 12.2416 12.85 12.5333H14.35C14.35 11.8526 14.0846 11.197 13.608 10.7115L12.5376 11.7624ZM12.85 12.5333C12.85 12.825 12.7361 13.1021 12.5376 13.3042L13.608 14.3551C14.0846 13.8697 14.35 13.2141 14.35 12.5333H12.85ZM12.5376 13.3042C12.3396 13.5059 12.074 13.6167 11.8 13.6167V15.1167C12.4808 15.1167 13.1309 14.8411 13.608 14.3551L12.5376 13.3042ZM11.8 13.6167H9.4V15.1167H11.8V13.6167ZM9.43295 13.6174C9.22666 13.6083 9.02636 13.5366 8.85794 13.4095L7.95453 14.6069C8.36353 14.9155 8.85543 15.0934 9.36705 15.1159L9.43295 13.6174ZM8.85794 13.4095C8.68935 13.2823 8.56001 13.1051 8.48876 12.8992L7.07123 13.3897C7.23885 13.8741 7.54571 14.2985 7.95453 14.6069L8.85794 13.4095ZM9.85 5.2V7.03333H11.35V5.2H9.85ZM9.85 14.3667V16.2H11.35V14.3667H9.85ZM19.45 10.6C19.45 15.4877 15.4877 19.45 10.6 19.45V20.95C16.3161 20.95 20.95 16.3161 20.95 10.6H19.45ZM10.6 19.45C5.71228 19.45 1.75 15.4877 1.75 10.6H0.25C0.25 16.3161 4.88385 20.95 10.6 20.95V19.45ZM1.75 10.6C1.75 5.71228 5.71228 1.75 10.6 1.75V0.25C4.88385 0.25 0.25 4.88385 0.25 10.6H1.75ZM10.6 1.75C15.4877 1.75 19.45 5.71228 19.45 10.6H20.95C20.95 4.88385 16.3161 0.25 10.6 0.25V1.75Z" fill="white"/>
</svg>
