<svg width="64" height="64" viewBox="0 0 64 64" fill="none" xmlns="http://www.w3.org/2000/svg">
<rect x="1" y="1" width="62" height="62" rx="8" fill="#E6F7FC" stroke="url(#paint0_linear_236_143652)" stroke-width="2"/>
<path fill-rule="evenodd" clip-rule="evenodd" d="M21.833 21.5278C21.833 18.751 24.084 16.5 26.8608 16.5C29.6376 16.5 31.8886 18.751 31.8886 21.5278C31.8886 24.3045 29.6376 26.5556 26.8608 26.5556C24.084 26.5556 21.833 24.3045 21.833 21.5278ZM26.8608 15C23.2556 15 20.333 17.9226 20.333 21.5278C20.333 25.133 23.2556 28.0556 26.8608 28.0556C30.466 28.0556 33.3886 25.133 33.3886 21.5278C33.3886 17.9226 30.466 15 26.8608 15ZM23.6833 32.3333L23.6179 32.3333C22.8132 32.3333 22.3376 32.3333 21.9274 32.3836C18.8515 32.7613 16.428 35.1849 16.0503 38.2607C15.9999 38.671 16 39.1465 16 39.9512L16 40.0167L16 40.0759C16 40.5972 15.9999 40.9287 16.0354 41.2178C16.3012 43.3823 18.0066 45.0877 20.1711 45.3535C20.4602 45.389 20.7917 45.3889 21.313 45.3889L21.3722 45.3889H32.35L32.4093 45.3889C32.9305 45.3889 33.2621 45.389 33.5511 45.3535C35.7156 45.0877 37.4211 43.3823 37.6868 41.2178C37.7223 40.9287 37.7223 40.5972 37.7222 40.0759L37.7222 40.0167V39.9512V39.9511C37.7223 39.1464 37.7223 38.6709 37.6719 38.2607C37.2942 35.1849 34.8707 32.7613 31.7948 32.3836C31.3846 32.3333 30.9091 32.3333 30.1044 32.3333L30.0389 32.3333H23.6833ZM22.1102 33.8725C22.4174 33.8347 22.7942 33.8333 23.6833 33.8333H30.0389C30.928 33.8333 31.3048 33.8347 31.612 33.8725C34.0044 34.1662 35.8894 36.0512 36.1831 38.4435C36.2208 38.7508 36.2222 39.1276 36.2222 40.0167C36.2222 40.6168 36.2208 40.8491 36.198 41.035C36.0162 42.5159 34.8493 43.6828 33.3683 43.8647C33.1825 43.8875 32.9502 43.8889 32.35 43.8889H21.3722C20.7721 43.8889 20.5398 43.8875 20.3539 43.8647C18.873 43.6828 17.7061 42.5159 17.5242 41.035C17.5014 40.8491 17.5 40.6168 17.5 40.0167C17.5 39.1276 17.5014 38.7508 17.5391 38.4435C17.8329 36.0512 19.7179 34.1662 22.1102 33.8725Z" fill="#0F1C35"/>
<path d="M38 27L48 27M43 22V32" stroke="#40A7EA" stroke-width="1.5" stroke-linecap="round"/>
<defs>
<linearGradient id="paint0_linear_236_143652" x1="0" y1="0" x2="64" y2="64" gradientUnits="userSpaceOnUse">
<stop stop-color="#677EAD"/>
<stop offset="0.265625" stop-color="#91A5CD"/>
<stop offset="0.71875" stop-color="#202E4B"/>
<stop offset="1" stop-color="#677EAD"/>
</linearGradient>
</defs>
</svg>
