<svg width="64" height="64" viewBox="0 0 64 64" fill="none" xmlns="http://www.w3.org/2000/svg">
<rect x="1" y="1" width="62" height="62" rx="8" fill="#E6F7FC" stroke="url(#paint0_linear_236_143634)" stroke-width="2"/>
<path fill-rule="evenodd" clip-rule="evenodd" d="M26.5661 15.25L26.6 15.25L39.4 15.25L39.4339 15.25C41.0854 15.25 42.3708 15.25 43.4019 15.3342C44.4488 15.4198 45.2993 15.5959 46.0644 15.9857C47.3345 16.6329 48.3671 17.6655 49.0143 18.9356C49.4041 19.7007 49.5802 20.5512 49.6658 21.5981C49.75 22.6292 49.75 23.9146 49.75 25.566L49.75 25.6L49.75 38.4L49.75 38.434C49.75 40.0854 49.75 41.3708 49.6658 42.4019C49.5802 43.4488 49.4041 44.2994 49.0143 45.0644C48.3671 46.3345 47.3345 47.3672 46.0644 48.0143C45.2993 48.4041 44.4488 48.5802 43.4019 48.6658C42.3708 48.75 41.0854 48.75 39.434 48.75L39.4 48.75L26.6 48.75L26.566 48.75C24.9146 48.75 23.6292 48.75 22.5981 48.6658C21.5512 48.5802 20.7006 48.4041 19.9356 48.0143C18.6655 47.3672 17.6328 46.3345 16.9857 45.0644C16.5959 44.2994 16.4198 43.4488 16.3342 42.4019C16.25 41.3708 16.25 40.0854 16.25 38.4339L16.25 38.4L16.25 25.6L16.25 25.5661C16.25 23.9146 16.25 22.6292 16.3342 21.5981C16.4198 20.5512 16.5959 19.7007 16.9857 18.9356C17.6328 17.6655 18.6655 16.6329 19.9356 15.9857C20.7006 15.5959 21.5512 15.4198 22.5981 15.3342C23.6292 15.25 24.9146 15.25 26.5661 15.25ZM22.7203 16.8293C21.7662 16.9072 21.1349 17.0581 20.6165 17.3222C19.6287 17.8256 18.8255 18.6287 18.3222 19.6166C18.0581 20.1349 17.9072 20.7662 17.8293 21.7203C17.7506 22.6832 17.75 23.9075 17.75 25.6L17.75 38.4C17.75 40.0925 17.7506 41.3168 17.8293 42.2797C17.9072 43.2339 18.0581 43.8651 18.3222 44.3835C18.8255 45.3713 19.6287 46.1745 20.6165 46.6778C21.1349 46.9419 21.7662 47.0928 22.7203 47.1708C23.6832 47.2494 24.9075 47.25 26.6 47.25L39.4 47.25C41.0925 47.25 42.3168 47.2494 43.2797 47.1708C44.2338 47.0928 44.8651 46.9419 45.3834 46.6778C46.3713 46.1745 47.1744 45.3713 47.6778 44.3835C47.9419 43.8651 48.0928 43.2339 48.1707 42.2797C48.2494 41.3168 48.25 40.0925 48.25 38.4L48.25 25.6C48.25 23.9075 48.2494 22.6832 48.1707 21.7203C48.0928 20.7662 47.9419 20.1349 47.6778 19.6166C47.1744 18.6287 46.3713 17.8256 45.3834 17.3222C44.8651 17.0581 44.2338 16.9072 43.2797 16.8293C42.3168 16.7506 41.0925 16.75 39.4 16.75L26.6 16.75C24.9075 16.75 23.6832 16.7506 22.7203 16.8293Z" fill="#0F1C35"/>
<path d="M24 32H27L30 37L36 27L39 32H42" stroke="#40A7EA" stroke-width="1.5" stroke-linecap="round" stroke-linejoin="round"/>
<defs>
<linearGradient id="paint0_linear_236_143634" x1="0" y1="0" x2="64" y2="64" gradientUnits="userSpaceOnUse">
<stop stop-color="#677EAD"/>
<stop offset="0.265625" stop-color="#91A5CD"/>
<stop offset="0.71875" stop-color="#202E4B"/>
<stop offset="1" stop-color="#677EAD"/>
</linearGradient>
</defs>
</svg>
