<svg width="64" height="64" viewBox="0 0 64 64" fill="none" xmlns="http://www.w3.org/2000/svg">
<rect x="1" y="1" width="62" height="62" rx="8" fill="#E6F7FC" stroke="url(#paint0_linear_236_143626)" stroke-width="2"/>
<path fill-rule="evenodd" clip-rule="evenodd" d="M23.4 23.25L25.25 23.25H25.25L26 23.25C26.4142 23.25 26.75 23.5858 26.75 24.0001C26.75 24.4143 26.4142 24.75 26 24.75L25.25 24.75H25.25L23.4 24.75C22.2675 24.75 21.4633 24.7506 20.8339 24.802C20.2132 24.8527 19.829 24.9491 19.5245 25.1042C18.913 25.4158 18.4158 25.913 18.1042 26.5245C17.9491 26.829 17.8527 27.2133 17.802 27.8339C17.7506 28.4633 17.75 29.2675 17.75 30.4L17.75 38.6C17.75 39.7325 17.7506 40.5367 17.802 41.1661C17.8527 41.7867 17.9491 42.171 18.1042 42.4755C18.4158 43.087 18.913 43.5842 19.5245 43.8958C19.829 44.0509 20.2133 44.1473 20.8339 44.198C21.4633 44.2494 22.2675 44.25 23.4 44.25L40.6 44.25C41.7325 44.25 42.5367 44.2494 43.1661 44.198C43.7867 44.1473 44.171 44.0509 44.4755 43.8958C45.087 43.5842 45.5842 43.087 45.8958 42.4755C46.0509 42.171 46.1473 41.7867 46.198 41.1661C46.2494 40.5367 46.25 39.7325 46.25 38.6V30.4C46.25 29.2675 46.2494 28.4633 46.198 27.8339C46.1473 27.2133 46.0509 26.829 45.8958 26.5245C45.5842 25.913 45.087 25.4158 44.4755 25.1042C44.171 24.9491 43.7868 24.8527 43.1661 24.802C42.5367 24.7506 41.7325 24.75 40.6 24.75L38.75 24.75L38 24.75C37.5858 24.75 37.25 24.4143 37.25 24.0001C37.25 23.5858 37.5858 23.25 38 23.25L38.75 23.25L40.6 23.25L40.633 23.25C41.7252 23.25 42.5907 23.25 43.2883 23.307C44.0017 23.3653 44.6053 23.4869 45.1565 23.7677C46.0502 24.2231 46.7769 24.9498 47.2323 25.8436C47.5131 26.3947 47.6347 26.9984 47.693 27.7117C47.75 28.4094 47.75 29.2749 47.75 30.367V30.4V38.6V38.633C47.75 39.7252 47.75 40.5906 47.693 41.2883C47.6347 42.0017 47.5131 42.6053 47.2323 43.1565C46.7769 44.0502 46.0502 44.7769 45.1565 45.2323C44.6053 45.5131 44.0017 45.6347 43.2883 45.693C42.5906 45.75 41.7252 45.75 40.633 45.75H40.6L23.4 45.75H23.367C22.2748 45.75 21.4094 45.75 20.7117 45.693C19.9983 45.6347 19.3947 45.5131 18.8435 45.2323C17.9498 44.7769 17.2231 44.0502 16.7677 43.1565C16.4869 42.6053 16.3653 42.0017 16.307 41.2883C16.25 40.5906 16.25 39.7252 16.25 38.633L16.25 38.6L16.25 30.4L16.25 30.367C16.25 29.2749 16.25 28.4094 16.307 27.7117C16.3653 26.9984 16.4869 26.3947 16.7677 25.8436C17.2231 24.9498 17.9498 24.2231 18.8435 23.7677C19.3947 23.4869 19.9983 23.3653 20.7117 23.307C21.4093 23.25 22.2748 23.25 23.367 23.25L23.4 23.25Z" fill="#0F1C35"/>
<path d="M32.75 16C32.75 15.5858 32.4142 15.25 32 15.25C31.5858 15.25 31.25 15.5858 31.25 16L32.75 16ZM31.4697 38.5303C31.7626 38.8232 32.2374 38.8232 32.5303 38.5303L37.3033 33.7574C37.5962 33.4645 37.5962 32.9896 37.3033 32.6967C37.0104 32.4038 36.5355 32.4038 36.2426 32.6967L32 36.9393L27.7574 32.6967C27.4645 32.4038 26.9896 32.4038 26.6967 32.6967C26.4038 32.9896 26.4038 33.4645 26.6967 33.7574L31.4697 38.5303ZM31.25 16L31.25 38L32.75 38L32.75 16L31.25 16Z" fill="#40A7EA"/>
<defs>
<linearGradient id="paint0_linear_236_143626" x1="0" y1="0" x2="64" y2="64" gradientUnits="userSpaceOnUse">
<stop stop-color="#677EAD"/>
<stop offset="0.265625" stop-color="#91A5CD"/>
<stop offset="0.71875" stop-color="#202E4B"/>
<stop offset="1" stop-color="#677EAD"/>
</linearGradient>
</defs>
</svg>
