<svg width="64" height="64" viewBox="0 0 64 64" fill="none" xmlns="http://www.w3.org/2000/svg">
<rect x="1" y="1" width="62" height="62" rx="8" fill="#0F1C35" stroke="url(#paint0_linear_236_142707)" stroke-width="2"/>
<path d="M30.1235 31.5683L49.3886 31.5683M49.3886 31.5683L43.4609 25.6406M49.3886 31.5683L43.4609 37.496" stroke="#40A7EA" stroke-width="1.5" stroke-linecap="round" stroke-linejoin="round"/>
<path fill-rule="evenodd" clip-rule="evenodd" d="M26.117 16L26.15 16L31.1331 16L31.1661 16C32.2583 16 33.1238 16 33.8214 16.057C34.5348 16.1153 35.1384 16.2369 35.6896 16.5177C36.5834 16.9731 37.31 17.6998 37.7654 18.5935C38.0463 19.1447 38.1679 19.7483 38.2261 20.4617C38.2831 21.1594 38.2831 22.0248 38.2831 23.117V23.15V24.8999V25.6416C38.2831 26.0558 37.9473 26.3916 37.5331 26.3916C37.1189 26.3916 36.7831 26.0558 36.7831 25.6416V24.8999V23.15C36.7831 22.0175 36.7825 21.2133 36.7311 20.5839C36.6804 19.9633 36.584 19.579 36.4289 19.2745C36.1173 18.663 35.6201 18.1658 35.0086 17.8542C34.7041 17.6991 34.3199 17.6027 33.6993 17.552C33.0699 17.5006 32.2656 17.5 31.1331 17.5L26.15 17.5C25.0175 17.5 24.2133 17.5006 23.5839 17.552C22.9633 17.6027 22.579 17.6991 22.2745 17.8542C21.663 18.1658 21.1658 18.663 20.8542 19.2745C20.6991 19.579 20.6027 19.9633 20.552 20.5839C20.5006 21.2133 20.5 22.0175 20.5 23.15L20.5 39.9886C20.5 41.121 20.5006 41.9253 20.552 42.5547C20.6027 43.1753 20.6991 43.5595 20.8542 43.864C21.1658 44.4755 21.663 44.9727 22.2745 45.2843C22.579 45.4395 22.9633 45.5358 23.5839 45.5865C24.2133 45.638 25.0175 45.6386 26.15 45.6386H31.1331C32.2656 45.6386 33.0698 45.638 33.6992 45.5865C34.3198 45.5358 34.7041 45.4395 35.0086 45.2843C35.6201 44.9727 36.1173 44.4755 36.4289 43.864C36.584 43.5595 36.6804 43.1753 36.7311 42.5546C36.7825 41.9252 36.7831 41.121 36.7831 39.9885L36.783 38.2372V38.2371L36.7831 37.4969C36.7832 37.0827 37.119 36.7469 37.5332 36.747C37.9474 36.747 38.2832 37.0829 38.2831 37.4971L38.283 38.2372V38.2373L38.2831 39.9885V40.0215C38.2831 41.1137 38.2831 41.9791 38.2261 42.6768C38.1678 43.3902 38.0462 43.9938 37.7654 44.545C37.31 45.4388 36.5833 46.1654 35.6896 46.6208C35.1384 46.9017 34.5347 47.0233 33.8214 47.0816C33.1237 47.1386 32.2582 47.1386 31.166 47.1386H31.1331H26.15H26.1171C25.0249 47.1386 24.1594 47.1386 23.4617 47.0816C22.7483 47.0233 22.1447 46.9017 21.5935 46.6208C20.6998 46.1654 19.9731 45.4388 19.5177 44.545C19.2369 43.9938 19.1153 43.3902 19.057 42.6768C19 41.9792 19 41.1137 19 40.0215L19 39.9886L19 23.15L19 23.117C19 22.0249 19 21.1594 19.057 20.4617C19.1153 19.7483 19.2369 19.1447 19.5177 18.5935C19.9731 17.6998 20.6998 16.9731 21.5935 16.5177C22.1447 16.2369 22.7483 16.1153 23.4617 16.057C24.1594 16 25.0249 16 26.117 16Z" fill="white"/>
<defs>
<linearGradient id="paint0_linear_236_142707" x1="0" y1="0" x2="64" y2="64" gradientUnits="userSpaceOnUse">
<stop stop-color="#677EAD"/>
<stop offset="0.265625" stop-color="#91A5CD"/>
<stop offset="0.71875" stop-color="#202E4B"/>
<stop offset="1" stop-color="#677EAD"/>
</linearGradient>
</defs>
</svg>
