<svg width="84" height="13" viewBox="0 0 84 13" fill="none" xmlns="http://www.w3.org/2000/svg">
<path d="M8.42918 0C10.8004 0 12.4798 1.36111 12.4798 3.48016C12.5087 3.90272 12.4309 4.32576 12.2536 4.71099C12.0762 5.09623 11.8049 5.43151 11.4642 5.68651C12.6638 6.30159 13.3835 7.35714 13.3835 8.95635C13.3835 11.1905 11.5561 13 9.06897 13H0V0H8.42918ZM2.971 5.00794H8.53715C8.83779 4.99055 9.11917 4.85536 9.31939 4.63211C9.5196 4.40886 9.62226 4.11582 9.60479 3.81746C9.60479 3.25397 9.29689 2.62699 8.30123 2.62699H2.971V5.00794ZM2.971 10.3413H8.969C9.91669 10.3413 10.4845 9.75397 10.4845 8.95635C10.493 8.76797 10.4611 8.57995 10.3909 8.4047C10.3207 8.22946 10.2139 8.07098 10.0775 7.93972C9.94108 7.80846 9.77815 7.70741 9.59948 7.64324C9.42081 7.57907 9.23045 7.55324 9.04097 7.56746H2.971V10.3413Z" fill="white"/>
<path d="M27.2392 0V2.65476H18.3102V5.03571H26.3395V7.69444H18.3102V10.2817H27.5711V12.9841H15.3672V0H27.2392Z" fill="white"/>
<path d="M37.5001 0C40.5791 0 42.9023 2.04365 42.9023 5.09921C42.9314 5.98364 42.7091 6.85833 42.2608 7.62325C41.8124 8.38817 41.1562 9.01242 40.3672 9.4246L42.3665 12.996H39.1436L37.6041 10.1032H32.7257V12.996H29.7627V0H37.5001ZM32.7377 7.42857H37.3802C38.8957 7.42857 39.9393 6.60714 39.9393 5.09921C39.9393 3.59127 38.8957 2.67857 37.3802 2.67857H32.7377V7.42857Z" fill="white"/>
<path d="M47.8047 0V13H44.8457V0H47.8047Z" fill="white"/>
<path d="M58.605 0C60.9762 0 62.6556 1.36111 62.6556 3.48016C62.6845 3.90272 62.6067 4.32576 62.4294 4.71099C62.252 5.09623 61.9807 5.43151 61.6399 5.68651C62.8395 6.30159 63.5593 7.35714 63.5593 8.95635C63.5593 11.1905 61.7319 13 59.2448 13H50.1758V0H58.605ZM53.1348 5.00794H58.7009C59.0016 4.99055 59.283 4.85536 59.4832 4.63211C59.6834 4.40886 59.7861 4.11582 59.7686 3.81746C59.7686 3.25397 59.4607 2.62699 58.465 2.62699H53.1348V5.00794ZM53.1348 10.3413H59.1528C60.1005 10.3413 60.6683 9.75397 60.6683 8.95635C60.6767 8.76797 60.6448 8.57995 60.5747 8.4047C60.5045 8.22946 60.3977 8.07098 60.2613 7.93972C60.1249 7.80846 59.9619 7.70741 59.7833 7.64324C59.6046 7.57907 59.4142 7.55324 59.2248 7.56746H53.1348V10.3413Z" fill="white"/>
<path d="M68.4844 0V13H65.5254V0H68.4844Z" fill="white"/>
<path d="M83.9993 0V2.63095H78.6691V13H75.7101V2.63095H70.3799V0H83.9993Z" fill="white"/>
</svg>
