<svg width="200" height="47" fill="none" xmlns="http://www.w3.org/2000/svg"><path d="M68.912 25.767a11.504 11.504 0 00-3.437-7.433 11.908 11.908 0 00-6.544-3.274 12.007 12.007 0 00-7.247 1.152 6.703 6.703 0 00-2.153-4.483 6.917 6.917 0 00-4.685-1.824.32.32 0 00-.225.092.31.31 0 00-.093.22v12.255l-1.7 1.678-.306.3-2.151 2.113-3.578 3.52a5.108 5.108 0 01-3.348 1.492 5.126 5.126 0 01-3.493-1.125 4.971 4.971 0 01-1.803-3.151 4.927 4.927 0 01.834-3.523 5.13 5.13 0 01.618-.739c.08-.078.164-.152.248-.221a5.121 5.121 0 013.507-1.236 5.11 5.11 0 013.42 1.457l-2.09-2.052a8.097 8.097 0 00-5.952-2.307 8.08 8.08 0 00-5.392 2.307 7.825 7.825 0 00-2.31 4.782 11.547 11.547 0 003.437 9.038 11.937 11.937 0 008.368 3.41c3.139 0 6.149-1.227 8.369-3.41l.07-.07 3.685-3.63 2.156-2.117.304-.3 2.147-2.112 3.583-3.526a5.108 5.108 0 013.348-1.491 5.125 5.125 0 013.492 1.125 4.971 4.971 0 011.803 3.151 4.928 4.928 0 01-.833 3.523 5.19 5.19 0 01-.623.739l-.243.226a5.126 5.126 0 01-3.509 1.231 5.115 5.115 0 01-3.418-1.457l2.05 2.056a8.106 8.106 0 005.954 2.306 8.09 8.09 0 005.395-2.306 7.773 7.773 0 002.305-4.782c.054-.533.067-1.069.04-1.604z" fill="url(#paint0_linear_621_569)"/><path d="M66.584 32.153a8.08 8.08 0 01-5.384 2.312 8.098 8.098 0 01-5.95-2.295l-2.09-2.052-2.88-2.838-9.074-8.942a11.896 11.896 0 00-6.147-3.207 12.01 12.01 0 00-6.915.747 6.712 6.712 0 00-2.25-4.26 6.92 6.92 0 00-4.558-1.709.32.32 0 00-.225.092.31.31 0 00-.093.221v15.902c0-.135 0-.279.022-.435a7.823 7.823 0 012.297-4.712 8.08 8.08 0 015.394-2.31 8.097 8.097 0 015.955 2.31l2.09 2.052 8.207 8.063 3.746 3.687a11.846 11.846 0 003.84 2.526 11.997 11.997 0 009.058 0 11.844 11.844 0 003.84-2.526 11.504 11.504 0 003.445-7.408 7.775 7.775 0 01-2.328 4.782z" fill="url(#paint1_linear_621_569)"/><path d="M88.636 16.838c2.62 0 4.475 1.491 4.475 3.813a2.75 2.75 0 01-.25 1.348c-.196.422-.496.79-.872 1.069 1.325.673 2.12 1.83 2.12 3.581 0 2.448-2.018 4.43-4.766 4.43H79.324V16.84h9.312zm-6.03 5.486h6.15c.332-.019.642-.167.864-.412.22-.244.334-.565.315-.892 0-.617-.34-1.304-1.44-1.304h-5.889v2.608zm0 5.843h6.626c1.047 0 1.675-.644 1.675-1.518a1.439 1.439 0 00-.45-1.113 1.488 1.488 0 00-1.145-.408h-6.706v3.039zm26.81-11.329v2.908h-9.864v2.609h8.87v2.912h-8.87v2.834h10.23v2.96H96.3V16.839h13.116zm11.335 0c3.401 0 5.968 2.239 5.968 5.586a5.095 5.095 0 01-.709 2.765 5.209 5.209 0 01-2.092 1.973l2.209 3.913h-3.56l-1.701-3.17h-5.389v3.17h-3.274V16.838h8.548zm-5.261 8.138h5.128c1.675 0 2.828-.9 2.828-2.552 0-1.652-1.153-2.651-2.828-2.651h-5.128v5.203zm16.645-8.138V31.08h-3.269V16.84h3.269zm11.931 0c2.62 0 4.475 1.491 4.475 3.813a2.75 2.75 0 01-.25 1.348c-.196.422-.495.79-.872 1.069 1.325.673 2.12 1.83 2.12 3.581 0 2.448-2.018 4.43-4.766 4.43h-10.019V16.84h9.312zm-6.043 5.486h6.149a1.26 1.26 0 00.864-.412c.222-.244.335-.565.316-.892 0-.617-.34-1.304-1.44-1.304h-5.889v2.608zm0 5.843h6.648c1.047 0 1.675-.644 1.675-1.518a1.448 1.448 0 00-.45-1.114 1.494 1.494 0 00-1.145-.407h-6.728v3.039zm16.959-11.329V31.08h-3.269V16.84h3.269zm17.14 0v2.882h-5.889v11.36h-3.269V19.72h-5.888v-2.882h15.046z" fill="#304B57"/><defs><linearGradient id="paint0_linear_621_569" x1="12.002" y1="14.53" x2="80.886" y2="40.215" gradientUnits="userSpaceOnUse"><stop stop-color="#A7FAFA"/><stop offset=".2" stop-color="#83C4C8"/><stop offset=".48" stop-color="#527C85"/><stop offset=".72" stop-color="#2E4855"/><stop offset=".9" stop-color="#182736"/><stop offset="1" stop-color="#101B2B"/></linearGradient><linearGradient id="paint1_linear_621_569" x1="8781.79" y1="3096.41" x2="4874.77" y2="-854.887" gradientUnits="userSpaceOnUse"><stop stop-color="#213A5C"/><stop offset=".13" stop-color="#27496E"/><stop offset=".53" stop-color="#3874A2"/><stop offset=".83" stop-color="#438FC3"/><stop offset="1" stop-color="#4799CF"/></linearGradient></defs></svg>