<svg width="107" height="17" viewBox="0 0 107 17" fill="none" xmlns="http://www.w3.org/2000/svg">
<path d="M0.5 0.409999H11.18C12.7 0.409999 13.93 0.819999 14.87 1.64C15.83 2.44 16.31 3.51 16.31 4.85C16.31 6.13 15.88 7.07 15.02 7.67C16.64 8.49 17.45 9.88 17.45 11.84C17.45 13.28 16.93 14.5 15.89 15.5C14.85 16.5 13.55 17 11.99 17H0.5V0.409999ZM4.25 3.77V6.8H11.3C11.7 6.8 12.02 6.65 12.26 6.35C12.52 6.05 12.65 5.7 12.65 5.3C12.65 4.88 12.52 4.52 12.26 4.22C12 3.92 11.58 3.77 11 3.77H4.25ZM4.25 10.07V13.61H11.87C12.45 13.61 12.91 13.45 13.25 13.13C13.61 12.79 13.79 12.36 13.79 11.84C13.79 11.3 13.62 10.87 13.28 10.55C12.94 10.23 12.5 10.07 11.96 10.07H4.25ZM19.9531 0.409999H35.0131V3.8H23.7031V6.86H33.8731V10.25H23.7031V13.55H35.4331V17H19.9531V0.409999ZM38.2344 0.409999H48.0144C49.9944 0.409999 51.6244 1.02 52.9044 2.24C54.2044 3.44 54.8544 5 54.8544 6.92C54.8544 9.44 53.7844 11.28 51.6444 12.44L54.1944 17H50.1144L48.1644 13.31H41.9844V17H38.2344V0.409999ZM41.9844 3.83V9.89H47.8644C48.8444 9.89 49.6244 9.63 50.2044 9.11C50.8044 8.59 51.1044 7.86 51.1044 6.92C51.1044 5.98 50.8044 5.23 50.2044 4.67C49.6244 4.11 48.8444 3.83 47.8644 3.83H41.9844ZM57.3066 0.409999H61.0566V17H57.3066V0.409999ZM64.0449 0.409999H74.7249C76.2449 0.409999 77.4749 0.819999 78.4149 1.64C79.3749 2.44 79.8549 3.51 79.8549 4.85C79.8549 6.13 79.4249 7.07 78.5649 7.67C80.1849 8.49 80.9949 9.88 80.9949 11.84C80.9949 13.28 80.4749 14.5 79.4349 15.5C78.3949 16.5 77.0949 17 75.5349 17H64.0449V0.409999ZM67.7949 3.77V6.8H74.8449C75.2449 6.8 75.5649 6.65 75.8049 6.35C76.0649 6.05 76.1949 5.7 76.1949 5.3C76.1949 4.88 76.0649 4.52 75.8049 4.22C75.5449 3.92 75.1249 3.77 74.5449 3.77H67.7949ZM67.7949 10.07V13.61H75.4149C75.9949 13.61 76.4549 13.45 76.7949 13.13C77.1549 12.79 77.3349 12.36 77.3349 11.84C77.3349 11.3 77.1649 10.87 76.8249 10.55C76.4849 10.23 76.0449 10.07 75.5049 10.07H67.7949ZM83.498 0.409999H87.248V17H83.498V0.409999ZM89.6363 0.409999H106.886V3.77H100.136V17H96.3863V3.77H89.6363V0.409999Z" fill="white"/>
</svg>
