<svg width="72" height="20" viewBox="0 0 72 20" fill="none" xmlns="http://www.w3.org/2000/svg">
<path fill-rule="evenodd" clip-rule="evenodd" d="M6.65809 0.803081C7.30133 0.799319 9.21301 0.630999 10.0228 3.30271C10.5682 5.1024 11.4371 8.05038 12.6294 12.1466H13.115C14.3936 7.82807 15.272 4.88009 15.75 3.30271C16.5682 0.603168 18.6137 0.803134 19.4319 0.803134L25.7444 0.803142V19.9998H19.3105V8.68689H18.8791L15.2925 19.9998H10.4518L6.86529 8.67851H6.43386V19.9998H0V0.803142L6.65809 0.803081ZM34.9832 0.803142V12.1245H35.4965L39.8592 2.81502C40.7061 0.962416 42.5111 0.803142 42.5111 0.803142H48.7371V19.9998H42.1689V8.67851H41.6556L37.3785 17.988C36.5316 19.8322 34.6411 19.9998 34.6411 19.9998H28.415V0.803142H34.9832ZM71.4398 9.92554C70.5237 12.4637 67.6464 14.2814 64.4609 14.2814H57.5729V19.9998H51.3269V9.92554H71.4398Z" fill="#0F1C35"/>
<path fill-rule="evenodd" clip-rule="evenodd" d="M64.7619 0.802734H50.999C51.3266 5.07657 55.0914 8.73526 58.9888 8.73526H71.8736C72.6171 5.18319 70.0574 0.802734 64.7619 0.802734Z" fill="url(#paint0_linear_236_143836)"/>
<defs>
<linearGradient id="paint0_linear_236_143836" x1="71.9999" y1="5.79263" x2="50.999" y2="5.79263" gradientUnits="userSpaceOnUse">
<stop stop-color="#1F5CD7"/>
<stop offset="1" stop-color="#02AEFF"/>
</linearGradient>
</defs>
</svg>
