<svg width="33" height="33" viewBox="0 0 33 33" fill="none" xmlns="http://www.w3.org/2000/svg">
<path d="M7.42578 26.3998C8.05989 25.6896 11.0297 22.4215 11.9 22.4215H21.1021C22.3632 22.4215 24.9377 25.1305 25.5758 26.0855M29.7008 16.4998C29.7008 23.79 23.7909 29.6998 16.5008 29.6998C9.21062 29.6998 3.30078 23.79 3.30078 16.4998C3.30078 9.20965 9.21062 3.2998 16.5008 3.2998C23.7909 3.2998 29.7008 9.20965 29.7008 16.4998ZM21.2292 12.0007C21.2292 9.48242 19.1032 7.4248 16.5012 7.4248C13.8992 7.4248 11.7732 9.48242 11.7732 12.0007C11.7732 14.5191 13.8992 16.5767 16.5012 16.5767C19.1032 16.5767 21.2292 14.5191 21.2292 12.0007Z" stroke="#0C1B32" stroke-width="1.5"/>
</svg>
