<svg width="40" height="40" viewBox="0 0 40 40" fill="none" xmlns="http://www.w3.org/2000/svg">
<circle cx="20" cy="20" r="19" stroke="#061429" stroke-width="2"/>
<path d="M14.552 10.616C14.4987 10.4667 14.4347 10.3707 14.36 10.328C14.2853 10.2853 14.1467 10.264 13.944 10.264H13.464V9.32H15.368L17.576 15.816L19.816 9.32H21.72V10.264H21.208C21.0053 10.264 20.8667 10.2853 20.792 10.328C20.7173 10.3707 20.6533 10.4667 20.6 10.616L18.312 17H16.856L14.552 10.616ZM25.7806 17.24C25.0233 17.24 24.3406 17.0853 23.7326 16.776C23.1246 16.456 22.6446 15.9973 22.2926 15.4C21.9406 14.792 21.7646 14.0613 21.7646 13.208C21.7646 11.8853 22.1113 10.8667 22.8046 10.152C23.5086 9.43733 24.474 9.08 25.7006 9.08C26.3726 9.08 26.9326 9.15467 27.3806 9.304C27.8393 9.44267 28.2766 9.66133 28.6926 9.96V11.352H27.5246V10.472C27.258 10.3227 26.9913 10.216 26.7246 10.152C26.4686 10.0773 26.1273 10.04 25.7006 10.04C24.9113 10.04 24.2606 10.3013 23.7486 10.824C23.2473 11.336 22.9966 12.1307 22.9966 13.208C22.9966 14.2427 23.274 15.016 23.8286 15.528C24.394 16.0293 25.0873 16.28 25.9086 16.28C26.41 16.28 26.8313 16.2373 27.1726 16.152C27.5246 16.056 27.8713 15.9013 28.2126 15.688L28.7086 16.488C28.282 16.7653 27.8446 16.9573 27.3966 17.064C26.9486 17.1813 26.41 17.24 25.7806 17.24ZM13.592 28.056H14.104C14.3067 28.056 14.4507 28.0133 14.536 27.928C14.6213 27.832 14.664 27.6773 14.664 27.464V22.84C14.664 22.6267 14.6213 22.4773 14.536 22.392C14.4613 22.3067 14.3227 22.264 14.12 22.264H13.592V21.32H15.56L15.816 22.248C16.0293 21.896 16.3013 21.656 16.632 21.528C16.9733 21.3893 17.4 21.32 17.912 21.32H18.552V22.264H17.848C17.1653 22.264 16.6747 22.4187 16.376 22.728C16.088 23.0267 15.944 23.496 15.944 24.136V27.464C15.944 27.6773 15.9867 27.832 16.072 27.928C16.1573 28.0133 16.3013 28.056 16.504 28.056H17.016V29H13.592V28.056ZM22.7534 29.24C21.9 29.24 21.2494 29.0107 20.8014 28.552C20.364 28.0933 20.1454 27.4427 20.1454 26.6V22.84C20.1454 22.6373 20.1027 22.4933 20.0174 22.408C19.932 22.312 19.788 22.264 19.5854 22.264H19.0734V21.32H21.4414V26.584C21.4414 27.1707 21.5747 27.6027 21.8414 27.88C22.1187 28.1467 22.556 28.28 23.1534 28.28C23.7827 28.28 24.2947 28.104 24.6894 27.752C25.084 27.3893 25.2814 26.8667 25.2814 26.184V22.84C25.2814 22.6267 25.2387 22.4773 25.1534 22.392C25.0787 22.3067 24.94 22.264 24.7374 22.264H24.2094V21.32H26.5614V27.48C26.5614 27.6827 26.604 27.832 26.6894 27.928C26.7854 28.0133 26.9347 28.056 27.1374 28.056H27.6334V29H25.6654L25.5694 27.944C25.2174 28.392 24.8227 28.7227 24.3854 28.936C23.948 29.1387 23.404 29.24 22.7534 29.24Z" fill="#061429"/>
<path d="M11.032 29.16C10.7547 29.16 10.5147 29.064 10.312 28.872C10.1093 28.68 10.008 28.4347 10.008 28.136C10.008 27.8053 10.1253 27.528 10.36 27.304C10.6053 27.08 10.888 26.968 11.208 26.968C11.5387 26.968 11.7893 27.0693 11.96 27.272C12.1413 27.464 12.232 27.704 12.232 27.992C12.232 28.344 12.1147 28.6267 11.88 28.84C11.6453 29.0533 11.3627 29.16 11.032 29.16Z" fill="#061429"/>
</svg>
