<svg width="63" height="21" viewBox="0 0 63 21" fill="none" xmlns="http://www.w3.org/2000/svg">
<path d="M5.09238 0.968618L9.69225 15.428H9.86881L14.478 0.968618H18.9385L12.3778 20H7.19252L0.622609 0.968618H5.09238ZM25.2528 0.968618V20H21.2291V0.968618H25.2528ZM38.8875 6.442C38.8131 5.69239 38.4941 5.11005 37.9303 4.69498C37.3666 4.2799 36.6015 4.07237 35.6351 4.07237C34.9784 4.07237 34.4239 4.16529 33.9717 4.35115C33.5194 4.53081 33.1725 4.78171 32.9309 5.10385C32.6955 5.426 32.5778 5.79151 32.5778 6.20039C32.5654 6.54112 32.6366 6.83849 32.7915 7.09249C32.9526 7.34649 33.1725 7.56641 33.4513 7.75226C33.7301 7.93192 34.0522 8.0899 34.4177 8.22619C34.7832 8.35629 35.1735 8.4678 35.5886 8.56073L37.2984 8.9696C38.1286 9.15546 38.8906 9.40326 39.5844 9.71302C40.2783 10.0228 40.8792 10.4038 41.3872 10.856C41.8952 11.3083 42.2886 11.841 42.5674 12.4544C42.8524 13.0677 42.9979 13.7708 43.0041 14.5638C42.9979 15.7285 42.7006 16.7383 42.112 17.5932C41.5297 18.4419 40.6872 19.1017 39.5844 19.5725C38.4879 20.0372 37.1652 20.2695 35.6165 20.2695C34.0801 20.2695 32.7419 20.0341 31.602 19.5632C30.4683 19.0924 29.5824 18.3955 28.9443 17.4724C28.3124 16.5431 27.981 15.3939 27.95 14.0248H31.8436C31.887 14.6629 32.0698 15.1957 32.3919 15.6232C32.7203 16.0444 33.157 16.3635 33.7022 16.5803C34.2535 16.7909 34.8762 16.8962 35.57 16.8962C36.2515 16.8962 36.8431 16.7971 37.3449 16.5989C37.8529 16.4006 38.2463 16.125 38.5251 15.7718C38.8039 15.4187 38.9432 15.0129 38.9432 14.5545C38.9432 14.127 38.8162 13.7677 38.5622 13.4765C38.3144 13.1854 37.9489 12.9376 37.4657 12.7331C36.9887 12.5287 36.4032 12.3428 35.7094 12.1756L33.6371 11.6552C32.0326 11.2649 30.7657 10.6547 29.8364 9.82453C28.9072 8.99438 28.4456 7.87617 28.4518 6.46988C28.4456 5.31759 28.7523 4.31088 29.3718 3.44976C29.9975 2.58864 30.8555 1.91647 31.9459 1.43325C33.0362 0.950032 34.2752 0.708423 35.6629 0.708423C37.0754 0.708423 38.3082 0.950032 39.3614 1.43325C40.4208 1.91647 41.2447 2.58864 41.8333 3.44976C42.4218 4.31088 42.7254 5.30829 42.7439 6.442H38.8875ZM48.5565 20H44.2447L50.8146 0.968618H55.9999L62.5606 20H58.2488L53.4816 5.31759H53.3329L48.5565 20ZM48.287 12.5194H58.4718V15.6603H48.287V12.5194Z" fill="#0F1C35"/>
</svg>
