<svg width="40" height="40" viewBox="0 0 40 40" fill="none" xmlns="http://www.w3.org/2000/svg">
<path fill-rule="evenodd" clip-rule="evenodd" d="M28.5949 12.46C29.5421 12.7135 30.2865 13.4579 30.54 14.405C30.9982 16.12 31 19.7004 31 19.7004C31 19.7004 31 23.2807 30.54 24.9957C30.2865 25.9429 29.5421 26.6872 28.5949 26.9407C26.88 27.4007 20 27.4007 20 27.4007C20 27.4007 13.12 27.4007 11.405 26.9407C10.4579 26.6872 9.71353 25.9429 9.45999 24.9957C9 23.2807 9 19.7004 9 19.7004C9 19.7004 9 16.12 9.45999 14.405C9.71353 13.4579 10.4579 12.7135 11.405 12.46C13.12 12 20 12 20 12C20 12 26.88 12 28.5949 12.46ZM23.5134 19.7007L17.7979 23.0003V16.401L23.5134 19.7007Z" stroke="white" stroke-linejoin="round"/>
<circle cx="20" cy="20" r="19" stroke="white" stroke-width="2"/>
</svg>
