<svg width="32" height="32" viewBox="0 0 32 32" fill="none" xmlns="http://www.w3.org/2000/svg">
<path d="M5.33398 8.00004C5.33398 7.2928 5.61494 6.61452 6.11503 6.11442C6.61513 5.61433 7.29341 5.33337 8.00065 5.33337H21.334C21.6876 5.33337 22.0267 5.47385 22.2768 5.7239C22.5268 5.97395 22.6673 6.31309 22.6673 6.66671V10.6667H25.334V16V12C25.334 11.6464 25.1935 11.3073 24.9435 11.0572C24.6934 10.8072 24.3543 10.6667 24.0007 10.6667H8.00065C7.29341 10.6667 6.61513 10.3858 6.11503 9.88566C5.61494 9.38556 5.33398 8.70728 5.33398 8.00004ZM5.33398 8.00004V24C5.33398 24.7073 5.61494 25.3856 6.11503 25.8857C6.61513 26.3858 7.29341 26.6667 8.00065 26.6667H24.0007C24.3543 26.6667 24.6934 26.5262 24.9435 26.2762C25.1935 26.0261 25.334 25.687 25.334 25.3334V21.3334" stroke="#40A7EA" stroke-width="2" stroke-linecap="round" stroke-linejoin="round"/>
<path d="M26.666 16V21.3333H21.3327C20.6254 21.3333 19.9472 21.0524 19.4471 20.5523C18.947 20.0522 18.666 19.3739 18.666 18.6667C18.666 17.9594 18.947 17.2811 19.4471 16.781C19.9472 16.281 20.6254 16 21.3327 16H26.666Z" stroke="#40A7EA" stroke-width="2" stroke-linecap="round" stroke-linejoin="round"/>
</svg>
