<svg width="22" height="20" viewBox="0 0 22 20" fill="none" xmlns="http://www.w3.org/2000/svg">
<path d="M11.2378 0.54078L13.3441 7.02356C13.4446 7.33258 13.7325 7.5418 14.0574 7.5418H20.8738C21.116 7.5418 21.2167 7.8517 21.0208 7.99405L15.5062 12.0006C15.2433 12.1916 15.1333 12.5301 15.2337 12.8392L17.3401 19.3219C17.415 19.5523 17.1513 19.7438 16.9554 19.6014L11.4408 15.5949C11.178 15.4039 10.822 15.4039 10.5592 15.5949L5.04458 19.6014C4.84865 19.7438 4.58503 19.5523 4.65987 19.3219L6.76625 12.8392C6.86666 12.5301 6.75666 12.1916 6.4938 12.0006L0.979218 7.99405C0.783289 7.8517 0.883984 7.5418 1.12616 7.5418H7.94256C8.26748 7.5418 8.55545 7.33257 8.65585 7.02356L10.7622 0.54078C10.8371 0.310452 11.1629 0.310453 11.2378 0.54078Z" fill="#F4F9F8" stroke="#AFB6BA" stroke-width="0.5"/>
</svg>
