<svg width="14" height="13" viewBox="0 0 14 13" fill="none" xmlns="http://www.w3.org/2000/svg">
<path d="M6.76224 0.540778C6.83707 0.310452 7.16293 0.31045 7.23776 0.540779L8.44609 4.25963C8.5465 4.56864 8.83446 4.77786 9.15938 4.77786H13.0696C13.3118 4.77786 13.4125 5.08777 13.2166 5.23012L10.0531 7.52849C9.79025 7.71948 9.68026 8.058 9.78066 8.36702L10.989 12.0859C11.0638 12.3162 10.8002 12.5077 10.6043 12.3654L7.44084 10.067C7.17797 9.87602 6.82203 9.87602 6.55916 10.067L3.39572 12.3654C3.19979 12.5077 2.93617 12.3162 3.01101 12.0859L4.21934 8.36702C4.31974 8.058 4.20975 7.71947 3.94688 7.52849L0.783442 5.23012C0.587515 5.08777 0.688207 4.77786 0.93039 4.77786H4.84062C5.16554 4.77786 5.4535 4.56864 5.55391 4.25963L6.76224 0.540778Z" fill="#213151" stroke="#AFB6BA" stroke-width="0.5"/>
</svg>
