<svg width="32" height="32" viewBox="0 0 32 32" fill="none" xmlns="http://www.w3.org/2000/svg">
<path d="M15.7622 5.54078C15.8371 5.31045 16.1629 5.31045 16.2378 5.54078L18.3441 12.0236C18.4446 12.3326 18.7325 12.5418 19.0574 12.5418H25.8738C26.116 12.5418 26.2167 12.8517 26.0208 12.9941L20.5062 17.0006C20.2433 17.1916 20.1333 17.5301 20.2337 17.8392L22.3401 24.3219C22.415 24.5523 22.1513 24.7438 21.9554 24.6014L16.4408 20.5949C16.178 20.4039 15.822 20.4039 15.5592 20.5949L10.0446 24.6014C9.84865 24.7438 9.58503 24.5523 9.65987 24.3219L11.7663 17.8392C11.8667 17.5301 11.7567 17.1916 11.4938 17.0006L5.97922 12.9941C5.78329 12.8517 5.88398 12.5418 6.12616 12.5418H12.9426C13.2675 12.5418 13.5554 12.3326 13.6559 12.0236L15.7622 5.54078Z" fill="#213151" stroke="#AFB6BA" stroke-width="0.5"/>
</svg>
