<svg width="11" height="15" viewBox="0 0 11 15" fill="none" xmlns="http://www.w3.org/2000/svg">
<path d="M9.625 5.75H9.16667V4C9.16667 2.06975 7.52217 0.5 5.5 0.5C3.47783 0.5 1.83333 2.06975 1.83333 4V5.75H1.375C0.617222 5.75 0 6.33858 0 7.0625V13.1875C0 13.9114 0.617222 14.5 1.375 14.5H9.625C10.3828 14.5 11 13.9114 11 13.1875V7.0625C11 6.33858 10.3828 5.75 9.625 5.75ZM3.05556 4C3.05556 2.71317 4.15189 1.66667 5.5 1.66667C6.84811 1.66667 7.94445 2.71317 7.94445 4V5.75H3.05556V4ZM6.11111 10.2545V11.5833C6.11111 11.9053 5.83794 12.1667 5.5 12.1667C5.16206 12.1667 4.88889 11.9053 4.88889 11.5833V10.2545C4.52528 10.0521 4.27778 9.67992 4.27778 9.25C4.27778 8.60658 4.82594 8.08333 5.5 8.08333C6.17406 8.08333 6.72222 8.60658 6.72222 9.25C6.72222 9.67992 6.47472 10.0521 6.11111 10.2545Z" fill="#BAE7F7"/>
</svg>
