<svg width="16" height="16" viewBox="0 0 16 16" fill="none" xmlns="http://www.w3.org/2000/svg">
<g clip-path="url(#clip0_4726_36517)">
<path d="M12.6667 3.33301H3.33333C2.59695 3.33301 2 3.92996 2 4.66634V11.333C2 12.0694 2.59695 12.6663 3.33333 12.6663H12.6667C13.403 12.6663 14 12.0694 14 11.333V4.66634C14 3.92996 13.403 3.33301 12.6667 3.33301Z" stroke="#F3BE00" stroke-linecap="round" stroke-linejoin="round"/>
<path d="M4.66602 10V7.33333C4.66602 6.97971 4.80649 6.64057 5.05654 6.39052C5.30659 6.14048 5.64573 6 5.99935 6C6.35297 6 6.69211 6.14048 6.94216 6.39052C7.19221 6.64057 7.33268 6.97971 7.33268 7.33333V10" stroke="#F3BE00" stroke-linecap="round" stroke-linejoin="round"/>
<path d="M4.66602 8.66699H7.33268" stroke="#F3BE00" stroke-linecap="round" stroke-linejoin="round"/>
<path d="M11.334 6V10H10.334C10.1362 10 9.94286 9.94135 9.77841 9.83147C9.61397 9.72159 9.48579 9.56541 9.41011 9.38268C9.33442 9.19996 9.31461 8.99889 9.3532 8.80491C9.39178 8.61093 9.48703 8.43275 9.62688 8.29289C9.76673 8.15304 9.94491 8.0578 10.1389 8.01921C10.3329 7.98063 10.5339 8.00043 10.7167 8.07612C10.8994 8.15181 11.0556 8.27998 11.1655 8.44443C11.2753 8.60888 11.334 8.80222 11.334 9" stroke="#F3BE00" stroke-linecap="round" stroke-linejoin="round"/>
</g>
<defs>
<clipPath id="clip0_4726_36517">
<rect width="16" height="16" fill="white"/>
</clipPath>
</defs>
</svg>
