<svg width="9" height="9" viewBox="0 0 9 9" fill="none" xmlns="http://www.w3.org/2000/svg">
<path d="M3.33331 3.33333V2.24452C3.33331 1.80892 3.33331 1.59096 3.41808 1.42459C3.49264 1.27824 3.61154 1.15934 3.75789 1.08477C3.92426 1 4.14222 1 4.57781 1H6.75556C7.19115 1 7.40884 1 7.57521 1.08477C7.72156 1.15934 7.84066 1.27824 7.91523 1.42459C8 1.59096 8 1.80876 8 2.24436V4.42215C8 4.85774 8 5.07554 7.91523 5.24192C7.84066 5.38826 7.72144 5.50741 7.5751 5.58198C7.40888 5.66667 7.19143 5.66667 6.75669 5.66667H5.66661M3.33331 3.33333H2.24451C1.80891 3.33333 1.59096 3.33333 1.42458 3.41811C1.27824 3.49267 1.15934 3.61157 1.08477 3.75792C1 3.9243 1 4.14226 1 4.57785V6.75563C1 7.19123 1 7.40891 1.08477 7.57529C1.15934 7.72164 1.27824 7.84074 1.42458 7.91531C1.59079 8 1.80849 8 2.24323 8H4.42356C4.8583 8 5.07569 8 5.2419 7.91531C5.38825 7.84074 5.50736 7.72152 5.58192 7.57517C5.66661 7.40896 5.66661 7.1915 5.66661 6.75676V5.66667M3.33331 3.33333H4.42226C4.85785 3.33333 5.07553 3.33333 5.2419 3.41811C5.38825 3.49267 5.50736 3.61157 5.58192 3.75792C5.66661 3.92414 5.66661 4.14183 5.66661 4.57659L5.66661 5.66667" stroke="white" stroke-linecap="round" stroke-linejoin="round"/>
</svg>
