<svg width="24" height="24" viewBox="0 0 24 24" fill="none" xmlns="http://www.w3.org/2000/svg">
<g clip-path="url(#clip0_4027_57617)">
<path d="M19 5H5C3.89543 5 3 5.89543 3 7V17C3 18.1046 3.89543 19 5 19H19C20.1046 19 21 18.1046 21 17V7C21 5.89543 20.1046 5 19 5Z" stroke="white" stroke-width="1.5" stroke-linecap="round" stroke-linejoin="round"/>
<path d="M7 15V11C7 10.4696 7.21071 9.96086 7.58579 9.58579C7.96086 9.21071 8.46957 9 9 9C9.53043 9 10.0391 9.21071 10.4142 9.58579C10.7893 9.96086 11 10.4696 11 11V15" stroke="white" stroke-width="1.5" stroke-linecap="round" stroke-linejoin="round"/>
<path d="M7 13H11" stroke="white" stroke-width="1.5" stroke-linecap="round" stroke-linejoin="round"/>
<path d="M17 9V15H15.5C15.2033 15 14.9133 14.912 14.6666 14.7472C14.42 14.5824 14.2277 14.3481 14.1142 14.074C14.0006 13.7999 13.9709 13.4983 14.0288 13.2074C14.0867 12.9164 14.2296 12.6491 14.4393 12.4393C14.6491 12.2296 14.9164 12.0867 15.2074 12.0288C15.4983 11.9709 15.7999 12.0006 16.074 12.1142C16.3481 12.2277 16.5824 12.42 16.7472 12.6666C16.912 12.9133 17 13.2033 17 13.5" stroke="white" stroke-width="1.5" stroke-linecap="round" stroke-linejoin="round"/>
</g>
<defs>
<clipPath id="clip0_4027_57617">
<rect width="24" height="24" fill="white"/>
</clipPath>
</defs>
</svg>
