<svg width="12" height="12" viewBox="0 0 12 12" fill="none" xmlns="http://www.w3.org/2000/svg">
<path fill-rule="evenodd" clip-rule="evenodd" d="M6.95847 1.50039C5.00339 1.50039 3.41847 3.0853 3.41847 5.04039C3.41847 6.03099 3.82496 6.92611 4.481 7.56898C5.11979 8.19494 5.99382 8.58039 6.95847 8.58039C8.91356 8.58039 10.4985 6.99548 10.4985 5.04039C10.4985 3.0853 8.91356 1.50039 6.95847 1.50039ZM2.81847 5.04039C2.81847 2.75393 4.67202 0.900391 6.95847 0.900391C9.24493 0.900391 11.0985 2.75393 11.0985 5.04039C11.0985 7.32685 9.24493 9.18039 6.95847 9.18039C5.93655 9.18039 5.00069 8.8098 4.2787 8.19618L1.40867 11.0144L0.988281 10.5863L3.85064 7.7756C3.20844 7.04639 2.81847 6.08871 2.81847 5.04039Z" fill="#AFB6BA"/>
</svg>
