<svg width="14" height="13" viewBox="0 0 14 13" fill="none" xmlns="http://www.w3.org/2000/svg">
<path d="M6.76207 0.552263C6.83657 0.32124 7.16343 0.321242 7.23793 0.552262L8.43692 4.27C8.53702 4.58038 8.82623 4.7905 9.15236 4.78979L13.0586 4.78125C13.3014 4.78072 13.4024 5.09158 13.2057 5.23383L10.0404 7.52297C9.77616 7.71409 9.66569 8.05407 9.76715 8.36402L10.9824 12.0765C11.0579 12.3072 10.7935 12.4993 10.5974 12.3562L7.44216 10.0532C7.17874 9.86095 6.82126 9.86095 6.55784 10.0532L3.40261 12.3562C3.20654 12.4993 2.94211 12.3072 3.01762 12.0765L4.23285 8.36402C4.33431 8.05407 4.22384 7.71409 3.95958 7.52297L0.794312 5.23383C0.59762 5.09158 0.698626 4.78072 0.941362 4.78125L4.84764 4.78979C5.17377 4.7905 5.46298 4.58038 5.56308 4.26999L6.76207 0.552263Z" stroke="#AFB6BA" stroke-width="0.5"/>
</svg>
