<?xml version="1.0" encoding="UTF-8" standalone="no"?>
<svg
   xmlns:dc="http://purl.org/dc/elements/1.1/"
   xmlns:cc="http://creativecommons.org/ns#"
   xmlns:rdf="http://www.w3.org/1999/02/22-rdf-syntax-ns#"
   xmlns:svg="http://www.w3.org/2000/svg"
   xmlns="http://www.w3.org/2000/svg"
   xmlns:sodipodi="http://sodipodi.sourceforge.net/DTD/sodipodi-0.dtd"
   xmlns:inkscape="http://www.inkscape.org/namespaces/inkscape"
   width="32"
   height="32"
   viewBox="0 0 32 32"
   fill="none"
   version="1.1"
   id="svg6"
   sodipodi:docname="pairClose-w.svg"
   inkscape:version="1.0.2-2 (e86c870879, 2021-01-15)">
  <metadata
     id="metadata12">
    <rdf:RDF>
      <cc:Work
         rdf:about="">
        <dc:format>image/svg+xml</dc:format>
        <dc:type
           rdf:resource="http://purl.org/dc/dcmitype/StillImage" />
        <dc:title></dc:title>
      </cc:Work>
    </rdf:RDF>
  </metadata>
  <defs
     id="defs10" />
  <sodipodi:namedview
     pagecolor="#ffffff"
     bordercolor="#666666"
     borderopacity="1"
     objecttolerance="10"
     gridtolerance="10"
     guidetolerance="10"
     inkscape:pageopacity="0"
     inkscape:pageshadow="2"
     inkscape:window-width="1920"
     inkscape:window-height="1017"
     id="namedview8"
     showgrid="false"
     inkscape:zoom="27.125"
     inkscape:cx="16"
     inkscape:cy="16"
     inkscape:window-x="1592"
     inkscape:window-y="-8"
     inkscape:window-maximized="1"
     inkscape:current-layer="svg6" />
  <path
     d="M 24,8 20.903226,11.096774 8,24"
     stroke="#304b57"
     stroke-width="2"
     stroke-linecap="round"
     stroke-linejoin="round"
     id="path2"
     style="fill:#ffffff;fill-opacity:1"
     sodipodi:nodetypes="ccc" />
  <path
     d="M8 8L24 24"
     stroke="#304B57"
     stroke-width="2"
     stroke-linecap="round"
     stroke-linejoin="round"
     id="path4" />
  <path
     style="fill:#ffffff;fill-opacity:1;stroke:#ffffff;stroke-width:0.0368664;stroke-linecap:square;stroke-opacity:1;paint-order:fill markers stroke"
     d="M 7.8525346,24.971643 C 7.5218253,24.891257 7.2684927,24.701864 7.1221711,24.42562 7.0130525,24.219612 7.0107626,23.784034 7.1177435,23.583394 c 0.041836,-0.07846 1.7121978,-1.777669 3.7963745,-3.861932 l 3.721669,-3.721825 -3.721479,-3.721092 C 8.8218625,10.186318 7.1600441,8.495961 7.1179333,8.4169756 7.0617668,8.3116264 7.0430563,8.2073551 7.0431109,8 7.0431977,7.6701127 7.1174388,7.5024275 7.3640498,7.2751094 7.558133,7.0962098 7.7437627,7.0261647 8.0184332,7.0281857 8.4461411,7.0313328 8.2601305,6.8631223 12.305536,10.90504 l 3.715675,3.712472 3.715596,-3.722267 c 2.904855,-2.9100695 3.751206,-3.7378613 3.878795,-3.7937392 0.364474,-0.1596217 0.798529,-0.067397 1.075275,0.2284678 0.301143,0.3219461 0.366152,0.7343349 0.175784,1.1150915 -0.05794,0.115895 -1.152093,1.2349862 -3.773071,3.8590819 L 17.402131,16 l 3.693456,3.695853 c 4.123969,4.126645 3.910217,3.886224 3.872534,4.355672 -0.01003,0.124928 -0.05222,0.293759 -0.09376,0.37518 -0.09887,0.1938 -0.364221,0.435712 -0.54567,0.497467 -0.205556,0.06996 -0.52062,0.05862 -0.713093,-0.02568 -0.127589,-0.05588 -0.97394,-0.883669 -3.878795,-3.793739 l -3.715596,-3.722267 -3.715675,3.712472 C 9.3718346,24.026126 8.5549438,24.822687 8.4239591,24.879929 8.247017,24.957259 7.97377,25.001111 7.8525306,24.971639 Z"
     id="path847" />
  <path
     style="fill:#ffffff;fill-opacity:1;stroke:#ffffff;stroke-width:0.0368664;stroke-linecap:square;stroke-opacity:1;paint-order:fill markers stroke"
     d="M 7.6205523,24.863266 C 7.2900255,24.698558 7.064274,24.373054 7.0498718,24.04042 c -0.00228,-0.05265 0.00944,-0.170042 0.026052,-0.26088 0.037681,-0.206097 -0.05861,-0.105884 4.2941002,-4.469011 l 3.299087,-3.306982 -3.740977,-3.752925 C 8.6113344,9.9264216 7.1629358,8.4464526 7.1235327,8.363092 7.0525809,8.2129874 7.0404636,7.9055829 7.0974165,7.7005468 7.1454055,7.5277817 7.3964564,7.2436888 7.5870745,7.1464428 7.7878807,7.043999 8.109436,7.0168936 8.2797468,7.088054 c 0.072623,0.030344 0.255057,0.1595067 0.4054098,0.287029 0.1503528,0.1275223 1.8617534,1.8169126 3.8031114,3.754201 l 3.529743,3.522342 3.734535,-3.729738 c 2.865311,-2.8616292 3.772775,-3.7470842 3.898829,-3.8042658 0.577647,-0.2620377 1.288717,0.2294755 1.288717,0.8908004 0,0.1183291 -0.02378,0.272067 -0.05285,0.3416398 -0.07152,0.1711609 -0.47653,0.5875476 -4.25764,4.3771866 l -3.263666,3.271028 3.595502,3.604548 c 3.305023,3.313339 3.890236,3.925977 3.983269,4.169934 0.0345,0.09048 -0.0065,0.428954 -0.07279,0.601026 -0.05688,0.147633 -0.253995,0.354756 -0.443793,0.466334 -0.141894,0.08341 -0.212801,0.09981 -0.428124,0.099 -0.178921,-6.74e-4 -0.297636,-0.02195 -0.387097,-0.06939 -0.07097,-0.03763 -1.808551,-1.744957 -3.861296,-3.794065 l -3.732264,-3.725652 -3.677874,3.666303 c -2.022831,2.016466 -3.7472923,3.713293 -3.8321362,3.770725 -0.2853374,0.193151 -0.599987,0.220135 -0.8887805,0.07622 z"
     id="path849" />
  <path
     style="fill:#ffffff;fill-opacity:1;stroke:#ffffff;stroke-width:0.0368664;stroke-linecap:square;stroke-opacity:1;paint-order:fill markers stroke"
     d=""
     id="path851" />
  <path
     style="fill:#ffffff;fill-opacity:1;stroke:#ffffff;stroke-width:1.7;stroke-linecap:square;stroke-opacity:1;paint-order:fill markers stroke;stroke-miterlimit:0;stroke-dasharray:none"
     d=""
     id="path853" />
</svg>
