<svg width="18" height="18" viewBox="0 0 18 18" fill="none" xmlns="http://www.w3.org/2000/svg">
<path fill-rule="evenodd" clip-rule="evenodd" d="M10.5997 1.5C7.34126 1.5 4.69974 4.14152 4.69974 7.4C4.69974 9.051 5.37721 10.5429 6.47062 11.6143C7.53526 12.6576 8.99198 13.3 10.5997 13.3C13.8582 13.3 16.4997 10.6585 16.4997 7.4C16.4997 4.14152 13.8582 1.5 10.5997 1.5ZM3.69974 7.4C3.69974 3.58924 6.78897 0.5 10.5997 0.5C14.4105 0.5 17.4997 3.58924 17.4997 7.4C17.4997 11.2108 14.4105 14.3 10.5997 14.3C8.89653 14.3 7.33676 13.6823 6.13344 12.6596L1.35006 17.3568L0.649414 16.6432L5.42002 11.9587C4.34967 10.7433 3.69974 9.1472 3.69974 7.4Z" fill="#AFB6BA"/>
</svg>
