<svg width="32" height="32" viewBox="0 0 32 32" fill="none" xmlns="http://www.w3.org/2000/svg">
<path d="M12.0001 14.6667C14.9456 14.6667 17.3335 12.2789 17.3335 9.33333C17.3335 6.38781 14.9456 4 12.0001 4C9.05461 4 6.66679 6.38781 6.66679 9.33333C6.66679 12.2789 9.05461 14.6667 12.0001 14.6667Z" stroke="#40A7EA" stroke-width="2" stroke-linecap="round" stroke-linejoin="round"/>
<path d="M4.00012 28V25.3333C4.00012 23.9188 4.56203 22.5623 5.56222 21.5621C6.56241 20.5619 7.91897 20 9.33346 20H14.6668C16.0813 20 17.4378 20.5619 18.438 21.5621C19.4382 22.5623 20.0001 23.9188 20.0001 25.3333V28" stroke="#40A7EA" stroke-width="2" stroke-linecap="round" stroke-linejoin="round"/>
<path d="M21.3335 4.17383C22.4807 4.46756 23.4975 5.13476 24.2236 6.07024C24.9498 7.00572 25.3439 8.15627 25.3439 9.34049C25.3439 10.5247 24.9498 11.6753 24.2236 12.6107C23.4975 13.5462 22.4807 14.2134 21.3335 14.5072" stroke="#40A7EA" stroke-width="2" stroke-linecap="round" stroke-linejoin="round"/>
<path d="M28.0001 27.9992V25.3326C27.9934 24.1554 27.5973 23.0136 26.8738 22.0851C26.1503 21.1566 25.1399 20.4935 24.0001 20.1992" stroke="#40A7EA" stroke-width="2" stroke-linecap="round" stroke-linejoin="round"/>
</svg>
