<svg width="32" height="32" viewBox="0 0 32 32" fill="none" xmlns="http://www.w3.org/2000/svg">
<path d="M25.3335 12H12.0001C10.5274 12 9.33345 13.1939 9.33345 14.6667V22.6667C9.33345 24.1394 10.5274 25.3333 12.0001 25.3333H25.3335C26.8062 25.3333 28.0001 24.1394 28.0001 22.6667V14.6667C28.0001 13.1939 26.8062 12 25.3335 12Z" stroke="#40A7EA" stroke-width="2" stroke-linecap="round" stroke-linejoin="round"/>
<path d="M18.6668 21.3333C20.1395 21.3333 21.3335 20.1394 21.3335 18.6667C21.3335 17.1939 20.1395 16 18.6668 16C17.194 16 16.0001 17.1939 16.0001 18.6667C16.0001 20.1394 17.194 21.3333 18.6668 21.3333Z" stroke="#40A7EA" stroke-width="2" stroke-linecap="round" stroke-linejoin="round"/>
<path d="M22.6668 11.9993V9.33268C22.6668 8.62544 22.3858 7.94716 21.8857 7.44706C21.3856 6.94697 20.7074 6.66602 20.0001 6.66602H6.66679C5.95954 6.66602 5.28127 6.94697 4.78117 7.44706C4.28107 7.94716 4.00012 8.62544 4.00012 9.33268V17.3327C4.00012 18.0399 4.28107 18.7182 4.78117 19.2183C5.28127 19.7184 5.95954 19.9993 6.66679 19.9993H9.33346" stroke="#40A7EA" stroke-width="2" stroke-linecap="round" stroke-linejoin="round"/>
</svg>
