<svg width="24" height="24" viewBox="0 0 24 24" fill="none" xmlns="http://www.w3.org/2000/svg">
<path d="M15.3751 21H6.00012C5.20447 21 4.44141 20.6839 3.8788 20.1213C3.31619 19.5587 3.00012 18.7957 3.00012 18V17H13.0001V19C13.0001 19.5304 13.2108 20.0391 13.5859 20.4142C13.961 20.7893 14.8447 21 15.3751 21ZM15.3751 21C15.9056 21 16.0393 20.7893 16.4143 20.4142M15.3751 21L16.4143 20.4142M16.4143 20.4142C16.7894 20.0391 17.0001 19.5304 17.0001 19M16.4143 20.4142L17.0001 19M17.0001 19V5C17.0001 4.60444 17.1174 4.21776 17.3372 3.88886C17.5569 3.55996 17.8693 3.30362 18.2348 3.15224C18.6002 3.00087 19.0023 2.96126 19.3903 3.03843C19.7783 3.1156 20.1346 3.30608 20.4143 3.58579C20.694 3.86549 20.8845 4.22186 20.9617 4.60982C21.0389 4.99778 20.9993 5.39992 20.8479 5.76537C20.6965 6.13082 20.4402 6.44318 20.1113 6.66294C19.7824 6.8827 19.3957 7 19.0001 7H17.0001V19ZM19.0001 3H8.00012C7.20447 3 6.44141 3.31607 5.8788 3.87868C5.31619 4.44129 5.00012 5.20435 5.00012 6V17" stroke="white" stroke-width="1.5" stroke-linecap="round" stroke-linejoin="round"/>
<path d="M9.00012 7H13.0001" stroke="white" stroke-width="1.5" stroke-linecap="round" stroke-linejoin="round"/>
<path d="M9.00012 11H13.0001" stroke="white" stroke-width="1.5" stroke-linecap="round" stroke-linejoin="round"/>
</svg>
