<svg width="24" height="24" viewBox="0 0 24 24" fill="none" xmlns="http://www.w3.org/2000/svg">
<path d="M18.0001 4H6.00012C4.34327 4 3.00012 5.34315 3.00012 7V17C3.00012 18.6569 4.34327 20 6.00012 20H18.0001C19.657 20 21.0001 18.6569 21.0001 17V7C21.0001 5.34315 19.657 4 18.0001 4Z" stroke="white" stroke-width="1.5" stroke-linecap="round" stroke-linejoin="round"/>
<path d="M9.00012 12C10.1047 12 11.0001 11.1046 11.0001 10C11.0001 8.89543 10.1047 8 9.00012 8C7.89555 8 7.00012 8.89543 7.00012 10C7.00012 11.1046 7.89555 12 9.00012 12Z" stroke="white" stroke-width="1.5" stroke-linecap="round" stroke-linejoin="round"/>
<path d="M15.0001 8H17.0001" stroke="white" stroke-width="1.5" stroke-linecap="round" stroke-linejoin="round"/>
<path d="M15.0001 12H17.0001" stroke="white" stroke-width="1.5" stroke-linecap="round" stroke-linejoin="round"/>
<path d="M7.00012 16H17.0001" stroke="white" stroke-width="1.5" stroke-linecap="round" stroke-linejoin="round"/>
</svg>
