<svg width="24" height="24" viewBox="0 0 24 24" fill="none" xmlns="http://www.w3.org/2000/svg">
<path d="M4.00012 7V6C4.00012 5.46957 4.21084 4.96086 4.58591 4.58579C4.96098 4.21071 5.46969 4 6.00012 4H8.00012" stroke="white" stroke-width="1.5" stroke-linecap="round" stroke-linejoin="round"/>
<path d="M4.00012 17V18C4.00012 18.5304 4.21084 19.0391 4.58591 19.4142C4.96098 19.7893 5.46969 20 6.00012 20H8.00012" stroke="white" stroke-width="1.5" stroke-linecap="round" stroke-linejoin="round"/>
<path d="M16.0001 4H18.0001C18.5306 4 19.0393 4.21071 19.4143 4.58579C19.7894 4.96086 20.0001 5.46957 20.0001 6V7" stroke="white" stroke-width="1.5" stroke-linecap="round" stroke-linejoin="round"/>
<path d="M16.0001 20H18.0001C18.5306 20 19.0393 19.7893 19.4143 19.4142C19.7894 19.0391 20.0001 18.5304 20.0001 18V17" stroke="white" stroke-width="1.5" stroke-linecap="round" stroke-linejoin="round"/>
<path d="M5.00012 12H19.0001" stroke="white" stroke-width="1.5" stroke-linecap="round" stroke-linejoin="round"/>
</svg>
