<svg width="24" height="24" viewBox="0 0 24 24" fill="none" xmlns="http://www.w3.org/2000/svg">
<path d="M12.0001 14C13.657 14 15.0001 12.6569 15.0001 11C15.0001 9.34315 13.657 8 12.0001 8C10.3433 8 9.00012 9.34315 9.00012 11C9.00012 12.6569 10.3433 14 12.0001 14Z" stroke="white" stroke-width="1.5" stroke-linecap="round" stroke-linejoin="round"/>
<path d="M17.6571 16.6567L13.4141 20.8997C13.0391 21.2743 12.5307 21.4848 12.0006 21.4848C11.4705 21.4848 10.9621 21.2743 10.5871 20.8997L6.34313 16.6567C5.22435 15.5379 4.46246 14.1124 4.15381 12.5606C3.84516 11.0087 4.00362 9.40022 4.60913 7.93844C5.21464 6.47665 6.24002 5.22725 7.55561 4.34821C8.87119 3.46918 10.4179 3 12.0001 3C13.5824 3 15.1291 3.46918 16.4446 4.34821C17.7602 5.22725 18.7856 6.47665 19.3911 7.93844C19.9966 9.40022 20.1551 11.0087 19.8464 12.5606C19.5378 14.1124 18.7759 15.5379 17.6571 16.6567V16.6567Z" stroke="white" stroke-width="1.5" stroke-linecap="round" stroke-linejoin="round"/>
</svg>
