<svg width="24" height="24" viewBox="0 0 24 24" fill="none" xmlns="http://www.w3.org/2000/svg">
<path d="M5.00012 4H9.00012L11.0001 9L8.50012 10.5C9.57108 12.6715 11.3286 14.429 13.5001 15.5L15.0001 13L20.0001 15V19C20.0001 19.5304 19.7894 20.0391 19.4143 20.4142C19.0393 20.7893 18.5306 21 18.0001 21C14.0994 20.763 10.4203 19.1065 7.65695 16.3432C4.89363 13.5798 3.23717 9.90074 3.00012 6C3.00012 5.46957 3.21084 4.96086 3.58591 4.58579C3.96098 4.21071 4.46969 4 5.00012 4" stroke="white" stroke-width="1.5" stroke-linecap="round" stroke-linejoin="round"/>
<path d="M15.0001 7C15.5306 7 16.0393 7.21071 16.4143 7.58579C16.7894 7.96086 17.0001 8.46957 17.0001 9" stroke="white" stroke-width="1.5" stroke-linecap="round" stroke-linejoin="round"/>
<path d="M15.0001 3C16.5914 3 18.1175 3.63214 19.2428 4.75736C20.368 5.88258 21.0001 7.4087 21.0001 9" stroke="white" stroke-width="1.5" stroke-linecap="round" stroke-linejoin="round"/>
</svg>
