<svg width="60" height="60" viewBox="0 0 60 60" fill="none" xmlns="http://www.w3.org/2000/svg">
<path d="M52.5 47.5V22.5H50C47.25 22.5 45 24.75 45 27.5V52.5H47.5C50.25 52.5 52.5 50.25 52.5 47.5Z" fill="url(#paint0_linear_1751_490)"/>
<path d="M40 47.5V32.5H37.5C34.75 32.5 32.5 34.75 32.5 37.5V52.5H35C37.75 52.5 40 50.25 40 47.5Z" fill="url(#paint1_linear_1751_490)"/>
<path d="M15 47.5V32.5H12.5C9.75 32.5 7.5 34.75 7.5 37.5V52.5H10C12.75 52.5 15 50.25 15 47.5Z" fill="url(#paint2_linear_1751_490)"/>
<path d="M27.5 47.5V26.25H25C22.25 26.25 20 28.5 20 31.25V52.5H22.5C25.25 52.5 27.5 50.25 27.5 47.5Z" fill="url(#paint3_linear_1751_490)"/>
<path d="M6.30249 24.0175L21.4487 12.3662C22.8175 11.3125 24.7287 11.3312 26.0775 12.41L36.0637 20.4L46.9812 9.48248L50.5162 13.0175L38.8075 24.7262C37.4562 26.0775 35.305 26.1962 33.8137 25.0025L23.7187 16.9275L12.3225 25.6937C10.6812 26.9562 8.32749 26.65 7.06374 25.0087L6.30249 24.0175Z" fill="url(#paint4_linear_1751_490)"/>
<path d="M43.75 6.25L53.75 16.25L55 5L43.75 6.25Z" fill="url(#paint5_linear_1751_490)"/>
<defs>
<linearGradient id="paint0_linear_1751_490" x1="31.8825" y1="20.6325" x2="69.7812" y2="58.5312" gradientUnits="userSpaceOnUse">
<stop stop-color="white" stop-opacity="0"/>
<stop offset="1" stop-color="white" stop-opacity="0.8"/>
</linearGradient>
<linearGradient id="paint1_linear_1751_490" x1="24.7163" y1="30.9662" x2="50.6312" y2="56.8812" gradientUnits="userSpaceOnUse">
<stop stop-color="white" stop-opacity="0"/>
<stop offset="1" stop-color="white" stop-opacity="0.8"/>
</linearGradient>
<linearGradient id="paint2_linear_1751_490" x1="-0.284995" y1="30.9662" x2="25.6312" y2="56.8812" gradientUnits="userSpaceOnUse">
<stop stop-color="white" stop-opacity="0"/>
<stop offset="1" stop-color="white" stop-opacity="0.8"/>
</linearGradient>
<linearGradient id="paint3_linear_1751_490" x1="8.88251" y1="24.5075" x2="42.2875" y2="57.9125" gradientUnits="userSpaceOnUse">
<stop stop-color="white" stop-opacity="0"/>
<stop offset="1" stop-color="white" stop-opacity="0.8"/>
</linearGradient>
<linearGradient id="paint4_linear_1751_490" x1="76.4537" y1="1.77874" x2="-13.945" y2="34.6825" gradientUnits="userSpaceOnUse">
<stop stop-color="white" stop-opacity="0"/>
<stop offset="1" stop-color="white" stop-opacity="0.8"/>
</linearGradient>
<linearGradient id="paint5_linear_1751_490" x1="51.3862" y1="-3.70374" x2="46.5675" y2="23.6275" gradientUnits="userSpaceOnUse">
<stop stop-color="white" stop-opacity="0"/>
<stop offset="1" stop-color="white" stop-opacity="0.8"/>
</linearGradient>
</defs>
</svg>
