<svg width="60" height="60" viewBox="0 0 60 60" fill="none" xmlns="http://www.w3.org/2000/svg">
<path d="M40 11.25H20V10C20 7.92875 21.6787 6.25 23.75 6.25H40V11.25Z" fill="url(#paint0_linear_1751_499)"/>
<path d="M56.25 28.75C56.25 32.8925 52.8925 36.25 48.75 36.25H11.25C7.1075 36.25 3.75 32.8925 3.75 28.75V18.75C3.75 14.6075 7.1075 11.25 11.25 11.25H56.25V28.75Z" fill="url(#paint1_linear_1751_499)"/>
<path d="M56.25 28.75V41.25C56.25 45.3875 52.8875 48.75 48.75 48.75H3.75V28.75C3.75 32.8875 7.1125 36.25 11.25 36.25H13.75V38.75C13.75 40.125 14.875 41.25 16.25 41.25H18.75C20.125 41.25 21.25 40.125 21.25 38.75V36.25H38.75V38.75C38.75 40.125 39.875 41.25 41.25 41.25H43.75C45.125 41.25 46.25 40.125 46.25 38.75V36.25H48.75C52.8875 36.25 56.25 32.8875 56.25 28.75Z" fill="url(#paint2_linear_1751_499)"/>
<path d="M18.75 41.25H16.25C14.8687 41.25 13.75 40.1312 13.75 38.75V36.25H21.25V38.75C21.25 40.1312 20.1312 41.25 18.75 41.25Z" fill="url(#paint3_linear_1751_499)"/>
<path d="M43.75 41.25H41.25C39.8687 41.25 38.75 40.1312 38.75 38.75V36.25H46.25V38.75C46.25 40.1312 45.1312 41.25 43.75 41.25Z" fill="url(#paint4_linear_1751_499)"/>
<defs>
<linearGradient id="paint0_linear_1751_499" x1="30" y1="-14.78" x2="30" y2="15.2987" gradientUnits="userSpaceOnUse">
<stop stop-color="white" stop-opacity="0"/>
<stop offset="1" stop-color="white" stop-opacity="0.8"/>
</linearGradient>
<linearGradient id="paint1_linear_1751_499" x1="30" y1="60.7987" x2="30" y2="-26.6275" gradientUnits="userSpaceOnUse">
<stop stop-color="white" stop-opacity="0"/>
<stop offset="1" stop-color="white" stop-opacity="0.8"/>
</linearGradient>
<linearGradient id="paint2_linear_1751_499" x1="30" y1="62.5912" x2="30" y2="22.5563" gradientUnits="userSpaceOnUse">
<stop stop-color="white" stop-opacity="0"/>
<stop offset="1" stop-color="white" stop-opacity="0.8"/>
</linearGradient>
<linearGradient id="paint3_linear_1751_499" x1="17.5" y1="33.42" x2="17.5" y2="63.4987" gradientUnits="userSpaceOnUse">
<stop stop-color="white" stop-opacity="0"/>
<stop offset="1" stop-color="white" stop-opacity="0.8"/>
</linearGradient>
<linearGradient id="paint4_linear_1751_499" x1="42.5" y1="33.42" x2="42.5" y2="63.4987" gradientUnits="userSpaceOnUse">
<stop stop-color="white" stop-opacity="0"/>
<stop offset="1" stop-color="white" stop-opacity="0.8"/>
</linearGradient>
</defs>
</svg>
