<svg width="16" height="16" viewBox="0 0 16 16" fill="none" xmlns="http://www.w3.org/2000/svg">
<path d="M5.293 1.63605C5.1055 1.82358 5.0002 2.07788 5.0002 2.34305C5.0002 2.60821 5.1055 2.86252 5.293 3.05005L10.2429 8.00005L5.293 12.95C5.1108 13.1387 5.01 13.3913 5.0123 13.6535C5.0146 13.9156 5.1197 14.1665 5.3051 14.3519C5.4905 14.5373 5.7414 14.6424 6.00355 14.6447C6.26575 14.647 6.51835 14.5462 6.70695 14.364L12.3639 8.70705C12.5514 8.51952 12.6567 8.26521 12.6567 8.00005C12.6567 7.73488 12.5514 7.48058 12.3639 7.29305L6.70695 1.63605C6.51942 1.44858 6.26512 1.34326 6 1.34326C5.7348 1.34326 5.4805 1.44858 5.293 1.63605Z" fill="#647494"/>
</svg>
