<svg width="64" height="64" viewBox="0 0 64 64" fill="none" xmlns="http://www.w3.org/2000/svg">
<path d="M49.3334 1.33337L60.0001 14.6667H38.6667L49.3334 1.33337Z" fill="url(#paint0_linear_1751_358)"/>
<path d="M14.6667 62.6667L4 49.3334H25.3333L14.6667 62.6667Z" fill="url(#paint1_linear_1751_358)"/>
<path d="M44 14.6667V32.0001H20V42.6667H46.6667C51.0853 42.6667 54.6666 39.0854 54.6666 34.6667V14.6667H44Z" fill="url(#paint2_linear_1751_358)"/>
<path d="M19.9999 49.3334V32H43.9999V21.3334H17.3332C12.9146 21.3334 9.33325 24.9147 9.33325 29.3334V49.3334H19.9999Z" fill="url(#paint3_linear_1751_358)"/>
<defs>
<linearGradient id="paint0_linear_1751_358" x1="54.9187" y1="-17.0119" x2="47.5721" y2="24.656" gradientUnits="userSpaceOnUse">
<stop stop-color="white" stop-opacity="0"/>
<stop offset="1" stop-color="white" stop-opacity="0.8"/>
</linearGradient>
<linearGradient id="paint1_linear_1751_358" x1="9.08133" y1="81.012" x2="16.428" y2="39.344" gradientUnits="userSpaceOnUse">
<stop stop-color="white" stop-opacity="0"/>
<stop offset="1" stop-color="white" stop-opacity="0.8"/>
</linearGradient>
<linearGradient id="paint2_linear_1751_358" x1="88.04" y1="-7.34924" x2="11.9653" y2="56.4854" gradientUnits="userSpaceOnUse">
<stop stop-color="white" stop-opacity="0"/>
<stop offset="1" stop-color="white" stop-opacity="0.8"/>
</linearGradient>
<linearGradient id="paint3_linear_1751_358" x1="45.3999" y1="51.052" x2="-11.8987" y2="2.97338" gradientUnits="userSpaceOnUse">
<stop stop-color="white" stop-opacity="0"/>
<stop offset="1" stop-color="white" stop-opacity="0.8"/>
</linearGradient>
</defs>
</svg>
