<svg width="64" height="64" viewBox="0 0 64 64" fill="none" xmlns="http://www.w3.org/2000/svg">
<g clip-path="url(#clip0_1751_292)">
<path d="M33.3333 0L52 30.6667L33.3333 41.3333V0Z" fill="url(#paint0_linear_1751_292)"/>
<path d="M14.6667 37.3333L33.3333 48L52 37.3333L33.3333 64L14.6667 37.3333Z" fill="url(#paint1_linear_1751_292)"/>
<path d="M33.3333 48L52 37.3333L33.3333 64V48Z" fill="url(#paint2_linear_1751_292)"/>
<path d="M52 30.6667L33.3333 22.6667V41.3333L52 30.6667Z" fill="url(#paint3_linear_1751_292)"/>
<path d="M33.3333 22.6667L14.6667 30.6667L33.3333 41.3333V22.6667Z" fill="url(#paint4_linear_1751_292)"/>
<path d="M33.3333 0L14.6667 30.6667L33.3333 41.3333V0Z" fill="url(#paint5_linear_1751_292)"/>
</g>
<defs>
<linearGradient id="paint0_linear_1751_292" x1="17.1187" y1="-8.25067" x2="55.1973" y2="57.704" gradientUnits="userSpaceOnUse">
<stop stop-color="white" stop-opacity="0"/>
<stop offset="1" stop-color="white" stop-opacity="0.8"/>
</linearGradient>
<linearGradient id="paint1_linear_1751_292" x1="21.776" y1="17.316" x2="56.18" y2="76.9053" gradientUnits="userSpaceOnUse">
<stop stop-color="white" stop-opacity="0"/>
<stop offset="1" stop-color="white" stop-opacity="0.8"/>
</linearGradient>
<linearGradient id="paint2_linear_1751_292" x1="36.2347" y1="39.5253" x2="50.936" y2="64.988" gradientUnits="userSpaceOnUse">
<stop stop-color="white" stop-opacity="0"/>
<stop offset="1" stop-color="white" stop-opacity="0.8"/>
</linearGradient>
<linearGradient id="paint3_linear_1751_292" x1="28.716" y1="22.0493" x2="77.1907" y2="70.524" gradientUnits="userSpaceOnUse">
<stop stop-color="white" stop-opacity="0"/>
<stop offset="1" stop-color="white" stop-opacity="0.8"/>
</linearGradient>
<linearGradient id="paint4_linear_1751_292" x1="19.4533" y1="18.7907" x2="39.156" y2="52.9173" gradientUnits="userSpaceOnUse">
<stop stop-color="white" stop-opacity="0"/>
<stop offset="1" stop-color="white" stop-opacity="0.8"/>
</linearGradient>
<linearGradient id="paint5_linear_1751_292" x1="10.9467" y1="-20.5293" x2="38.12" y2="54.1267" gradientUnits="userSpaceOnUse">
<stop stop-color="white" stop-opacity="0"/>
<stop offset="1" stop-color="white" stop-opacity="0.8"/>
</linearGradient>
<clipPath id="clip0_1751_292">
<rect width="64" height="64" fill="white"/>
</clipPath>
</defs>
</svg>
