<svg width="64" height="64" viewBox="0 0 64 64" fill="none" xmlns="http://www.w3.org/2000/svg">
<path d="M31.9999 30.6666C20.2133 30.6666 10.6666 40.2133 10.6666 52C10.6666 54.332 11.0506 56.572 11.7453 58.6666H52.2666C52.9599 56.5733 53.3333 54.3333 53.3333 52C53.3333 40.2133 43.7866 30.6666 31.9999 30.6666Z" fill="url(#paint0_linear_1751_344)"/>
<path d="M46.6666 53.3333V57.3333L45.8799 58.6666H29.5333C29.4 58.2533 29.3333 57.6 29.3333 57.16V55.12L32.3866 51.0533H37.6799C38.8799 51.0533 40.0666 51.4 41.0666 52.08L42.6666 53.3333H46.6666ZM28 44V44.6666C28 45.7706 28.896 46.6666 30 46.6666H32V43.4666L35.9999 38.4666V36C35.9999 34.5266 34.8066 33.3333 33.3333 33.3333H30.4L29.0666 34.6666H26.6666V31.3333C23.6933 32.1066 20.9733 33.5066 18.6666 35.36V44.0706C18.6666 45.9026 19.6066 47.6066 21.1573 48.5826L27.4266 52.5333L27.7386 52.048C28.1653 51.3853 28.0906 50.5186 27.5573 49.9386L25.3653 47.5506C24.8306 46.968 24.5333 46.2053 24.5333 45.4146V44H28Z" fill="url(#paint1_linear_1751_344)"/>
<path d="M28 22.6666V16H26.6666C24.4573 16 22.6666 17.7907 22.6666 20V26.6666H24C26.2093 26.6666 28 24.876 28 22.6666Z" fill="url(#paint2_linear_1751_344)"/>
<path d="M41.3332 22.6666V16H39.9999C37.7905 16 35.9999 17.7907 35.9999 20V26.6666H37.3332C39.5425 26.6666 41.3332 24.876 41.3332 22.6666Z" fill="url(#paint3_linear_1751_344)"/>
<path d="M53.3332 28V21.3333H51.9999C49.7905 21.3333 47.9999 23.124 47.9999 25.3333V32H49.3332C51.5425 32 53.3332 30.2093 53.3332 28Z" fill="url(#paint4_linear_1751_344)"/>
<path d="M16 28V21.3333H14.6666C12.4573 21.3333 10.6666 23.124 10.6666 25.3333V32H12C14.2093 32 16 30.2093 16 28Z" fill="url(#paint5_linear_1751_344)"/>
<path d="M4.66528 14.868C6.46395 17.136 9.65195 17.656 12.1333 16.1653C17.9386 12.676 24.7333 10.6667 31.9999 10.6667C39.2666 10.6667 46.0613 12.676 51.8666 16.1653C54.3479 17.656 57.5359 17.136 59.3346 14.868C51.8266 8.90399 42.3333 5.33333 31.9999 5.33333C21.6666 5.33333 12.1733 8.90399 4.66528 14.868Z" fill="url(#paint6_linear_1751_344)"/>
<defs>
<linearGradient id="paint0_linear_1751_344" x1="16.3293" y1="24.3933" x2="45.5013" y2="74.9199" gradientUnits="userSpaceOnUse">
<stop stop-color="white" stop-opacity="0"/>
<stop offset="1" stop-color="white" stop-opacity="0.8"/>
</linearGradient>
<linearGradient id="paint1_linear_1751_344" x1="1.52664" y1="15.5413" x2="61.2306" y2="75.2453" gradientUnits="userSpaceOnUse">
<stop stop-color="white" stop-opacity="0"/>
<stop offset="1" stop-color="white" stop-opacity="0.8"/>
</linearGradient>
<linearGradient id="paint2_linear_1751_344" x1="25.3333" y1="30.3946" x2="25.3333" y2="5.54666" gradientUnits="userSpaceOnUse">
<stop stop-color="white" stop-opacity="0"/>
<stop offset="1" stop-color="white" stop-opacity="0.8"/>
</linearGradient>
<linearGradient id="paint3_linear_1751_344" x1="38.6665" y1="30.4986" x2="38.6665" y2="7.32399" gradientUnits="userSpaceOnUse">
<stop stop-color="white" stop-opacity="0"/>
<stop offset="1" stop-color="white" stop-opacity="0.8"/>
</linearGradient>
<linearGradient id="paint4_linear_1751_344" x1="50.6665" y1="35.832" x2="50.6665" y2="12.6573" gradientUnits="userSpaceOnUse">
<stop stop-color="white" stop-opacity="0"/>
<stop offset="1" stop-color="white" stop-opacity="0.8"/>
</linearGradient>
<linearGradient id="paint5_linear_1751_344" x1="13.3333" y1="37.7613" x2="13.3333" y2="8.15333" gradientUnits="userSpaceOnUse">
<stop stop-color="white" stop-opacity="0"/>
<stop offset="1" stop-color="white" stop-opacity="0.8"/>
</linearGradient>
<linearGradient id="paint6_linear_1751_344" x1="20.9853" y1="-4.212" x2="43.0826" y2="34.0626" gradientUnits="userSpaceOnUse">
<stop stop-color="white" stop-opacity="0"/>
<stop offset="1" stop-color="white" stop-opacity="0.8"/>
</linearGradient>
</defs>
</svg>
