<svg width="32" height="32" viewBox="0 0 32 32" fill="none" xmlns="http://www.w3.org/2000/svg">
<path d="M16 3.99999C16.176 3.99999 16.3507 3.99999 16.524 3.99999C14.8111 5.5916 13.7101 7.73311 13.4124 10.0523C13.1147 12.3714 13.639 14.7216 14.8943 16.6943C16.1496 18.667 18.0565 20.1374 20.2835 20.8499C22.5105 21.5625 24.9167 21.4722 27.084 20.5947C26.2503 22.6006 24.8877 24.3427 23.1416 25.635C21.3955 26.9273 19.3313 27.7214 17.1692 27.9325C15.0072 28.1436 12.8284 27.7639 10.8652 26.8339C8.90203 25.9038 7.22815 24.4583 6.02212 22.6515C4.81609 20.8447 4.12314 18.7444 4.01718 16.5746C3.91123 14.4049 4.39625 12.247 5.4205 10.3313C6.44475 8.41563 7.96982 6.81388 9.83302 5.69696C11.6962 4.58004 13.8277 3.98984 16 3.98932V3.99999Z" stroke="#304B57" stroke-width="2" stroke-linecap="round" stroke-linejoin="round"/>
</svg>
