<svg width="200" height="47" viewBox="0 0 200 47" fill="none" xmlns="http://www.w3.org/2000/svg">
<path d="M68.9121 25.7676C68.7214 22.9614 67.4999 20.3193 65.4753 18.3341C63.7016 16.5882 61.41 15.4418 58.9312 15.0605C56.4524 14.6793 53.9147 15.0828 51.6841 16.2128C51.5708 14.5037 50.8012 12.9009 49.5313 11.7296C48.2614 10.5582 46.5864 9.90606 44.8458 9.90527C44.7615 9.90527 44.6806 9.93825 44.621 9.99694C44.5613 10.0556 44.5278 10.1352 44.5278 10.2183V22.4725L42.8271 24.1505L42.5223 24.4504L40.371 26.5631L36.7928 30.0841C35.9056 30.9758 34.7111 31.508 33.4449 31.5757C32.1786 31.6435 30.9325 31.242 29.9522 30.4503C28.972 29.6586 28.3287 28.5342 28.1492 27.2989C27.9698 26.0635 28.2672 24.8069 28.9828 23.7766C29.1649 23.5117 29.3719 23.2643 29.6012 23.0376C29.6808 22.9594 29.7647 22.8855 29.8486 22.8159C30.8163 21.9812 32.0702 21.5397 33.3564 21.5808C34.6425 21.622 35.8647 22.1428 36.7752 23.0376L34.6857 20.9858C34.5532 20.8554 34.4163 20.7294 34.2749 20.612C32.7431 19.3004 30.7627 18.6095 28.7334 18.6789C26.7042 18.7483 24.7773 19.5728 23.3417 20.9858C22.034 22.2697 21.2177 23.9591 21.0314 25.7676C20.996 26.3002 20.996 26.8346 21.0314 27.3673C21.225 30.174 22.446 32.8165 24.4682 34.805C26.6882 36.9884 29.6984 38.2148 32.837 38.2148C35.9757 38.2148 38.9859 36.9884 41.2059 34.805L41.2766 34.7355L44.9607 31.1057L47.1164 28.9887L47.4212 28.6887L49.5681 26.5761L53.1507 23.0507C54.0379 22.159 55.2324 21.6269 56.4986 21.5591C57.7649 21.4913 59.011 21.8928 59.9913 22.6845C60.9715 23.4762 61.6148 24.6006 61.7943 25.8359C61.9737 27.0713 61.6763 28.328 60.9607 29.3582C60.7768 29.623 60.5683 29.8704 60.3378 30.0972L60.0949 30.3232C59.1262 31.1564 57.8722 31.5966 56.5863 31.5546C55.3004 31.5126 54.0788 30.9917 53.1683 30.0972L55.218 32.1533C55.3505 32.2837 55.4875 32.4055 55.6288 32.5272C57.1618 33.8381 59.1427 34.5285 61.1724 34.4591C63.2021 34.3897 65.1296 33.5658 66.5664 32.1533C67.8762 30.8714 68.6915 29.1807 68.8724 27.3716C68.9256 26.8386 68.9389 26.3025 68.9121 25.7676Z" fill="url(#paint0_linear_751_8856)"/>
<path d="M66.5842 32.1529C65.1513 33.566 63.2275 34.392 61.2003 34.4646C59.1731 34.5372 57.1932 33.851 55.6598 32.5441C55.5185 32.4268 55.3815 32.3007 55.249 32.1703L53.1595 30.1185L50.2794 27.2799L41.2059 18.3381C39.5298 16.6873 37.3883 15.5701 35.0592 15.1314C32.73 14.6927 30.3207 14.9527 28.1435 15.8776C27.9497 14.2346 27.1492 12.7189 25.8942 11.6185C24.6392 10.5182 23.0171 9.90986 21.3362 9.90918C21.2519 9.90918 21.171 9.94215 21.1113 10.0009C21.0517 10.0595 21.0182 10.1392 21.0182 10.2222V26.1236C21.0182 25.9888 21.0182 25.8454 21.0403 25.6889C21.2383 23.9066 22.0487 22.2442 23.3373 20.9767C24.7731 19.5624 26.701 18.7371 28.7312 18.6677C30.7615 18.5984 32.7429 19.29 34.275 20.6029C34.4163 20.7202 34.5532 20.8463 34.6858 20.9767L36.7752 23.0285L44.9828 31.0922L48.7288 34.7785C49.8275 35.8606 51.1321 36.7191 52.5681 37.3048C54.0041 37.8905 55.5433 38.1919 57.0977 38.1919C58.6521 38.1919 60.1913 37.8905 61.6273 37.3048C63.0633 36.7191 64.3679 35.8606 65.4666 34.7785C67.4885 32.8013 68.7128 30.1693 68.9122 27.3712C68.7253 29.1831 67.902 30.8742 66.5842 32.1529Z" fill="url(#paint1_linear_751_8856)"/>
<path d="M88.6361 16.8379C91.2556 16.8379 93.111 18.3289 93.111 20.6502C93.1428 21.1131 93.0569 21.5765 92.861 21.9985C92.6651 22.4206 92.3654 22.7878 91.9889 23.0672C93.3142 23.741 94.1093 24.8973 94.1093 26.6491C94.1093 29.0965 92.0905 31.0787 89.3429 31.0787H79.3241V16.8379H88.6361ZM82.6063 22.3238H88.7553C89.0875 22.3048 89.3983 22.1567 89.6195 21.9121C89.8407 21.6676 89.9541 21.3466 89.9348 21.0197C89.9348 20.4024 89.5947 19.7156 88.4947 19.7156H82.6063V22.3238ZM82.6063 28.1662H89.2324C90.2794 28.1662 90.9066 27.5229 90.9066 26.6491C90.916 26.4428 90.8807 26.2368 90.8032 26.0448C90.7257 25.8528 90.6077 25.6792 90.457 25.5355C90.3063 25.3917 90.1263 25.281 89.9289 25.2107C89.7316 25.1404 89.5213 25.1121 89.3119 25.1277H82.6063V28.1662Z" fill="#142546"/>
<path d="M109.416 16.8379V19.746H99.5517V22.3543H108.422V25.2668H99.5517V28.101H109.782V31.0613H96.3004V16.8379H109.416Z" fill="#142546"/>
<path d="M120.751 16.8379C124.152 16.8379 126.719 19.0766 126.719 22.4238C126.751 23.3927 126.506 24.3508 126.01 25.1888C125.515 26.0267 124.79 26.7105 123.918 27.1621L126.127 31.0744H122.567L120.866 27.9054H115.477V31.0744H112.203V16.8379H120.751ZM115.49 24.9755H120.618C122.293 24.9755 123.446 24.0757 123.446 22.4238C123.446 20.7719 122.293 19.7721 120.618 19.7721H115.49V24.9755Z" fill="#142546"/>
<path d="M132.135 16.8379V31.0787H128.866V16.8379H132.135Z" fill="#142546"/>
<path d="M144.066 16.8379C146.686 16.8379 148.541 18.3289 148.541 20.6502C148.573 21.1131 148.487 21.5765 148.291 21.9985C148.095 22.4206 147.796 22.7878 147.419 23.0672C148.744 23.741 149.539 24.8973 149.539 26.6491C149.539 29.0965 147.521 31.0787 144.773 31.0787H134.754V16.8379H144.066ZM138.023 22.3238H144.172C144.504 22.3048 144.815 22.1567 145.036 21.9121C145.258 21.6676 145.371 21.3466 145.352 21.0197C145.352 20.4024 145.012 19.7156 143.912 19.7156H138.023V22.3238ZM138.023 28.1662H144.671C145.718 28.1662 146.346 27.5229 146.346 26.6491C146.355 26.4428 146.32 26.2368 146.242 26.0448C146.165 25.8528 146.047 25.6792 145.896 25.5355C145.745 25.3917 145.565 25.281 145.368 25.2107C145.171 25.1404 144.96 25.1121 144.751 25.1277H138.023V28.1662Z" fill="#142546"/>
<path d="M154.982 16.8379V31.0787H151.713V16.8379H154.982Z" fill="#142546"/>
<path d="M172.122 16.8379V19.72H166.233V31.0787H162.964V19.72H157.076V16.8379H172.122Z" fill="#142546"/>
<defs>
<linearGradient id="paint0_linear_751_8856" x1="12.0021" y1="14.5305" x2="80.8859" y2="40.2159" gradientUnits="userSpaceOnUse">
<stop stop-color="#A7FAFA"/>
<stop offset="0.2" stop-color="#83C4C8"/>
<stop offset="0.48" stop-color="#527C85"/>
<stop offset="0.72" stop-color="#2E4855"/>
<stop offset="0.9" stop-color="#182736"/>
<stop offset="1" stop-color="#101B2B"/>
</linearGradient>
<linearGradient id="paint1_linear_751_8856" x1="8781.79" y1="3096.41" x2="4874.77" y2="-854.888" gradientUnits="userSpaceOnUse">
<stop stop-color="#213A5C"/>
<stop offset="0.13" stop-color="#27496E"/>
<stop offset="0.53" stop-color="#3874A2"/>
<stop offset="0.83" stop-color="#438FC3"/>
<stop offset="1" stop-color="#4799CF"/>
</linearGradient>
</defs>
</svg>
