<svg width="32" height="32" viewBox="0 0 32 32" fill="none" xmlns="http://www.w3.org/2000/svg">
<path d="M15.9999 10.6665C19.5306 10.6665 22.7039 11.7678 24.8999 13.5198C25.6512 13.2565 26.4718 13.2707 27.2135 13.5599C27.9552 13.8491 28.5689 14.3942 28.9436 15.0965C29.3183 15.7989 29.4292 16.6122 29.2564 17.3892C29.0836 18.1663 28.6383 18.8559 28.0013 19.3332C28.0013 24.1198 22.6279 27.9998 16.0013 27.9998C9.50125 27.9998 4.20792 24.2665 4.00125 19.6078L2.66792 19.3332C2.03083 18.8559 1.58561 18.1663 1.41277 17.3892C1.23993 16.6122 1.3509 15.7989 1.7256 15.0965C2.1003 14.3942 2.71399 13.8491 3.45566 13.5599C4.19733 13.2707 5.01801 13.2565 5.76925 13.5198C7.96392 11.7692 11.1373 10.6665 14.6679 10.6665H15.9999Z" stroke="#142546" stroke-width="2" stroke-linecap="round" stroke-linejoin="round"/>
<path d="M16 10.6667L17.3333 4L25.3333 5.33333" stroke="#142546" stroke-width="2" stroke-linecap="round" stroke-linejoin="round"/>
<path d="M25.3333 6.66667C26.0697 6.66667 26.6667 6.06971 26.6667 5.33333C26.6667 4.59695 26.0697 4 25.3333 4C24.597 4 24 4.59695 24 5.33333C24 6.06971 24.597 6.66667 25.3333 6.66667Z" stroke="#142546" stroke-width="2" stroke-linecap="round" stroke-linejoin="round"/>
<path d="M11.9999 17.9998C12.3681 17.9998 12.6666 17.7014 12.6666 17.3332C12.6666 16.965 12.3681 16.6665 11.9999 16.6665C11.6317 16.6665 11.3333 16.965 11.3333 17.3332C11.3333 17.7014 11.6317 17.9998 11.9999 17.9998Z" fill="black" stroke="#142546" stroke-width="2" stroke-linecap="round" stroke-linejoin="round"/>
<path d="M19.9999 17.9998C20.3681 17.9998 20.6666 17.7014 20.6666 17.3332C20.6666 16.965 20.3681 16.6665 19.9999 16.6665C19.6317 16.6665 19.3333 16.965 19.3333 17.3332C19.3333 17.7014 19.6317 17.9998 19.9999 17.9998Z" fill="black" stroke="#142546" stroke-width="2" stroke-linecap="round" stroke-linejoin="round"/>
<path d="M13.3333 22.6665C14.2226 23.1105 15.1106 23.3332 15.9999 23.3332C16.8893 23.3332 17.7773 23.1105 18.6666 22.6665" stroke="#142546" stroke-width="2" stroke-linecap="round" stroke-linejoin="round"/>
</svg>
