<svg width="18" height="18" viewBox="0 0 18 18" fill="none" xmlns="http://www.w3.org/2000/svg">
<path fill-rule="evenodd" clip-rule="evenodd" d="M10.6 1.5C7.3415 1.5 4.69998 4.14152 4.69998 7.4C4.69998 9.051 5.37746 10.5429 6.47086 11.6143C7.53551 12.6576 8.99222 13.3 10.6 13.3C13.8585 13.3 16.5 10.6585 16.5 7.4C16.5 4.14152 13.8585 1.5 10.6 1.5ZM3.69998 7.4C3.69998 3.58924 6.78922 0.5 10.6 0.5C14.4107 0.5 17.5 3.58924 17.5 7.4C17.5 11.2108 14.4107 14.3 10.6 14.3C8.89677 14.3 7.337 13.6823 6.13368 12.6596L1.3503 17.3568L0.649658 16.6432L5.42026 11.9587C4.34992 10.7433 3.69998 9.1472 3.69998 7.4Z" fill="#C1ECFE"/>
</svg>
