<svg width="44" height="44" viewBox="0 0 44 44" fill="none" xmlns="http://www.w3.org/2000/svg">
<path d="M19.9008 2.05607C21.0671 0.913696 22.9329 0.913695 24.0992 2.05607L27.6209 5.50538C28.1739 6.04704 28.9149 6.35397 29.6889 6.362L34.6181 6.41316C36.2506 6.4301 37.5699 7.74936 37.5868 9.38186L37.638 14.3111C37.646 15.0851 37.953 15.8261 38.4946 16.3791L41.9439 19.9008C43.0863 21.0671 43.0863 22.9329 41.9439 24.0992L38.4946 27.6209C37.953 28.1739 37.646 28.9149 37.638 29.6889L37.5868 34.6181C37.5699 36.2506 36.2506 37.5699 34.6181 37.5868L29.6889 37.638C28.9149 37.646 28.1739 37.953 27.6209 38.4946L24.0992 41.9439C22.9329 43.0863 21.0671 43.0863 19.9008 41.9439L16.3791 38.4946C15.8261 37.953 15.0851 37.646 14.3111 37.638L9.38186 37.5868C7.74936 37.5699 6.4301 36.2506 6.41316 34.6181L6.362 29.6889C6.35397 28.9149 6.04704 28.1739 5.50538 27.6209L2.05607 24.0992C0.913696 22.9329 0.913695 21.0671 2.05607 19.9008L5.50538 16.3791C6.04704 15.8261 6.35397 15.0851 6.362 14.3111L6.41316 9.38186C6.4301 7.74936 7.74936 6.4301 9.38186 6.41316L14.3111 6.362C15.0851 6.35397 15.8261 6.04704 16.3791 5.50538L19.9008 2.05607Z" fill="#40A7EA"/>
<path d="M27.6004 17.8L19.2476 26.2L16.4004 23.3367" stroke="white" stroke-width="2" stroke-linecap="round" stroke-linejoin="round"/>
</svg>
