<svg width="42" height="42" viewBox="0 0 42 42" fill="none" xmlns="http://www.w3.org/2000/svg">
<path d="M18.9008 1.05607C20.0671 -0.0863044 21.9329 -0.0863052 23.0992 1.05607L26.6209 4.50538C27.1739 5.04704 27.9149 5.35397 28.6889 5.362L33.6181 5.41316C35.2506 5.4301 36.5699 6.74936 36.5868 8.38186L36.638 13.3111C36.646 14.0851 36.953 14.8261 37.4946 15.3791L40.9439 18.9008C42.0863 20.0671 42.0863 21.9329 40.9439 23.0992L37.4946 26.6209C36.953 27.1739 36.646 27.9149 36.638 28.6889L36.5868 33.6181C36.5699 35.2506 35.2506 36.5699 33.6181 36.5868L28.6889 36.638C27.9149 36.646 27.1739 36.953 26.6209 37.4946L23.0992 40.9439C21.9329 42.0863 20.0671 42.0863 18.9008 40.9439L15.3791 37.4946C14.8261 36.953 14.0851 36.646 13.3111 36.638L8.38186 36.5868C6.74936 36.5699 5.4301 35.2506 5.41316 33.6181L5.362 28.6889C5.35397 27.9149 5.04704 27.1739 4.50538 26.6209L1.05607 23.0992C-0.0863044 21.9329 -0.0863052 20.0671 1.05607 18.9008L4.50538 15.3791C5.04704 14.8261 5.35397 14.0851 5.362 13.3111L5.41316 8.38186C5.4301 6.74936 6.74936 5.4301 8.38186 5.41316L13.3111 5.362C14.0851 5.35397 14.8261 5.04704 15.3791 4.50538L18.9008 1.05607Z" fill="#40A7EA"/>
</svg>
