<svg width="12" height="12" viewBox="0 0 12 12" fill="none" xmlns="http://www.w3.org/2000/svg">
<path d="M3.50012 6.4985V2.4985C3.50012 2.36589 3.44744 2.23872 3.35368 2.14495C3.25991 2.05118 3.13273 1.9985 3.00012 1.9985H2.00012C1.86751 1.9985 1.74034 2.05118 1.64657 2.14495C1.5528 2.23872 1.50012 2.36589 1.50012 2.4985V5.9985C1.50012 6.13111 1.5528 6.25829 1.64657 6.35206C1.74034 6.44582 1.86751 6.4985 2.00012 6.4985H3.50012ZM3.50012 6.4985C4.03056 6.4985 4.53926 6.70922 4.91434 7.08429C5.28941 7.45936 5.50012 7.96807 5.50012 8.4985V8.9985C5.50012 9.26372 5.60548 9.51807 5.79302 9.70561C5.98055 9.89315 6.23491 9.9985 6.50012 9.9985C6.76534 9.9985 7.01969 9.89315 7.20723 9.70561C7.39477 9.51807 7.50012 9.26372 7.50012 8.9985V6.4985H9.00012C9.26534 6.4985 9.51969 6.39314 9.70723 6.20561C9.89477 6.01807 10.0001 5.76372 10.0001 5.4985L9.50012 2.9985C9.42821 2.69176 9.29181 2.42838 9.11145 2.24802C8.93109 2.06766 8.71654 1.98009 8.50012 1.9985H5.00012C4.6023 1.9985 4.22077 2.15654 3.93946 2.43784C3.65816 2.71915 3.50012 3.10068 3.50012 3.4985" stroke="#FD5454" stroke-linecap="round" stroke-linejoin="round"/>
</svg>
