<svg width="13" height="12" viewBox="0 0 13 12" fill="none" xmlns="http://www.w3.org/2000/svg">
<path d="M3.66667 6.66727V1.33394C3.66667 1.15713 3.59643 0.987559 3.4714 0.862535C3.34638 0.737511 3.17681 0.667273 3 0.667273H1.66667C1.48986 0.667273 1.32029 0.737511 1.19526 0.862535C1.07024 0.987559 1 1.15713 1 1.33394V6.00061C1 6.17742 1.07024 6.34699 1.19526 6.47201C1.32029 6.59704 1.48986 6.66727 1.66667 6.66727H3.66667ZM3.66667 6.66727C4.37391 6.66727 5.05219 6.94822 5.55228 7.44832C6.05238 7.94842 6.33333 8.6267 6.33333 9.33394V10.0006C6.33333 10.3542 6.47381 10.6934 6.72386 10.9434C6.97391 11.1935 7.31304 11.3339 7.66667 11.3339C8.02029 11.3339 8.35943 11.1935 8.60948 10.9434C8.85952 10.6934 9 10.3542 9 10.0006V6.66727H11C11.3536 6.66727 11.6928 6.5268 11.9428 6.27675C12.1929 6.0267 12.3333 5.68756 12.3333 5.33394L11.6667 2.00061C11.5708 1.59162 11.3889 1.24044 11.1484 0.999963C10.908 0.759483 10.6219 0.642724 10.3333 0.667273H5.66667C5.13623 0.667273 4.62753 0.877986 4.25245 1.25306C3.87738 1.62813 3.66667 2.13684 3.66667 2.66727" stroke="#FD5454" stroke-linecap="round" stroke-linejoin="round"/>
</svg>
