<svg width="22" height="22" viewBox="0 0 22 22" fill="none" xmlns="http://www.w3.org/2000/svg">
<path d="M16.4992 8.80019L18.6992 8.80019C19.3067 8.80019 19.7992 9.29268 19.7992 9.90019L19.7992 17.8002C19.7992 18.9048 18.9038 19.8002 17.7992 19.8002L9.89922 19.8002C9.29171 19.8002 8.79922 19.3077 8.79922 18.7002L8.79922 16.5002M10.9992 2.2002L4.39922 2.2002C3.18419 2.2002 2.19922 3.18517 2.19922 4.40019L2.19922 11.0002C2.19922 12.2152 3.18419 13.2002 4.39922 13.2002L10.9992 13.2002C12.2142 13.2002 13.1992 12.2152 13.1992 11.0002L13.1992 4.4002C13.1992 3.18517 12.2142 2.2002 10.9992 2.2002Z" stroke="#061429" stroke-width="2" stroke-linecap="round"/>
</svg>
