<svg width="12" height="12" viewBox="0 0 12 12" fill="none" xmlns="http://www.w3.org/2000/svg">
<path d="M3.50012 5.5V9.5C3.50012 9.63261 3.44744 9.75979 3.35368 9.85355C3.25991 9.94732 3.13273 10 3.00012 10H2.00012C1.86751 10 1.74034 9.94732 1.64657 9.85355C1.5528 9.75979 1.50012 9.63261 1.50012 9.5V6C1.50012 5.86739 1.5528 5.74022 1.64657 5.64645C1.74034 5.55268 1.86751 5.5 2.00012 5.5H3.50012ZM3.50012 5.5C4.03056 5.5 4.53926 5.28929 4.91434 4.91421C5.28941 4.53914 5.50012 4.03043 5.50012 3.5V3C5.50012 2.73478 5.60548 2.48043 5.79302 2.29289C5.98055 2.10536 6.23491 2 6.50012 2C6.76534 2 7.01969 2.10536 7.20723 2.29289C7.39477 2.48043 7.50012 2.73478 7.50012 3V5.5H9.00012C9.26534 5.5 9.51969 5.60536 9.70723 5.79289C9.89477 5.98043 10.0001 6.23478 10.0001 6.5L9.50012 9C9.42821 9.30674 9.29181 9.57012 9.11145 9.75048C8.93109 9.93084 8.71654 10.0184 8.50012 10H5.00012C4.6023 10 4.22077 9.84197 3.93946 9.56066C3.65816 9.27936 3.50012 8.89783 3.50012 8.5" stroke="#1BD079" stroke-linecap="round" stroke-linejoin="round"/>
</svg>
