<svg width="13" height="12" viewBox="0 0 13 12" fill="none" xmlns="http://www.w3.org/2000/svg">
<path d="M3.66667 5.33464V10.668C3.66667 10.8448 3.59643 11.0144 3.4714 11.1394C3.34638 11.2644 3.17681 11.3346 3 11.3346H1.66667C1.48986 11.3346 1.32029 11.2644 1.19526 11.1394C1.07024 11.0144 1 10.8448 1 10.668V6.0013C1 5.82449 1.07024 5.65492 1.19526 5.5299C1.32029 5.40487 1.48986 5.33464 1.66667 5.33464H3.66667ZM3.66667 5.33464C4.37391 5.33464 5.05219 5.05368 5.55228 4.55359C6.05238 4.05349 6.33333 3.37521 6.33333 2.66797V2.0013C6.33333 1.64768 6.47381 1.30854 6.72386 1.05849C6.97391 0.808444 7.31304 0.667969 7.66667 0.667969C8.02029 0.667969 8.35943 0.808444 8.60948 1.05849C8.85952 1.30854 9 1.64768 9 2.0013V5.33464H11C11.3536 5.33464 11.6928 5.47511 11.9428 5.72516C12.1929 5.97521 12.3333 6.31435 12.3333 6.66797L11.6667 10.0013C11.5708 10.4103 11.3889 10.7615 11.1484 11.0019C10.908 11.2424 10.6219 11.3592 10.3333 11.3346H5.66667C5.13623 11.3346 4.62753 11.1239 4.25245 10.7489C3.87738 10.3738 3.66667 9.86507 3.66667 9.33464" stroke="#1BD079" stroke-linecap="round" stroke-linejoin="round"/>
</svg>
