<svg width="24" height="25" viewBox="0 0 24 25" fill="none" xmlns="http://www.w3.org/2000/svg">
<path d="M17 11.5H7C5.89543 11.5 5 12.3954 5 13.5V19.5C5 20.6046 5.89543 21.5 7 21.5H17C18.1046 21.5 19 20.6046 19 19.5V13.5C19 12.3954 18.1046 11.5 17 11.5Z" stroke="#8D94A1" stroke-width="1.5" stroke-linecap="round" stroke-linejoin="round"/>
<path d="M12 17.5C12.5523 17.5 13 17.0523 13 16.5C13 15.9477 12.5523 15.5 12 15.5C11.4477 15.5 11 15.9477 11 16.5C11 17.0523 11.4477 17.5 12 17.5Z" stroke="#8D94A1" stroke-width="1.5" stroke-linecap="round" stroke-linejoin="round"/>
<path d="M8 11.5V7.5C8 6.43913 8.42143 5.42172 9.17157 4.67157C9.92172 3.92143 10.9391 3.5 12 3.5C13.0609 3.5 14.0783 3.92143 14.8284 4.67157C15.5786 5.42172 16 6.43913 16 7.5V11.5" stroke="#8D94A1" stroke-width="1.5" stroke-linecap="round" stroke-linejoin="round"/>
</svg>
