<svg width="24" height="25" viewBox="0 0 24 25" fill="none" xmlns="http://www.w3.org/2000/svg">
<path d="M6 8.5C7.10457 8.5 8 7.60457 8 6.5C8 5.39543 7.10457 4.5 6 4.5C4.89543 4.5 4 5.39543 4 6.5C4 7.60457 4.89543 8.5 6 8.5Z" stroke="#8D94A1" stroke-width="1.5" stroke-linecap="round" stroke-linejoin="round"/>
<path d="M18 20.5C19.1046 20.5 20 19.6046 20 18.5C20 17.3954 19.1046 16.5 18 16.5C16.8954 16.5 16 17.3954 16 18.5C16 19.6046 16.8954 20.5 18 20.5Z" stroke="#8D94A1" stroke-width="1.5" stroke-linecap="round" stroke-linejoin="round"/>
<path d="M11 6.5H16C16.5304 6.5 17.0391 6.71071 17.4142 7.08579C17.7893 7.46086 18 7.96957 18 8.5V16.5" stroke="#8D94A1" stroke-width="1.5" stroke-linecap="round" stroke-linejoin="round"/>
<path d="M14 9.5L11 6.5L14 3.5" stroke="#8D94A1" stroke-width="1.5" stroke-linecap="round" stroke-linejoin="round"/>
<path d="M13 18.5H8C7.46957 18.5 6.96086 18.2893 6.58579 17.9142C6.21071 17.5391 6 17.0304 6 16.5V8.5" stroke="#8D94A1" stroke-width="1.5" stroke-linecap="round" stroke-linejoin="round"/>
<path d="M10 15.5L13 18.5L10 21.5" stroke="#8D94A1" stroke-width="1.5" stroke-linecap="round" stroke-linejoin="round"/>
</svg>
