<svg width="24" height="25" viewBox="0 0 24 25" fill="none" xmlns="http://www.w3.org/2000/svg">
<path d="M9 12.5L11 14.5L15 10.5" stroke="#8D94A1" stroke-width="1.5" stroke-linecap="round" stroke-linejoin="round"/>
<path d="M12 3.5C14.3358 5.56658 17.3845 6.64257 20.5 6.5C20.9536 8.04302 21.0924 9.66147 20.9081 11.2592C20.7239 12.8569 20.2203 14.4013 19.4274 15.8005C18.6345 17.1998 17.5684 18.4254 16.2925 19.4045C15.0165 20.3836 13.5568 21.0962 12 21.5C10.4432 21.0962 8.9835 20.3836 7.70756 19.4045C6.43163 18.4254 5.36553 17.1998 4.57261 15.8005C3.7797 14.4013 3.27615 12.8569 3.09189 11.2592C2.90763 9.66147 3.04642 8.04302 3.50002 6.5C6.61555 6.64257 9.66419 5.56658 12 3.5" stroke="#8D94A1" stroke-width="1.5" stroke-linecap="round" stroke-linejoin="round"/>
</svg>
