<svg width="24" height="21" viewBox="0 0 24 21" fill="none" xmlns="http://www.w3.org/2000/svg">
<path d="M10.3251 2.317C10.7511 0.561 13.2491 0.561 13.6751 2.317C13.739 2.5808 13.8643 2.82578 14.0408 3.032C14.2173 3.23822 14.44 3.39985 14.6908 3.50375C14.9415 3.60764 15.2133 3.65085 15.4839 3.62987C15.7545 3.60889 16.0164 3.5243 16.2481 3.383C17.7911 2.443 19.5581 4.209 18.6181 5.753C18.477 5.98466 18.3926 6.24634 18.3716 6.51677C18.3507 6.78721 18.3939 7.05877 18.4977 7.30938C18.6014 7.55999 18.7629 7.78258 18.9688 7.95905C19.1748 8.13553 19.4196 8.26091 19.6831 8.325C21.4391 8.751 21.4391 11.249 19.6831 11.675C19.4193 11.7389 19.1743 11.8642 18.9681 12.0407C18.7619 12.2172 18.6003 12.4399 18.4964 12.6907C18.3925 12.9414 18.3493 13.2132 18.3703 13.4838C18.3912 13.7544 18.4758 14.0162 18.6171 14.248C19.5571 15.791 17.7911 17.558 16.2471 16.618C16.0155 16.4769 15.7538 16.3924 15.4833 16.3715C15.2129 16.3506 14.9414 16.3938 14.6907 16.4975C14.4401 16.6013 14.2175 16.7627 14.0411 16.9687C13.8646 17.1747 13.7392 17.4194 13.6751 17.683C13.2491 19.439 10.7511 19.439 10.3251 17.683C10.2612 17.4192 10.1359 17.1742 9.95941 16.968C9.78292 16.7618 9.56023 16.6001 9.30947 16.4963C9.05871 16.3924 8.78696 16.3491 8.51634 16.3701C8.24572 16.3911 7.98387 16.4757 7.75212 16.617C6.20912 17.557 4.44212 15.791 5.38212 14.247C5.52322 14.0153 5.60767 13.7537 5.62861 13.4832C5.64954 13.2128 5.60637 12.9412 5.50259 12.6906C5.39882 12.44 5.23738 12.2174 5.03139 12.0409C4.82541 11.8645 4.58069 11.7391 4.31712 11.675C2.56112 11.249 2.56112 8.751 4.31712 8.325C4.58092 8.26108 4.8259 8.13578 5.03212 7.95929C5.23834 7.7828 5.39998 7.56011 5.50387 7.30935C5.60776 7.05859 5.65097 6.78683 5.62999 6.51621C5.60901 6.24559 5.52442 5.98375 5.38312 5.752C4.44312 4.209 6.20912 2.442 7.75312 3.382C8.75312 3.99 10.0491 3.452 10.3251 2.317Z" stroke="#8D94A1" stroke-width="1.5" stroke-linecap="round" stroke-linejoin="round"/>
<path d="M12.0001 13C13.657 13 15.0001 11.6569 15.0001 10C15.0001 8.34315 13.657 7 12.0001 7C10.3433 7 9.00012 8.34315 9.00012 10C9.00012 11.6569 10.3433 13 12.0001 13Z" stroke="#8D94A1" stroke-width="1.5" stroke-linecap="round" stroke-linejoin="round"/>
</svg>
