<svg width="44" height="44" viewBox="0 0 44 44" fill="none" xmlns="http://www.w3.org/2000/svg">
<path d="M13.7577 37.331C12.9718 37.593 12.547 38.4425 12.809 39.2284C13.071 40.0143 13.9205 40.439 14.7064 40.1771L13.7577 37.331ZM25.6551 39.5156L25.519 38.0218L25.6551 39.5156ZM32.509 37.9925L33.1668 39.3405L32.509 37.9925ZM39.0579 32.035L37.8923 31.0909L39.0579 32.035ZM34.5788 28.3073L35.6395 29.3679L34.5788 28.3073ZM31.5626 31.3234L32.6233 32.3841H32.6233L31.5626 31.3234ZM23.3705 31.1617C22.5421 31.1617 21.8705 31.8333 21.8705 32.6617C21.8705 33.4902 22.5421 34.1617 23.3705 34.1617V31.1617ZM38.3616 27.9327L37.5295 29.1808L38.3616 27.9327ZM16.5501 26.9335L17.2209 28.2751L16.5501 26.9335ZM24.748 26.1836L25.1426 24.7364L24.748 26.1836ZM27.9493 27.0567L27.5547 28.5038V28.5038L27.9493 27.0567ZM28.9637 30.8762L27.903 29.8156H27.903L28.9637 30.8762ZM26.1175 31.6011C25.5317 32.1869 25.5317 33.1366 26.1175 33.7224C26.7033 34.3082 27.6531 34.3082 28.2388 33.7224L26.1175 31.6011ZM14.7064 40.1771C14.9854 40.0841 15.5008 40.037 16.3385 40.0967C17.1456 40.1543 18.0833 40.2952 19.1397 40.4611C21.1642 40.7791 23.6602 41.2035 25.7912 41.0094L25.519 38.0218C23.8423 38.1745 21.7691 37.8374 19.6052 37.4975C18.5673 37.3345 17.5059 37.1724 16.552 37.1043C15.6286 37.0385 14.621 37.0432 13.7577 37.331L14.7064 40.1771ZM25.7912 41.0094C27.2117 40.88 28.3776 40.8215 29.4597 40.6257C30.6177 40.4161 31.7079 40.0525 33.1668 39.3405L31.8511 36.6445C30.5843 37.2626 29.7578 37.523 28.9254 37.6736C28.0171 37.838 27.1189 37.876 25.519 38.0218L25.7912 41.0094ZM33.1668 39.3405C34.5577 38.6618 35.9137 37.559 37.0936 36.4252C38.288 35.2776 39.3751 34.0267 40.2236 32.979L37.8923 31.0909C37.0906 32.0808 36.0895 33.2297 35.0151 34.262C33.9262 35.3082 32.8329 36.1654 31.8511 36.6445L33.1668 39.3405ZM33.5181 27.2466L30.502 30.2628L32.6233 32.3841L35.6395 29.3679L33.5181 27.2466ZM28.3317 31.1617H23.3705V34.1617H28.3317V31.1617ZM30.502 30.2628C29.9264 30.8384 29.1457 31.1617 28.3317 31.1617V34.1617C29.9414 34.1617 31.4851 33.5223 32.6233 32.3841L30.502 30.2628ZM39.1936 26.6846C37.4097 25.4953 35.0342 25.7305 33.5181 27.2466L35.6395 29.3679C36.1443 28.863 36.9354 28.7847 37.5295 29.1808L39.1936 26.6846ZM40.2236 32.979C41.8738 30.9416 41.2592 28.0617 39.1936 26.6846L37.5295 29.1808C38.2424 29.6561 38.3438 30.5334 37.8923 31.0909L40.2236 32.979ZM5.85511 26.5463H11.9474V23.5463H5.85511V26.5463ZM11.9705 26.5694V40.2771H14.9705V26.5694H11.9705ZM11.9474 40.3002H5.85511V43.3002H11.9474V40.3002ZM5.83203 40.2771V26.5694H2.83203V40.2771H5.83203ZM5.85511 40.3002C5.85154 40.3002 5.84963 40.2999 5.84887 40.2997C5.84802 40.2995 5.84733 40.2993 5.84658 40.299C5.84491 40.2983 5.84197 40.2966 5.83879 40.2934C5.83561 40.2903 5.83394 40.2873 5.83323 40.2856C5.83291 40.2849 5.8327 40.2842 5.83252 40.2834C5.83237 40.2826 5.83203 40.2807 5.83203 40.2771H2.83203C2.83203 41.9467 4.18551 43.3002 5.85511 43.3002V40.3002ZM11.9705 40.2771C11.9705 40.2807 11.9702 40.2826 11.97 40.2834C11.9698 40.2842 11.9696 40.2849 11.9693 40.2856C11.9686 40.2873 11.9669 40.2903 11.9637 40.2934C11.9606 40.2966 11.9576 40.2983 11.9559 40.299C11.9552 40.2993 11.9545 40.2995 11.9537 40.2997C11.9529 40.2999 11.951 40.3002 11.9474 40.3002V43.3002C13.617 43.3002 14.9705 41.9467 14.9705 40.2771H11.9705ZM11.9474 26.5463C11.951 26.5463 11.9529 26.5467 11.9537 26.5468C11.9545 26.547 11.9552 26.5472 11.9559 26.5475C11.9576 26.5483 11.9606 26.5499 11.9637 26.5531C11.9669 26.5563 11.9686 26.5592 11.9693 26.5609C11.9696 26.5616 11.9698 26.5623 11.97 26.5632C11.9702 26.5639 11.9705 26.5659 11.9705 26.5694H14.9705C14.9705 24.8998 13.617 23.5463 11.9474 23.5463V26.5463ZM5.85511 23.5463C4.18551 23.5463 2.83203 24.8998 2.83203 26.5694H5.83203C5.83203 26.5659 5.83237 26.5639 5.83252 26.5632C5.8327 26.5623 5.83291 26.5616 5.83323 26.5609C5.83394 26.5592 5.83561 26.5563 5.83879 26.5531C5.84197 26.5499 5.84491 26.5483 5.84659 26.5475C5.84733 26.5472 5.84802 26.547 5.84887 26.5468C5.84963 26.5467 5.85154 26.5463 5.85511 26.5463V23.5463ZM14.9029 29.4341L17.2209 28.2751L15.8793 25.5918L13.5612 26.7509L14.9029 29.4341ZM21.3181 27.3079H21.9427V24.3079H21.3181V27.3079ZM24.3533 27.6307L27.5547 28.5038L28.344 25.6095L25.1426 24.7364L24.3533 27.6307ZM27.903 29.8156L26.1175 31.6011L28.2388 33.7224L30.0243 31.9369L27.903 29.8156ZM27.5547 28.5038C28.1359 28.6623 28.329 29.3896 27.903 29.8156L30.0243 31.9369C32.0791 29.8821 31.1475 26.3741 28.344 25.6095L27.5547 28.5038ZM21.9427 27.3079C22.757 27.3079 23.5677 27.4164 24.3533 27.6307L25.1426 24.7364C24.0998 24.452 23.0237 24.3079 21.9427 24.3079V27.3079ZM17.2209 28.2751C18.4931 27.639 19.8958 27.3079 21.3181 27.3079V24.3079C19.4301 24.3079 17.568 24.7475 15.8793 25.5918L17.2209 28.2751ZM31.7705 14.3848C31.7705 16.9211 29.7144 18.9771 27.1782 18.9771V21.9771C31.3713 21.9771 34.7705 18.5779 34.7705 14.3848H31.7705ZM27.1782 18.9771C24.6419 18.9771 22.5859 16.9211 22.5859 14.3848H19.5859C19.5859 18.5779 22.9851 21.9771 27.1782 21.9771V18.9771ZM22.5859 14.3848C22.5859 11.8485 24.6419 9.7925 27.1782 9.7925V6.7925C22.9851 6.7925 19.5859 10.1917 19.5859 14.3848H22.5859ZM27.1782 9.7925C29.7144 9.7925 31.7705 11.8485 31.7705 14.3848H34.7705C34.7705 10.1917 31.3713 6.7925 27.1782 6.7925V9.7925ZM21.0859 12.8848C18.5496 12.8848 16.4936 10.8288 16.4936 8.2925H13.4936C13.4936 12.4856 16.8928 15.8848 21.0859 15.8848V12.8848ZM16.4936 8.2925C16.4936 5.75624 18.5496 3.7002 21.0859 3.7002V0.700195C16.8928 0.700195 13.4936 4.09939 13.4936 8.2925H16.4936ZM21.0859 3.7002C23.6221 3.7002 25.6782 5.75624 25.6782 8.2925H28.6782C28.6782 4.09939 25.279 0.700195 21.0859 0.700195V3.7002Z" fill="white"/>
</svg>
