<svg width="26" height="23" viewBox="0 0 26 23" fill="none" xmlns="http://www.w3.org/2000/svg">
<g clip-path="url(#clip0_842_146672)">
<mask id="mask0_842_146672" style="mask-type:luminance" maskUnits="userSpaceOnUse" x="0" y="0" width="26" height="23">
<path d="M26 0H0V23H26V0Z" fill="white"/>
</mask>
<g mask="url(#mask0_842_146672)">
<path d="M8.00111 13.1087C7.98632 12.2744 8.11929 11.6034 8.39997 11.0957C8.68065 10.5881 9.04504 10.2186 9.49315 9.98745C9.94619 9.75623 10.4238 9.64062 10.9261 9.64062C11.4284 9.64062 11.8863 9.75371 12.3 9.97989C12.7185 10.201 13.1962 10.5504 13.7329 11.0279C14.0973 11.3495 14.3879 11.5757 14.6045 11.7064C14.8261 11.8371 15.0674 11.9024 15.3284 11.9024C15.7519 11.9024 16.0867 11.7466 16.3329 11.435C16.5791 11.1183 16.6973 10.661 16.6875 10.0628H18.2829C18.2977 10.8972 18.1647 11.5682 17.8841 12.0758C17.6083 12.5835 17.2439 12.9529 16.7909 13.1841C16.3379 13.4153 15.8602 13.5309 15.3579 13.5309C14.8556 13.5309 14.3977 13.4204 13.9841 13.1992C13.5704 12.973 13.0928 12.6212 12.5511 12.1437C12.1916 11.822 11.9011 11.5958 11.6795 11.4651C11.4579 11.3345 11.2166 11.2691 10.9556 11.2691C10.5568 11.2691 10.2269 11.4124 9.96588 11.6989C9.70981 11.9803 9.58671 12.4503 9.59656 13.1087H8.00111Z" fill="#A9C8FF"/>
</g>
</g>
<defs>
<clipPath id="clip0_842_146672">
<rect width="26" height="23" fill="white"/>
</clipPath>
</defs>
</svg>
