<svg width="44" height="44" viewBox="0 0 44 44" fill="none" xmlns="http://www.w3.org/2000/svg">
<path d="M11.97 17.0543H12.2267M22.0004 17.0543H22.2571M31.7711 17.0543H32.0278M20.9004 26.9543H8.3115C6.15145 26.9543 4.40039 25.2032 4.40039 23.0432V11.0654C4.40039 8.90536 6.15145 7.1543 8.3115 7.1543H35.6893C37.8493 7.1543 39.6004 8.90536 39.6004 11.0654V17.0543M28.2542 24.9286L30.8026 23.6544C32.6607 22.7254 34.8478 22.7254 36.7058 23.6544L39.2542 24.9286C39.2542 24.9286 39.2542 28.9436 39.2542 31.0611C39.2542 33.1786 37.2968 34.608 33.7542 36.8453C30.2116 34.608 28.2542 32.7203 28.2542 31.0611V24.9286Z" stroke="white" stroke-width="3" stroke-linecap="round" stroke-linejoin="round"/>
</svg>
