<svg width="44" height="44" viewBox="0 0 44 44" fill="none" xmlns="http://www.w3.org/2000/svg">
<path d="M2.90039 39.5997C2.9003 40.4282 3.57179 41.0998 4.40022 41.0999C5.22865 41.1 5.9003 40.4285 5.90039 39.6001L2.90039 39.5997ZM4.40113 32.9992L5.90113 32.9993L4.40113 32.9992ZM23.1004 27.8999C23.9288 27.8999 24.6004 27.2283 24.6004 26.3999C24.6004 25.5715 23.9288 24.8999 23.1004 24.8999V27.8999ZM39.6004 30.0999C40.4288 30.0999 41.1004 29.4283 41.1004 28.5999C41.1004 27.7715 40.4288 27.0999 39.6004 27.0999V30.0999ZM29.7004 27.0999C28.872 27.0999 28.2004 27.7715 28.2004 28.5999C28.2004 29.4283 28.872 30.0999 29.7004 30.0999V27.0999ZM33.1504 33.5496C33.1504 34.3781 33.822 35.0496 34.6504 35.0496C35.4788 35.0496 36.1504 34.3781 36.1504 33.5496H33.1504ZM36.1504 23.6496C36.1504 22.8212 35.4788 22.1496 34.6504 22.1496C33.822 22.1496 33.1504 22.8212 33.1504 23.6496H36.1504ZM32.6338 3.09144C31.9112 2.68638 30.997 2.94382 30.5919 3.66647C30.1869 4.38911 30.4443 5.3033 31.1669 5.70836L32.6338 3.09144ZM31.1669 16.2914C30.4443 16.6965 30.1869 17.6107 30.5919 18.3333C30.997 19.056 31.9112 19.3134 32.6338 18.9084L31.1669 16.2914ZM24.9004 10.9999C24.9004 13.8166 22.617 16.0999 19.8004 16.0999V19.0999C24.2739 19.0999 27.9004 15.4734 27.9004 10.9999H24.9004ZM19.8004 16.0999C16.9837 16.0999 14.7004 13.8166 14.7004 10.9999H11.7004C11.7004 15.4734 15.3269 19.0999 19.8004 19.0999V16.0999ZM14.7004 10.9999C14.7004 8.18325 16.9837 5.8999 19.8004 5.8999V2.8999C15.3269 2.8999 11.7004 6.5264 11.7004 10.9999H14.7004ZM19.8004 5.8999C22.617 5.8999 24.9004 8.18325 24.9004 10.9999H27.9004C27.9004 6.52639 24.2739 2.8999 19.8004 2.8999V5.8999ZM5.90039 39.6001L5.90113 32.9993L2.90113 32.999L2.90039 39.5997L5.90039 39.6001ZM11.0011 24.8999C6.52798 24.8999 2.90164 28.5258 2.90113 32.999L5.90113 32.9993C5.90145 30.1829 8.1847 27.8999 11.0011 27.8999V24.8999ZM11.0011 27.8999H23.1004V24.8999H11.0011V27.8999ZM39.6004 27.0999H34.6504V30.0999H39.6004V27.0999ZM34.6504 27.0999H29.7004V30.0999H34.6504V27.0999ZM36.1504 33.5496V28.5999H33.1504V33.5496H36.1504ZM36.1504 28.5999V23.6496H33.1504V28.5999H36.1504ZM31.1669 5.70836C33.5088 7.02105 34.8004 8.98667 34.8004 10.9999H37.8004C37.8004 7.60434 35.6315 4.77177 32.6338 3.09144L31.1669 5.70836ZM34.8004 10.9999C34.8004 13.0131 33.5088 14.9788 31.1669 16.2914L32.6338 18.9084C35.6315 17.228 37.8004 14.3955 37.8004 10.9999H34.8004Z" fill="white"/>
</svg>
