<svg width="44" height="44" viewBox="0 0 44 44" fill="none" xmlns="http://www.w3.org/2000/svg">
<path d="M38.3977 3.90346C37.9214 3.32079 37.2078 3 36.3884 3C35.943 3 35.4711 3.09374 34.9861 3.27913L1.97338 15.8826C0.221435 16.5513 -0.0145185 17.5547 0.000656301 18.0933C0.0158311 18.632 0.308318 19.6205 2.09538 20.1892C2.10609 20.1925 2.1168 20.1957 2.12751 20.1987L8.97523 22.1586L12.6785 32.7495C13.1834 34.1934 14.3168 35.0903 15.6367 35.0903C16.4689 35.0903 17.2875 34.7415 18.004 34.0821L22.2395 30.1817L28.3829 35.129C28.3835 35.1296 28.3844 35.1299 28.385 35.1305L28.4433 35.1775C28.4487 35.1817 28.4544 35.1861 28.4597 35.1903C29.1426 35.72 29.8879 35.9997 30.616 36H30.6163C32.0389 36 33.1716 34.9469 33.5016 33.3173L38.9107 6.6052C39.1279 5.53301 38.9458 4.57361 38.3977 3.90346ZM11.266 21.7863L24.4774 15.0363L16.2511 23.7783C16.1163 23.9215 16.0208 24.0967 15.9738 24.2875L14.3876 30.7135L11.266 21.7863ZM16.4558 32.4008C16.4011 32.451 16.346 32.496 16.291 32.5373L17.7626 26.5762L20.4397 28.7322L16.4558 32.4008ZM36.6711 6.15139L31.262 32.8638C31.2099 33.1194 31.0436 33.7143 30.616 33.7143C30.4048 33.7143 30.1394 33.5991 29.8677 33.3899L22.9063 27.7841C22.9054 27.7832 22.9042 27.7823 22.903 27.7817L18.7609 24.4458L30.6571 11.8037C31.0379 11.3989 31.0725 10.7791 30.7389 10.3345C30.4051 9.8899 29.8002 9.75004 29.3053 10.003L9.73933 19.9999L2.79848 18.0139L35.8011 5.41428C36.0799 5.30774 36.2744 5.28543 36.3884 5.28543C36.4583 5.28543 36.5827 5.29376 36.6288 5.3506C36.6895 5.42469 36.7669 5.67734 36.6711 6.15139Z" fill="white"/>
</svg>
