<svg width="32" height="32" viewBox="0 0 32 32" fill="none" xmlns="http://www.w3.org/2000/svg">
<rect x="0.00012207" width="32" height="32" rx="8" fill="#FEDE31"/>
<path d="M14.6268 21.4757C15.5801 21.9891 16.5701 22.2491 17.7001 21.4557M14.2468 14.7991L17.8635 14.8291L18.0001 19.3024C17.6935 20.0191 16.3068 20.1224 16.0968 20.4457C15.8468 20.1391 14.6401 19.8691 14.2768 19.3024L14.2468 14.7991ZM18.4635 16.5424C21.2701 14.9291 16.8635 13.0724 19.6668 11.3324C20.3335 12.4757 20.6468 14.0791 22.3801 13.8224C22.5601 15.4157 22.0301 15.6991 21.3468 15.7057C21.5835 16.6391 21.9635 16.9757 22.5135 17.2091C22.3535 17.7791 22.1101 18.2591 21.2801 18.1524C20.8268 20.4357 20.0501 20.6557 18.7468 20.4857C19.4635 19.0191 18.7201 18.2557 19.4635 17.1691L18.4635 16.5424ZM15.0335 10.0391H17.0735L17.1168 11.9691L17.8801 12.6191C17.4068 13.1757 17.0135 13.8024 16.1968 14.0757C15.2868 13.8257 14.8635 13.2191 14.4035 12.6191L15.1001 11.9524L15.0335 10.0391ZM13.5368 16.6657C10.7301 15.0491 15.1368 13.1924 12.3335 11.4624C11.6668 12.6057 11.3535 14.2091 9.62012 13.9524C9.44012 15.5457 9.95346 15.8257 10.6535 15.8357C10.4301 16.7657 10.0501 17.1057 9.50012 17.3324C9.66012 17.8991 9.90346 18.3824 10.7335 18.2724C11.1868 20.5557 11.9635 20.7757 13.2668 20.6057C12.5501 19.1391 13.2935 18.3757 12.5501 17.2724L13.5368 16.6657Z" stroke="#0A1106" stroke-width="0.5" stroke-linecap="round" stroke-linejoin="round"/>
</svg>
