<svg width="44" height="44" viewBox="0 0 44 44" fill="none" xmlns="http://www.w3.org/2000/svg">
<path d="M9.90039 35.1999C10.7459 34.253 14.7056 29.8955 15.8661 29.8955H28.1355C29.817 29.8955 33.2497 33.5075 34.1004 34.7808M39.6004 21.9999C39.6004 31.7201 31.7206 39.5999 22.0004 39.5999C12.2802 39.5999 4.40039 31.7201 4.40039 21.9999C4.40039 12.2797 12.2802 4.3999 22.0004 4.3999C31.7206 4.3999 39.6004 12.2797 39.6004 21.9999ZM28.3049 16.0012C28.3049 12.6434 25.4703 9.8999 22.0009 9.8999C18.5316 9.8999 15.6969 12.6434 15.6969 16.0012C15.6969 19.3589 18.5316 22.1024 22.0009 22.1024C25.4703 22.1024 28.3049 19.3589 28.3049 16.0012Z" stroke="white" stroke-width="3"/>
</svg>
