<svg width="44" height="44" viewBox="0 0 44 44" fill="none" xmlns="http://www.w3.org/2000/svg">
<path d="M10.5037 11.4745C9.14176 13.6657 8.43259 16.162 8.43259 18.7054C8.43259 19.2141 8.53736 22.4695 8.53736 22.4695C8.53736 24.919 7.87655 27.3293 6.61133 29.4579M29.7113 18.7054C29.7033 15.3873 27.5113 11.4745 22.9621 11.4745C18.4128 11.4745 15.7495 15.2071 15.7415 18.5174V20.5208C15.7415 25.2866 15.1929 29.8491 12.2434 33.6602M17.4821 39.5999C21.0763 34.5758 23.0024 28.6048 23.0024 22.4852V18.4471M26.2058 37.7393C27.5113 36.2999 29.7113 29.6999 29.7113 25.2999M35.6142 33.887C36.8069 29.9977 37.3872 22.4615 37.3872 18.4078C37.3872 10.6917 30.9563 4.42338 23.0024 4.3999H22.9621C20.4316 4.3999 17.9415 5.04943 15.7415 6.27806" stroke="white" stroke-width="3" stroke-linecap="round" stroke-linejoin="round"/>
</svg>
