<svg width="22" height="22" viewBox="0 0 22 22" fill="none" xmlns="http://www.w3.org/2000/svg">
<path d="M15.2426 8.17157C15.6332 7.78105 15.6332 7.14788 15.2426 6.75736C14.8521 6.36684 14.219 6.36684 13.8284 6.75736L15.2426 8.17157ZM6.75736 13.8284C6.36683 14.219 6.36683 14.8521 6.75736 15.2426C7.14788 15.6332 7.78105 15.6332 8.17157 15.2426L6.75736 13.8284ZM13.8284 15.2426C14.219 15.6332 14.8521 15.6332 15.2426 15.2426C15.6332 14.8521 15.6332 14.219 15.2426 13.8284L13.8284 15.2426ZM8.17157 6.75736C7.78105 6.36683 7.14788 6.36683 6.75736 6.75736C6.36683 7.14788 6.36683 7.78105 6.75736 8.17157L8.17157 6.75736ZM20 11C20 15.9706 15.9706 20 11 20V22C17.0751 22 22 17.0751 22 11H20ZM11 20C6.02944 20 2 15.9706 2 11H0C0 17.0751 4.92487 22 11 22V20ZM2 11C2 6.02944 6.02944 2 11 2V0C4.92487 0 0 4.92487 0 11H2ZM11 2C15.9706 2 20 6.02944 20 11H22C22 4.92487 17.0751 0 11 0V2ZM13.8284 6.75736L10.2929 10.2929L11.7071 11.7071L15.2426 8.17157L13.8284 6.75736ZM10.2929 10.2929L6.75736 13.8284L8.17157 15.2426L11.7071 11.7071L10.2929 10.2929ZM15.2426 13.8284L11.7071 10.2929L10.2929 11.7071L13.8284 15.2426L15.2426 13.8284ZM11.7071 10.2929L8.17157 6.75736L6.75736 8.17157L10.2929 11.7071L11.7071 10.2929Z" fill="#EDF4FF"/>
</svg>
