<svg width="40" height="40" viewBox="0 0 40 40" fill="none" xmlns="http://www.w3.org/2000/svg">
<circle cx="20" cy="20" r="20" fill="url(#paint0_linear_819_26722)"/>
<path d="M5.93263 17.6006C6.92628 17.6006 7.63005 18.1662 7.63005 19.0467C7.64214 19.2223 7.60955 19.3981 7.53524 19.5581C7.46093 19.7182 7.34723 19.8575 7.20444 19.9635C7.70713 20.2191 8.00874 20.6577 8.00874 21.3222C8.00874 22.2505 7.24298 23.0025 6.20073 23.0025H2.40039V17.6006H5.93263ZM3.64539 19.6815H5.97787C6.10386 19.6743 6.22177 19.6181 6.30567 19.5254C6.38957 19.4326 6.43259 19.3108 6.42527 19.1868C6.42527 18.9527 6.29624 18.6922 5.87901 18.6922H3.64539V19.6815ZM3.64539 21.8977H6.15884C6.55597 21.8977 6.79391 21.6536 6.79391 21.3222C6.79745 21.2439 6.78409 21.1658 6.75469 21.093C6.72529 21.0202 6.68052 20.9543 6.62336 20.8998C6.56619 20.8452 6.49792 20.8032 6.42304 20.7766C6.34817 20.7499 6.2684 20.7392 6.189 20.7451H3.64539V21.8977Z" fill="white"/>
<path d="M13.8158 17.6006V18.7037H10.0741V19.6931H13.4388V20.7978H10.0741V21.8729H13.9549V22.9959H8.84082V17.6006H13.8158Z" fill="white"/>
<path d="M18.1135 17.6006C19.4037 17.6006 20.3772 18.4498 20.3772 19.7195C20.3894 20.087 20.2963 20.4504 20.1084 20.7683C19.9205 21.0861 19.6455 21.3455 19.3149 21.5168L20.1527 23.0008H18.8021L18.157 21.7987H16.1127V23.0008H14.8711V17.6006H18.1135ZM16.1178 20.6874H18.0632C18.6983 20.6874 19.1356 20.346 19.1356 19.7195C19.1356 19.0929 18.6983 18.7136 18.0632 18.7136H16.1178V20.6874Z" fill="white"/>
<path d="M22.4323 17.6006V23.0025H21.1924V17.6006H22.4323Z" fill="white"/>
<path d="M26.958 17.6006C27.9517 17.6006 28.6554 18.1662 28.6554 19.0467C28.6675 19.2223 28.6349 19.3981 28.5606 19.5581C28.4863 19.7182 28.3726 19.8575 28.2298 19.9635C28.7325 20.2191 29.0341 20.6577 29.0341 21.3222C29.0341 22.2505 28.2684 23.0025 27.2261 23.0025H23.4258V17.6006H26.958ZM24.6658 19.6815H26.9982C27.1242 19.6743 27.2421 19.6181 27.326 19.5254C27.4099 19.4326 27.453 19.3108 27.4456 19.1868C27.4456 18.9527 27.3166 18.6922 26.8994 18.6922H24.6658V19.6815ZM24.6658 21.8977H27.1876C27.5847 21.8977 27.8227 21.6536 27.8227 21.3222C27.8262 21.2439 27.8128 21.1658 27.7834 21.093C27.754 21.0202 27.7093 20.9543 27.6521 20.8998C27.5949 20.8452 27.5267 20.8032 27.4518 20.7766C27.3769 20.7499 27.2971 20.7392 27.2177 20.7451H24.6658V21.8977Z" fill="white"/>
<path d="M31.0993 17.6006V23.0025H29.8594V17.6006H31.0993Z" fill="white"/>
<path d="M37.5998 17.6006V18.6938H35.3662V23.0025H34.1262V18.6938H31.8926V17.6006H37.5998Z" fill="white"/>
<defs>
<linearGradient id="paint0_linear_819_26722" x1="-1.37274e-07" y1="18.9474" x2="40" y2="18.9474" gradientUnits="userSpaceOnUse">
<stop stop-color="#175D8A"/>
<stop offset="1" stop-color="#307BAB"/>
</linearGradient>
</defs>
</svg>
