<svg width="40" height="40" viewBox="0 0 40 40" fill="none" xmlns="http://www.w3.org/2000/svg">
<circle cx="20" cy="20" r="20" fill="url(#paint0_linear_1235_9535)"/>
<path d="M5.93263 17.6004C6.92628 17.6004 7.63005 18.166 7.63005 19.0465C7.64214 19.2221 7.60955 19.3979 7.53524 19.558C7.46093 19.718 7.34723 19.8574 7.20444 19.9633C7.70713 20.2189 8.00874 20.6575 8.00874 21.322C8.00874 22.2504 7.24298 23.0023 6.20073 23.0023H2.40039V17.6004H5.93263ZM3.64539 19.6813H5.97787C6.10386 19.6741 6.22177 19.6179 6.30567 19.5252C6.38957 19.4324 6.43259 19.3106 6.42527 19.1867C6.42527 18.9525 6.29624 18.692 5.87901 18.692H3.64539V19.6813ZM3.64539 21.8975H6.15884C6.55597 21.8975 6.79391 21.6535 6.79391 21.322C6.79745 21.2437 6.78409 21.1656 6.75469 21.0928C6.72529 21.02 6.68052 20.9541 6.62336 20.8996C6.56619 20.845 6.49792 20.8031 6.42304 20.7764C6.34817 20.7497 6.2684 20.739 6.189 20.7449H3.64539V21.8975Z" fill="white"/>
<path d="M13.8158 17.6004V18.7035H10.0741V19.6929H13.4388V20.7977H10.0741V21.8728H13.9549V22.9957H8.84082V17.6004H13.8158Z" fill="white"/>
<path d="M18.1135 17.6004C19.4037 17.6004 20.3772 18.4496 20.3772 19.7193C20.3894 20.0868 20.2963 20.4502 20.1084 20.7681C19.9205 21.0859 19.6455 21.3453 19.3149 21.5166L20.1527 23.0006H18.8021L18.157 21.7986H16.1127V23.0006H14.8711V17.6004H18.1135ZM16.1178 20.6872H18.0632C18.6983 20.6872 19.1356 20.3459 19.1356 19.7193C19.1356 19.0927 18.6983 18.7134 18.0632 18.7134H16.1178V20.6872Z" fill="white"/>
<path d="M22.4323 17.6004V23.0023H21.1924V17.6004H22.4323Z" fill="white"/>
<path d="M26.958 17.6004C27.9517 17.6004 28.6554 18.166 28.6554 19.0465C28.6675 19.2221 28.6349 19.3979 28.5606 19.558C28.4863 19.718 28.3726 19.8574 28.2298 19.9633C28.7325 20.2189 29.0341 20.6575 29.0341 21.322C29.0341 22.2504 28.2684 23.0023 27.2261 23.0023H23.4258V17.6004H26.958ZM24.6658 19.6813H26.9982C27.1242 19.6741 27.2421 19.6179 27.326 19.5252C27.4099 19.4324 27.453 19.3106 27.4456 19.1867C27.4456 18.9525 27.3166 18.692 26.8994 18.692H24.6658V19.6813ZM24.6658 21.8975H27.1876C27.5847 21.8975 27.8227 21.6535 27.8227 21.322C27.8262 21.2437 27.8128 21.1656 27.7834 21.0928C27.754 21.02 27.7093 20.9541 27.6521 20.8996C27.5949 20.845 27.5267 20.8031 27.4518 20.7764C27.3769 20.7497 27.2971 20.739 27.2177 20.7449H24.6658V21.8975Z" fill="white"/>
<path d="M31.0993 17.6004V23.0023H29.8594V17.6004H31.0993Z" fill="white"/>
<path d="M37.5998 17.6004V18.6936H35.3662V23.0023H34.1262V18.6936H31.8926V17.6004H37.5998Z" fill="white"/>
<defs>
<linearGradient id="paint0_linear_1235_9535" x1="-1.37274e-07" y1="18.9474" x2="40" y2="18.9474" gradientUnits="userSpaceOnUse">
<stop stop-color="#3C4C64"/>
<stop offset="1" stop-color="#09172C"/>
</linearGradient>
</defs>
</svg>
