<svg width="54" height="50" viewBox="0 0 54 50" fill="none" xmlns="http://www.w3.org/2000/svg">
<circle cx="25" cy="25" r="25" fill="url(#paint0_linear_2421_79858)"/>
<path d="M38.7685 21.5254C38.654 19.8402 37.9204 18.2537 36.7047 17.0616C35.6395 16.0131 34.2634 15.3247 32.7749 15.0958C31.2864 14.8668 29.7625 15.1091 28.423 15.7877C28.3549 14.7613 27.8928 13.7989 27.1302 13.0955C26.3677 12.3921 25.3618 12.0005 24.3166 12C24.2659 12 24.2174 12.0198 24.1815 12.055C24.1457 12.0903 24.1256 12.1381 24.1256 12.1879V19.5467L23.1043 20.5543L22.9213 20.7344L21.6294 22.0031L19.4807 24.1175C18.9479 24.6529 18.2306 24.9725 17.4703 25.0132C16.7099 25.0539 15.9616 24.8128 15.3729 24.3374C14.7843 23.8619 14.398 23.1868 14.2902 22.4449C14.1824 21.7031 14.361 20.9485 14.7908 20.3298C14.9001 20.1707 15.0244 20.0221 15.1621 19.886C15.2099 19.839 15.2603 19.7947 15.3107 19.7529C15.8918 19.2516 16.6448 18.9865 17.4171 19.0112C18.1895 19.0359 18.9234 19.3487 19.4701 19.886L18.2154 18.6539C18.1358 18.5756 18.0536 18.4999 17.9687 18.4294C17.0489 17.6418 15.8596 17.2269 14.641 17.2686C13.4225 17.3103 12.2653 17.8054 11.4033 18.6539C10.618 19.4249 10.1278 20.4394 10.0159 21.5254C9.99469 21.8452 9.99469 22.1661 10.0159 22.486C10.1322 24.1714 10.8654 25.7583 12.0797 26.9524C13.4128 28.2635 15.2205 29 17.1052 29C18.99 29 20.7977 28.2635 22.1308 26.9524L22.1732 26.9106L24.3856 24.7309L25.6801 23.4597L25.8631 23.2795L27.1523 22.0109L29.3037 19.8939C29.8364 19.3584 30.5537 19.0389 31.3141 18.9982C32.0745 18.9575 32.8228 19.1986 33.4115 19.674C34.0001 20.1494 34.3864 20.8246 34.4942 21.5664C34.6019 22.3082 34.4233 23.0629 33.9936 23.6815C33.8832 23.8406 33.758 23.9891 33.6196 24.1253L33.4737 24.2611C32.892 24.7614 32.1389 25.0257 31.3668 25.0005C30.5946 24.9753 29.861 24.6625 29.3143 24.1253L30.5451 25.36C30.6247 25.4383 30.7069 25.5114 30.7918 25.5845C31.7124 26.3718 32.9019 26.7863 34.1208 26.7447C35.3396 26.703 36.4971 26.2082 37.3599 25.36C38.1464 24.5902 38.636 23.575 38.7446 22.4886C38.7766 22.1685 38.7845 21.8466 38.7685 21.5254Z" fill="url(#paint1_linear_2421_79858)"/>
<path d="M37.3704 25.3613C36.5099 26.2099 35.3546 26.7059 34.1373 26.7495C32.92 26.7931 31.7311 26.381 30.8102 25.5963C30.7254 25.5258 30.6431 25.4501 30.5635 25.3718L29.3088 24.1397L27.5793 22.4351L22.1306 17.0655C21.1241 16.0742 19.8381 15.4033 18.4395 15.1399C17.0408 14.8764 15.594 15.0325 14.2866 15.588C14.1702 14.6013 13.6895 13.6911 12.9359 13.0304C12.1822 12.3696 11.2082 12.0043 10.1988 12.0039C10.1482 12.0039 10.0996 12.0237 10.0638 12.059C10.0279 12.0942 10.0078 12.142 10.0078 12.1919V21.7407C10.0078 21.6598 10.0078 21.5736 10.0211 21.4797C10.14 20.4094 10.6266 19.4111 11.4005 18.65C12.2627 17.8007 13.4203 17.3051 14.6395 17.2635C15.8587 17.2218 17.0486 17.6371 17.9685 18.4255C18.0534 18.496 18.1357 18.5717 18.2152 18.65L19.47 19.8821L24.3987 24.7244L26.6482 26.938C27.3079 27.5878 28.0913 28.1033 28.9536 28.4551C29.816 28.8068 30.7402 28.9878 31.6737 28.9878C32.6071 28.9878 33.5314 28.8068 34.3938 28.4551C35.2561 28.1033 36.0395 27.5878 36.6992 26.938C37.9134 25.7507 38.6486 24.1702 38.7683 22.4899C38.6561 23.578 38.1617 24.5935 37.3704 25.3613Z" fill="url(#paint2_linear_2421_79858)"/>
<path d="M12.9101 33C13.7287 33 14.3085 33.466 14.3085 34.1914C14.3185 34.336 14.2916 34.4809 14.2304 34.6127C14.1692 34.7446 14.0755 34.8594 13.9579 34.9467C14.372 35.1573 14.6205 35.5186 14.6205 36.0661C14.6205 36.8309 13.9896 37.4504 13.1309 37.4504H10V33H12.9101ZM11.0257 34.7144H12.9473C13.0511 34.7084 13.1483 34.6622 13.2174 34.5857C13.2865 34.5093 13.322 34.409 13.3159 34.3069C13.3159 34.114 13.2096 33.8993 12.8659 33.8993H11.0257V34.7144ZM11.0257 36.5402H13.0964C13.4236 36.5402 13.6196 36.3391 13.6196 36.0661C13.6226 36.0016 13.6115 35.9372 13.5873 35.8772C13.5631 35.8172 13.5262 35.763 13.4791 35.7181C13.432 35.6731 13.3758 35.6385 13.3141 35.6166C13.2524 35.5946 13.1867 35.5857 13.1213 35.5906H11.0257V36.5402Z" fill="white"/>
<path d="M19.4053 33V33.9088H16.3227V34.7239H19.0947V35.6341H16.3227V36.5198H19.5199V37.4449H15.3066V33H19.4053Z" fill="white"/>
<path d="M22.9447 33C24.0077 33 24.8097 33.6996 24.8097 34.7456C24.8198 35.0484 24.743 35.3479 24.5882 35.6097C24.4334 35.8716 24.2069 36.0853 23.9345 36.2264L24.6247 37.449H23.5121L22.9806 36.4587H21.2964V37.449H20.2734V33H22.9447ZM21.3005 35.5431H22.9033C23.4265 35.5431 23.7868 35.2619 23.7868 34.7456C23.7868 34.2294 23.4265 33.917 22.9033 33.917H21.3005V35.5431Z" fill="white"/>
<path d="M26.504 33V37.4504H25.4824V33H26.504Z" fill="white"/>
<path d="M30.2323 33C31.051 33 31.6308 33.466 31.6308 34.1914C31.6407 34.336 31.6139 34.4809 31.5526 34.6127C31.4914 34.7446 31.3978 34.8594 31.2801 34.9467C31.6943 35.1573 31.9427 35.5186 31.9427 36.0661C31.9427 36.8309 31.3119 37.4504 30.4532 37.4504H27.3223V33H30.2323ZM28.3438 34.7144H30.2655C30.3693 34.7084 30.4664 34.6622 30.5355 34.5857C30.6046 34.5093 30.6401 34.409 30.6341 34.3069C30.6341 34.114 30.5278 33.8993 30.184 33.8993H28.3438V34.7144ZM28.3438 36.5402H30.4215C30.7486 36.5402 30.9447 36.3391 30.9447 36.0661C30.9476 36.0016 30.9366 35.9372 30.9123 35.8772C30.8881 35.8172 30.8512 35.763 30.8042 35.7181C30.7571 35.6731 30.7008 35.6385 30.6391 35.6166C30.5774 35.5946 30.5117 35.5857 30.4463 35.5906H28.3438V36.5402Z" fill="white"/>
<path d="M33.6427 33V37.4504H32.6211V33H33.6427Z" fill="white"/>
<path d="M38.9988 33V33.9007H37.1586V37.4504H36.1371V33.9007H34.2969V33H38.9988Z" fill="white"/>
<rect x="38" y="32" width="16" height="16" rx="4" fill="url(#paint3_linear_2421_79858)"/>
<g clip-path="url(#clip0_2421_79858)">
<path d="M42 44.0002H44L49.25 38.7502C49.5152 38.4849 49.6642 38.1252 49.6642 37.7502C49.6642 37.3751 49.5152 37.0154 49.25 36.7502C48.9848 36.4849 48.6251 36.3359 48.25 36.3359C47.8749 36.3359 47.5152 36.4849 47.25 36.7502L42 42.0002V44.0002Z" stroke="white" stroke-linecap="round" stroke-linejoin="round"/>
<path d="M46.75 37.25L48.75 39.25" stroke="white" stroke-linecap="round" stroke-linejoin="round"/>
</g>
<defs>
<linearGradient id="paint0_linear_2421_79858" x1="-1.71592e-07" y1="23.6843" x2="50" y2="23.6843" gradientUnits="userSpaceOnUse">
<stop stop-color="#175D8A"/>
<stop offset="1" stop-color="#307BAB"/>
</linearGradient>
<linearGradient id="paint1_linear_2421_79858" x1="4.59381" y1="14.7775" x2="45.9587" y2="30.2016" gradientUnits="userSpaceOnUse">
<stop stop-color="#A7FAFA"/>
<stop offset="0.2" stop-color="#83C4C8"/>
<stop offset="0.48" stop-color="#527C85"/>
<stop offset="0.72" stop-color="#2E4855"/>
<stop offset="0.9" stop-color="#182736"/>
<stop offset="1" stop-color="#101B2B"/>
</linearGradient>
<linearGradient id="paint2_linear_2421_79858" x1="5270.88" y1="1865.46" x2="2924.71" y2="-507.31" gradientUnits="userSpaceOnUse">
<stop stop-color="#213A5C"/>
<stop offset="0.13" stop-color="#27496E"/>
<stop offset="0.53" stop-color="#3874A2"/>
<stop offset="0.83" stop-color="#438FC3"/>
<stop offset="1" stop-color="#4799CF"/>
</linearGradient>
<linearGradient id="paint3_linear_2421_79858" x1="46" y1="32" x2="46" y2="48" gradientUnits="userSpaceOnUse">
<stop stop-color="#2D98DE"/>
<stop offset="1" stop-color="#44AAEC"/>
</linearGradient>
<clipPath id="clip0_2421_79858">
<rect width="12" height="12" fill="white" transform="translate(40 34)"/>
</clipPath>
</defs>
</svg>
