<svg width="47" height="47" viewBox="0 0 47 47" fill="none" xmlns="http://www.w3.org/2000/svg">
<g clip-path="url(#clip0)">
<path d="M40.1142 6.88012C30.9355 -2.2958 16.056 -2.2936 6.88012 6.88517C-2.2958 16.0639 -2.2936 30.9433 6.88517 40.1192C16.0639 49.2951 30.9433 49.2929 40.1192 40.1142C44.526 35.706 47.001 29.7277 46.9997 23.4946C46.9984 17.2625 44.5216 11.2862 40.1142 6.88012ZM35.5896 32.7349C35.5886 32.7359 35.5876 32.737 35.5865 32.738V32.7302L34.3958 33.913C32.8559 35.4724 30.6132 36.1139 28.4816 35.605C26.334 35.0302 24.2924 34.1151 22.4343 32.8947C20.7079 31.7914 19.1081 30.5017 17.6638 29.0485C16.3348 27.7293 15.1409 26.2807 14.0996 24.7245C12.9606 23.0499 12.059 21.2258 11.4206 19.3038C10.6887 17.046 11.2952 14.5685 12.9873 12.904L14.3816 11.5097C14.7692 11.1203 15.3991 11.1189 15.7885 11.5066C15.7895 11.5076 15.7906 11.5086 15.7916 11.5097L20.1939 15.912C20.5833 16.2997 20.5847 16.9296 20.197 17.3189C20.196 17.3199 20.195 17.3209 20.1939 17.322L17.6089 19.907C16.8672 20.6407 16.7739 21.8065 17.3896 22.6487C18.3245 23.9318 19.3592 25.1392 20.4838 26.2599C21.7376 27.5192 23.1007 28.6647 24.5571 29.6831C25.3986 30.27 26.5394 30.1711 27.2674 29.4481L29.7662 26.9101C30.1538 26.5207 30.7837 26.5193 31.1731 26.907C31.1741 26.908 31.1751 26.909 31.1762 26.9101L35.5864 31.3281C35.9759 31.7157 35.9772 32.3455 35.5896 32.7349Z" fill="#132033"/>
</g>
<defs>
<clipPath id="clip0">
<rect width="47" height="47" fill="white"/>
</clipPath>
</defs>
</svg>
