<svg width="47" height="47" viewBox="0 0 47 47" fill="none" xmlns="http://www.w3.org/2000/svg">
<path d="M32.9814 15.1072H14.0188L23.5001 23.2341L32.9814 15.1072Z" fill="#989898"/>
<path d="M23.5001 25.1785C23.2997 25.1785 23.1058 25.1068 22.9538 24.9761L12.5894 16.0923V31.8928H34.4108V16.0923L24.0463 24.9761C23.8943 25.1068 23.7005 25.1785 23.5001 25.1785Z" fill="#989898"/>
<path d="M23.5 0C10.5214 0 0 10.5214 0 23.5C0 36.4786 10.5214 47 23.5 47C36.4786 47 47 36.4786 47 23.5C46.9852 10.5275 36.4725 0.0147531 23.5 0ZM36.0893 32.7321C36.0893 33.1956 35.7135 33.5714 35.25 33.5714H11.75C11.2865 33.5714 10.9107 33.1956 10.9107 32.7321V14.2679C10.9107 13.8044 11.2865 13.4286 11.75 13.4286H35.25C35.7135 13.4286 36.0893 13.8044 36.0893 14.2679V32.7321Z" fill="#989898"/>
</svg>
