<svg width="16" height="16" viewBox="0 0 16 16" fill="none" xmlns="http://www.w3.org/2000/svg">
<path d="M15.2729 0H9.4547C9.05304 0 8.72741 0.325625 8.72741 0.727281C8.72741 1.12894 9.05304 1.45456 9.4547 1.45456H13.5171L6.03138 8.94031C5.74735 9.22434 5.74735 9.68478 6.03138 9.96881C6.17335 10.1108 6.35948 10.1818 6.5456 10.1818C6.73173 10.1818 6.91788 10.1108 7.05988 9.96878L14.5456 2.48306V6.54547C14.5456 6.94713 14.8713 7.27275 15.2729 7.27275C15.6746 7.27275 16.0002 6.94713 16.0002 6.54547V0.727281C16.0002 0.325625 15.6745 0 15.2729 0Z" fill="#132033"/>
<path d="M12.3636 7.27271C11.962 7.27271 11.6363 7.59834 11.6363 7.99999V14.5455H1.45453V4.36362H8C8.40166 4.36362 8.72728 4.03799 8.72728 3.63634C8.72728 3.23468 8.40166 2.90909 8 2.90909H0.727281C0.325625 2.90909 0 3.23471 0 3.63637V15.2727C0 15.6744 0.325625 16 0.727281 16H12.3637C12.7653 16 13.0909 15.6744 13.0909 15.2727V7.99999C13.0909 7.59834 12.7653 7.27271 12.3636 7.27271Z" fill="#132033"/>
</svg>
