<svg width="44" height="44" viewBox="0 0 44 44" fill="none" xmlns="http://www.w3.org/2000/svg">
<g clip-path="url(#clip0)">
<path d="M22.0009 44.0018C34.1516 44.0018 44.0018 34.1516 44.0018 22.0009C44.0018 9.85013 34.1516 0 22.0009 0C9.85013 0 0 9.85013 0 22.0009C0 34.1516 9.85013 44.0018 22.0009 44.0018Z" fill="#233C54"/>
<path d="M22.0009 36.001C14.2678 36.001 8.00081 29.734 8.00081 22.0009C8.00081 14.2678 14.2678 8.00081 22.0009 8.00081C25.8657 8.00081 29.3652 9.56799 31.9004 12.1014L37.5575 6.44426C33.5757 2.46247 28.0746 0 22.0009 0C9.84987 0 0 9.84987 0 22.0009C0 34.1519 9.84987 44.0018 22.0009 44.0018C28.0764 44.0018 33.5757 41.5393 37.5593 37.5593L31.9022 31.9022C29.3652 34.4338 25.8657 36.001 22.0009 36.001Z" fill="#4F6E8D"/>
<path d="M36.001 22.0009H29.0001C29.0001 18.1361 25.8657 15 21.9992 15C18.1326 15 15 18.1343 15 22.0009C15 23.8836 15.7446 25.5909 16.9554 26.8514L16.9501 26.8567L25.6175 35.5241L25.6193 35.5259C31.5973 33.9303 36.001 28.4806 36.001 22.0009Z" fill="#101E2B"/>
<path d="M43.9999 22.0009H35.9991C35.9991 28.4806 31.5936 33.9303 25.6191 35.5258L31.7975 41.7042C39.0306 38.1 43.9999 30.631 43.9999 22.0009Z" fill="#203A52"/>
<path d="M22.0009 43.75C9.89242 43.75 0.0709134 33.9675 0.00177284 21.875C0.00177284 21.9176 0 21.9583 0 22.0009C0 34.1519 9.84987 44.0018 22.0009 44.0018C34.1519 44.0018 44.0018 34.1519 44.0018 22.0009C44.0018 21.9583 44 21.9176 44 21.875C43.9309 33.9675 34.1076 43.75 22.0009 43.75Z" fill="#212121" fill-opacity="0.1"/>
<path d="M25.6211 35.5258L25.8161 35.7209C31.6913 34.0615 36.001 28.6614 36.001 22.2509V22.0009C36.001 28.4806 31.5955 33.9303 25.6211 35.5258Z" fill="white" fill-opacity="0.05"/>
<path d="M40.0011 20.0003H21.9998C20.8953 20.0003 20 20.8956 20 22.0001C20 23.1046 20.8953 23.9999 21.9998 23.9999H39.9993C41.1038 23.9999 41.9991 23.1046 41.9991 22.0001C42.0009 20.8956 41.1056 20.0003 40.0011 20.0003Z" fill="#577592"/>
<path d="M3.99982 23.5007C4.82815 23.5007 5.49964 22.8292 5.49964 22.0009C5.49964 21.1726 4.82815 20.5011 3.99982 20.5011C3.17149 20.5011 2.5 21.1726 2.5 22.0009C2.5 22.8292 3.17149 23.5007 3.99982 23.5007Z" fill="#ECF4FF"/>
<path d="M22.0008 5.49933C22.8291 5.49933 23.5006 4.82784 23.5006 3.99951C23.5006 3.17119 22.8291 2.49969 22.0008 2.49969C21.1725 2.49969 20.501 3.17119 20.501 3.99951C20.501 4.82784 21.1725 5.49933 22.0008 5.49933Z" fill="#ECF4FF"/>
<path d="M22.0008 41.5003C22.8291 41.5003 23.5006 40.8288 23.5006 40.0005C23.5006 39.1722 22.8291 38.5007 22.0008 38.5007C21.1725 38.5007 20.501 39.1722 20.501 40.0005C20.501 40.8288 21.1725 41.5003 22.0008 41.5003Z" fill="#ECF4FF"/>
<path d="M9.2508 10.7717C10.0791 10.7717 10.7506 10.1003 10.7506 9.27193C10.7506 8.4436 10.0791 7.77211 9.2508 7.77211C8.42247 7.77211 7.75098 8.4436 7.75098 9.27193C7.75098 10.1003 8.42247 10.7717 9.2508 10.7717Z" fill="#ECF4FF"/>
<path d="M9.2508 36.2509C10.0791 36.2509 10.7506 35.5794 10.7506 34.7511C10.7506 33.9228 10.0791 33.2513 9.2508 33.2513C8.42247 33.2513 7.75098 33.9228 7.75098 34.7511C7.75098 35.5794 8.42247 36.2509 9.2508 36.2509Z" fill="#ECF4FF"/>
<path d="M34.7518 36.2509C35.5801 36.2509 36.2516 35.5794 36.2516 34.7511C36.2516 33.9228 35.5801 33.2513 34.7518 33.2513C33.9234 33.2513 33.252 33.9228 33.252 34.7511C33.252 35.5794 33.9234 36.2509 34.7518 36.2509Z" fill="#ECF4FF"/>
</g>
<defs>
<clipPath id="clip0">
<rect width="44" height="44" fill="white"/>
</clipPath>
</defs>
</svg>
