<svg width="44" height="44" viewBox="0 0 44 44" fill="none" xmlns="http://www.w3.org/2000/svg">
<path d="M21.6671 23.2781C24.2614 23.2781 26.3643 21.1747 26.3643 18.5807C26.3643 15.9864 24.2614 13.8833 21.6671 13.8833C19.0725 13.8833 16.9697 15.9864 16.9697 18.5807C16.9728 21.1736 19.074 23.2747 21.6671 23.2781ZM21.6671 15.7095C23.2577 15.7095 24.5471 16.9989 24.5471 18.5898C24.5471 20.1804 23.2577 21.47 21.6671 21.47C20.0763 21.47 18.7869 20.1804 18.7869 18.5898C18.7872 16.9992 20.0765 15.7101 21.6671 15.7095Z" fill="#275675"/>
<path d="M21.5001 25.0002C19.502 24.985 17.5845 25.8137 16.1915 27.2941C14.7746 28.7875 14 30.8179 14 33.0239C14.0015 33.5623 14.4233 33.9985 14.9446 34H28.0554C28.5767 33.9985 28.9985 33.5623 29 33.0239C29 30.8179 28.2254 28.7875 26.8085 27.2941C25.4158 25.8137 23.498 24.985 21.5001 25.0002ZM15.9553 32.0478C16.1168 30.7715 16.6738 29.5837 17.5423 28.6606C18.5875 27.5677 20.013 26.9524 21.5001 26.9524C22.987 26.9524 24.4125 27.5677 25.4577 28.6606C26.3244 29.5846 26.8808 30.7721 27.0447 32.0478H15.9553Z" fill="#275675"/>
<path d="M32.57 1.08106H32.5698L10.7637 1.08106L10.7635 1.08106C8.08941 1.08227 5.92161 3.24971 5.9207 5.9239V5.92401L5.9207 38.0881L5.9207 38.0882C5.92161 40.7624 8.08941 42.9298 10.7635 42.931H10.7637H32.5698H32.57C35.2441 42.9298 37.4116 40.7624 37.4128 38.0882V38.0881V5.92401V5.92387C37.4116 3.24973 35.2441 1.08227 32.57 1.08106ZM34.9956 38.0872C34.9918 39.4256 33.9074 40.5101 32.569 40.5138H10.7645C9.42623 40.5101 8.34189 39.4259 8.33788 38.0876V5.92445C8.34189 4.58636 9.42601 3.50225 10.7641 3.49824H32.5694C33.9076 3.50225 34.9918 4.58658 34.9956 5.92486V38.0872Z" fill="#275675" stroke="#275675" stroke-width="0.6"/>
<path d="M17.8783 7.4777H25.147C25.6487 7.4777 26.0556 7.07082 26.0556 6.56911C26.0556 6.0674 25.6487 5.66052 25.147 5.66052H17.8783C17.3763 5.66052 16.9697 6.0674 16.9697 6.56911C16.9697 7.07082 17.3763 7.4777 17.8783 7.4777Z" fill="#275675"/>
</svg>
