<svg width="44" height="44" viewBox="0 0 44 44" fill="none" xmlns="http://www.w3.org/2000/svg">
<g clip-path="url(#clip0)">
<path d="M34.375 16.5H33V11C33 4.93349 28.0665 -7.62939e-06 22 -7.62939e-06C15.9335 -7.62939e-06 11 4.93349 11 11V16.5H9.625C7.35167 16.5 5.5 18.3498 5.5 20.625V39.875C5.5 42.1502 7.35167 44 9.625 44H34.375C36.6483 44 38.5 42.1502 38.5 39.875V20.625C38.5 18.3498 36.6483 16.5 34.375 16.5ZM14.6667 11C14.6667 6.95566 17.9557 3.66666 22 3.66666C26.0443 3.66666 29.3333 6.95566 29.3333 11V16.5H14.6667V11ZM23.8333 30.657V34.8333C23.8333 35.8453 23.0138 36.6667 22 36.6667C20.9862 36.6667 20.1667 35.8453 20.1667 34.8333V30.657C19.0758 30.0208 18.3333 28.8512 18.3333 27.5C18.3333 25.4778 19.9778 23.8333 22 23.8333C24.0222 23.8333 25.6667 25.4778 25.6667 27.5C25.6667 28.8512 24.9242 30.0208 23.8333 30.657Z" fill="#275675"/>
</g>
<defs>
<clipPath id="clip0">
<rect width="44" height="44" fill="white"/>
</clipPath>
</defs>
</svg>
