<svg width="44" height="44" viewBox="0 0 44 44" fill="none" xmlns="http://www.w3.org/2000/svg">
<g clip-path="url(#clip0)">
<path d="M34.6996 12.7117C34.6996 5.70242 28.9969 0 21.9879 0C14.9786 0 9.27621 5.70242 9.27621 12.7117C9.27621 17.0532 11.4646 20.8929 14.7953 23.187C11.6855 24.2602 8.83478 26.033 6.43994 28.4279C2.28708 32.5807 0 38.1025 0 43.9755H3.43549C3.43549 33.7459 11.758 25.4234 21.9879 25.4234C28.9969 25.4234 34.6996 19.721 34.6996 12.7117ZM21.9879 21.9879C16.873 21.9879 12.7117 17.8267 12.7117 12.7117C12.7117 7.59674 16.873 3.43549 21.9879 3.43549C27.1025 3.43549 31.2638 7.59674 31.2638 12.7117C31.2638 17.8267 27.1025 21.9879 21.9879 21.9879ZM44 31.6075L35.9142 39.6934L33.4847 37.264L37.5094 33.2393H34.5298C30.4135 33.2393 27.0616 36.5886 27.0582 40.7048L27.0552 43.9768L23.6197 43.9742L23.6224 40.7018C23.6274 34.6926 28.5205 29.8035 34.5298 29.8035H37.3375L33.4847 25.9508L35.9142 23.5217L44 31.6075Z" fill="#275675"/>
</g>
<defs>
<clipPath id="clip0">
<rect width="44" height="44" fill="white"/>
</clipPath>
</defs>
</svg>
