<svg width="44" height="44" viewBox="0 0 44 44" fill="none" xmlns="http://www.w3.org/2000/svg">
<path d="M30.2503 0.3875H30.25L13.75 0.3875L13.7497 0.3875C12.7588 0.388613 11.8089 0.782706 11.1083 1.48332C10.4077 2.18393 10.0136 3.13385 10.0125 4.12466V4.125L10.0125 39.875L10.0125 39.8753C10.0136 40.8662 10.4077 41.8161 11.1083 42.5167C11.8089 43.2173 12.7588 43.6114 13.7497 43.6125H13.75H30.25H30.2503C31.2412 43.6114 32.1911 43.2173 32.8917 42.5167C33.5923 41.8161 33.9864 40.8662 33.9875 39.8753V39.875L33.9875 4.125L33.9875 4.12466C33.9864 3.13385 33.5923 2.18393 32.8917 1.48332C32.1911 0.782706 31.2412 0.388613 30.2503 0.3875ZM17.9971 3.825L17.7046 2.3625H26.2955L26.003 3.825H17.9971ZM32.0125 39.8747C32.012 40.342 31.8261 40.7901 31.4956 41.1206C31.1651 41.4511 30.717 41.637 30.2497 41.6375H13.7503C13.283 41.637 12.8349 41.4511 12.5044 41.1206C12.1739 40.7901 11.9881 40.3421 11.9875 39.8748C11.9875 39.8747 11.9875 39.8747 11.9875 39.8747V4.12534C11.9875 4.1253 11.9875 4.12527 11.9875 4.12523C11.9881 3.6579 12.1739 3.20986 12.5044 2.8794C12.8349 2.54894 13.2829 2.36305 13.7502 2.3625C13.7503 2.3625 13.7503 2.3625 13.7503 2.3625L15.6904 2.3625L16.2191 5.00617C16.2639 5.23003 16.3849 5.43146 16.5614 5.57619C16.738 5.72092 16.9592 5.80001 17.1875 5.8C17.1875 5.8 17.1875 5.8 17.1875 5.8H26.8125C27.0408 5.80001 27.262 5.72092 27.4386 5.57619C27.6151 5.43146 27.7361 5.23003 27.7809 5.00617L28.3096 2.3625L30.2497 2.3625C30.2497 2.3625 30.2497 2.3625 30.2498 2.3625C30.7171 2.36305 31.1651 2.54894 31.4956 2.8794C31.8261 3.20988 32.012 3.65796 32.0125 4.12534V39.8747Z" fill="#275675" stroke="#275675" stroke-width="0.6"/>
<path d="M18.8125 37.75H14.6875C14.4389 37.75 14.2004 37.8488 14.0246 38.0246C13.8488 38.2004 13.75 38.4389 13.75 38.6875C13.75 38.9361 13.8488 39.1746 14.0246 39.3504C14.2004 39.5262 14.4389 39.625 14.6875 39.625H18.8125C19.0611 39.625 19.2996 39.5262 19.4754 39.3504C19.6512 39.1746 19.75 38.9361 19.75 38.6875C19.75 38.4389 19.6512 38.2004 19.4754 38.0246C19.2996 37.8488 19.0611 37.75 18.8125 37.75Z" fill="#275675" stroke="#275675" stroke-width="0.5"/>
<path d="M22.375 37.75H21.6875C21.4389 37.75 21.2004 37.8488 21.0246 38.0246C20.8488 38.2004 20.75 38.4389 20.75 38.6875C20.75 38.9361 20.8488 39.1746 21.0246 39.3504C21.2004 39.5262 21.4389 39.625 21.6875 39.625H22.375C22.6236 39.625 22.8621 39.5262 23.0379 39.3504C23.2137 39.1746 23.3125 38.9361 23.3125 38.6875C23.3125 38.4389 23.2137 38.2004 23.0379 38.0246C22.8621 37.8488 22.6236 37.75 22.375 37.75Z" fill="#275675" stroke="#275675" stroke-width="0.5"/>
</svg>
