<svg width="44" height="44" viewBox="0 0 44 44" fill="none" xmlns="http://www.w3.org/2000/svg">
<g clip-path="url(#clip0)">
<path d="M43.3206 4.37073C42.7832 3.71344 41.9782 3.35156 41.0537 3.35156C40.5512 3.35156 40.0187 3.45731 39.4716 3.66644L2.22639 17.8841C0.249825 18.6384 -0.0163799 19.7703 0.000740444 20.3779C0.0178608 20.9855 0.347847 22.1007 2.36402 22.7422C2.37611 22.7459 2.38819 22.7496 2.40028 22.753L10.1259 24.9638L14.304 36.9112C14.8736 38.5399 16.1523 39.5517 17.6414 39.5517C18.5804 39.5517 19.5039 39.1583 20.3122 38.4144L25.0908 34.0145L32.0219 39.5954C32.0225 39.596 32.0235 39.5964 32.0242 39.597L32.09 39.6501C32.096 39.6548 32.1024 39.6598 32.1085 39.6645C32.8789 40.2621 33.7198 40.5776 34.5412 40.5779H34.5416C36.1465 40.5779 37.4245 39.3899 37.7968 37.5517L43.8994 7.41849C44.1444 6.20898 43.939 5.12671 43.3206 4.37073ZM12.7104 24.5439L27.6155 16.9294L18.3346 26.791C18.1826 26.9525 18.0748 27.1502 18.0218 27.3654L16.2322 34.6143L12.7104 24.5439ZM18.5656 36.5177C18.5038 36.5745 18.4417 36.6252 18.3796 36.6718L20.04 29.9472L23.0602 32.3793L18.5656 36.5177ZM41.3726 6.90656L35.27 37.0401C35.2113 37.3284 35.0236 37.9995 34.5412 37.9995C34.3029 37.9995 34.0035 37.8696 33.697 37.6336L25.8431 31.3098C25.8421 31.3088 25.8407 31.3078 25.8394 31.3071L21.1662 27.544L34.5876 13.2827C35.0173 12.8262 35.0562 12.1269 34.6799 11.6254C34.3032 11.1239 33.6208 10.9661 33.0625 11.2514L10.988 22.5287L3.15727 20.2883L40.391 6.07504C40.7056 5.95486 40.9251 5.92969 41.0537 5.92969C41.1326 5.92969 41.2729 5.93909 41.3249 6.0032C41.3934 6.08679 41.4807 6.3718 41.3726 6.90656Z" fill="#275675"/>
</g>
<defs>
<clipPath id="clip0">
<rect width="44" height="44" fill="white"/>
</clipPath>
</defs>
</svg>
