<svg width="44" height="44" viewBox="0 0 44 44" fill="none" xmlns="http://www.w3.org/2000/svg">
<path d="M23.0512 29.0179L13.6071 42.1634C13.5891 42.1885 13.5703 42.2132 13.551 42.2372C12.7267 43.263 11.1962 43.9993 9.87658 43.9993C8.67131 43.9993 7.49972 43.5345 6.62204 42.699L0.533371 36.909C-0.154472 36.2549 -0.181886 35.167 0.47227 34.4791C1.12643 33.7914 2.21431 33.7641 2.90215 34.418L8.99143 40.2086C9.2544 40.4589 9.59789 40.5829 9.95917 40.5591C10.3082 40.5358 10.6224 40.3776 10.8479 40.1124L20.2595 27.0122C20.8133 26.2413 21.8873 26.0653 22.6582 26.6192C23.4291 27.1731 23.6051 28.247 23.0512 29.0179ZM42.7476 29.5963C43.5546 28.6848 43.9991 27.5129 43.9991 26.2963C43.9991 24.7472 43.2748 23.3374 42.11 22.431C42.5527 21.6854 42.796 20.8262 42.796 19.937C42.796 17.236 40.5985 15.0385 37.8975 15.0385H26.5904C25.7327 15.0385 24.5282 14.4903 24.4044 13.5895C24.595 12.8285 27.5839 6.83116 27.5839 6.83116C27.7866 6.2412 27.8795 5.62331 27.8603 4.99485C27.8194 3.6641 27.2685 2.41414 26.309 1.47519C25.3501 0.536752 24.0889 0.0127049 22.7578 -0.000357569C21.3453 -0.0132482 20.0156 0.534947 19.0243 1.54617C18.8473 1.74091 18.1989 2.61292 17.8455 3.16249L9.45154 16.2332C9.24082 16.5613 8.8822 16.7573 8.49213 16.7573H1.71785C0.768582 16.7573 -0.000901983 17.5268 -0.000901983 18.476C-0.000901983 19.4252 0.768582 20.1948 1.71785 20.1948H8.49213C10.0579 20.1948 11.4979 19.4082 12.3439 18.0908L21.5597 3.87534C21.8798 3.58762 22.2884 3.4331 22.7241 3.43706C23.6337 3.44599 24.3965 4.1921 24.4243 5.10029C24.4299 5.28136 24.4082 5.45874 24.3597 5.62881C24.112 6.13163 20.9586 12.5125 20.9586 13.5458L20.9599 13.6115C21.0747 16.6161 23.9719 18.476 26.5904 18.476H37.8975C38.7031 18.476 39.3585 19.1314 39.3585 19.937C39.3585 20.4132 39.1207 20.8626 38.7225 21.1389C37.8986 21.7105 37.7257 22.3897 37.7257 22.8588C37.7257 23.8063 38.4201 24.6182 39.4536 24.8789C40.0956 25.041 40.5616 25.637 40.5616 26.2963C40.5616 27.0441 40.0075 27.7057 39.3517 27.7412C37.7289 27.8288 37.296 28.9499 37.296 29.5985C37.296 30.3509 37.6811 30.9404 38.4405 31.3507C38.4651 31.3639 38.4921 31.3783 38.5212 31.3952C38.9811 31.6601 39.2668 32.143 39.2668 32.6557C39.2668 33.4613 38.5952 34.1167 37.7696 34.1167H37.3819C36.1772 34.1167 35.2335 34.9729 35.2335 36.0659C35.2335 36.4741 35.3774 37.2382 36.3416 37.77C36.5251 37.8713 37.1241 38.2569 37.1241 38.966C37.1241 39.4459 36.98 40.562 35.6448 40.562H19.8507C18.9014 40.562 18.1319 41.3315 18.1319 42.2807C18.1319 43.2299 18.9014 43.9995 19.8507 43.9995H35.6448C38.4938 43.9995 40.5616 41.8826 40.5616 38.966C40.5616 38.2686 40.401 37.5895 40.1048 36.9701C41.6513 36.1421 42.7044 34.5188 42.7044 32.6557C42.7044 31.797 42.4737 30.9663 42.0568 30.2396C42.3038 30.0511 42.5352 29.836 42.7476 29.5963Z" fill="#275675"/>
</svg>
