<svg width="18" height="18" viewBox="0 0 18 18" fill="none" xmlns="http://www.w3.org/2000/svg">
<path d="M17.4376 7.52613C17.2817 7.27685 17.1343 7.04137 17.0792 6.83522C17.0199 6.61305 17.0292 6.3258 17.0391 6.02164C17.0549 5.53291 17.0729 4.97895 16.7951 4.49876C16.5134 4.01187 16.0208 3.74988 15.5862 3.51875C15.3209 3.37769 15.0704 3.24446 14.913 3.087C14.7555 2.92957 14.6223 2.67902 14.4812 2.41381C14.2501 1.97915 13.9881 1.48656 13.5012 1.20487C13.021 0.927036 12.4671 0.944894 11.9783 0.960909C11.6741 0.970724 11.3868 0.980079 11.1647 0.920728C10.9585 0.865595 10.7231 0.718264 10.4738 0.562287C10.0526 0.298772 9.57511 0 9 0C8.42489 0 7.94743 0.298772 7.52616 0.562323C7.27689 0.718299 7.0414 0.865665 6.83522 0.920764C6.61305 0.980114 6.32583 0.97076 6.02164 0.960945C5.53295 0.945 4.97898 0.927071 4.4988 1.2049C4.01187 1.48659 3.74992 1.97922 3.51875 2.41384C3.37769 2.67906 3.24443 2.92961 3.087 3.08704C2.92957 3.24443 2.67906 3.37769 2.41381 3.51875C1.97919 3.74988 1.48659 4.01187 1.20487 4.4988C0.927036 4.97898 0.945035 5.53295 0.960874 6.02167C0.97076 6.32583 0.980079 6.61312 0.920693 6.83529C0.865559 7.04147 0.718264 7.27693 0.562252 7.5262C0.298772 7.94743 0 8.42489 0 9C0 9.57511 0.298772 10.0526 0.562358 10.4739C0.718335 10.7231 0.865665 10.9586 0.920799 11.1648C0.98015 11.3869 0.970831 11.6742 0.960945 11.9784C0.945071 12.4671 0.927071 13.0211 1.2049 13.5012C1.48659 13.9881 1.97922 14.2501 2.41381 14.4812C2.67906 14.6223 2.92957 14.7555 3.08704 14.913C3.24446 15.0704 3.37769 15.321 3.51879 15.5862C3.74992 16.0209 4.01191 16.5134 4.49883 16.7951C4.97902 17.073 5.53287 17.0551 6.02171 17.0391C6.32587 17.0292 6.61316 17.0199 6.83529 17.0793C7.04147 17.1344 7.27693 17.2817 7.52623 17.4377C7.94743 17.7012 8.42489 18 9 18C9.57511 18 10.0526 17.7012 10.4738 17.4377C10.7231 17.2817 10.9586 17.1343 11.1648 17.0792C11.3869 17.0199 11.6742 17.0292 11.9784 17.0391C12.4671 17.0551 13.0211 17.073 13.5012 16.7951C13.9881 16.5134 14.2501 16.0208 14.4812 15.5862C14.6223 15.3209 14.7556 15.0704 14.913 14.913C15.0704 14.7556 15.3209 14.6223 15.5862 14.4812C16.0208 14.2501 16.5134 13.9881 16.7951 13.5012C17.073 13.021 17.055 12.4671 17.0391 11.9783C17.0292 11.6742 17.0199 11.3869 17.0793 11.1647C17.1344 10.9585 17.2817 10.7231 17.4377 10.4738C17.7012 10.0526 18 9.57511 18 9C18 8.42489 17.7012 7.94743 17.4376 7.52613ZM16.5365 9.90999C16.3458 10.2148 16.1486 10.53 16.0523 10.8903C15.9523 11.2643 15.9647 11.6448 15.9766 12.0129C15.9889 12.3929 16.0006 12.7518 15.875 12.9689C15.7456 13.1925 15.4257 13.3626 15.087 13.5427C14.7645 13.7143 14.431 13.8916 14.1613 14.1613C13.8916 14.431 13.7142 14.7645 13.5427 15.087C13.3626 15.4258 13.1924 15.7457 12.9689 15.875C12.7518 16.0006 12.3928 15.989 12.0128 15.9766C11.6448 15.9647 11.2643 15.9523 10.8903 16.0523C10.53 16.1486 10.2148 16.3458 9.90996 16.5365C9.58085 16.7425 9.26997 16.937 9 16.937C8.73004 16.937 8.41918 16.7425 8.09004 16.5365C7.78521 16.3458 7.47004 16.1486 7.10972 16.0523C6.85885 15.9852 6.60504 15.9687 6.35404 15.9687C6.23083 15.9687 6.10831 15.9727 5.98716 15.9767C5.60714 15.989 5.24824 16.0007 5.03114 15.875C4.80756 15.7457 4.63744 15.4258 4.4573 15.087C4.28577 14.7645 4.10843 14.4311 3.83871 14.1614C3.569 13.8916 3.2355 13.7143 2.91299 13.5427C2.57428 13.3626 2.25436 13.1924 2.12503 12.9689C1.99942 12.7518 2.01107 12.3929 2.02341 12.0129C2.03535 11.6449 2.04771 11.2644 1.94776 10.8903C1.85145 10.53 1.65423 10.2149 1.46353 9.91006C1.25752 9.58089 1.06299 9.26997 1.06299 9C1.06299 8.73004 1.25752 8.41915 1.46346 8.09001C1.65419 7.78521 1.85141 7.47004 1.94772 7.10972C2.04768 6.73569 2.03535 6.35517 2.02341 5.98713C2.01107 5.60711 1.99942 5.2482 2.12503 5.03111C2.25439 4.80752 2.57432 4.63741 2.91302 4.45727C3.23554 4.28574 3.569 4.10839 3.83871 3.83868C4.10843 3.56896 4.28581 3.2355 4.4573 2.91299C4.63744 2.57425 4.80759 2.25432 5.03114 2.12499C5.24828 1.99938 5.60721 2.01108 5.98716 2.02337C6.35517 2.03538 6.73572 2.04775 7.10972 1.94772C7.47004 1.85141 7.78521 1.65419 8.09004 1.46346C8.41915 1.25752 8.73004 1.06299 9 1.06299C9.26997 1.06299 9.58082 1.25752 9.90996 1.46346C10.2148 1.65419 10.53 1.85141 10.8903 1.94772C11.2643 2.04768 11.6449 2.03535 12.0128 2.02337C12.3929 2.01111 12.7518 1.99938 12.9689 2.12499C13.1924 2.25432 13.3626 2.57428 13.5427 2.91299C13.7142 3.2355 13.8916 3.56896 14.1613 3.83868C14.431 4.10839 14.7645 4.28577 15.087 4.4573C15.4257 4.63744 15.7456 4.80759 15.875 5.03111C16.0006 5.24824 15.9889 5.60714 15.9766 5.98713C15.9647 6.35513 15.9523 6.73569 16.0522 7.10972C16.1486 7.47 16.3458 7.78518 16.5365 8.08997C16.7425 8.41911 16.937 8.73004 16.937 9C16.937 9.26997 16.7425 9.58086 16.5365 9.90999Z" fill="white"/>
<path d="M8.01212 10.0946L6.54165 8.62414L5.79004 9.37575L7.99695 11.5827L12.2032 7.54471L11.4671 6.77783L8.01212 10.0946Z" fill="white"/>
<path d="M8.99961 2.79919C5.5805 2.79919 2.79883 5.58087 2.79883 8.99998C2.79883 12.4191 5.5805 15.2008 8.99961 15.2008C12.4187 15.2008 15.2004 12.4191 15.2004 8.99998C15.2004 5.58087 12.4187 2.79919 8.99961 2.79919ZM8.99961 14.1378C6.16663 14.1378 3.86182 11.833 3.86182 8.99998C3.86182 6.167 6.16663 3.86219 8.99961 3.86219C11.8326 3.86219 14.1374 6.167 14.1374 8.99998C14.1374 11.833 11.8326 14.1378 8.99961 14.1378Z" fill="white"/>
</svg>
