<svg width="19" height="19" viewBox="0 0 19 19" fill="none" xmlns="http://www.w3.org/2000/svg">
<path d="M8.72665 0.0314112C4.16731 0.391756 0.458049 4.0522 0.0407047 8.60663C-0.135209 10.5276 0.262808 12.3428 1.08112 13.903C1.37857 14.4701 1.41624 15.1374 1.19577 15.7385L-0.000243616 19.0006L3.45579 17.8485C4.02808 17.6578 4.65607 17.6939 5.19331 17.9681C6.75589 18.7654 8.56712 19.1438 10.4819 18.9512C15.0003 18.4961 18.6106 14.8019 18.969 10.275C19.4328 4.4191 14.5823 -0.431796 8.72665 0.0314112Z" fill="#4D4D4D"/>
<path d="M9.50001 17.3621C13.8421 17.3621 17.3621 13.8421 17.3621 9.49999C17.3621 5.15789 13.8421 1.63792 9.50001 1.63792C5.15791 1.63792 1.63794 5.15789 1.63794 9.49999C1.63794 13.8421 5.15791 17.3621 9.50001 17.3621Z" fill="white"/>
<path d="M9.50003 5.89655C10.0428 5.89655 10.4828 5.45655 10.4828 4.91379C10.4828 4.37103 10.0428 3.93103 9.50003 3.93103C8.95727 3.93103 8.51727 4.37103 8.51727 4.91379C8.51727 5.45655 8.95727 5.89655 9.50003 5.89655Z" fill="#4D4D4D"/>
<path d="M9.50003 15.069C8.95722 15.069 8.51727 14.629 8.51727 14.0862V8.51724C8.51727 7.97443 8.95722 7.53448 9.50003 7.53448C10.0428 7.53448 10.4828 7.97443 10.4828 8.51724V14.0862C10.4828 14.629 10.0428 15.069 9.50003 15.069Z" fill="#4D4D4D"/>
</svg>
