<svg width="24" height="24" viewBox="0 0 24 24" fill="none" xmlns="http://www.w3.org/2000/svg">
<g clip-path="url(#clip0_2276_70783)">
<path d="M1.2001 9.975V10.35H1.4251V10.725H1.6501V10.35H1.8751V9.975H2.1001V9.6H2.3251V9.225H2.5501V8.85H2.7751V8.475H2.4751V8.1H2.2876V7.725H1.6126V8.1H2.0626V8.475H1.8376V8.85H1.6126V9.225H1.3876V8.85H1.2001C1.1251 9.15 1.0501 9.4875 0.975098 9.7875V9.9375H1.2001V9.975ZM3.7876 4.3125L3.6751 4.425H3.7876V4.3125Z" fill="white"/>
<path d="M5.55 2.96248H5.325V3.33748H5.1V3.71248H4.875V4.08748H4.65V4.46248H4.425V4.08748H4.2V3.89998L3.975 4.12498V4.46248H4.2V4.83748H4.425V5.21248H4.2V5.58748H3.975V5.96248H3.75V5.58748H3.5625V5.21248H3.375V4.83748C3.3 4.91248 3.225 5.02498 3.15 5.09998V5.21248H3.075C3 5.24998 2.9625 5.28748 2.925 5.36248V5.54998H2.775C2.7375 5.58748 2.7375 5.62498 2.7 5.66248V5.88748H2.55C2.475 5.99998 2.4 6.14998 2.325 6.26248H2.5125V6.63748H2.7375V7.01248H2.9625V7.38748H3.1875V7.76248H3.375V7.38748H3.6V7.01248H3.825V6.63748H4.05V6.26248H4.275V5.88748H4.5V5.51248H4.725V5.88748H4.875V6.26248H5.1V6.63748H5.325V7.01248H5.55V7.38748H5.775V6.63748H5.55V6.26248H5.775V5.17498H5.55V5.54998H5.325V5.92498H5.1V5.54998H4.875V5.17498H4.65V4.79998H4.875V4.42498H5.1V4.04998H5.325V4.42498H5.55V4.79998H5.775V3.67498H5.55V3.29998H5.775V2.66248C5.7 2.69998 5.625 2.77498 5.55 2.81248V2.96248ZM3.375 6.63748H3.15V5.88748H3.375V6.63748ZM0.975 13.275V12.9H1.2V12.525H1.425V12.15H1.65V11.775H1.3875V11.4H1.2V11.025H0.975V10.65H0.825C0.7875 11.1375 0.75 11.55 0.75 12C0.75 12.45 0.7875 12.8625 0.825 13.275H0.975ZM5.55 11.0625H5.325V11.4375H5.1V11.8125H4.875V12.1875H5.1V12.5625H5.325V12.9375H5.55V13.275H5.7375V10.725H5.55V11.0625Z" fill="white"/>
<path d="M3.5624 4.53748C3.4874 4.61248 3.4124 4.72498 3.3374 4.79998H3.5624V4.53748ZM3.6749 19.575L3.7874 19.6875V19.575H3.6749ZM3.3749 19.2C3.4499 19.275 3.5249 19.3875 3.5999 19.4625V19.2H3.3749Z" fill="white"/>
<path d="M5.5501 20.6625V20.2875H5.7751V19.1625H5.5501V19.5375H5.3251V19.9125H5.1001V19.5375H4.8751V19.1625H4.6501V18.7875H4.8751V18.4125H5.1001V18.0375H5.3251V18.4125H5.5501V18.7875H5.7751V17.6625H5.5501V17.2875H5.7751V16.5375H5.5501V16.9125H5.3251V17.2875H5.1001V17.6625H4.8751V18.0375H4.6501V18.4125H4.4251V18.0375H4.2001V17.6625H3.9751V17.2875H3.7501V16.9125H3.5626V16.5375H3.3751V16.1625H3.1501V16.5375H2.9251V16.9125H2.7001V17.2875H2.4751V17.6625H2.3251C2.4001 17.775 2.4751 17.925 2.5501 18.0375H2.7001V18.2625C2.7376 18.3 2.7376 18.3375 2.7751 18.375H2.9251V18.5625C2.9626 18.7125 3.0001 18.75 3.0751 18.825H3.1501V18.9375C3.2251 19.0125 3.3001 19.125 3.3751 19.2V18.825H3.6001V18.45H3.8251V18.075H4.0501V18.45H4.2751V18.825H4.5001V19.2H4.2751V19.575H4.0501V19.9125L4.2751 20.1375V19.95H4.5001V19.575H4.7251V19.95H4.8751V20.325H5.1001V20.7H5.3251V21.075H5.5501V21.225C5.6251 21.2625 5.7001 21.3375 5.7751 21.375V20.7L5.5501 20.6625ZM3.3751 18.075H3.1501V17.325H3.3751V18.075ZM5.5501 14.025H5.3251V13.65H5.1001V13.275H4.8751V13.65H4.6501V14.025H4.4626V14.4H4.2376V14.775H4.0126V15.15H3.7876V15.4875H4.0126V15.8625H4.2376V16.2375H4.8751V15.8625H4.4626V15.4875H4.6501V15.15H4.8751V14.775H5.1001V15.15H5.3251V15.4875H5.5501V15.8625H5.7376V15.15H5.5501V14.775H5.7376V14.4H5.5501V14.025ZM5.5501 15.15H5.3251V15.4875H5.1001V15.8625H4.8751V15.4875H4.6501V15.15H4.4626V14.775H4.8751V14.4H4.2376V14.775H4.0126V15.15H3.7876V15.4875H4.0126V15.8625H4.2376V16.2375H4.4626V16.6125H4.6501V16.9875H4.8751V17.3625H5.1001V16.9875H5.3251V16.6125H5.5501V16.2375H5.7376V15.8625H5.5501V15.4875H5.7376V14.775H5.5501V15.15ZM1.3876 14.775H1.6126V15.15H1.8376V15.525H2.0626V15.9H1.6126V16.275H2.2501V15.9H2.4751V15.525H2.7001V15.15H2.4751V14.775H2.2876V14.4H2.0626V14.025H1.8376V13.65H1.6126V13.275H1.3876V13.65H1.2001V14.025H0.975098V14.175C1.0501 14.5125 1.1251 14.8125 1.2001 15.1125H1.3876V14.775ZM3.7876 9.97498H3.5626V9.59998H3.3751V9.22498H3.1501V9.59998H2.9251V9.97498H2.7001V10.35H2.4751V10.725H2.2876V11.1H2.0626V12.975H2.2876V13.35H2.5126V13.725H2.7376V14.1H2.9626V14.475H3.1876V14.85H3.3751V14.475H3.6001V14.1H3.8251V13.725H4.0501V13.35H4.2751V12.975H4.5001V11.1H4.2751V10.725H4.0501V10.35H3.8251L3.7876 9.97498ZM2.4751 11.9625V12.1875H2.2876V11.8125H2.5126V11.9625H2.4751ZM2.9251 14.85V14.625H3.1501V15H2.9251V14.85ZM2.0626 12.7875H3.3751V13.1625H3.1501V12.7875M3.3751 14.025H3.1501V13.65H3.3751V14.025ZM3.7876 11.4375H3.5626V11.8125H3.3751V12.1875H3.6001V12.5625H3.8251V13.3125H3.5626V12.9375H3.3751V12.5625H3.1501V12.9375H2.9251V13.3125H2.7001V12.5625H2.9251V12.1875H3.1501V11.8125H2.9251V11.4375H2.7001V10.6875H2.9251V11.0625H3.1501V11.4375H3.3751V11.0625H3.6001V10.6875H3.8251L3.7876 11.4375Z" fill="white"/>
<path d="M5.5502 7.01245H5.3252V6.63745H5.1002V6.26245H4.8752V5.88745H4.6502V5.51245H4.4252V5.88745H4.2002V6.26245H3.9752V6.63745H3.7502V7.01245H3.5627V7.38745H3.3752V7.76245H3.1502V7.38745H2.9252V7.01245H2.7002V6.63745H2.4752V6.26245H2.3252C2.1002 6.63745 1.8752 7.04995 1.6877 7.46245C1.5002 7.91245 1.3502 8.36245 1.2002 8.81245H1.3877V9.18745H1.6127V8.81245H1.8377V8.43745H2.0627V8.06245H1.6127V7.68745H2.2502V8.06245H2.4752V8.43745H2.7002V8.81245H2.4752V9.18745H2.2877V9.56245H2.0627V9.93745H1.8377V10.3125H1.6127V10.6875H1.3877V10.3125H1.2002V9.93745H0.975195V9.78745C0.900195 10.0875 0.862695 10.3875 0.825195 10.6875H0.975195V11.0625H1.2002V11.4375H1.4252V11.8125H1.6502V12.1875H1.3877V12.5625H1.2002V12.9375H0.975195V13.3125H0.825195C0.862695 13.6125 0.900195 13.9125 0.975195 14.2125V14.0625H1.2002V13.6875H1.4252V13.3125H1.6502V13.6875H1.8752V14.0625H2.1002V14.4375H2.3252V14.8125H2.5502V15.1875H2.7752V15.5625H2.4752V15.9375H2.2877V16.3125H1.6127V15.9375H2.0627V15.5625H1.8377V15.1875H1.6127V14.8125H1.3877V15.1875H1.2002C1.3502 15.6 1.5002 16.05 1.6877 16.5C1.8752 16.9125 2.1002 17.325 2.3252 17.7H2.5127V17.325H2.7377V16.95H2.9627V16.575H3.1877V16.2H3.3752V16.575H3.6002V16.95H3.8252V17.325H4.0502V17.7H4.2752V18.075H4.5002V18.45H4.7252V18.075H4.8752V17.7H5.1002V17.325H5.3252V16.95H5.5502V16.575H5.7752V15.825H5.5502V15.45H5.3252V15.075H5.1002V14.7H4.8752V15.075H4.6502V15.45H4.4252V15.825H4.8752V16.2H4.2377V15.825H4.0127V15.45H3.7877V15.075H4.0127V14.7H4.2377V14.325H4.4627V13.95H4.6877V13.575H4.8752V13.2H5.1002V13.575H5.3252V13.95H5.5502V14.325H5.7752V13.2H5.5502V12.825H5.3252V12.45H5.1002V12.075H4.8752V11.7H5.1002V11.325H5.3252V10.95H5.5502V10.575H5.7752V9.44995H5.5502V9.82495H5.3252V10.2H5.1002V10.575H4.8752V10.2H4.6502V9.82495H4.4252V9.44995H4.2002V9.07495H3.9752V8.69995H3.7502V8.32495H3.9752V7.94995H4.2002V7.57495H4.8752V7.94995H4.4252V8.32495H4.6502V8.69995H4.8752V9.07495H5.1002V8.69995H5.3252V8.32495H5.5502V7.94995H5.7752V7.19995H5.5502V7.01245ZM4.0127 10.35V10.725H4.2377V11.1H4.4627V12.975H4.2377V13.35H4.0127V13.725H3.7877V14.1H3.5627V14.475H3.3752V14.85H3.1502V14.475H2.9252V14.1H2.7002V13.725H2.4752V13.35H2.2877V12.975H2.0627V11.1H2.2877V10.725H2.5127V10.35H2.7377V9.97495H2.9627V9.59995H3.1877V9.22495H3.3752V9.59995H3.6002V9.97495H3.8252V10.35H4.0127Z" fill="#C8313E"/>
<path d="M5.7373 16.5V21.3375C7.5373 22.5375 9.67481 23.25 11.9998 23.25C14.9623 23.25 17.6248 22.125 19.6498 20.25C20.7748 19.2 21.7123 17.925 22.3123 16.5H5.7373Z" fill="#83BF4F"/>
<path d="M22.3123 16.5C22.9123 15.1125 23.2498 13.6125 23.2498 12C23.2498 10.3875 22.9123 8.8875 22.3123 7.5C21.6748 6.075 20.7748 4.8 19.6498 3.75C17.6248 1.875 14.9623 0.75 11.9998 0.75C9.67481 0.75 7.5373 1.4625 5.7373 2.6625V16.5H22.3123Z" fill="#C94747"/>
</g>
<defs>
<clipPath id="clip0_2276_70783">
<rect width="24" height="24" fill="white"/>
</clipPath>
</defs>
</svg>
