<svg width="40" height="48" viewBox="0 0 40 48" fill="none" xmlns="http://www.w3.org/2000/svg">
<path d="M39.4696 15.3328C38.8653 13.75 37.7687 12.3769 36.1778 11.2081C35.2553 10.5307 34.0489 9.92344 32.6155 9.3711L34.2023 3.38608L29.1868 2.10452L27.6528 7.88706L24.4284 7.0642L25.9613 1.28166L20.9458 0L19.4119 5.78254L8.7643 3.0627L7.4739 7.92882L8.88452 8.28988C9.82358 8.52896 10.4403 8.7771 10.7315 9.03039C11.0186 9.28261 11.1948 9.57047 11.2549 9.89093C11.3202 10.2124 11.2083 10.8918 10.9326 11.9344L5.73058 31.5464C5.45899 32.5707 5.21547 33.2145 5.00092 33.4729C4.78636 33.7342 4.49305 33.9001 4.11582 33.9743C3.73749 34.0475 2.61711 33.8481 1.67805 33.6092L0 37.0736C0.384571 37.629 0.790866 38.1681 1.21888 38.6889L10.0849 40.953L9.00068 45.04C10.5253 45.8456 12.1432 46.5017 13.8357 46.9899L15.0971 42.2337L18.2127 43.0302C18.249 43.0384 18.2863 43.0455 18.3226 43.0546L17.0903 47.7041C18.3692 47.8993 19.6793 48 21.0142 48C21.4713 48 21.9253 47.9878 22.3762 47.9644L23.4147 44.0493C25.0907 44.2569 26.5334 44.2884 27.7337 44.1378C30.0461 43.849 31.9863 43.0657 33.5483 41.7851C35.1113 40.5076 36.1405 38.9351 36.636 37.0676C37.0464 35.5072 37.0432 33.9957 36.6287 32.533C36.2121 31.0754 35.4565 29.8233 34.3578 28.7919C33.6053 28.0626 32.4414 27.2692 30.8763 26.4249C32.5803 26.3019 34.0095 25.9631 35.1797 25.4098C36.3416 24.8534 37.3158 24.121 38.1025 23.2056C38.883 22.2943 39.4313 21.2567 39.738 20.0972C40.1619 18.5022 40.0707 16.9134 39.4696 15.3328ZM27.5781 33.7668C27.2558 34.9904 26.6256 35.9496 25.6949 36.6464C24.7621 37.3391 23.7577 37.6991 22.685 37.7215C21.6133 37.7439 20.3156 37.5629 18.7951 37.1743L16.1801 36.506C15.3064 36.2833 14.7881 36.1001 14.615 35.9577C14.4429 35.8133 14.3466 35.6159 14.3217 35.3576C14.3 35.1532 14.4253 34.5174 14.6938 33.4332L16.7128 25.8196L21.3489 27.0037C23.3846 27.5245 24.847 28.0961 25.7415 28.7186C26.6339 29.3391 27.233 30.0775 27.5367 30.9269C27.8404 31.7783 27.8549 32.7232 27.5781 33.7668ZM30.7041 19.1959C30.4688 20.086 30.0117 20.8082 29.3329 21.3615C28.6571 21.9168 27.7802 22.2362 26.7075 22.3197C25.6338 22.4041 24.0697 22.1854 22.0134 21.6605L18.0852 20.6566L20.3592 12.0819L24.2874 13.0848C26.5842 13.6717 28.1389 14.218 28.9556 14.7225C29.7713 15.227 30.3269 15.8698 30.6264 16.6429C30.9218 17.4189 30.9508 18.2693 30.7041 19.1959Z" fill="#F0EFEB"/>
</svg>
