<svg width="59" height="59" viewBox="0 0 59 59" fill="none" xmlns="http://www.w3.org/2000/svg">
<path d="M59 29.5C59 45.2614 46.6389 58.1367 31.0822 58.9578C30.5584 58.9855 30.031 59 29.5 59C27.9492 59 26.4272 58.8808 24.9413 58.6496C23.6506 58.4496 22.3887 58.1667 21.1605 57.8043C19.1942 57.2263 17.3147 56.4497 15.5435 55.4961C12.0468 53.6153 8.97399 51.0494 6.50325 47.9778C6.00602 47.3613 5.53402 46.7232 5.08725 46.0657C1.87602 41.3433 0 35.6408 0 29.5C0 13.2076 13.2076 0 29.5 0C45.7924 0 59 13.2076 59 29.5Z" fill="#1A2B44"/>
<path d="M48.4696 19.3328C47.8653 17.75 46.7687 16.3769 45.1778 15.2081C44.2553 14.5307 43.0489 13.9234 41.6155 13.3711L43.2023 7.38608L38.1868 6.10452L36.6528 11.8871L33.4284 11.0642L34.9613 5.28166L29.9458 4L28.4119 9.78254L17.7643 7.0627L16.4739 11.9288L17.8845 12.2899C18.8236 12.529 19.4403 12.7771 19.7315 13.0304C20.0186 13.2826 20.1948 13.5705 20.2549 13.8909C20.3202 14.2124 20.2083 14.8918 19.9326 15.9344L14.7306 35.5464C14.459 36.5707 14.2155 37.2145 14.0009 37.4729C13.7864 37.7342 13.493 37.9001 13.1158 37.9743C12.7375 38.0475 11.6171 37.8481 10.678 37.6092L9 41.0736C9.38457 41.629 9.79087 42.1681 10.2189 42.6889L19.0849 44.953L18.0007 49.04C19.5253 49.8456 21.1432 50.5017 22.8357 50.9899L24.0971 46.2337L27.2127 47.0302C27.249 47.0384 27.2863 47.0455 27.3226 47.0546L26.0903 51.7041C27.3692 51.8993 28.6793 52 30.0142 52C30.4713 52 30.9253 51.9878 31.3762 51.9644L32.4147 48.0493C34.0907 48.2569 35.5334 48.2884 36.7337 48.1378C39.0461 47.849 40.9863 47.0657 42.5483 45.7851C44.1113 44.5076 45.1405 42.9351 45.636 41.0676C46.0464 39.5072 46.0432 37.9957 45.6287 36.533C45.2121 35.0754 44.4565 33.8233 43.3578 32.7919C42.6053 32.0626 41.4414 31.2692 39.8763 30.4249C41.5803 30.3019 43.0095 29.9631 44.1797 29.4098C45.3416 28.8534 46.3158 28.121 47.1025 27.2056C47.883 26.2943 48.4313 25.2567 48.738 24.0972C49.1619 22.5022 49.0707 20.9134 48.4696 19.3328ZM36.5781 37.7668C36.2558 38.9904 35.6256 39.9496 34.6949 40.6464C33.7621 41.3391 32.7577 41.6991 31.685 41.7215C30.6133 41.7439 29.3156 41.5629 27.7951 41.1743L25.1801 40.506C24.3064 40.2833 23.7881 40.1001 23.615 39.9577C23.4429 39.8133 23.3466 39.6159 23.3217 39.3576C23.3 39.1532 23.4253 38.5174 23.6938 37.4332L25.7128 29.8196L30.3489 31.0037C32.3846 31.5245 33.847 32.0961 34.7415 32.7186C35.6339 33.3391 36.233 34.0775 36.5367 34.9269C36.8404 35.7783 36.8549 36.7232 36.5781 37.7668ZM39.7041 23.1959C39.4688 24.086 39.0117 24.8082 38.3329 25.3615C37.6571 25.9168 36.7802 26.2362 35.7075 26.3197C34.6338 26.4041 33.0697 26.1854 31.0134 25.6605L27.0852 24.6566L29.3592 16.0819L33.2874 17.0848C35.5842 17.6717 37.1389 18.218 37.9556 18.7225C38.7713 19.227 39.3269 19.8698 39.6264 20.6429C39.9218 21.4189 39.9508 22.2693 39.7041 23.1959Z" fill="#ECF4FF"/>
</svg>
