<svg width="12" height="12" viewBox="0 0 12 12" fill="none" xmlns="http://www.w3.org/2000/svg">
<g clip-path="url(#clip0)">
<path d="M9.49997 6.02298C9.22348 6.02298 9 6.24701 9 6.52295V10.523C9 10.7985 8.77597 11.0229 8.50003 11.0229H1.5C1.22397 11.0229 1.00003 10.7985 1.00003 10.523V3.52295C1.00003 3.24747 1.22397 3.02298 1.5 3.02298H5.50003C5.77652 3.02298 6 2.79895 6 2.52301C6 2.24698 5.77652 2.02295 5.50003 2.02295H1.5C0.673004 2.02295 0 2.69595 0 3.52295V10.523C0 11.35 0.673004 12.023 1.5 12.023H8.50003C9.32703 12.023 10 11.35 10 10.523V6.52295C10 6.24646 9.77646 6.02298 9.49997 6.02298Z" fill="#2D3748"/>
<path d="M4.68806 5.56757C4.65309 5.60254 4.62956 5.64703 4.61958 5.69501L4.2661 7.46307C4.24962 7.54501 4.27562 7.62952 4.33458 7.68903C4.38209 7.73654 4.44609 7.76199 4.51164 7.76199C4.52757 7.76199 4.54414 7.76053 4.56062 7.75705L6.32814 7.40356C6.37712 7.39349 6.42161 7.37006 6.45613 7.33499L10.4121 3.379L8.64461 1.61157L4.68806 5.56757Z" fill="#2D3748"/>
<path d="M11.6338 0.38932C11.1464 -0.0981979 10.3533 -0.0981979 9.86627 0.38932L9.17432 1.08128L10.9418 2.84879L11.6338 2.15675C11.8698 1.92127 11.9998 1.60725 11.9998 1.27326C11.9998 0.939278 11.8698 0.625252 11.6338 0.38932Z" fill="#2D3748"/>
</g>
<defs>
<clipPath id="clip0">
<rect width="12" height="12" fill="white"/>
</clipPath>
</defs>
</svg>
