<svg width="23" height="27" viewBox="0 0 23 27" fill="none" xmlns="http://www.w3.org/2000/svg">
<path d="M14.4004 27H4.32812C2.00184 27 0.109375 25.1075 0.109375 22.7812V8.49023C0.109375 6.16395 2.00184 4.27148 4.32812 4.27148H14.4004C16.7267 4.27148 18.6191 6.16395 18.6191 8.49023V22.7812C18.6191 25.1075 16.7267 27 14.4004 27ZM4.32812 6.38086C3.16508 6.38086 2.21875 7.32719 2.21875 8.49023V22.7812C2.21875 23.9443 3.16508 24.8906 4.32812 24.8906H14.4004C15.5634 24.8906 16.5098 23.9443 16.5098 22.7812V8.49023C16.5098 7.32719 15.5634 6.38086 14.4004 6.38086H4.32812ZM22.8379 20.1445V4.21875C22.8379 1.89246 20.9454 0 18.6191 0H6.91211C6.32956 0 5.85742 0.472137 5.85742 1.05469C5.85742 1.63724 6.32956 2.10938 6.91211 2.10938H18.6191C19.7822 2.10938 20.7285 3.05571 20.7285 4.21875V20.1445C20.7285 20.7271 21.2007 21.1992 21.7832 21.1992C22.3658 21.1992 22.8379 20.7271 22.8379 20.1445Z" fill="#84E182"/>
</svg>
