<svg width="91" height="91" viewBox="0 0 91 91" fill="none" xmlns="http://www.w3.org/2000/svg">
<g clip-path="url(#clip0)">
<path d="M90.6331 36.3428L74.4595 8.78275C73.7178 7.51923 72.0958 7.09072 70.8273 7.82334L61.134 13.4197L52.4028 10.2082C49.6721 9.2038 46.6606 9.46205 44.1409 10.917L30.8824 18.5718L19.1283 11.7854C18.5034 11.4246 17.7592 11.3327 17.065 11.5302C16.3711 11.7278 15.7869 12.1981 15.4458 12.8342L0.316892 41.0408C-0.363475 42.3097 0.0863708 43.8899 1.33336 44.6097L7.33669 48.0759L4.32605 53.2905C2.1209 57.1098 3.43418 62.0108 7.25351 64.216C9.02623 65.2394 11.0316 65.5038 12.8927 65.1126C13.4843 66.9198 14.716 68.5246 16.4888 69.548C18.2615 70.5714 20.2669 70.8359 22.1279 70.4447C22.7196 72.2519 23.9513 73.8566 25.724 74.88C27.4967 75.9034 29.5021 76.1679 31.3632 75.7767C31.955 77.5841 33.1867 79.1887 34.9595 80.2121C38.7788 82.4172 43.6798 81.1039 45.885 77.2846L46.2294 76.6879L56.2343 82.4643C60.0536 84.6695 64.9546 83.3562 67.1598 79.5368C67.6802 78.6354 68.0022 77.6735 68.1441 76.7013C71.5459 77.5972 75.2678 76.1574 77.1093 72.9676C77.7435 71.8692 78.0851 70.6812 78.1614 69.4938C81.0716 69.6465 83.9654 68.2017 85.5197 65.5095C87.074 62.8174 86.8783 59.5888 85.291 57.1448C86.2813 56.4851 87.1392 55.5951 87.7734 54.4967C89.9176 50.783 88.7344 46.0472 85.1561 43.7609L90.0278 39.7503C91.04 38.9174 91.2965 37.4728 90.6331 36.3428ZM46.8069 15.5347C47.9522 14.8732 49.3206 14.756 50.5624 15.2126L60.4654 18.8551C61.2083 19.1283 62.0334 19.0574 62.7187 18.6618L71.2007 13.7646L84.8831 37.0797L80.233 40.9079L48.2113 22.42C47.3865 21.9436 46.3702 21.9436 45.5453 22.42L30.8074 30.9288C29.5809 31.6708 27.8565 31.2089 27.1656 29.953C26.4236 28.7269 26.8857 27.0019 28.1414 26.3113L46.8069 15.5347ZM9.9197 59.5983C8.64659 58.8631 8.20883 57.2296 8.94394 55.9565L13.3873 48.2604C14.1224 46.9873 15.756 46.5495 17.0291 47.2846C18.3022 48.0197 18.74 49.6533 18.0048 50.9264L13.5615 58.6225C12.8265 59.8956 11.1928 60.3334 9.9197 59.5983ZM19.155 64.9303C17.8818 64.1952 17.4441 62.5616 18.1792 61.2885L24.3999 50.5139C25.135 49.2406 26.7686 48.803 28.0417 49.5381C29.3148 50.2732 29.7525 51.9068 29.0174 53.1799L22.7967 63.9545C22.0618 65.2276 20.4281 65.6654 19.155 64.9303ZM28.3902 70.2623C27.1171 69.5272 26.6793 67.8937 27.4145 66.6205L31.8578 58.9245C32.5929 57.6514 34.2265 57.2136 35.4996 57.9487C36.7727 58.6838 37.2105 60.3174 36.4753 61.5905L32.032 69.2866C31.2971 70.5597 29.6635 70.9974 28.3902 70.2623ZM37.6256 75.5945C36.3525 74.8594 35.9146 73.2257 36.6497 71.9526L39.3157 67.3349C40.0508 66.0617 41.6846 65.624 42.9577 66.3591C44.2308 67.0942 44.6686 68.7278 43.9334 70.0009L41.2674 74.6186C40.5325 75.8919 38.8989 76.3296 37.6256 75.5945ZM80.9025 62.8435C80.1674 64.1166 78.5339 64.5544 77.2608 63.8193L63.4078 55.8212C62.1327 55.085 60.5022 55.5219 59.766 56.797C59.0298 58.072 59.4667 59.7026 60.7418 60.4388L71.5162 66.6595C72.7893 67.3946 73.2271 69.0281 72.492 70.3012C71.7569 71.5743 70.1233 72.0121 68.8502 71.277L58.0758 65.0563C56.8007 64.3201 55.1702 64.757 54.434 66.0321C53.6978 67.3071 54.1347 68.9377 55.4098 69.6738L61.5666 73.2285C62.8398 73.9636 63.2775 75.5972 62.5424 76.8703C61.8073 78.1434 60.1737 78.5812 58.9006 77.8461L48.8684 72.0539C50.6088 68.3376 49.242 63.8299 45.6239 61.741C44.5255 61.1069 43.3375 60.7651 42.1499 60.6888C42.3026 57.7786 40.8579 54.8847 38.1658 53.3303C37.0674 52.6961 35.8794 52.3545 34.692 52.2783C34.8446 49.368 33.3998 46.4742 30.7077 44.9199C28.0155 43.3656 24.7872 43.5613 22.3432 45.1486C21.6834 44.1583 20.7935 43.3004 19.6951 42.6662C16.621 40.8913 12.8473 41.3974 10.3415 43.6532L6.23722 41.2841L18.8445 17.7786L25.5504 21.6504L25.4754 21.6937C23.6253 22.7619 22.3019 24.4866 21.7488 26.5501C21.1961 28.6136 21.4797 30.769 22.5479 32.6191C23.6161 34.4691 25.3408 35.7925 27.4043 36.3456C29.4678 36.8982 31.6232 36.6147 33.4732 35.5465L46.8781 27.8073L82.1801 48.1891C83.4532 48.9242 83.891 50.5578 83.1559 51.8309C82.4208 53.104 80.7872 53.5418 79.5141 52.8067L68.7396 46.586C67.4646 45.8498 65.8341 46.2867 65.0979 47.5617C64.3617 48.8368 64.7986 50.4673 66.0736 51.2035L79.9266 59.2015C81.1999 59.9367 81.6376 61.5704 80.9025 62.8435Z" fill="url(#paint0_linear)"/>
</g>
<defs>
<linearGradient id="paint0_linear" x1="21.3407" y1="7.24779" x2="85.7655" y2="111.133" gradientUnits="userSpaceOnUse">
<stop stop-color="#EB63A4"/>
<stop offset="1" stop-color="#320C82" stop-opacity="0.67"/>
</linearGradient>
<clipPath id="clip0">
<rect width="91" height="91" fill="white"/>
</clipPath>
</defs>
</svg>
