<svg width="12" height="12" viewBox="0 0 12 12" fill="none" xmlns="http://www.w3.org/2000/svg">
<path d="M6 0C2.68378 0 0 2.68352 0 6C0 9.31624 2.68352 12 6 12C9.31622 12 12 9.31648 12 6C12 2.68376 9.31648 0 6 0ZM6 11.0625C3.20194 11.0625 0.9375 8.79827 0.9375 6C0.9375 3.20191 3.20173 0.9375 6 0.9375C8.79806 0.9375 11.0625 3.20173 11.0625 6C11.0625 8.79809 8.79827 11.0625 6 11.0625Z" fill="#C53838"/>
<path d="M8.05296 7.38987L6.66307 5.99998L8.05296 4.61008C8.23601 4.42704 8.23603 4.13025 8.05299 3.94718C7.86989 3.76411 7.57311 3.76413 7.39008 3.94718L6.00017 5.33707L4.61026 3.94718C4.42723 3.76411 4.1304 3.76411 3.94735 3.94718C3.7643 4.13025 3.7643 4.42704 3.94737 4.61008L5.33726 5.99998L3.94737 7.38987C3.7643 7.57294 3.76428 7.86973 3.94735 8.05277C4.13047 8.23587 4.42726 8.2358 4.61026 8.05277L6.00017 6.66288L7.39008 8.05277C7.57308 8.23582 7.86992 8.23584 8.05299 8.05277C8.23606 7.8697 8.23603 7.57291 8.05296 7.38987Z" fill="#C53838"/>
</svg>
