<svg width="59" height="59" viewBox="0 0 59 59" fill="none" xmlns="http://www.w3.org/2000/svg">
<path d="M29.5 59C45.7924 59 59 45.7924 59 29.5C59 13.2076 45.7924 0 29.5 0C13.2076 0 0 13.2076 0 29.5C0 45.7924 13.2076 59 29.5 59Z" fill="#627EEA"/>
<path d="M30.4182 7.375V23.7291L44.2408 29.9056L30.4182 7.375Z" fill="white" fill-opacity="0.602"/>
<path d="M30.4182 7.375L16.5938 29.9056L30.4182 23.7291V7.375Z" fill="white"/>
<path d="M30.4182 40.5035V51.6158L44.25 32.4795L30.4182 40.5035Z" fill="white" fill-opacity="0.602"/>
<path d="M30.4182 51.6158V40.5017L16.5938 32.4795L30.4182 51.6158Z" fill="white"/>
<path d="M30.4182 37.9315L44.2408 29.9056L30.4182 23.7328V37.9315Z" fill="white" fill-opacity="0.2"/>
<path d="M16.5938 29.9056L30.4182 37.9315V23.7328L16.5938 29.9056Z" fill="white" fill-opacity="0.602"/>
</svg>
