<svg width="24" height="24" viewBox="0 0 24 24" fill="none" xmlns="http://www.w3.org/2000/svg">
<g clip-path="url(#clip0_2276_70774)">
<path d="M12 23.25C18.2132 23.25 23.25 18.2132 23.25 12C23.25 5.7868 18.2132 0.75 12 0.75C5.7868 0.75 0.75 5.7868 0.75 12C0.75 18.2132 5.7868 23.25 12 23.25Z" fill="#00AFCA"/>
<path d="M21.2625 12.4125C21 12.2625 20.7 12.45 20.7 12.7125C20.5875 14.55 17.3625 15.0375 15.825 15.0375C14.2875 15.075 10.9875 14.5125 10.875 12.7125C10.875 12.45 10.575 12.3 10.3125 12.4125C9.52502 12.825 9.26252 13.6125 9.45002 14.4C9.78752 15.825 11.55 16.8375 13.05 17.2875C12.9375 17.55 12.9 17.8125 12.8625 18.075C12.825 18.375 13.275 18.4875 13.5 18.3C14.3625 17.6625 15.7125 17.4 16.8375 17.4C17.325 17.4 17.325 16.725 16.8375 16.725C15.825 16.725 14.7375 16.9125 13.8375 17.325C14.175 16.5375 14.9625 15.75 15.825 15.7125H15.8625C17.6625 15.75 20.55 15.1125 21.3 13.425C21.4125 13.725 21.4125 14.0625 21.3 14.3625C20.925 15.5625 19.6125 16.05 18.375 16.3875C17.925 16.5 18.1125 17.175 18.5625 17.025C20.1375 16.6125 21.375 15.975 22.0125 14.55C22.3125 13.8 22.0125 12.9 21.2625 12.4125M13.35 16.65C12.1125 16.3125 11.175 15.7125 10.425 14.7375C10.125 14.325 10.0125 13.7625 10.275 13.35C10.8375 14.6625 12.675 15.3375 14.325 15.5625C13.95 15.8625 13.6125 16.2375 13.35 16.65" fill="#FFE62E"/>
<path d="M15.7498 13.0124C17.3445 13.0124 18.6373 11.7196 18.6373 10.1249C18.6373 8.5302 17.3445 7.23743 15.7498 7.23743C14.1551 7.23743 12.8623 8.5302 12.8623 10.1249C12.8623 11.7196 14.1551 13.0124 15.7498 13.0124Z" fill="#FFE62E"/>
<path d="M15.7499 6.86248C15.9374 6.86248 15.9749 6.74998 15.9749 6.63748C15.9749 6.44998 15.7499 5.66248 15.7499 5.66248C15.7499 5.66248 15.5249 6.48748 15.5249 6.63748C15.5249 6.74998 15.5624 6.86248 15.7499 6.86248Z" fill="#FFE62E"/>
<path d="M16.9877 7.08755C17.1377 7.16255 17.2502 7.08755 17.2877 6.97505C17.3627 6.82505 17.4377 5.96255 17.4377 5.96255C17.4377 5.96255 16.9127 6.63755 16.8377 6.78755C16.8377 6.90005 16.8377 7.05005 16.9877 7.08755M18.7877 11.3625C18.7127 11.5125 18.7877 11.625 18.9002 11.6625C19.0502 11.7375 19.9127 11.8125 19.9127 11.8125C19.9127 11.8125 19.2377 11.2875 19.0877 11.2125C18.9752 11.2125 18.8252 11.2125 18.7877 11.3625M14.5127 13.1625C14.3627 13.0875 14.2502 13.1626 14.2127 13.2751C14.1377 13.4251 14.0627 14.2875 14.0627 14.2875C14.0627 14.2875 14.5877 13.6126 14.6627 13.4626C14.6627 13.3501 14.6627 13.2 14.5127 13.1625M12.7127 8.88755C12.7877 8.73755 12.7127 8.62505 12.6002 8.58755C12.4502 8.51255 11.5877 8.43755 11.5877 8.43755C11.5877 8.43755 12.2627 8.96255 12.4127 9.03755C12.5252 9.03755 12.6752 9.03755 12.7127 8.88755M18.0752 7.80005C18.1877 7.91255 18.3377 7.87505 18.4127 7.80005C18.5252 7.68755 18.9377 6.93755 18.9377 6.93755C18.9377 6.93755 18.1877 7.35005 18.0752 7.46255C17.9627 7.57505 17.9627 7.68755 18.0752 7.80005M18.0752 12.4501C17.9627 12.5626 18.0002 12.675 18.0752 12.7875C18.1877 12.9 18.9377 13.3125 18.9377 13.3125C18.9377 13.3125 18.5252 12.5626 18.4127 12.4501C18.3002 12.3376 18.1877 12.3376 18.0752 12.4501ZM13.4252 12.4501C13.3127 12.3376 13.1627 12.3751 13.0877 12.4501C12.9752 12.5626 12.5627 13.3125 12.5627 13.3125C12.5627 13.3125 13.3127 12.9 13.4252 12.7875C13.5377 12.675 13.5377 12.5626 13.4252 12.4501ZM13.4252 7.80005C13.5377 7.68755 13.5002 7.53755 13.4252 7.46255C13.3127 7.35005 12.5627 6.93755 12.5627 6.93755C12.5627 6.93755 12.9752 7.68755 13.0877 7.80005C13.2002 7.91255 13.3127 7.91255 13.4252 7.80005M18.7877 8.88755C18.8627 9.03755 18.9752 9.07505 19.0877 9.00005C19.2377 8.92505 19.9127 8.40005 19.9127 8.40005C19.9127 8.40005 19.0502 8.51255 18.9002 8.55005C18.7877 8.62505 18.7127 8.70005 18.7877 8.88755M16.9877 13.1625C16.8377 13.2375 16.8002 13.3501 16.8752 13.4626C16.9502 13.6126 17.4752 14.2875 17.4752 14.2875C17.4752 14.2875 17.3627 13.4251 17.3252 13.2751C17.2502 13.1626 17.1752 13.0875 16.9877 13.1625M12.7127 11.3625C12.6377 11.2125 12.5252 11.175 12.4127 11.25C12.2627 11.325 11.5877 11.85 11.5877 11.85C11.5877 11.85 12.4502 11.7376 12.6002 11.7001C12.7127 11.6251 12.7877 11.55 12.7127 11.3625M14.5127 7.08755C14.6627 7.01255 14.7002 6.90005 14.6252 6.78755C14.5502 6.63755 14.0252 5.96255 14.0252 5.96255C14.0252 5.96255 14.1377 6.78755 14.1752 6.97505C14.2502 7.08755 14.3252 7.16255 14.5127 7.08755M16.3877 6.90005C16.5377 6.93755 16.6502 6.82505 16.6502 6.71255C16.6877 6.56255 16.6127 5.70005 16.6127 5.70005C16.6127 5.70005 16.2377 6.45005 16.2002 6.63755C16.1627 6.75005 16.2377 6.86255 16.3877 6.90005ZM18.9752 10.7626C18.9377 10.9126 19.0502 11.025 19.1627 11.025C19.3127 11.0625 20.1752 10.9875 20.1752 10.9875C20.1752 10.9875 19.4252 10.6126 19.2377 10.5751C19.1252 10.5376 19.0127 10.6126 18.9752 10.7626M15.1127 13.35C14.9627 13.3125 14.8502 13.425 14.8502 13.5375C14.8127 13.6875 14.8877 14.55 14.8877 14.55C14.8877 14.55 15.2627 13.8 15.3002 13.6125C15.3377 13.5 15.2627 13.3875 15.1127 13.35ZM12.5252 9.48755C12.5627 9.30005 12.4502 9.22505 12.3377 9.22505C12.1877 9.18755 11.3252 9.26255 11.3252 9.26255C11.3252 9.26255 12.0752 9.63755 12.2627 9.67505C12.3752 9.71255 12.4877 9.63755 12.5252 9.48755M17.5877 7.38755C17.7377 7.46255 17.8502 7.42505 17.9252 7.31255C18.0377 7.16255 18.2627 6.37505 18.2627 6.37505C18.2627 6.37505 17.6252 6.93755 17.5127 7.05005C17.4377 7.16255 17.4377 7.31255 17.5877 7.38755ZM18.4877 11.9625C18.4127 12.1125 18.4502 12.225 18.5627 12.3C18.7127 12.4125 19.5002 12.6376 19.5002 12.6376C19.5002 12.6376 18.9377 12.0001 18.8252 11.8876C18.7127 11.8126 18.5627 11.8125 18.4877 11.9625M13.9127 12.8625C13.7627 12.7875 13.6502 12.825 13.5752 12.9375C13.5002 13.05 13.2377 13.8751 13.2377 13.8751C13.2377 13.8751 13.8752 13.3126 13.9877 13.2001C14.0627 13.0876 14.0627 12.9375 13.9127 12.8625M13.0127 8.28755C13.0877 8.13755 13.0502 8.02505 12.9377 7.95005C12.8252 7.87505 12.0002 7.61255 12.0002 7.61255C12.0002 7.61255 12.5627 8.25005 12.6752 8.36255C12.7877 8.43755 12.9377 8.43755 13.0127 8.28755M18.4877 8.28755C18.6002 8.43755 18.7127 8.43755 18.8252 8.36255C18.9752 8.25005 19.5002 7.61255 19.5002 7.61255C19.5002 7.61255 18.6752 7.87505 18.5627 7.95005C18.4502 8.06255 18.3752 8.17505 18.4877 8.28755M17.5877 12.8625C17.4377 12.975 17.4377 13.0876 17.5127 13.2001C17.6252 13.3501 18.2627 13.8751 18.2627 13.8751C18.2627 13.8751 18.0002 13.05 17.9252 12.9375C17.8127 12.825 17.7002 12.75 17.5877 12.8625M13.0127 11.9625C12.9002 11.8125 12.7877 11.8126 12.6752 11.8876C12.5252 12.0001 12.0002 12.6376 12.0002 12.6376C12.0002 12.6376 12.8252 12.375 12.9377 12.3C13.0502 12.1875 13.1252 12.075 13.0127 11.9625M13.9127 7.38755C14.0627 7.27505 14.0627 7.16255 13.9877 7.05005C13.8752 6.90005 13.2377 6.37505 13.2377 6.37505C13.2377 6.37505 13.5002 7.20005 13.5752 7.31255C13.6877 7.42505 13.8002 7.50005 13.9127 7.38755ZM18.9752 9.48755C19.0127 9.63755 19.1252 9.71255 19.2377 9.67505C19.3877 9.63755 20.1752 9.26255 20.1752 9.26255C20.1752 9.26255 19.3127 9.18755 19.1627 9.22505C19.0127 9.22505 18.9377 9.30005 18.9752 9.48755M16.3877 13.35C16.2377 13.3875 16.1627 13.5 16.2002 13.6125C16.2377 13.7625 16.6127 14.55 16.6127 14.55C16.6127 14.55 16.6877 13.6875 16.6502 13.5375C16.6502 13.3875 16.5752 13.3125 16.3877 13.35ZM12.5252 10.7626C12.4877 10.6126 12.3752 10.5376 12.2627 10.5751C12.1127 10.6126 11.3252 10.9875 11.3252 10.9875C11.3252 10.9875 12.1877 11.0625 12.3377 11.025C12.4877 11.025 12.5627 10.9501 12.5252 10.7626M15.1127 6.90005C15.2627 6.86255 15.3377 6.75005 15.3002 6.63755C15.2627 6.48755 14.8877 5.70005 14.8877 5.70005C14.8877 5.70005 14.8127 6.56255 14.8502 6.71255C14.8502 6.86255 14.9252 6.93755 15.1127 6.90005ZM6.1877 19.35H5.77519V20.7376H4.9502C5.3627 21.0751 5.7752 21.3376 6.2252 21.6376V19.35H6.1877ZM5.77519 3.26255V4.65005H6.1877V2.36255C5.7377 2.62505 5.3252 2.92505 4.9127 3.26255H5.77519M4.8377 3.30005C4.7252 3.37505 4.6127 3.48755 4.5002 3.60005L5.6252 6.03755H4.6877V4.65005H4.2752V6.03755H3.3377L4.4252 3.67505C4.1252 3.93755 3.8252 4.23755 3.5627 4.57505L2.7002 6.41255L4.1627 9.56255H3.2252V8.17505H2.8127V11.85H3.2252V10.3125H4.2002L3.6377 12L4.2002 13.6501H3.2252V12.1125H2.8127V15.7875H3.2252V14.4001H4.1627L2.7002 17.5501L3.5627 19.3876C3.8252 19.6876 4.1252 19.9875 4.4252 20.2875L3.3377 17.9251H4.2752V19.3126H4.6877V17.9251H5.6252L4.5002 20.3626C4.6127 20.4751 4.7252 20.55 4.8377 20.6625L6.2627 17.5501L4.8002 14.4001H5.7377V15.7875H6.15019V12.1125H5.7377V13.6501H4.7627L5.3252 12L4.7627 10.35H5.7377V11.8876H6.15019V8.21255H5.7377V9.60005H4.8002L6.2627 6.45005L4.8377 3.30005M5.6627 17.2126H4.7252V15.8251H4.3127V17.2126H3.3377L4.5002 14.7375L5.6627 17.2126M4.5002 13.2001L4.2002 12.3376H4.8002L4.5002 13.2001M4.8002 11.6625H4.2002L4.5002 10.8L4.8002 11.6625M4.5002 9.30005L3.3377 6.82505H4.2752V8.21255H4.6877V6.82505H5.6252L4.5002 9.30005" fill="#FFE62E"/>
</g>
<defs>
<clipPath id="clip0_2276_70774">
<rect width="24" height="24" fill="white"/>
</clipPath>
</defs>
</svg>
