<svg width="20" height="20" viewBox="0 0 20 20" fill="none" xmlns="http://www.w3.org/2000/svg">
<path d="M10.765 13.8251L7.70488 16.8853C7.70488 16.8853 7.70488 16.8854 7.7048 16.8854C7.7048 16.8854 7.7048 16.8855 7.70473 16.8855C6.43929 18.151 4.38014 18.151 3.11455 16.8855C2.50145 16.2724 2.16389 15.4572 2.16389 14.5903C2.16389 13.7234 2.50145 12.9084 3.11434 12.2953C3.11441 12.2953 3.11448 12.2952 3.11455 12.2951L6.17465 9.23496C6.59711 8.81243 6.59711 8.12734 6.17458 7.70488C5.75211 7.28242 5.06703 7.28242 4.64449 7.70488L1.5844 10.765C1.58418 10.7653 1.58396 10.7655 1.58375 10.7658C0.562466 11.7874 0 13.1457 0 14.5903C0 16.0353 0.562682 17.3937 1.58447 18.4155C2.63915 19.4701 4.02439 19.9975 5.40972 19.9975C6.79503 19.9975 8.18035 19.4701 9.23489 18.4155V18.4155C9.23496 18.4155 9.23496 18.4154 9.23496 18.4154L12.2951 15.3552C12.7175 14.9328 12.7175 14.2477 12.295 13.8251C11.8726 13.4027 11.1876 13.4027 10.765 13.8251Z" fill="#132033"/>
<path d="M20 5.40972C20 3.96475 19.4372 2.60626 18.4155 1.58448C16.3062 -0.524736 12.8742 -0.524664 10.765 1.58448C10.765 1.58462 10.7648 1.58469 10.7648 1.58484L7.70473 4.64479C7.2822 5.06725 7.2822 5.75241 7.70473 6.17487C7.91607 6.38621 8.19291 6.49181 8.46981 6.49181C8.74664 6.49181 9.02362 6.38614 9.23482 6.17487L12.2948 3.11492C12.2949 3.11478 12.2951 3.1147 12.2952 3.11456C13.5606 1.84912 15.6198 1.84905 16.8854 3.11456C17.4984 3.72766 17.8361 4.5428 17.8361 5.40972C17.8361 6.27657 17.4986 7.09157 16.8856 7.70467C16.8855 7.70474 16.8855 7.70481 16.8854 7.70488L13.8253 10.765C13.4028 11.1875 13.4028 11.8726 13.8254 12.2951C14.0366 12.5064 14.3135 12.6121 14.5904 12.6121C14.8673 12.6121 15.1442 12.5064 15.3554 12.2951L18.4155 9.23497C18.4157 9.23475 18.416 9.23446 18.4162 9.23424C19.4375 8.2126 20 6.85433 20 5.40972Z" fill="#132033"/>
<path d="M6.1748 13.8251C6.38606 14.0364 6.66297 14.1421 6.9398 14.1421C7.21671 14.1421 7.49361 14.0364 7.70488 13.8251L13.8252 7.70481C14.2477 7.28235 14.2477 6.59726 13.8252 6.17473C13.4027 5.75226 12.7177 5.75226 12.2951 6.17473L6.1748 12.295C5.75226 12.7176 5.75226 13.4027 6.1748 13.8251Z" fill="#132033"/>
</svg>
