<svg width="32" height="32" viewBox="0 0 32 32" fill="none" xmlns="http://www.w3.org/2000/svg">
<path d="M16.7886 16.8809C14.511 13.0087 14.932 9.55063 15.2671 7.33254L15.3019 7.10354C15.3721 6.64507 15.4396 6.20371 15.4625 5.8444C15.476 5.63122 15.4781 5.39702 15.4408 5.17192C15.4041 4.95063 15.3161 4.65479 15.0795 4.40462C14.5421 3.83627 13.7873 3.99405 13.3797 4.12185C12.8952 4.27373 12.2899 4.57539 11.5553 4.99167C5.28669 8.54421 3.1389 16.4122 6.75809 22.5654C10.3773 28.7186 18.3929 30.8268 24.6615 27.2743C25.3961 26.858 25.9649 26.4942 26.3411 26.1583C26.6577 25.8757 27.1743 25.313 26.9416 24.572C26.8391 24.2458 26.6222 24.023 26.4453 23.8812C26.2653 23.737 26.0576 23.6216 25.8628 23.5265C25.5343 23.3663 25.1113 23.2031 24.6717 23.0335L24.4521 22.9486C22.3276 22.1244 19.0662 20.7532 16.7886 16.8809Z" fill="url(#paint0_linear_5904_2667)"/>
<defs>
<linearGradient id="paint0_linear_5904_2667" x1="5" y1="29" x2="30.186" y2="7.78176" gradientUnits="userSpaceOnUse">
<stop stop-color="#213151"/>
<stop offset="1" stop-color="#43567C"/>
</linearGradient>
</defs>
</svg>
