<svg width="105" height="105" viewBox="0 0 105 105" fill="none" xmlns="http://www.w3.org/2000/svg">
<g clip-path="url(#clip0)">
<path d="M52.5 105C81.4949 105 105 81.4949 105 52.5C105 23.5051 81.4949 0 52.5 0C23.5051 0 0 23.5051 0 52.5C0 81.4949 23.5051 105 52.5 105Z" fill="#32BA7C"/>
<path d="M39.0852 76.1829L66.0804 103.178C88.4385 97.216 105 76.8453 105 52.4999C105 52.0031 105 51.5062 105 51.0094L83.8013 31.4668L39.0852 76.1829Z" fill="#0AA06E"/>
<path d="M53.8249 64.2585C56.1435 66.5771 56.1435 70.5519 53.8249 72.8705L49.0221 77.6733C46.7035 79.9919 42.7287 79.9919 40.4101 77.6733L19.377 56.4746C17.0583 54.156 17.0583 50.1812 19.377 47.8626L24.1798 43.0598C26.4984 40.7411 30.4732 40.7411 32.7918 43.0598L53.8249 64.2585Z" fill="white"/>
<path d="M72.2082 27.6574C74.5268 25.3388 78.5016 25.3388 80.8202 27.6574L85.623 32.4603C87.9416 34.7789 87.9416 38.7536 85.623 41.0722L49.1877 77.342C46.8691 79.6606 42.8943 79.6606 40.5757 77.342L35.7729 72.5391C33.4543 70.2205 33.4543 66.2457 35.7729 63.9271L72.2082 27.6574Z" fill="white"/>
</g>
<defs>
<clipPath id="clip0">
<rect width="105" height="105" fill="white"/>
</clipPath>
</defs>
</svg>
