<svg width="14" height="14" viewBox="0 0 14 14" fill="none" xmlns="http://www.w3.org/2000/svg">
<g clip-path="url(#clip0)">
<path d="M7.00005 0.00100708C3.1402 0.00100708 0 3.14116 0 7.00096C0 10.8608 3.1402 14.0009 7.00005 14.0009C10.8598 14.0009 14 10.8608 14 7.00096C14 3.14116 10.8598 0.00100708 7.00005 0.00100708ZM7.00005 12.8534C3.77295 12.8534 1.14753 10.2281 1.14753 7.00096C1.14753 3.77391 3.77295 1.14854 7.00005 1.14854C10.2271 1.14854 12.8525 3.77391 12.8525 7.00096C12.8525 10.2281 10.2271 12.8534 7.00005 12.8534Z" fill="#2BC127"/>
<path d="M10.0281 4.31335L5.87189 8.46958L3.97166 6.56936C3.74757 6.34531 3.38431 6.34531 3.16022 6.56936C2.93618 6.79345 2.93618 7.15671 3.16022 7.3808L5.46617 9.68674C5.57821 9.79874 5.72505 9.85479 5.87189 9.85479C6.01873 9.85479 6.16557 9.79874 6.27761 9.68674L10.8395 5.12484C11.0636 4.90075 11.0636 4.53749 10.8395 4.3134C10.6154 4.08931 10.2521 4.08931 10.0281 4.31335Z" fill="#2BC127"/>
</g>
<defs>
<clipPath id="clip0">
<rect width="14" height="14" fill="white"/>
</clipPath>
</defs>
</svg>
