<svg width="16" height="17" viewBox="0 0 16 17" fill="none" xmlns="http://www.w3.org/2000/svg">
<path d="M7.9999 1C4.8249 1 2.1249 2.975 1.0249 5.75H14.9749C13.8749 2.975 11.1749 1 7.9999 1Z" fill="#42ADE2"/>
<path d="M7.9999 16C11.1749 16 13.8749 14.025 14.9749 11.25H1.0249C2.1249 14.025 4.8249 16 7.9999 16Z" fill="#83BF4F"/>
<path d="M15.5 8.5C15.5 7.725 15.375 6.95 15.15 6.25H0.85C0.625 6.95 0.5 7.725 0.5 8.5C0.5 9.275 0.625 10.05 0.85 10.75H15.15C15.375 10.05 15.5 9.275 15.5 8.5Z" fill="white"/>
<path d="M14.9751 5.75C15.0001 5.825 15.0501 5.925 15.0751 6C15.1001 6.075 15.1251 6.175 15.1501 6.25" fill="#C94747"/>
<path d="M15.0751 6C15.0501 5.925 15.0001 5.825 14.9751 5.75H1.0251C1.0001 5.825 0.950098 5.925 0.925098 6C0.900098 6.075 0.875098 6.175 0.850098 6.25H15.1501C15.1251 6.175 15.1001 6.075 15.0751 6M0.925098 11C0.950098 11.075 1.0001 11.175 1.0251 11.25H14.9751C15.0001 11.175 15.0501 11.075 15.0751 11C15.1001 10.925 15.1251 10.825 15.1501 10.75H0.850098C0.875098 10.825 0.900098 10.925 0.925098 11" fill="#C94747"/>
<path d="M5.1 4.825C4.5 4.825 4.025 4.35 4.025 3.75C4.025 3.15 4.5 2.675 5.1 2.675C5.25 2.675 5.375 2.7 5.5 2.75C5.3 2.6 5.025 2.5 4.75 2.5C4.05 2.5 3.5 3.05 3.5 3.75C3.5 4.45 4.05 5 4.75 5C5.025 5 5.3 4.9 5.5 4.75C5.375 4.8 5.25 4.825 5.1 4.825ZM6.175 4.3L6.275 4.575H6.55L6.325 4.725L6.4 5L6.175 4.825L5.95 5L6.05 4.725L5.825 4.575H6.1L6.175 4.3ZM6.175 4.825L6.25 5.1H6.55L6.325 5.25L6.4 5.525L6.175 5.35L5.95 5.525L6.025 5.25L5.8 5.1H6.075L6.175 4.825ZM7.25 4.825L7.325 5.1H7.6L7.375 5.25L7.475 5.525L7.25 5.35L7 5.525L7.1 5.25L6.875 5.1H7.15L7.25 4.825ZM8.3 4.825L8.4 5.1H9.75L9.525 5.25L9.6 5.525L9.375 5.35L9.15 5.525L9.225 5.25L9 5.1H9.3L8.3 4.825ZM9.375 4.825L9.45 5.1H9.75L9.5 5.25L9.6 5.525L9.375 5.35L9.15 5.525L9.225 5.25L9 5.1H9.275L9.375 4.825ZM7.25 3.4L7.325 3.675H7.625L7.4 3.825L7.475 4.1L7.25 3.925L7.025 4.1L7.1 3.825L6.875 3.675H7.15L7.25 3.4ZM8.325 3.4L8.4 3.675H8.675L8.45 3.825L8.55 4.1L8.325 3.925L8.075 4.1L8.175 3.825L7.95 3.675H8.225L8.325 3.4ZM9.375 3.4L9.475 3.675H9.75L9.525 3.825L9.6 4.1L9.375 3.925L9.15 4.1L9.225 3.825L9 3.675H9.3L9.375 3.4ZM10.45 3.4L10.525 3.675H10.825L10.575 3.825L10.675 4.1L10.45 3.925L10.225 4.1L10.3 3.825L10.075 3.675H10.35L10.45 3.4ZM8.325 2.5L8.4 2.775H8.675L8.45 2.925L8.55 3.2L8.325 3.025L8.075 3.2L8.175 2.925L7.95 2.775H8.225L8.325 2.5ZM9.375 2.5L9.475 2.775H9.75L9.525 2.925L9.6 3.2L9.375 3.025L9.15 3.2L9.225 2.925L9 2.775H9.3L9.375 2.5ZM10.45 2.5L10.525 2.775H10.825L10.575 2.925L10.675 3.2L10.45 3.025L10.225 3.2L10.3 2.925L10.075 2.775H10.35L10.45 2.5Z" fill="white"/>
</svg>
