<svg width="107" height="44" viewBox="0 0 107 44" fill="none" xmlns="http://www.w3.org/2000/svg">
<path d="M9.59766 28.9707V44H0.808594V1.34375H17.4492C20.6523 1.34375 23.4648 1.92969 25.8867 3.10156C28.3281 4.27344 30.2031 5.94336 31.5117 8.11133C32.8203 10.2598 33.4746 12.7109 33.4746 15.4648C33.4746 19.6445 32.0391 22.9453 29.168 25.3672C26.3164 27.7695 22.3613 28.9707 17.3027 28.9707H9.59766ZM9.59766 21.8516H17.4492C19.7734 21.8516 21.541 21.3047 22.752 20.2109C23.9824 19.1172 24.5977 17.5547 24.5977 15.5234C24.5977 13.4336 23.9824 11.7441 22.752 10.4551C21.5215 9.16602 19.8223 8.50195 17.6543 8.46289H9.59766V21.8516ZM67.8691 44H38.6309V38.1992L52.4297 23.4922C54.3242 21.4219 55.7207 19.6152 56.6191 18.0723C57.5371 16.5293 57.9961 15.0645 57.9961 13.6777C57.9961 11.7832 57.5176 10.2988 56.5605 9.22461C55.6035 8.13086 54.2363 7.58398 52.459 7.58398C50.5449 7.58398 49.0312 8.24805 47.918 9.57617C46.8242 10.8848 46.2773 12.6133 46.2773 14.7617H37.7812C37.7812 12.1641 38.3965 9.79102 39.627 7.64258C40.877 5.49414 42.6348 3.81445 44.9004 2.60352C47.166 1.37305 49.7344 0.757812 52.6055 0.757812C57 0.757812 60.4082 1.8125 62.8301 3.92188C65.2715 6.03125 66.4922 9.00977 66.4922 12.8574C66.4922 14.9668 65.9453 17.1152 64.8516 19.3027C63.7578 21.4902 61.8828 24.0391 59.2266 26.9492L49.5293 37.1738H67.8691V44ZM82.7812 28.9707V44H73.9922V1.34375H90.6328C93.8359 1.34375 96.6484 1.92969 99.0703 3.10156C101.512 4.27344 103.387 5.94336 104.695 8.11133C106.004 10.2598 106.658 12.7109 106.658 15.4648C106.658 19.6445 105.223 22.9453 102.352 25.3672C99.5 27.7695 95.5449 28.9707 90.4863 28.9707H82.7812ZM82.7812 21.8516H90.6328C92.957 21.8516 94.7246 21.3047 95.9355 20.2109C97.166 19.1172 97.7812 17.5547 97.7812 15.5234C97.7812 13.4336 97.166 11.7441 95.9355 10.4551C94.7051 9.16602 93.0059 8.50195 90.8379 8.46289H82.7812V21.8516Z" fill="url(#paint0_linear)"/>
<defs>
<linearGradient id="paint0_linear" x1="3.5" y1="44" x2="159.5" y2="-6.5" gradientUnits="userSpaceOnUse">
<stop stop-color="#38D4DE" stop-opacity="0.96"/>
<stop offset="1" stop-color="#29728A"/>
</linearGradient>
</defs>
</svg>
