<svg width="13" height="4" viewBox="0 0 13 4" fill="none" xmlns="http://www.w3.org/2000/svg">
<path d="M0.984375 1.89062C0.984375 1.53125 1.10417 1.23958 1.34375 1.01562C1.58854 0.791667 1.89323 0.679688 2.25781 0.679688C2.6276 0.679688 2.93229 0.791667 3.17188 1.01562C3.41667 1.23958 3.53906 1.53125 3.53906 1.89062C3.53906 2.24479 3.41927 2.53385 3.17969 2.75781C2.9401 2.97656 2.63281 3.08594 2.25781 3.08594C1.88802 3.08594 1.58333 2.97656 1.34375 2.75781C1.10417 2.53385 0.984375 2.24479 0.984375 1.89062ZM5.64062 1.89062C5.64062 1.53125 5.76042 1.23958 6 1.01562C6.24479 0.791667 6.54948 0.679688 6.91406 0.679688C7.28385 0.679688 7.58854 0.791667 7.82812 1.01562C8.07292 1.23958 8.19531 1.53125 8.19531 1.89062C8.19531 2.24479 8.07552 2.53385 7.83594 2.75781C7.59635 2.97656 7.28906 3.08594 6.91406 3.08594C6.54427 3.08594 6.23958 2.97656 6 2.75781C5.76042 2.53385 5.64062 2.24479 5.64062 1.89062ZM10.2969 1.89062C10.2969 1.53125 10.4167 1.23958 10.6562 1.01562C10.901 0.791667 11.2057 0.679688 11.5703 0.679688C11.9401 0.679688 12.2448 0.791667 12.4844 1.01562C12.7292 1.23958 12.8516 1.53125 12.8516 1.89062C12.8516 2.24479 12.7318 2.53385 12.4922 2.75781C12.2526 2.97656 11.9453 3.08594 11.5703 3.08594C11.2005 3.08594 10.8958 2.97656 10.6562 2.75781C10.4167 2.53385 10.2969 2.24479 10.2969 1.89062Z" fill="#2A4365"/>
</svg>
