<svg width="18" height="18" viewBox="0 0 18 18" fill="none" xmlns="http://www.w3.org/2000/svg">
<path d="M9 0C4.0372 0 0 4.0372 0 9C0 13.9628 4.0372 18 9 18C13.9628 18 18 13.9628 18 9C18 4.0372 13.9628 0 9 0Z" fill="#132033"/>
<path d="M12.3144 11.2537C12.6076 11.5471 12.6076 12.021 12.3144 12.3143C12.1682 12.4606 11.9762 12.534 11.7841 12.534C11.5921 12.534 11.4001 12.4606 11.2538 12.3143L9.00014 10.0605L6.74643 12.3143C6.60018 12.4606 6.40819 12.534 6.21621 12.534C6.02408 12.534 5.8321 12.4606 5.68584 12.3143C5.39264 12.021 5.39264 11.5471 5.68584 11.2537L7.93969 9.00002L5.68584 6.74631C5.39264 6.45298 5.39264 5.97905 5.68584 5.68572C5.97918 5.39252 6.4531 5.39252 6.74643 5.68572L9.00014 7.93956L11.2538 5.68572C11.5472 5.39252 12.0211 5.39252 12.3144 5.68572C12.6076 5.97905 12.6076 6.45298 12.3144 6.74631L10.0606 9.00002L12.3144 11.2537Z" fill="#FAFAFA"/>
</svg>
