<svg width="16" height="17" viewBox="0 0 16 17" fill="none" xmlns="http://www.w3.org/2000/svg">
<path d="M7.97505 1C4.72505 1 1.95005 3.1 0.925049 6H15.075C14.025 3.1 11.25 1 7.97505 1Z" fill="#F9F9F9"/>
<path d="M7.97505 16C11.25 16 14.025 13.9 15.05 11H0.925049C1.95005 13.925 4.72505 16 7.97505 16Z" fill="#ED4C5C"/>
<path d="M0.925 6C0.65 6.775 0.5 7.625 0.5 8.5C0.5 9.375 0.65 10.225 0.925 11H15.075C15.35 10.225 15.5 9.375 15.5 8.5C15.5 7.625 15.35 6.775 15.075 6H0.925Z" fill="#428BC1"/>
</svg>
