<svg width="99" height="99" viewBox="0 0 99 99" fill="none" xmlns="http://www.w3.org/2000/svg">
<path d="M6.7509 83.2486H22.5012V96.7503C22.5012 97.4073 22.7114 97.945 23.1342 98.3654C23.5559 98.7885 24.0951 99 24.7518 99H36.4934C37.1028 99 37.63 98.7885 38.0754 98.3654C38.5208 97.945 38.7428 97.4071 38.7428 96.7503V83.2486H74.2505C74.9059 83.2486 75.4452 83.0397 75.8679 82.6167C76.291 82.194 76.501 81.6558 76.501 80.9989V71.9986C76.501 71.3455 76.291 70.8039 75.8679 70.3835C75.4464 69.9604 74.9059 69.7489 74.2505 69.7489H38.7417V61.4517H62.6479C72.0224 61.4517 79.6736 58.5952 85.605 52.874C91.534 47.1588 94.4999 39.7763 94.4999 30.7258C94.4999 21.6814 91.534 14.2986 85.605 8.57767C79.6748 2.86233 72.0222 0 62.6479 0H24.7506C24.0937 0 23.5557 0.211342 23.1331 0.63189C22.7114 1.05477 22.5 1.59622 22.5 2.24946V46.4771H6.7509C6.09417 46.4771 5.55601 46.6993 5.13333 47.1445C4.71181 47.5899 4.50027 48.1172 4.50027 48.7263V59.2018C4.50027 59.8587 4.71045 60.3969 5.13333 60.8196C5.55621 61.2426 6.093 61.4515 6.7509 61.4515H22.5012V69.7487H6.7509C6.09417 69.7487 5.55601 69.9602 5.13333 70.3833C4.71181 70.8037 4.50027 71.3442 4.50027 71.9984V80.9987C4.50027 81.6556 4.71045 82.1938 5.13333 82.6165C5.55601 83.0397 6.09397 83.2486 6.7509 83.2486ZM38.7417 14.9781H61.2417C66.2099 14.9781 70.217 16.4307 73.2649 19.3369C76.3112 22.2433 77.835 26.0414 77.835 30.727C77.835 35.4149 76.3112 39.2142 73.2649 42.1171C70.217 45.0258 66.2097 46.4784 61.2417 46.4784H38.7417V14.9781Z" fill="url(#paint0_linear)"/>
<defs>
<linearGradient id="paint0_linear" x1="49.5001" y1="0" x2="49.5001" y2="99" gradientUnits="userSpaceOnUse">
<stop stop-color="#FF4EA3"/>
<stop offset="1" stop-color="#FF4EA3" stop-opacity="0.53"/>
</linearGradient>
</defs>
</svg>
