<svg width="59" height="59" viewBox="0 0 59 59" fill="none" xmlns="http://www.w3.org/2000/svg">
<circle cx="29.5" cy="29.5" r="29.5" fill="#1A2B44"/>
<path d="M33.2032 14.6615H23.946C22.9085 14.6615 22.0675 15.5026 22.0675 16.54V29.4729H20.2432C19.2057 29.4729 18.3646 30.314 18.3646 31.3515C18.3646 32.3889 19.2057 33.23 20.2432 33.23H22.0675V36.8787H20.2432C19.2057 36.8787 18.3646 37.7198 18.3646 38.7572C18.3646 39.7947 19.2057 40.6357 20.2432 40.6357H22.0675V44.3115C22.0675 45.349 22.9085 46.19 23.946 46.19C24.9834 46.19 25.8245 45.349 25.8245 44.3115V40.6357H33.2032C34.2407 40.6357 35.0817 39.7947 35.0817 38.7572C35.0817 37.7198 34.2407 36.8787 33.2032 36.8787H25.8245V33.23H33.2032C38.3227 33.23 42.4875 29.0652 42.4875 23.9457C42.4874 18.6993 38.2137 14.6615 33.2032 14.6615ZM33.2032 29.4729H25.8245V18.4186H33.2032C36.2329 18.4186 38.7305 20.8622 38.7305 23.9458C38.7304 26.9934 36.2508 29.4729 33.2032 29.4729Z" fill="#ECF4FF" stroke="#ECF4FF" stroke-width="0.3"/>
</svg>
