<svg width="12" height="13" viewBox="0 0 12 13" fill="none" xmlns="http://www.w3.org/2000/svg">
<path d="M4.82151 2.64556L4.59926 3.09344C4.8336 3.20973 5.11797 3.12572 5.25149 2.90074L4.82151 2.64556ZM2.96875 9.4375C2.69261 9.4375 2.46875 9.66136 2.46875 9.9375C2.46875 10.2136 2.69261 10.4375 2.96875 10.4375V9.4375ZM3 10.4375C3.27614 10.4375 3.5 10.2136 3.5 9.9375C3.5 9.66136 3.27614 9.4375 3 9.4375V10.4375ZM4.66667 11.5C4.39052 11.5 4.16667 11.7239 4.16667 12C4.16667 12.2761 4.39052 12.5 4.66667 12.5V11.5ZM4.69792 12.5C4.97406 12.5 5.19792 12.2761 5.19792 12C5.19792 11.7239 4.97406 11.5 4.69792 11.5V12.5ZM6 9.4375C5.72386 9.4375 5.5 9.66136 5.5 9.9375C5.5 10.2136 5.72386 10.4375 6 10.4375V9.4375ZM6.03125 10.4375C6.30739 10.4375 6.53125 10.2136 6.53125 9.9375C6.53125 9.66136 6.30739 9.4375 6.03125 9.4375V10.4375ZM7.66667 11.5C7.39052 11.5 7.16667 11.7239 7.16667 12C7.16667 12.2761 7.39052 12.5 7.66667 12.5V11.5ZM7.69792 12.5C7.97406 12.5 8.19792 12.2761 8.19792 12C8.19792 11.7239 7.97406 11.5 7.69792 11.5V12.5ZM8.96875 9.4375C8.69261 9.4375 8.46875 9.66136 8.46875 9.9375C8.46875 10.2136 8.69261 10.4375 8.96875 10.4375V9.4375ZM9 10.4375C9.27614 10.4375 9.5 10.2136 9.5 9.9375C9.5 9.66136 9.27614 9.4375 9 9.4375V10.4375ZM10.5 4.4375C10.5 6.07445 9.21708 7.375 7.66667 7.375V8.375C9.79815 8.375 11.5 6.59751 11.5 4.4375H10.5ZM7.66667 1.5C9.21708 1.5 10.5 2.80055 10.5 4.4375H11.5C11.5 2.27749 9.79815 0.5 7.66667 0.5V1.5ZM5.25149 2.90074C5.75354 2.05483 6.65099 1.5 7.66667 1.5V0.5C6.27379 0.5 5.06102 1.26234 4.39154 2.39037L5.25149 2.90074ZM3.66667 2.875C4.00115 2.875 4.31699 2.95337 4.59926 3.09344L5.04377 2.19767C4.6272 1.99095 4.15961 1.875 3.66667 1.875V2.875ZM1.5 5.125C1.5 3.86774 2.48444 2.875 3.66667 2.875V1.875C1.90337 1.875 0.5 3.34469 0.5 5.125H1.5ZM3.66667 7.375C2.48444 7.375 1.5 6.38226 1.5 5.125H0.5C0.5 6.90531 1.90337 8.375 3.66667 8.375V7.375ZM5.66667 7.875C5.66667 7.375 5.66666 7.375 5.66665 7.375C5.66664 7.375 5.66663 7.375 5.66661 7.375C5.66659 7.375 5.66657 7.375 5.66654 7.375C5.66651 7.375 5.66647 7.375 5.66644 7.375C5.6664 7.375 5.66635 7.375 5.66631 7.375C5.66626 7.375 5.6662 7.375 5.66615 7.375C5.66609 7.375 5.66603 7.375 5.66596 7.375C5.66589 7.375 5.66582 7.375 5.66574 7.375C5.66567 7.375 5.66559 7.375 5.6655 7.375C5.66541 7.375 5.66532 7.375 5.66523 7.375C5.66513 7.375 5.66503 7.375 5.66493 7.375C5.66482 7.375 5.66471 7.375 5.6646 7.375C5.66448 7.375 5.66436 7.375 5.66424 7.375C5.66412 7.375 5.66399 7.375 5.66385 7.375C5.66372 7.375 5.66358 7.375 5.66344 7.375C5.6633 7.375 5.66315 7.375 5.663 7.375C5.66285 7.375 5.66269 7.375 5.66253 7.375C5.66237 7.375 5.6622 7.375 5.66203 7.375C5.66186 7.375 5.66169 7.375 5.66151 7.375C5.66133 7.375 5.66115 7.375 5.66096 7.375C5.66077 7.375 5.66058 7.375 5.66038 7.375C5.66018 7.375 5.65998 7.375 5.65977 7.375C5.65957 7.375 5.65936 7.375 5.65914 7.375C5.65892 7.375 5.6587 7.375 5.65848 7.375C5.65825 7.375 5.65802 7.375 5.65779 7.375C5.65756 7.375 5.65732 7.375 5.65707 7.375C5.65683 7.375 5.65658 7.375 5.65633 7.375C5.65608 7.375 5.65582 7.375 5.65556 7.375C5.6553 7.375 5.65504 7.375 5.65477 7.375C5.6545 7.375 5.65422 7.375 5.65395 7.375C5.65367 7.375 5.65338 7.375 5.6531 7.375C5.65281 7.375 5.65252 7.375 5.65222 7.375C5.65192 7.375 5.65162 7.375 5.65132 7.375C5.65101 7.375 5.6507 7.375 5.65039 7.375C5.65007 7.375 5.64976 7.375 5.64943 7.375C5.64911 7.375 5.64878 7.375 5.64845 7.375C5.64812 7.375 5.64779 7.375 5.64745 7.375C5.64711 7.375 5.64676 7.375 5.64641 7.375C5.64606 7.375 5.64571 7.375 5.64535 7.375C5.64499 7.375 5.64463 7.375 5.64427 7.375C5.6439 7.375 5.64353 7.375 5.64316 7.375C5.64278 7.375 5.6424 7.375 5.64202 7.375C5.64163 7.375 5.64125 7.375 5.64086 7.375C5.64046 7.375 5.64007 7.375 5.63967 7.375C5.63927 7.375 5.63886 7.375 5.63845 7.375C5.63804 7.375 5.63763 7.375 5.63721 7.375C5.6368 7.375 5.63637 7.375 5.63595 7.375C5.63552 7.375 5.63509 7.375 5.63466 7.375C5.63423 7.375 5.63379 7.375 5.63334 7.375C5.6329 7.375 5.63245 7.375 5.632 7.375C5.63155 7.375 5.6311 7.375 5.63064 7.375C5.63018 7.375 5.62972 7.375 5.62925 7.375C5.62878 7.375 5.62831 7.375 5.62783 7.375C5.62736 7.375 5.62688 7.375 5.62639 7.375C5.62591 7.375 5.62542 7.375 5.62493 7.375C5.62444 7.375 5.62394 7.375 5.62344 7.375C5.62294 7.375 5.62243 7.375 5.62193 7.375C5.62142 7.375 5.6209 7.375 5.62039 7.375C5.61987 7.375 5.61935 7.375 5.61883 7.375C5.6183 7.375 5.61777 7.375 5.61724 7.375C5.61671 7.375 5.61617 7.375 5.61563 7.375C5.61509 7.375 5.61454 7.375 5.61399 7.375C5.61344 7.375 5.61289 7.375 5.61233 7.375C5.61178 7.375 5.61121 7.375 5.61065 7.375C5.61008 7.375 5.60952 7.375 5.60894 7.375C5.60837 7.375 5.60779 7.375 5.60721 7.375C5.60663 7.375 5.60605 7.375 5.60546 7.375C5.60487 7.375 5.60427 7.375 5.60368 7.375C5.60308 7.375 5.60248 7.375 5.60188 7.375C5.60127 7.375 5.60066 7.375 5.60005 7.375C5.59944 7.375 5.59882 7.375 5.5982 7.375C5.59758 7.375 5.59696 7.375 5.59633 7.375C5.5957 7.375 5.59507 7.375 5.59443 7.375C5.5938 7.375 5.59316 7.375 5.59252 7.375C5.59187 7.375 5.59122 7.375 5.59057 7.375C5.58992 7.375 5.58927 7.375 5.58861 7.375C5.58795 7.375 5.58729 7.375 5.58662 7.375C5.58596 7.375 5.58528 7.375 5.58461 7.375C5.58394 7.375 5.58326 7.375 5.58258 7.375C5.5819 7.375 5.58121 7.375 5.58052 7.375C5.57983 7.375 5.57914 7.375 5.57844 7.375C5.57775 7.375 5.57705 7.375 5.57634 7.375C5.57564 7.375 5.57493 7.375 5.57422 7.375C5.57351 7.375 5.57279 7.375 5.57207 7.375C5.57135 7.375 5.57063 7.375 5.5699 7.375C5.56918 7.375 5.56845 7.375 5.56771 7.375C5.56698 7.375 5.56624 7.375 5.5655 7.375C5.56476 7.375 5.56402 7.375 5.56327 7.375C5.56252 7.375 5.56177 7.375 5.56101 7.375C5.56026 7.375 5.5595 7.375 5.55873 7.375C5.55797 7.375 5.5572 7.375 5.55643 7.375C5.55566 7.375 5.55489 7.375 5.55411 7.375C5.55333 7.375 5.55255 7.375 5.55177 7.375C5.55098 7.375 5.55019 7.375 5.5494 7.375C5.54861 7.375 5.54781 7.375 5.54702 7.375C5.54622 7.375 5.54541 7.375 5.54461 7.375C5.5438 7.375 5.54299 7.375 5.54218 7.375C5.54137 7.375 5.54055 7.375 5.53973 7.375C5.53891 7.375 5.53808 7.375 5.53726 7.375C5.53643 7.375 5.5356 7.375 5.53476 7.375C5.53393 7.375 5.53309 7.375 5.53225 7.375C5.53141 7.375 5.53056 7.375 5.52972 7.375C5.52887 7.375 5.52802 7.375 5.52716 7.375C5.52631 7.375 5.52545 7.375 5.52459 7.375C5.52372 7.375 5.52286 7.375 5.52199 7.375C5.52112 7.375 5.52025 7.375 5.51937 7.375C5.5185 7.375 5.51762 7.375 5.51673 7.375C5.51585 7.375 5.51497 7.375 5.51408 7.375C5.51319 7.375 5.51229 7.375 5.5114 7.375C5.5105 7.375 5.5096 7.375 5.5087 7.375C5.5078 7.375 5.50689 7.375 5.50598 7.375C5.50507 7.375 5.50416 7.375 5.50324 7.375C5.50232 7.375 5.5014 7.375 5.50048 7.375C5.49956 7.375 5.49863 7.375 5.4977 7.375C5.49677 7.375 5.49584 7.375 5.4949 7.375C5.49397 7.375 5.49303 7.375 5.49208 7.375C5.49114 7.375 5.4902 7.375 5.48925 7.375C5.4883 7.375 5.48734 7.375 5.48639 7.375C5.48543 7.375 5.48447 7.375 5.48351 7.375C5.48255 7.375 5.48158 7.375 5.48061 7.375C5.47965 7.375 5.47867 7.375 5.4777 7.375C5.47672 7.375 5.47574 7.375 5.47476 7.375C5.47378 7.375 5.4728 7.375 5.47181 7.375C5.47082 7.375 5.46983 7.375 5.46883 7.375C5.46784 7.375 5.46684 7.375 5.46584 7.375C5.46484 7.375 5.46384 7.375 5.46283 7.375C5.46182 7.375 5.46081 7.375 5.4598 7.375C5.45879 7.375 5.45777 7.375 5.45675 7.375C5.45573 7.375 5.45471 7.375 5.45368 7.375C5.45266 7.375 5.45163 7.375 5.45059 7.375C5.44956 7.375 5.44853 7.375 5.44749 7.375C5.44645 7.375 5.44541 7.375 5.44437 7.375C5.44332 7.375 5.44227 7.375 5.44122 7.375C5.44017 7.375 5.43912 7.375 5.43806 7.375C5.43701 7.375 5.43595 7.375 5.43488 7.375C5.43382 7.375 5.43276 7.375 5.43169 7.375C5.43062 7.375 5.42955 7.375 5.42847 7.375C5.4274 7.375 5.42632 7.375 5.42524 7.375C5.42416 7.375 5.42308 7.375 5.42199 7.375C5.4209 7.375 5.41981 7.375 5.41872 7.375C5.41763 7.375 5.41653 7.375 5.41543 7.375C5.41434 7.375 5.41323 7.375 5.41213 7.375C5.41103 7.375 5.40992 7.375 5.40881 7.375C5.4077 7.375 5.40658 7.375 5.40547 7.375C5.40435 7.375 5.40323 7.375 5.40211 7.375C5.40099 7.375 5.39987 7.375 5.39874 7.375C5.39761 7.375 5.39648 7.375 5.39535 7.375C5.39421 7.375 5.39308 7.375 5.39194 7.375C5.3908 7.375 5.38966 7.375 5.38851 7.375C5.38737 7.375 5.38622 7.375 5.38507 7.375C5.38392 7.375 5.38277 7.375 5.38161 7.375C5.38046 7.375 5.3793 7.375 5.37814 7.375C5.37697 7.375 5.37581 7.375 5.37464 7.375C5.37348 7.375 5.37231 7.375 5.37113 7.375C5.36996 7.375 5.36878 7.375 5.36761 7.375C5.36643 7.375 5.36525 7.375 5.36406 7.375C5.36288 7.375 5.36169 7.375 5.3605 7.375C5.35931 7.375 5.35812 7.375 5.35693 7.375C5.35573 7.375 5.35454 7.375 5.35334 7.375C5.35214 7.375 5.35093 7.375 5.34973 7.375C5.34852 7.375 5.34732 7.375 5.3461 7.375C5.34489 7.375 5.34368 7.375 5.34246 7.375C5.34125 7.375 5.34003 7.375 5.33881 7.375C5.33759 7.375 5.33636 7.375 5.33514 7.375C5.33391 7.375 5.33268 7.375 5.33145 7.375C5.33022 7.375 5.32898 7.375 5.32774 7.375C5.32651 7.375 5.32527 7.375 5.32402 7.375C5.32278 7.375 5.32154 7.375 5.32029 7.375C5.31904 7.375 5.31779 7.375 5.31654 7.375C5.31529 7.375 5.31403 7.375 5.31277 7.375C5.31152 7.375 5.31026 7.375 5.30899 7.375C5.30773 7.375 5.30646 7.375 5.3052 7.375C5.30393 7.375 5.30266 7.375 5.30139 7.375C5.30011 7.375 5.29884 7.375 5.29756 7.375C5.29628 7.375 5.295 7.375 5.29372 7.375C5.29243 7.375 5.29115 7.375 5.28986 7.375C5.28857 7.375 5.28728 7.375 5.28599 7.375C5.2847 7.375 5.2834 7.375 5.2821 7.375C5.28081 7.375 5.27951 7.375 5.2782 7.375C5.2769 7.375 5.2756 7.375 5.27429 7.375C5.27298 7.375 5.27167 7.375 5.27036 7.375C5.26905 7.375 5.26773 7.375 5.26641 7.375C5.2651 7.375 5.26378 7.375 5.26246 7.375C5.26113 7.375 5.25981 7.375 5.25848 7.375C5.25716 7.375 5.25583 7.375 5.2545 7.375C5.25316 7.375 5.25183 7.375 5.25049 7.375C5.24916 7.375 5.24782 7.375 5.24648 7.375C5.24514 7.375 5.2438 7.375 5.24245 7.375C5.24111 7.375 5.23976 7.375 5.23841 7.375C5.23706 7.375 5.23571 7.375 5.23435 7.375C5.233 7.375 5.23164 7.375 5.23028 7.375C5.22892 7.375 5.22756 7.375 5.2262 7.375C5.22483 7.375 5.22347 7.375 5.2221 7.375C5.22073 7.375 5.21936 7.375 5.21799 7.375C5.21662 7.375 5.21524 7.375 5.21387 7.375C5.21249 7.375 5.21111 7.375 5.20973 7.375C5.20835 7.375 5.20696 7.375 5.20558 7.375C5.20419 7.375 5.2028 7.375 5.20141 7.375C5.20002 7.375 5.19863 7.375 5.19724 7.375C5.19584 7.375 5.19445 7.375 5.19305 7.375C5.19165 7.375 5.19025 7.375 5.18884 7.375C5.18744 7.375 5.18604 7.375 5.18463 7.375C5.18322 7.375 5.18181 7.375 5.1804 7.375C5.17899 7.375 5.17757 7.375 5.17616 7.375C5.17474 7.375 5.17333 7.375 5.17191 7.375C5.17049 7.375 5.16906 7.375 5.16764 7.375C5.16622 7.375 5.16479 7.375 5.16336 7.375C5.16193 7.375 5.1605 7.375 5.15907 7.375C5.15764 7.375 5.1562 7.375 5.15477 7.375C5.15333 7.375 5.15189 7.375 5.15045 7.375C5.14901 7.375 5.14757 7.375 5.14613 7.375C5.14468 7.375 5.14323 7.375 5.14179 7.375C5.14034 7.375 5.13889 7.375 5.13743 7.375C5.13598 7.375 5.13453 7.375 5.13307 7.375C5.13162 7.375 5.13016 7.375 5.1287 7.375C5.12724 7.375 5.12578 7.375 5.12431 7.375C5.12285 7.375 5.12138 7.375 5.11991 7.375C5.11845 7.375 5.11698 7.375 5.1155 7.375C5.11403 7.375 5.11256 7.375 5.11108 7.375C5.10961 7.375 5.10813 7.375 5.10665 7.375C5.10517 7.375 5.10369 7.375 5.10221 7.375C5.10072 7.375 5.09924 7.375 5.09775 7.375C5.09627 7.375 5.09478 7.375 5.09329 7.375C5.0918 7.375 5.0903 7.375 5.08881 7.375C5.08732 7.375 5.08582 7.375 5.08432 7.375C5.08283 7.375 5.08133 7.375 5.07982 7.375C5.07832 7.375 5.07682 7.375 5.07532 7.375C5.07381 7.375 5.0723 7.375 5.0708 7.375C5.06929 7.375 5.06778 7.375 5.06626 7.375C5.06475 7.375 5.06324 7.375 5.06172 7.375C5.06021 7.375 5.05869 7.375 5.05717 7.375C5.05565 7.375 5.05413 7.375 5.05261 7.375C5.05109 7.375 5.04956 7.375 5.04804 7.375C5.04651 7.375 5.04498 7.375 5.04346 7.375C5.04193 7.375 5.0404 7.375 5.03886 7.375C5.03733 7.375 5.0358 7.375 5.03426 7.375C5.03272 7.375 5.03119 7.375 5.02965 7.375C5.02811 7.375 5.02657 7.375 5.02502 7.375C5.02348 7.375 5.02194 7.375 5.02039 7.375C5.01885 7.375 5.0173 7.375 5.01575 7.375C5.0142 7.375 5.01265 7.375 5.0111 7.375C5.00955 7.375 5.00799 7.375 5.00644 7.375C5.00488 7.375 5.00333 7.375 5.00177 7.375C5.00021 7.375 4.99865 7.375 4.99709 7.375C4.99553 7.375 4.99396 7.375 4.9924 7.375C4.99083 7.375 4.98927 7.375 4.9877 7.375C4.98613 7.375 4.98456 7.375 4.98299 7.375C4.98142 7.375 4.97985 7.375 4.97827 7.375C4.9767 7.375 4.97513 7.375 4.97355 7.375C4.97197 7.375 4.97039 7.375 4.96881 7.375C4.96723 7.375 4.96565 7.375 4.96407 7.375C4.96249 7.375 4.9609 7.375 4.95932 7.375C4.95773 7.375 4.95614 7.375 4.95456 7.375C4.95297 7.375 4.95138 7.375 4.94979 7.375C4.9482 7.375 4.9466 7.375 4.94501 7.375C4.94341 7.375 4.94182 7.375 4.94022 7.375C4.93862 7.375 4.93703 7.375 4.93543 7.375C4.93383 7.375 4.93223 7.375 4.93062 7.375C4.92902 7.375 4.92742 7.375 4.92581 7.375C4.92421 7.375 4.9226 7.375 4.92099 7.375C4.91938 7.375 4.91778 7.375 4.91617 7.375C4.91455 7.375 4.91294 7.375 4.91133 7.375C4.90972 7.375 4.9081 7.375 4.90649 7.375C4.90487 7.375 4.90325 7.375 4.90164 7.375C4.90002 7.375 4.8984 7.375 4.89678 7.375C4.89516 7.375 4.89353 7.375 4.89191 7.375C4.89029 7.375 4.88866 7.375 4.88704 7.375C4.88541 7.375 4.88378 7.375 4.88215 7.375C4.88053 7.375 4.8789 7.375 4.87727 7.375C4.87563 7.375 4.874 7.375 4.87237 7.375C4.87074 7.375 4.8691 7.375 4.86747 7.375C4.86583 7.375 4.86419 7.375 4.86256 7.375C4.86092 7.375 4.85928 7.375 4.85764 7.375C4.856 7.375 4.85436 7.375 4.85271 7.375C4.85107 7.375 4.84943 7.375 4.84778 7.375C4.84614 7.375 4.84449 7.375 4.84284 7.375C4.8412 7.375 4.83955 7.375 4.8379 7.375C4.83625 7.375 4.8346 7.375 4.83295 7.375C4.8313 7.375 4.82964 7.375 4.82799 7.375C4.82634 7.375 4.82468 7.375 4.82302 7.375C4.82137 7.375 4.81971 7.375 4.81805 7.375C4.8164 7.375 4.81474 7.375 4.81308 7.375C4.81142 7.375 4.80976 7.375 4.80809 7.375C4.80643 7.375 4.80477 7.375 4.8031 7.375C4.80144 7.375 4.79977 7.375 4.79811 7.375C4.79644 7.375 4.79477 7.375 4.79311 7.375C4.79144 7.375 4.78977 7.375 4.7881 7.375C4.78643 7.375 4.78476 7.375 4.78308 7.375C4.78141 7.375 4.77974 7.375 4.77806 7.375C4.77639 7.375 4.77472 7.375 4.77304 7.375C4.77136 7.375 4.76969 7.375 4.76801 7.375C4.76633 7.375 4.76465 7.375 4.76297 7.375C4.76129 7.375 4.75961 7.375 4.75793 7.375C4.75625 7.375 4.75457 7.375 4.75288 7.375C4.7512 7.375 4.74952 7.375 4.74783 7.375C4.74615 7.375 4.74446 7.375 4.74277 7.375C4.74109 7.375 4.7394 7.375 4.73771 7.375C4.73602 7.375 4.73433 7.375 4.73265 7.375C4.73096 7.375 4.72926 7.375 4.72757 7.375C4.72588 7.375 4.72419 7.375 4.7225 7.375C4.7208 7.375 4.71911 7.375 4.71741 7.375C4.71572 7.375 4.71402 7.375 4.71233 7.375C4.71063 7.375 4.70893 7.375 4.70723 7.375C4.70554 7.375 4.70384 7.375 4.70214 7.375C4.70044 7.375 4.69874 7.375 4.69704 7.375C4.69534 7.375 4.69364 7.375 4.69193 7.375C4.69023 7.375 4.68853 7.375 4.68682 7.375C4.68512 7.375 4.68342 7.375 4.68171 7.375C4.68001 7.375 4.6783 7.375 4.67659 7.375C4.67489 7.375 4.67318 7.375 4.67147 7.375C4.66976 7.375 4.66806 7.375 4.66635 7.375C4.66464 7.375 4.66293 7.375 4.66122 7.375C4.65951 7.375 4.6578 7.375 4.65608 7.375C4.65437 7.375 4.65266 7.375 4.65095 7.375C4.64923 7.375 4.64752 7.375 4.64581 7.375C4.64409 7.375 4.64238 7.375 4.64066 7.375C4.63895 7.375 4.63723 7.375 4.63551 7.375C4.6338 7.375 4.63208 7.375 4.63036 7.375C4.62865 7.375 4.62693 7.375 4.62521 7.375C4.62349 7.375 4.62177 7.375 4.62005 7.375C4.61833 7.375 4.61661 7.375 4.61489 7.375C4.61317 7.375 4.61145 7.375 4.60973 7.375C4.60801 7.375 4.60628 7.375 4.60456 7.375C4.60284 7.375 4.60111 7.375 4.59939 7.375C4.59767 7.375 4.59594 7.375 4.59422 7.375C4.59249 7.375 4.59077 7.375 4.58904 7.375C4.58732 7.375 4.58559 7.375 4.58386 7.375C4.58214 7.375 4.58041 7.375 4.57868 7.375C4.57696 7.375 4.57523 7.375 4.5735 7.375C4.57177 7.375 4.57004 7.375 4.56831 7.375C4.56659 7.375 4.56486 7.375 4.56313 7.375C4.5614 7.375 4.55967 7.375 4.55794 7.375C4.55621 7.375 4.55447 7.375 4.55274 7.375C4.55101 7.375 4.54928 7.375 4.54755 7.375C4.54582 7.375 4.54409 7.375 4.54235 7.375C4.54062 7.375 4.53889 7.375 4.53715 7.375C4.53542 7.375 4.53369 7.375 4.53195 7.375C4.53022 7.375 4.52849 7.375 4.52675 7.375C4.52502 7.375 4.52328 7.375 4.52155 7.375C4.51981 7.375 4.51808 7.375 4.51634 7.375C4.51461 7.375 4.51287 7.375 4.51113 7.375C4.5094 7.375 4.50766 7.375 4.50593 7.375C4.50419 7.375 4.50245 7.375 4.50072 7.375C4.49898 7.375 4.49724 7.375 4.4955 7.375C4.49377 7.375 4.49203 7.375 4.49029 7.375C4.48855 7.375 4.48682 7.375 4.48508 7.375C4.48334 7.375 4.4816 7.375 4.47986 7.375C4.47813 7.375 4.47639 7.375 4.47465 7.375C4.47291 7.375 4.47117 7.375 4.46943 7.375C4.46769 7.375 4.46595 7.375 4.46421 7.375C4.46248 7.375 4.46074 7.375 4.459 7.375C4.45726 7.375 4.45552 7.375 4.45378 7.375C4.45204 7.375 4.4503 7.375 4.44856 7.375C4.44682 7.375 4.44508 7.375 4.44334 7.375C4.4416 7.375 4.43986 7.375 4.43812 7.375C4.43638 7.375 4.43464 7.375 4.4329 7.375C4.43116 7.375 4.42942 7.375 4.42768 7.375C4.42594 7.375 4.4242 7.375 4.42246 7.375C4.42072 7.375 4.41898 7.375 4.41723 7.375C4.41549 7.375 4.41375 7.375 4.41201 7.375C4.41027 7.375 4.40853 7.375 4.40679 7.375C4.40505 7.375 4.40331 7.375 4.40157 7.375C4.39983 7.375 4.39809 7.375 4.39635 7.375C4.39461 7.375 4.39287 7.375 4.39113 7.375C4.38939 7.375 4.38765 7.375 4.38591 7.375C4.38417 7.375 4.38243 7.375 4.38069 7.375C4.37895 7.375 4.37721 7.375 4.37547 7.375C4.37373 7.375 4.37199 7.375 4.37025 7.375C4.36852 7.375 4.36678 7.375 4.36504 7.375C4.3633 7.375 4.36156 7.375 4.35982 7.375C4.35808 7.375 4.35634 7.375 4.3546 7.375C4.35287 7.375 4.35113 7.375 4.34939 7.375C4.34765 7.375 4.34591 7.375 4.34418 7.375C4.34244 7.375 4.3407 7.375 4.33896 7.375C4.33723 7.375 4.33549 7.375 4.33375 7.375C4.33201 7.375 4.33028 7.375 4.32854 7.375C4.32681 7.375 4.32507 7.375 4.32333 7.375C4.3216 7.375 4.31986 7.375 4.31813 7.375C4.31639 7.375 4.31465 7.375 4.31292 7.375C4.31118 7.375 4.30945 7.375 4.30772 7.375C4.30598 7.375 4.30425 7.375 4.30251 7.375C4.30078 7.375 4.29905 7.375 4.29731 7.375C4.29558 7.375 4.29385 7.375 4.29211 7.375C4.29038 7.375 4.28865 7.375 4.28692 7.375C4.28518 7.375 4.28345 7.375 4.28172 7.375C4.27999 7.375 4.27826 7.375 4.27653 7.375C4.2748 7.375 4.27307 7.375 4.27134 7.375C4.26961 7.375 4.26788 7.375 4.26615 7.375C4.26442 7.375 4.26269 7.375 4.26096 7.375C4.25923 7.375 4.25751 7.375 4.25578 7.375C4.25405 7.375 4.25233 7.375 4.2506 7.375C4.24887 7.375 4.24715 7.375 4.24542 7.375C4.24369 7.375 4.24197 7.375 4.24024 7.375C4.23852 7.375 4.23679 7.375 4.23507 7.375C4.23335 7.375 4.23162 7.375 4.2299 7.375C4.22818 7.375 4.22646 7.375 4.22473 7.375C4.22301 7.375 4.22129 7.375 4.21957 7.375C4.21785 7.375 4.21613 7.375 4.21441 7.375C4.21269 7.375 4.21097 7.375 4.20925 7.375C4.20753 7.375 4.20581 7.375 4.20409 7.375C4.20238 7.375 4.20066 7.375 4.19894 7.375C4.19723 7.375 4.19551 7.375 4.19379 7.375C4.19208 7.375 4.19036 7.375 4.18865 7.375C4.18694 7.375 4.18522 7.375 4.18351 7.375C4.1818 7.375 4.18008 7.375 4.17837 7.375C4.17666 7.375 4.17495 7.375 4.17324 7.375C4.17153 7.375 4.16982 7.375 4.16811 7.375C4.1664 7.375 4.16469 7.375 4.16298 7.375C4.16127 7.375 4.15957 7.375 4.15786 7.375C4.15615 7.375 4.15445 7.375 4.15274 7.375C4.15104 7.375 4.14933 7.375 4.14763 7.375C4.14592 7.375 4.14422 7.375 4.14252 7.375C4.14081 7.375 4.13911 7.375 4.13741 7.375C4.13571 7.375 4.13401 7.375 4.13231 7.375C4.13061 7.375 4.12891 7.375 4.12721 7.375C4.12551 7.375 4.12382 7.375 4.12212 7.375C4.12042 7.375 4.11873 7.375 4.11703 7.375C4.11534 7.375 4.11364 7.375 4.11195 7.375C4.11026 7.375 4.10856 7.375 4.10687 7.375C4.10518 7.375 4.10349 7.375 4.1018 7.375C4.10011 7.375 4.09842 7.375 4.09673 7.375C4.09504 7.375 4.09335 7.375 4.09167 7.375C4.08998 7.375 4.08829 7.375 4.08661 7.375C4.08492 7.375 4.08324 7.375 4.08156 7.375C4.07987 7.375 4.07819 7.375 4.07651 7.375C4.07483 7.375 4.07315 7.375 4.07147 7.375C4.06979 7.375 4.06811 7.375 4.06643 7.375C4.06475 7.375 4.06307 7.375 4.0614 7.375C4.05972 7.375 4.05804 7.375 4.05637 7.375C4.0547 7.375 4.05302 7.375 4.05135 7.375C4.04968 7.375 4.04801 7.375 4.04634 7.375C4.04467 7.375 4.043 7.375 4.04133 7.375C4.03966 7.375 4.03799 7.375 4.03632 7.375C4.03466 7.375 4.03299 7.375 4.03133 7.375C4.02966 7.375 4.028 7.375 4.02634 7.375C4.02467 7.375 4.02301 7.375 4.02135 7.375C4.01969 7.375 4.01803 7.375 4.01637 7.375C4.01471 7.375 4.01306 7.375 4.0114 7.375C4.00974 7.375 4.00809 7.375 4.00644 7.375C4.00478 7.375 4.00313 7.375 4.00148 7.375C3.99982 7.375 3.99817 7.375 3.99652 7.375C3.99487 7.375 3.99323 7.375 3.99158 7.375C3.98993 7.375 3.98828 7.375 3.98664 7.375C3.98499 7.375 3.98335 7.375 3.98171 7.375C3.98006 7.375 3.97842 7.375 3.97678 7.375C3.97514 7.375 3.9735 7.375 3.97186 7.375C3.97022 7.375 3.96859 7.375 3.96695 7.375C3.96531 7.375 3.96368 7.375 3.96204 7.375C3.96041 7.375 3.95878 7.375 3.95715 7.375C3.95552 7.375 3.95389 7.375 3.95226 7.375C3.95063 7.375 3.949 7.375 3.94737 7.375C3.94575 7.375 3.94412 7.375 3.9425 7.375C3.94088 7.375 3.93925 7.375 3.93763 7.375C3.93601 7.375 3.93439 7.375 3.93277 7.375C3.93115 7.375 3.92954 7.375 3.92792 7.375C3.9263 7.375 3.92469 7.375 3.92307 7.375C3.92146 7.375 3.91985 7.375 3.91824 7.375C3.91663 7.375 3.91502 7.375 3.91341 7.375C3.9118 7.375 3.91019 7.375 3.90859 7.375C3.90698 7.375 3.90538 7.375 3.90377 7.375C3.90217 7.375 3.90057 7.375 3.89897 7.375C3.89737 7.375 3.89577 7.375 3.89417 7.375C3.89258 7.375 3.89098 7.375 3.88939 7.375C3.88779 7.375 3.8862 7.375 3.88461 7.375C3.88301 7.375 3.88142 7.375 3.87983 7.375C3.87825 7.375 3.87666 7.375 3.87507 7.375C3.87349 7.375 3.8719 7.375 3.87032 7.375C3.86874 7.375 3.86715 7.375 3.86557 7.375C3.86399 7.375 3.86241 7.375 3.86084 7.375C3.85926 7.375 3.85768 7.375 3.85611 7.375C3.85454 7.375 3.85296 7.375 3.85139 7.375C3.84982 7.375 3.84825 7.375 3.84668 7.375C3.84511 7.375 3.84355 7.375 3.84198 7.375C3.84042 7.375 3.83885 7.375 3.83729 7.375C3.83573 7.375 3.83417 7.375 3.83261 7.375C3.83105 7.375 3.82949 7.375 3.82794 7.375C3.82638 7.375 3.82483 7.375 3.82327 7.375C3.82172 7.375 3.82017 7.375 3.81862 7.375C3.81707 7.375 3.81552 7.375 3.81398 7.375C3.81243 7.375 3.81089 7.375 3.80934 7.375C3.8078 7.375 3.80626 7.375 3.80472 7.375C3.80318 7.375 3.80164 7.375 3.8001 7.375C3.79857 7.375 3.79703 7.375 3.7955 7.375C3.79397 7.375 3.79243 7.375 3.7909 7.375C3.78938 7.375 3.78785 7.375 3.78632 7.375C3.78479 7.375 3.78327 7.375 3.78175 7.375C3.78022 7.375 3.7787 7.375 3.77718 7.375C3.77566 7.375 3.77415 7.375 3.77263 7.375C3.77111 7.375 3.7696 7.375 3.76809 7.375C3.76657 7.375 3.76506 7.375 3.76355 7.375C3.76205 7.375 3.76054 7.375 3.75903 7.375C3.75753 7.375 3.75602 7.375 3.75452 7.375C3.75302 7.375 3.75152 7.375 3.75002 7.375C3.74852 7.375 3.74703 7.375 3.74553 7.375C3.74404 7.375 3.74254 7.375 3.74105 7.375C3.73956 7.375 3.73807 7.375 3.73659 7.375C3.7351 7.375 3.73361 7.375 3.73213 7.375C3.73065 7.375 3.72916 7.375 3.72768 7.375C3.7262 7.375 3.72473 7.375 3.72325 7.375C3.72177 7.375 3.7203 7.375 3.71883 7.375C3.71735 7.375 3.71588 7.375 3.71442 7.375C3.71295 7.375 3.71148 7.375 3.71002 7.375C3.70855 7.375 3.70709 7.375 3.70563 7.375C3.70417 7.375 3.70271 7.375 3.70125 7.375C3.69979 7.375 3.69834 7.375 3.69689 7.375C3.69543 7.375 3.69398 7.375 3.69253 7.375C3.69108 7.375 3.68964 7.375 3.68819 7.375C3.68675 7.375 3.6853 7.375 3.68386 7.375C3.68242 7.375 3.68098 7.375 3.67954 7.375C3.67811 7.375 3.67667 7.375 3.67524 7.375C3.67381 7.375 3.67238 7.375 3.67095 7.375C3.66952 7.375 3.66809 7.375 3.66667 7.375V8.375C3.66809 8.375 3.66952 8.375 3.67095 8.375C3.67238 8.375 3.67381 8.375 3.67524 8.375C3.67667 8.375 3.67811 8.375 3.67954 8.375C3.68098 8.375 3.68242 8.375 3.68386 8.375C3.6853 8.375 3.68675 8.375 3.68819 8.375C3.68964 8.375 3.69108 8.375 3.69253 8.375C3.69398 8.375 3.69543 8.375 3.69689 8.375C3.69834 8.375 3.69979 8.375 3.70125 8.375C3.70271 8.375 3.70417 8.375 3.70563 8.375C3.70709 8.375 3.70855 8.375 3.71002 8.375C3.71148 8.375 3.71295 8.375 3.71442 8.375C3.71588 8.375 3.71735 8.375 3.71883 8.375C3.7203 8.375 3.72177 8.375 3.72325 8.375C3.72473 8.375 3.7262 8.375 3.72768 8.375C3.72916 8.375 3.73065 8.375 3.73213 8.375C3.73361 8.375 3.7351 8.375 3.73659 8.375C3.73807 8.375 3.73956 8.375 3.74105 8.375C3.74254 8.375 3.74404 8.375 3.74553 8.375C3.74703 8.375 3.74852 8.375 3.75002 8.375C3.75152 8.375 3.75302 8.375 3.75452 8.375C3.75602 8.375 3.75753 8.375 3.75903 8.375C3.76054 8.375 3.76205 8.375 3.76355 8.375C3.76506 8.375 3.76657 8.375 3.76809 8.375C3.7696 8.375 3.77111 8.375 3.77263 8.375C3.77415 8.375 3.77566 8.375 3.77718 8.375C3.7787 8.375 3.78022 8.375 3.78175 8.375C3.78327 8.375 3.78479 8.375 3.78632 8.375C3.78785 8.375 3.78938 8.375 3.7909 8.375C3.79243 8.375 3.79397 8.375 3.7955 8.375C3.79703 8.375 3.79857 8.375 3.8001 8.375C3.80164 8.375 3.80318 8.375 3.80472 8.375C3.80626 8.375 3.8078 8.375 3.80934 8.375C3.81089 8.375 3.81243 8.375 3.81398 8.375C3.81552 8.375 3.81707 8.375 3.81862 8.375C3.82017 8.375 3.82172 8.375 3.82327 8.375C3.82483 8.375 3.82638 8.375 3.82794 8.375C3.82949 8.375 3.83105 8.375 3.83261 8.375C3.83417 8.375 3.83573 8.375 3.83729 8.375C3.83885 8.375 3.84042 8.375 3.84198 8.375C3.84355 8.375 3.84511 8.375 3.84668 8.375C3.84825 8.375 3.84982 8.375 3.85139 8.375C3.85296 8.375 3.85454 8.375 3.85611 8.375C3.85768 8.375 3.85926 8.375 3.86084 8.375C3.86241 8.375 3.86399 8.375 3.86557 8.375C3.86715 8.375 3.86874 8.375 3.87032 8.375C3.8719 8.375 3.87349 8.375 3.87507 8.375C3.87666 8.375 3.87825 8.375 3.87983 8.375C3.88142 8.375 3.88301 8.375 3.88461 8.375C3.8862 8.375 3.88779 8.375 3.88939 8.375C3.89098 8.375 3.89258 8.375 3.89417 8.375C3.89577 8.375 3.89737 8.375 3.89897 8.375C3.90057 8.375 3.90217 8.375 3.90377 8.375C3.90538 8.375 3.90698 8.375 3.90859 8.375C3.91019 8.375 3.9118 8.375 3.91341 8.375C3.91502 8.375 3.91663 8.375 3.91824 8.375C3.91985 8.375 3.92146 8.375 3.92307 8.375C3.92469 8.375 3.9263 8.375 3.92792 8.375C3.92954 8.375 3.93115 8.375 3.93277 8.375C3.93439 8.375 3.93601 8.375 3.93763 8.375C3.93925 8.375 3.94088 8.375 3.9425 8.375C3.94412 8.375 3.94575 8.375 3.94737 8.375C3.949 8.375 3.95063 8.375 3.95226 8.375C3.95389 8.375 3.95552 8.375 3.95715 8.375C3.95878 8.375 3.96041 8.375 3.96204 8.375C3.96368 8.375 3.96531 8.375 3.96695 8.375C3.96859 8.375 3.97022 8.375 3.97186 8.375C3.9735 8.375 3.97514 8.375 3.97678 8.375C3.97842 8.375 3.98006 8.375 3.98171 8.375C3.98335 8.375 3.98499 8.375 3.98664 8.375C3.98828 8.375 3.98993 8.375 3.99158 8.375C3.99323 8.375 3.99487 8.375 3.99652 8.375C3.99817 8.375 3.99982 8.375 4.00148 8.375C4.00313 8.375 4.00478 8.375 4.00644 8.375C4.00809 8.375 4.00974 8.375 4.0114 8.375C4.01306 8.375 4.01471 8.375 4.01637 8.375C4.01803 8.375 4.01969 8.375 4.02135 8.375C4.02301 8.375 4.02467 8.375 4.02634 8.375C4.028 8.375 4.02966 8.375 4.03133 8.375C4.03299 8.375 4.03466 8.375 4.03632 8.375C4.03799 8.375 4.03966 8.375 4.04133 8.375C4.043 8.375 4.04467 8.375 4.04634 8.375C4.04801 8.375 4.04968 8.375 4.05135 8.375C4.05302 8.375 4.0547 8.375 4.05637 8.375C4.05804 8.375 4.05972 8.375 4.0614 8.375C4.06307 8.375 4.06475 8.375 4.06643 8.375C4.06811 8.375 4.06979 8.375 4.07147 8.375C4.07315 8.375 4.07483 8.375 4.07651 8.375C4.07819 8.375 4.07987 8.375 4.08156 8.375C4.08324 8.375 4.08492 8.375 4.08661 8.375C4.08829 8.375 4.08998 8.375 4.09167 8.375C4.09335 8.375 4.09504 8.375 4.09673 8.375C4.09842 8.375 4.10011 8.375 4.1018 8.375C4.10349 8.375 4.10518 8.375 4.10687 8.375C4.10856 8.375 4.11026 8.375 4.11195 8.375C4.11364 8.375 4.11534 8.375 4.11703 8.375C4.11873 8.375 4.12042 8.375 4.12212 8.375C4.12382 8.375 4.12551 8.375 4.12721 8.375C4.12891 8.375 4.13061 8.375 4.13231 8.375C4.13401 8.375 4.13571 8.375 4.13741 8.375C4.13911 8.375 4.14081 8.375 4.14252 8.375C4.14422 8.375 4.14592 8.375 4.14763 8.375C4.14933 8.375 4.15104 8.375 4.15274 8.375C4.15445 8.375 4.15615 8.375 4.15786 8.375C4.15957 8.375 4.16127 8.375 4.16298 8.375C4.16469 8.375 4.1664 8.375 4.16811 8.375C4.16982 8.375 4.17153 8.375 4.17324 8.375C4.17495 8.375 4.17666 8.375 4.17837 8.375C4.18008 8.375 4.1818 8.375 4.18351 8.375C4.18522 8.375 4.18694 8.375 4.18865 8.375C4.19036 8.375 4.19208 8.375 4.19379 8.375C4.19551 8.375 4.19723 8.375 4.19894 8.375C4.20066 8.375 4.20238 8.375 4.20409 8.375C4.20581 8.375 4.20753 8.375 4.20925 8.375C4.21097 8.375 4.21269 8.375 4.21441 8.375C4.21613 8.375 4.21785 8.375 4.21957 8.375C4.22129 8.375 4.22301 8.375 4.22473 8.375C4.22646 8.375 4.22818 8.375 4.2299 8.375C4.23162 8.375 4.23335 8.375 4.23507 8.375C4.23679 8.375 4.23852 8.375 4.24024 8.375C4.24197 8.375 4.24369 8.375 4.24542 8.375C4.24715 8.375 4.24887 8.375 4.2506 8.375C4.25233 8.375 4.25405 8.375 4.25578 8.375C4.25751 8.375 4.25923 8.375 4.26096 8.375C4.26269 8.375 4.26442 8.375 4.26615 8.375C4.26788 8.375 4.26961 8.375 4.27134 8.375C4.27307 8.375 4.2748 8.375 4.27653 8.375C4.27826 8.375 4.27999 8.375 4.28172 8.375C4.28345 8.375 4.28518 8.375 4.28692 8.375C4.28865 8.375 4.29038 8.375 4.29211 8.375C4.29385 8.375 4.29558 8.375 4.29731 8.375C4.29905 8.375 4.30078 8.375 4.30251 8.375C4.30425 8.375 4.30598 8.375 4.30772 8.375C4.30945 8.375 4.31118 8.375 4.31292 8.375C4.31465 8.375 4.31639 8.375 4.31813 8.375C4.31986 8.375 4.3216 8.375 4.32333 8.375C4.32507 8.375 4.32681 8.375 4.32854 8.375C4.33028 8.375 4.33201 8.375 4.33375 8.375C4.33549 8.375 4.33723 8.375 4.33896 8.375C4.3407 8.375 4.34244 8.375 4.34418 8.375C4.34591 8.375 4.34765 8.375 4.34939 8.375C4.35113 8.375 4.35287 8.375 4.3546 8.375C4.35634 8.375 4.35808 8.375 4.35982 8.375C4.36156 8.375 4.3633 8.375 4.36504 8.375C4.36678 8.375 4.36852 8.375 4.37025 8.375C4.37199 8.375 4.37373 8.375 4.37547 8.375C4.37721 8.375 4.37895 8.375 4.38069 8.375C4.38243 8.375 4.38417 8.375 4.38591 8.375C4.38765 8.375 4.38939 8.375 4.39113 8.375C4.39287 8.375 4.39461 8.375 4.39635 8.375C4.39809 8.375 4.39983 8.375 4.40157 8.375C4.40331 8.375 4.40505 8.375 4.40679 8.375C4.40853 8.375 4.41027 8.375 4.41201 8.375C4.41375 8.375 4.41549 8.375 4.41723 8.375C4.41898 8.375 4.42072 8.375 4.42246 8.375C4.4242 8.375 4.42594 8.375 4.42768 8.375C4.42942 8.375 4.43116 8.375 4.4329 8.375C4.43464 8.375 4.43638 8.375 4.43812 8.375C4.43986 8.375 4.4416 8.375 4.44334 8.375C4.44508 8.375 4.44682 8.375 4.44856 8.375C4.4503 8.375 4.45204 8.375 4.45378 8.375C4.45552 8.375 4.45726 8.375 4.459 8.375C4.46074 8.375 4.46248 8.375 4.46421 8.375C4.46595 8.375 4.46769 8.375 4.46943 8.375C4.47117 8.375 4.47291 8.375 4.47465 8.375C4.47639 8.375 4.47813 8.375 4.47986 8.375C4.4816 8.375 4.48334 8.375 4.48508 8.375C4.48682 8.375 4.48855 8.375 4.49029 8.375C4.49203 8.375 4.49377 8.375 4.4955 8.375C4.49724 8.375 4.49898 8.375 4.50072 8.375C4.50245 8.375 4.50419 8.375 4.50593 8.375C4.50766 8.375 4.5094 8.375 4.51113 8.375C4.51287 8.375 4.51461 8.375 4.51634 8.375C4.51808 8.375 4.51981 8.375 4.52155 8.375C4.52328 8.375 4.52502 8.375 4.52675 8.375C4.52849 8.375 4.53022 8.375 4.53195 8.375C4.53369 8.375 4.53542 8.375 4.53715 8.375C4.53889 8.375 4.54062 8.375 4.54235 8.375C4.54409 8.375 4.54582 8.375 4.54755 8.375C4.54928 8.375 4.55101 8.375 4.55274 8.375C4.55447 8.375 4.55621 8.375 4.55794 8.375C4.55967 8.375 4.5614 8.375 4.56313 8.375C4.56486 8.375 4.56659 8.375 4.56831 8.375C4.57004 8.375 4.57177 8.375 4.5735 8.375C4.57523 8.375 4.57696 8.375 4.57868 8.375C4.58041 8.375 4.58214 8.375 4.58386 8.375C4.58559 8.375 4.58732 8.375 4.58904 8.375C4.59077 8.375 4.59249 8.375 4.59422 8.375C4.59594 8.375 4.59767 8.375 4.59939 8.375C4.60111 8.375 4.60284 8.375 4.60456 8.375C4.60628 8.375 4.60801 8.375 4.60973 8.375C4.61145 8.375 4.61317 8.375 4.61489 8.375C4.61661 8.375 4.61833 8.375 4.62005 8.375C4.62177 8.375 4.62349 8.375 4.62521 8.375C4.62693 8.375 4.62865 8.375 4.63036 8.375C4.63208 8.375 4.6338 8.375 4.63551 8.375C4.63723 8.375 4.63895 8.375 4.64066 8.375C4.64238 8.375 4.64409 8.375 4.64581 8.375C4.64752 8.375 4.64923 8.375 4.65095 8.375C4.65266 8.375 4.65437 8.375 4.65608 8.375C4.6578 8.375 4.65951 8.375 4.66122 8.375C4.66293 8.375 4.66464 8.375 4.66635 8.375C4.66806 8.375 4.66976 8.375 4.67147 8.375C4.67318 8.375 4.67489 8.375 4.67659 8.375C4.6783 8.375 4.68001 8.375 4.68171 8.375C4.68342 8.375 4.68512 8.375 4.68682 8.375C4.68853 8.375 4.69023 8.375 4.69193 8.375C4.69364 8.375 4.69534 8.375 4.69704 8.375C4.69874 8.375 4.70044 8.375 4.70214 8.375C4.70384 8.375 4.70554 8.375 4.70723 8.375C4.70893 8.375 4.71063 8.375 4.71233 8.375C4.71402 8.375 4.71572 8.375 4.71741 8.375C4.71911 8.375 4.7208 8.375 4.7225 8.375C4.72419 8.375 4.72588 8.375 4.72757 8.375C4.72926 8.375 4.73096 8.375 4.73265 8.375C4.73433 8.375 4.73602 8.375 4.73771 8.375C4.7394 8.375 4.74109 8.375 4.74277 8.375C4.74446 8.375 4.74615 8.375 4.74783 8.375C4.74952 8.375 4.7512 8.375 4.75288 8.375C4.75457 8.375 4.75625 8.375 4.75793 8.375C4.75961 8.375 4.76129 8.375 4.76297 8.375C4.76465 8.375 4.76633 8.375 4.76801 8.375C4.76969 8.375 4.77136 8.375 4.77304 8.375C4.77472 8.375 4.77639 8.375 4.77806 8.375C4.77974 8.375 4.78141 8.375 4.78308 8.375C4.78476 8.375 4.78643 8.375 4.7881 8.375C4.78977 8.375 4.79144 8.375 4.79311 8.375C4.79477 8.375 4.79644 8.375 4.79811 8.375C4.79977 8.375 4.80144 8.375 4.8031 8.375C4.80477 8.375 4.80643 8.375 4.80809 8.375C4.80976 8.375 4.81142 8.375 4.81308 8.375C4.81474 8.375 4.8164 8.375 4.81805 8.375C4.81971 8.375 4.82137 8.375 4.82302 8.375C4.82468 8.375 4.82634 8.375 4.82799 8.375C4.82964 8.375 4.8313 8.375 4.83295 8.375C4.8346 8.375 4.83625 8.375 4.8379 8.375C4.83955 8.375 4.8412 8.375 4.84284 8.375C4.84449 8.375 4.84614 8.375 4.84778 8.375C4.84943 8.375 4.85107 8.375 4.85271 8.375C4.85436 8.375 4.856 8.375 4.85764 8.375C4.85928 8.375 4.86092 8.375 4.86256 8.375C4.86419 8.375 4.86583 8.375 4.86747 8.375C4.8691 8.375 4.87074 8.375 4.87237 8.375C4.874 8.375 4.87563 8.375 4.87727 8.375C4.8789 8.375 4.88053 8.375 4.88215 8.375C4.88378 8.375 4.88541 8.375 4.88704 8.375C4.88866 8.375 4.89029 8.375 4.89191 8.375C4.89353 8.375 4.89516 8.375 4.89678 8.375C4.8984 8.375 4.90002 8.375 4.90164 8.375C4.90325 8.375 4.90487 8.375 4.90649 8.375C4.9081 8.375 4.90972 8.375 4.91133 8.375C4.91294 8.375 4.91455 8.375 4.91617 8.375C4.91778 8.375 4.91938 8.375 4.92099 8.375C4.9226 8.375 4.92421 8.375 4.92581 8.375C4.92742 8.375 4.92902 8.375 4.93062 8.375C4.93223 8.375 4.93383 8.375 4.93543 8.375C4.93703 8.375 4.93862 8.375 4.94022 8.375C4.94182 8.375 4.94341 8.375 4.94501 8.375C4.9466 8.375 4.9482 8.375 4.94979 8.375C4.95138 8.375 4.95297 8.375 4.95456 8.375C4.95614 8.375 4.95773 8.375 4.95932 8.375C4.9609 8.375 4.96249 8.375 4.96407 8.375C4.96565 8.375 4.96723 8.375 4.96881 8.375C4.97039 8.375 4.97197 8.375 4.97355 8.375C4.97513 8.375 4.9767 8.375 4.97827 8.375C4.97985 8.375 4.98142 8.375 4.98299 8.375C4.98456 8.375 4.98613 8.375 4.9877 8.375C4.98927 8.375 4.99083 8.375 4.9924 8.375C4.99396 8.375 4.99553 8.375 4.99709 8.375C4.99865 8.375 5.00021 8.375 5.00177 8.375C5.00333 8.375 5.00488 8.375 5.00644 8.375C5.00799 8.375 5.00955 8.375 5.0111 8.375C5.01265 8.375 5.0142 8.375 5.01575 8.375C5.0173 8.375 5.01885 8.375 5.02039 8.375C5.02194 8.375 5.02348 8.375 5.02502 8.375C5.02657 8.375 5.02811 8.375 5.02965 8.375C5.03119 8.375 5.03272 8.375 5.03426 8.375C5.0358 8.375 5.03733 8.375 5.03886 8.375C5.0404 8.375 5.04193 8.375 5.04346 8.375C5.04498 8.375 5.04651 8.375 5.04804 8.375C5.04956 8.375 5.05109 8.375 5.05261 8.375C5.05413 8.375 5.05565 8.375 5.05717 8.375C5.05869 8.375 5.06021 8.375 5.06172 8.375C5.06324 8.375 5.06475 8.375 5.06626 8.375C5.06778 8.375 5.06929 8.375 5.0708 8.375C5.0723 8.375 5.07381 8.375 5.07532 8.375C5.07682 8.375 5.07832 8.375 5.07982 8.375C5.08133 8.375 5.08283 8.375 5.08432 8.375C5.08582 8.375 5.08732 8.375 5.08881 8.375C5.0903 8.375 5.0918 8.375 5.09329 8.375C5.09478 8.375 5.09627 8.375 5.09775 8.375C5.09924 8.375 5.10072 8.375 5.10221 8.375C5.10369 8.375 5.10517 8.375 5.10665 8.375C5.10813 8.375 5.10961 8.375 5.11108 8.375C5.11256 8.375 5.11403 8.375 5.1155 8.375C5.11698 8.375 5.11845 8.375 5.11991 8.375C5.12138 8.375 5.12285 8.375 5.12431 8.375C5.12578 8.375 5.12724 8.375 5.1287 8.375C5.13016 8.375 5.13162 8.375 5.13307 8.375C5.13453 8.375 5.13598 8.375 5.13743 8.375C5.13889 8.375 5.14034 8.375 5.14179 8.375C5.14323 8.375 5.14468 8.375 5.14613 8.375C5.14757 8.375 5.14901 8.375 5.15045 8.375C5.15189 8.375 5.15333 8.375 5.15477 8.375C5.1562 8.375 5.15764 8.375 5.15907 8.375C5.1605 8.375 5.16193 8.375 5.16336 8.375C5.16479 8.375 5.16622 8.375 5.16764 8.375C5.16906 8.375 5.17049 8.375 5.17191 8.375C5.17333 8.375 5.17474 8.375 5.17616 8.375C5.17757 8.375 5.17899 8.375 5.1804 8.375C5.18181 8.375 5.18322 8.375 5.18463 8.375C5.18604 8.375 5.18744 8.375 5.18884 8.375C5.19025 8.375 5.19165 8.375 5.19305 8.375C5.19445 8.375 5.19584 8.375 5.19724 8.375C5.19863 8.375 5.20002 8.375 5.20141 8.375C5.2028 8.375 5.20419 8.375 5.20558 8.375C5.20696 8.375 5.20835 8.375 5.20973 8.375C5.21111 8.375 5.21249 8.375 5.21387 8.375C5.21524 8.375 5.21662 8.375 5.21799 8.375C5.21936 8.375 5.22073 8.375 5.2221 8.375C5.22347 8.375 5.22483 8.375 5.2262 8.375C5.22756 8.375 5.22892 8.375 5.23028 8.375C5.23164 8.375 5.233 8.375 5.23435 8.375C5.23571 8.375 5.23706 8.375 5.23841 8.375C5.23976 8.375 5.24111 8.375 5.24245 8.375C5.2438 8.375 5.24514 8.375 5.24648 8.375C5.24782 8.375 5.24916 8.375 5.25049 8.375C5.25183 8.375 5.25316 8.375 5.2545 8.375C5.25583 8.375 5.25716 8.375 5.25848 8.375C5.25981 8.375 5.26113 8.375 5.26246 8.375C5.26378 8.375 5.2651 8.375 5.26641 8.375C5.26773 8.375 5.26905 8.375 5.27036 8.375C5.27167 8.375 5.27298 8.375 5.27429 8.375C5.2756 8.375 5.2769 8.375 5.2782 8.375C5.27951 8.375 5.28081 8.375 5.2821 8.375C5.2834 8.375 5.2847 8.375 5.28599 8.375C5.28728 8.375 5.28857 8.375 5.28986 8.375C5.29115 8.375 5.29243 8.375 5.29372 8.375C5.295 8.375 5.29628 8.375 5.29756 8.375C5.29884 8.375 5.30011 8.375 5.30139 8.375C5.30266 8.375 5.30393 8.375 5.3052 8.375C5.30646 8.375 5.30773 8.375 5.30899 8.375C5.31026 8.375 5.31152 8.375 5.31277 8.375C5.31403 8.375 5.31529 8.375 5.31654 8.375C5.31779 8.375 5.31904 8.375 5.32029 8.375C5.32154 8.375 5.32278 8.375 5.32402 8.375C5.32527 8.375 5.32651 8.375 5.32774 8.375C5.32898 8.375 5.33022 8.375 5.33145 8.375C5.33268 8.375 5.33391 8.375 5.33514 8.375C5.33636 8.375 5.33759 8.375 5.33881 8.375C5.34003 8.375 5.34125 8.375 5.34246 8.375C5.34368 8.375 5.34489 8.375 5.3461 8.375C5.34732 8.375 5.34852 8.375 5.34973 8.375C5.35093 8.375 5.35214 8.375 5.35334 8.375C5.35454 8.375 5.35573 8.375 5.35693 8.375C5.35812 8.375 5.35931 8.375 5.3605 8.375C5.36169 8.375 5.36288 8.375 5.36406 8.375C5.36525 8.375 5.36643 8.375 5.36761 8.375C5.36878 8.375 5.36996 8.375 5.37113 8.375C5.37231 8.375 5.37348 8.375 5.37464 8.375C5.37581 8.375 5.37697 8.375 5.37814 8.375C5.3793 8.375 5.38046 8.375 5.38161 8.375C5.38277 8.375 5.38392 8.375 5.38507 8.375C5.38622 8.375 5.38737 8.375 5.38851 8.375C5.38966 8.375 5.3908 8.375 5.39194 8.375C5.39308 8.375 5.39421 8.375 5.39535 8.375C5.39648 8.375 5.39761 8.375 5.39874 8.375C5.39987 8.375 5.40099 8.375 5.40211 8.375C5.40323 8.375 5.40435 8.375 5.40547 8.375C5.40658 8.375 5.4077 8.375 5.40881 8.375C5.40992 8.375 5.41103 8.375 5.41213 8.375C5.41323 8.375 5.41434 8.375 5.41543 8.375C5.41653 8.375 5.41763 8.375 5.41872 8.375C5.41981 8.375 5.4209 8.375 5.42199 8.375C5.42308 8.375 5.42416 8.375 5.42524 8.375C5.42632 8.375 5.4274 8.375 5.42847 8.375C5.42955 8.375 5.43062 8.375 5.43169 8.375C5.43276 8.375 5.43382 8.375 5.43488 8.375C5.43595 8.375 5.43701 8.375 5.43806 8.375C5.43912 8.375 5.44017 8.375 5.44122 8.375C5.44227 8.375 5.44332 8.375 5.44437 8.375C5.44541 8.375 5.44645 8.375 5.44749 8.375C5.44853 8.375 5.44956 8.375 5.45059 8.375C5.45163 8.375 5.45266 8.375 5.45368 8.375C5.45471 8.375 5.45573 8.375 5.45675 8.375C5.45777 8.375 5.45879 8.375 5.4598 8.375C5.46081 8.375 5.46182 8.375 5.46283 8.375C5.46384 8.375 5.46484 8.375 5.46584 8.375C5.46684 8.375 5.46784 8.375 5.46883 8.375C5.46983 8.375 5.47082 8.375 5.47181 8.375C5.4728 8.375 5.47378 8.375 5.47476 8.375C5.47574 8.375 5.47672 8.375 5.4777 8.375C5.47867 8.375 5.47965 8.375 5.48061 8.375C5.48158 8.375 5.48255 8.375 5.48351 8.375C5.48447 8.375 5.48543 8.375 5.48639 8.375C5.48734 8.375 5.4883 8.375 5.48925 8.375C5.4902 8.375 5.49114 8.375 5.49208 8.375C5.49303 8.375 5.49397 8.375 5.4949 8.375C5.49584 8.375 5.49677 8.375 5.4977 8.375C5.49863 8.375 5.49956 8.375 5.50048 8.375C5.5014 8.375 5.50232 8.375 5.50324 8.375C5.50416 8.375 5.50507 8.375 5.50598 8.375C5.50689 8.375 5.5078 8.375 5.5087 8.375C5.5096 8.375 5.5105 8.375 5.5114 8.375C5.51229 8.375 5.51319 8.375 5.51408 8.375C5.51497 8.375 5.51585 8.375 5.51673 8.375C5.51762 8.375 5.5185 8.375 5.51937 8.375C5.52025 8.375 5.52112 8.375 5.52199 8.375C5.52286 8.375 5.52372 8.375 5.52459 8.375C5.52545 8.375 5.52631 8.375 5.52716 8.375C5.52802 8.375 5.52887 8.375 5.52972 8.375C5.53056 8.375 5.53141 8.375 5.53225 8.375C5.53309 8.375 5.53393 8.375 5.53476 8.375C5.5356 8.375 5.53643 8.375 5.53726 8.375C5.53808 8.375 5.53891 8.375 5.53973 8.375C5.54055 8.375 5.54137 8.375 5.54218 8.375C5.54299 8.375 5.5438 8.375 5.54461 8.375C5.54541 8.375 5.54622 8.375 5.54702 8.375C5.54781 8.375 5.54861 8.375 5.5494 8.375C5.55019 8.375 5.55098 8.375 5.55177 8.375C5.55255 8.375 5.55333 8.375 5.55411 8.375C5.55489 8.375 5.55566 8.375 5.55643 8.375C5.5572 8.375 5.55797 8.375 5.55873 8.375C5.5595 8.375 5.56026 8.375 5.56101 8.375C5.56177 8.375 5.56252 8.375 5.56327 8.375C5.56402 8.375 5.56476 8.375 5.5655 8.375C5.56624 8.375 5.56698 8.375 5.56771 8.375C5.56845 8.375 5.56918 8.375 5.5699 8.375C5.57063 8.375 5.57135 8.375 5.57207 8.375C5.57279 8.375 5.57351 8.375 5.57422 8.375C5.57493 8.375 5.57564 8.375 5.57634 8.375C5.57705 8.375 5.57775 8.375 5.57844 8.375C5.57914 8.375 5.57983 8.375 5.58052 8.375C5.58121 8.375 5.5819 8.375 5.58258 8.375C5.58326 8.375 5.58394 8.375 5.58461 8.375C5.58528 8.375 5.58596 8.375 5.58662 8.375C5.58729 8.375 5.58795 8.375 5.58861 8.375C5.58927 8.375 5.58992 8.375 5.59057 8.375C5.59122 8.375 5.59187 8.375 5.59252 8.375C5.59316 8.375 5.5938 8.375 5.59443 8.375C5.59507 8.375 5.5957 8.375 5.59633 8.375C5.59696 8.375 5.59758 8.375 5.5982 8.375C5.59882 8.375 5.59944 8.375 5.60005 8.375C5.60066 8.375 5.60127 8.375 5.60188 8.375C5.60248 8.375 5.60308 8.375 5.60368 8.375C5.60427 8.375 5.60487 8.375 5.60546 8.375C5.60605 8.375 5.60663 8.375 5.60721 8.375C5.60779 8.375 5.60837 8.375 5.60894 8.375C5.60952 8.375 5.61008 8.375 5.61065 8.375C5.61121 8.375 5.61178 8.375 5.61233 8.375C5.61289 8.375 5.61344 8.375 5.61399 8.375C5.61454 8.375 5.61509 8.375 5.61563 8.375C5.61617 8.375 5.61671 8.375 5.61724 8.375C5.61777 8.375 5.6183 8.375 5.61883 8.375C5.61935 8.375 5.61987 8.375 5.62039 8.375C5.6209 8.375 5.62142 8.375 5.62193 8.375C5.62243 8.375 5.62294 8.375 5.62344 8.375C5.62394 8.375 5.62444 8.375 5.62493 8.375C5.62542 8.375 5.62591 8.375 5.62639 8.375C5.62688 8.375 5.62736 8.375 5.62783 8.375C5.62831 8.375 5.62878 8.375 5.62925 8.375C5.62972 8.375 5.63018 8.375 5.63064 8.375C5.6311 8.375 5.63155 8.375 5.632 8.375C5.63245 8.375 5.6329 8.375 5.63334 8.375C5.63379 8.375 5.63423 8.375 5.63466 8.375C5.63509 8.375 5.63552 8.375 5.63595 8.375C5.63637 8.375 5.6368 8.375 5.63721 8.375C5.63763 8.375 5.63804 8.375 5.63845 8.375C5.63886 8.375 5.63927 8.375 5.63967 8.375C5.64007 8.375 5.64046 8.375 5.64086 8.375C5.64125 8.375 5.64163 8.375 5.64202 8.375C5.6424 8.375 5.64278 8.375 5.64316 8.375C5.64353 8.375 5.6439 8.375 5.64427 8.375C5.64463 8.375 5.64499 8.375 5.64535 8.375C5.64571 8.375 5.64606 8.375 5.64641 8.375C5.64676 8.375 5.64711 8.375 5.64745 8.375C5.64779 8.375 5.64812 8.375 5.64845 8.375C5.64878 8.375 5.64911 8.375 5.64943 8.375C5.64976 8.375 5.65007 8.375 5.65039 8.375C5.6507 8.375 5.65101 8.375 5.65132 8.375C5.65162 8.375 5.65192 8.375 5.65222 8.375C5.65252 8.375 5.65281 8.375 5.6531 8.375C5.65338 8.375 5.65367 8.375 5.65395 8.375C5.65422 8.375 5.6545 8.375 5.65477 8.375C5.65504 8.375 5.6553 8.375 5.65556 8.375C5.65582 8.375 5.65608 8.375 5.65633 8.375C5.65658 8.375 5.65683 8.375 5.65707 8.375C5.65732 8.375 5.65756 8.375 5.65779 8.375C5.65802 8.375 5.65825 8.375 5.65848 8.375C5.6587 8.375 5.65892 8.375 5.65914 8.375C5.65936 8.375 5.65957 8.375 5.65977 8.375C5.65998 8.375 5.66018 8.375 5.66038 8.375C5.66058 8.375 5.66077 8.375 5.66096 8.375C5.66115 8.375 5.66133 8.375 5.66151 8.375C5.66169 8.375 5.66186 8.375 5.66203 8.375C5.6622 8.375 5.66237 8.375 5.66253 8.375C5.66269 8.375 5.66285 8.375 5.663 8.375C5.66315 8.375 5.6633 8.375 5.66344 8.375C5.66358 8.375 5.66372 8.375 5.66385 8.375C5.66399 8.375 5.66412 8.375 5.66424 8.375C5.66436 8.375 5.66448 8.375 5.6646 8.375C5.66471 8.375 5.66482 8.375 5.66493 8.375C5.66503 8.375 5.66513 8.375 5.66523 8.375C5.66532 8.375 5.66541 8.375 5.6655 8.375C5.66559 8.375 5.66567 8.375 5.66574 8.375C5.66582 8.375 5.66589 8.375 5.66596 8.375C5.66603 8.375 5.66609 8.375 5.66615 8.375C5.6662 8.375 5.66626 8.375 5.66631 8.375C5.66635 8.375 5.6664 8.375 5.66644 8.375C5.66647 8.375 5.66651 8.375 5.66654 8.375C5.66657 8.375 5.66659 8.375 5.66661 8.375C5.66663 8.375 5.66664 8.375 5.66665 8.375C5.66666 8.375 5.66667 8.375 5.66667 7.875ZM7.66667 7.375C7.66509 7.375 7.66351 7.375 7.66192 7.375C7.66034 7.375 7.65875 7.375 7.65717 7.375C7.65558 7.375 7.654 7.375 7.65241 7.375C7.65082 7.375 7.64923 7.375 7.64764 7.375C7.64605 7.375 7.64445 7.375 7.64286 7.375C7.64126 7.375 7.63967 7.375 7.63807 7.375C7.63647 7.375 7.63487 7.375 7.63328 7.375C7.63168 7.375 7.63007 7.375 7.62847 7.375C7.62687 7.375 7.62526 7.375 7.62366 7.375C7.62205 7.375 7.62045 7.375 7.61884 7.375C7.61723 7.375 7.61562 7.375 7.61401 7.375C7.6124 7.375 7.61079 7.375 7.60917 7.375C7.60756 7.375 7.60595 7.375 7.60433 7.375C7.60271 7.375 7.6011 7.375 7.59948 7.375C7.59786 7.375 7.59624 7.375 7.59462 7.375C7.593 7.375 7.59138 7.375 7.58975 7.375C7.58813 7.375 7.5865 7.375 7.58488 7.375C7.58325 7.375 7.58162 7.375 7.57999 7.375C7.57837 7.375 7.57674 7.375 7.5751 7.375C7.57347 7.375 7.57184 7.375 7.57021 7.375C7.56857 7.375 7.56694 7.375 7.5653 7.375C7.56367 7.375 7.56203 7.375 7.56039 7.375C7.55875 7.375 7.55711 7.375 7.55547 7.375C7.55383 7.375 7.55219 7.375 7.55054 7.375C7.5489 7.375 7.54726 7.375 7.54561 7.375C7.54397 7.375 7.54232 7.375 7.54067 7.375C7.53902 7.375 7.53737 7.375 7.53572 7.375C7.53407 7.375 7.53242 7.375 7.53077 7.375C7.52912 7.375 7.52746 7.375 7.52581 7.375C7.52415 7.375 7.5225 7.375 7.52084 7.375C7.51918 7.375 7.51753 7.375 7.51587 7.375C7.51421 7.375 7.51255 7.375 7.51089 7.375C7.50923 7.375 7.50756 7.375 7.5059 7.375C7.50424 7.375 7.50257 7.375 7.50091 7.375C7.49924 7.375 7.49757 7.375 7.49591 7.375C7.49424 7.375 7.49257 7.375 7.4909 7.375C7.48923 7.375 7.48756 7.375 7.48589 7.375C7.48421 7.375 7.48254 7.375 7.48087 7.375C7.47919 7.375 7.47752 7.375 7.47584 7.375C7.47417 7.375 7.47249 7.375 7.47081 7.375C7.46913 7.375 7.46746 7.375 7.46578 7.375C7.4641 7.375 7.46242 7.375 7.46073 7.375C7.45905 7.375 7.45737 7.375 7.45569 7.375C7.454 7.375 7.45232 7.375 7.45063 7.375C7.44895 7.375 7.44726 7.375 7.44557 7.375C7.44388 7.375 7.4422 7.375 7.44051 7.375C7.43882 7.375 7.43713 7.375 7.43544 7.375C7.43374 7.375 7.43205 7.375 7.43036 7.375C7.42867 7.375 7.42697 7.375 7.42528 7.375C7.42358 7.375 7.42189 7.375 7.42019 7.375C7.41849 7.375 7.4168 7.375 7.4151 7.375C7.4134 7.375 7.4117 7.375 7.41 7.375C7.4083 7.375 7.4066 7.375 7.4049 7.375C7.4032 7.375 7.40149 7.375 7.39979 7.375C7.39809 7.375 7.39638 7.375 7.39468 7.375C7.39297 7.375 7.39127 7.375 7.38956 7.375C7.38786 7.375 7.38615 7.375 7.38444 7.375C7.38273 7.375 7.38102 7.375 7.37931 7.375C7.3776 7.375 7.37589 7.375 7.37418 7.375C7.37247 7.375 7.37076 7.375 7.36905 7.375C7.36733 7.375 7.36562 7.375 7.36391 7.375C7.36219 7.375 7.36048 7.375 7.35876 7.375C7.35704 7.375 7.35533 7.375 7.35361 7.375C7.35189 7.375 7.35018 7.375 7.34846 7.375C7.34674 7.375 7.34502 7.375 7.3433 7.375C7.34158 7.375 7.33986 7.375 7.33814 7.375C7.33642 7.375 7.33469 7.375 7.33297 7.375C7.33125 7.375 7.32952 7.375 7.3278 7.375C7.32608 7.375 7.32435 7.375 7.32263 7.375C7.3209 7.375 7.31918 7.375 7.31745 7.375C7.31572 7.375 7.31399 7.375 7.31227 7.375C7.31054 7.375 7.30881 7.375 7.30708 7.375C7.30535 7.375 7.30362 7.375 7.30189 7.375C7.30016 7.375 7.29843 7.375 7.2967 7.375C7.29497 7.375 7.29324 7.375 7.2915 7.375C7.28977 7.375 7.28804 7.375 7.2863 7.375C7.28457 7.375 7.28283 7.375 7.2811 7.375C7.27936 7.375 7.27763 7.375 7.27589 7.375C7.27416 7.375 7.27242 7.375 7.27068 7.375C7.26895 7.375 7.26721 7.375 7.26547 7.375C7.26373 7.375 7.26199 7.375 7.26025 7.375C7.25851 7.375 7.25677 7.375 7.25503 7.375C7.25329 7.375 7.25155 7.375 7.24981 7.375C7.24807 7.375 7.24633 7.375 7.24459 7.375C7.24284 7.375 7.2411 7.375 7.23936 7.375C7.23762 7.375 7.23587 7.375 7.23413 7.375C7.23238 7.375 7.23064 7.375 7.22889 7.375C7.22715 7.375 7.2254 7.375 7.22366 7.375C7.22191 7.375 7.22017 7.375 7.21842 7.375C7.21667 7.375 7.21493 7.375 7.21318 7.375C7.21143 7.375 7.20968 7.375 7.20793 7.375C7.20619 7.375 7.20444 7.375 7.20269 7.375C7.20094 7.375 7.19919 7.375 7.19744 7.375C7.19569 7.375 7.19394 7.375 7.19219 7.375C7.19044 7.375 7.18869 7.375 7.18694 7.375C7.18519 7.375 7.18344 7.375 7.18168 7.375C7.17993 7.375 7.17818 7.375 7.17643 7.375C7.17467 7.375 7.17292 7.375 7.17117 7.375C7.16942 7.375 7.16766 7.375 7.16591 7.375C7.16415 7.375 7.1624 7.375 7.16065 7.375C7.15889 7.375 7.15714 7.375 7.15538 7.375C7.15363 7.375 7.15187 7.375 7.15012 7.375C7.14836 7.375 7.14661 7.375 7.14485 7.375C7.14309 7.375 7.14134 7.375 7.13958 7.375C7.13782 7.375 7.13607 7.375 7.13431 7.375C7.13255 7.375 7.1308 7.375 7.12904 7.375C7.12728 7.375 7.12552 7.375 7.12377 7.375C7.12201 7.375 7.12025 7.375 7.11849 7.375C7.11674 7.375 7.11498 7.375 7.11322 7.375C7.11146 7.375 7.1097 7.375 7.10794 7.375C7.10618 7.375 7.10442 7.375 7.10267 7.375C7.10091 7.375 7.09915 7.375 7.09739 7.375C7.09563 7.375 7.09387 7.375 7.09211 7.375C7.09035 7.375 7.08859 7.375 7.08683 7.375C7.08507 7.375 7.08331 7.375 7.08155 7.375C7.07979 7.375 7.07803 7.375 7.07627 7.375C7.07451 7.375 7.07275 7.375 7.07099 7.375C7.06923 7.375 7.06746 7.375 7.0657 7.375C7.06394 7.375 7.06218 7.375 7.06042 7.375C7.05866 7.375 7.0569 7.375 7.05514 7.375C7.05338 7.375 7.05162 7.375 7.04985 7.375C7.04809 7.375 7.04633 7.375 7.04457 7.375C7.04281 7.375 7.04105 7.375 7.03929 7.375C7.03753 7.375 7.03577 7.375 7.034 7.375C7.03224 7.375 7.03048 7.375 7.02872 7.375C7.02696 7.375 7.0252 7.375 7.02344 7.375C7.02168 7.375 7.01991 7.375 7.01815 7.375C7.01639 7.375 7.01463 7.375 7.01287 7.375C7.01111 7.375 7.00935 7.375 7.00759 7.375C7.00583 7.375 7.00406 7.375 7.0023 7.375C7.00054 7.375 6.99878 7.375 6.99702 7.375C6.99526 7.375 6.9935 7.375 6.99174 7.375C6.98998 7.375 6.98822 7.375 6.98646 7.375C6.9847 7.375 6.98294 7.375 6.98118 7.375C6.97942 7.375 6.97766 7.375 6.9759 7.375C6.97414 7.375 6.97238 7.375 6.97062 7.375C6.96886 7.375 6.9671 7.375 6.96534 7.375C6.96358 7.375 6.96182 7.375 6.96006 7.375C6.9583 7.375 6.95654 7.375 6.95478 7.375C6.95302 7.375 6.95127 7.375 6.94951 7.375C6.94775 7.375 6.94599 7.375 6.94423 7.375C6.94248 7.375 6.94072 7.375 6.93896 7.375C6.9372 7.375 6.93544 7.375 6.93369 7.375C6.93193 7.375 6.93017 7.375 6.92842 7.375C6.92666 7.375 6.9249 7.375 6.92315 7.375C6.92139 7.375 6.91964 7.375 6.91788 7.375C6.91612 7.375 6.91437 7.375 6.91261 7.375C6.91086 7.375 6.9091 7.375 6.90735 7.375C6.90559 7.375 6.90384 7.375 6.90208 7.375C6.90033 7.375 6.89858 7.375 6.89682 7.375C6.89507 7.375 6.89332 7.375 6.89156 7.375C6.88981 7.375 6.88806 7.375 6.88631 7.375C6.88455 7.375 6.8828 7.375 6.88105 7.375C6.8793 7.375 6.87755 7.375 6.8758 7.375C6.87404 7.375 6.87229 7.375 6.87054 7.375C6.86879 7.375 6.86704 7.375 6.86529 7.375C6.86354 7.375 6.8618 7.375 6.86005 7.375C6.8583 7.375 6.85655 7.375 6.8548 7.375C6.85305 7.375 6.85131 7.375 6.84956 7.375C6.84781 7.375 6.84607 7.375 6.84432 7.375C6.84257 7.375 6.84083 7.375 6.83908 7.375C6.83734 7.375 6.83559 7.375 6.83385 7.375C6.8321 7.375 6.83036 7.375 6.82861 7.375C6.82687 7.375 6.82513 7.375 6.82338 7.375C6.82164 7.375 6.8199 7.375 6.81816 7.375C6.81641 7.375 6.81467 7.375 6.81293 7.375C6.81119 7.375 6.80945 7.375 6.80771 7.375C6.80597 7.375 6.80423 7.375 6.80249 7.375C6.80075 7.375 6.79902 7.375 6.79728 7.375C6.79554 7.375 6.7938 7.375 6.79206 7.375C6.79033 7.375 6.78859 7.375 6.78686 7.375C6.78512 7.375 6.78338 7.375 6.78165 7.375C6.77992 7.375 6.77818 7.375 6.77645 7.375C6.77471 7.375 6.77298 7.375 6.77125 7.375C6.76952 7.375 6.76779 7.375 6.76605 7.375C6.76432 7.375 6.76259 7.375 6.76086 7.375C6.75913 7.375 6.7574 7.375 6.75567 7.375C6.75395 7.375 6.75222 7.375 6.75049 7.375C6.74876 7.375 6.74704 7.375 6.74531 7.375C6.74358 7.375 6.74186 7.375 6.74013 7.375C6.73841 7.375 6.73668 7.375 6.73496 7.375C6.73324 7.375 6.73151 7.375 6.72979 7.375C6.72807 7.375 6.72635 7.375 6.72463 7.375C6.7229 7.375 6.72118 7.375 6.71946 7.375C6.71775 7.375 6.71603 7.375 6.71431 7.375C6.71259 7.375 6.71087 7.375 6.70916 7.375C6.70744 7.375 6.70572 7.375 6.70401 7.375C6.70229 7.375 6.70058 7.375 6.69886 7.375C6.69715 7.375 6.69544 7.375 6.69373 7.375C6.69201 7.375 6.6903 7.375 6.68859 7.375C6.68688 7.375 6.68517 7.375 6.68346 7.375C6.68175 7.375 6.68004 7.375 6.67834 7.375C6.67663 7.375 6.67492 7.375 6.67322 7.375C6.67151 7.375 6.6698 7.375 6.6681 7.375C6.6664 7.375 6.66469 7.375 6.66299 7.375C6.66129 7.375 6.65958 7.375 6.65788 7.375C6.65618 7.375 6.65448 7.375 6.65278 7.375C6.65108 7.375 6.64938 7.375 6.64769 7.375C6.64599 7.375 6.64429 7.375 6.6426 7.375C6.6409 7.375 6.63921 7.375 6.63751 7.375C6.63582 7.375 6.63412 7.375 6.63243 7.375C6.63074 7.375 6.62905 7.375 6.62736 7.375C6.62567 7.375 6.62398 7.375 6.62229 7.375C6.6206 7.375 6.61891 7.375 6.61722 7.375C6.61554 7.375 6.61385 7.375 6.61217 7.375C6.61048 7.375 6.6088 7.375 6.60711 7.375C6.60543 7.375 6.60375 7.375 6.60207 7.375C6.60039 7.375 6.59871 7.375 6.59703 7.375C6.59535 7.375 6.59367 7.375 6.59199 7.375C6.59032 7.375 6.58864 7.375 6.58696 7.375C6.58529 7.375 6.58361 7.375 6.58194 7.375C6.58027 7.375 6.5786 7.375 6.57692 7.375C6.57525 7.375 6.57358 7.375 6.57191 7.375C6.57024 7.375 6.56858 7.375 6.56691 7.375C6.56524 7.375 6.56358 7.375 6.56191 7.375C6.56025 7.375 6.55858 7.375 6.55692 7.375C6.55526 7.375 6.5536 7.375 6.55194 7.375C6.55027 7.375 6.54861 7.375 6.54696 7.375C6.5453 7.375 6.54364 7.375 6.54198 7.375C6.54033 7.375 6.53867 7.375 6.53702 7.375C6.53537 7.375 6.53371 7.375 6.53206 7.375C6.53041 7.375 6.52876 7.375 6.52711 7.375C6.52546 7.375 6.52381 7.375 6.52216 7.375C6.52052 7.375 6.51887 7.375 6.51723 7.375C6.51558 7.375 6.51394 7.375 6.51229 7.375C6.51065 7.375 6.50901 7.375 6.50737 7.375C6.50573 7.375 6.50409 7.375 6.50245 7.375C6.50082 7.375 6.49918 7.375 6.49754 7.375C6.49591 7.375 6.49427 7.375 6.49264 7.375C6.49101 7.375 6.48938 7.375 6.48775 7.375C6.48612 7.375 6.48449 7.375 6.48286 7.375C6.48123 7.375 6.4796 7.375 6.47798 7.375C6.47635 7.375 6.47473 7.375 6.47311 7.375C6.47148 7.375 6.46986 7.375 6.46824 7.375C6.46662 7.375 6.465 7.375 6.46338 7.375C6.46177 7.375 6.46015 7.375 6.45854 7.375C6.45692 7.375 6.45531 7.375 6.45369 7.375C6.45208 7.375 6.45047 7.375 6.44886 7.375C6.44725 7.375 6.44564 7.375 6.44403 7.375C6.44243 7.375 6.44082 7.375 6.43922 7.375C6.43761 7.375 6.43601 7.375 6.43441 7.375C6.43281 7.375 6.43121 7.375 6.42961 7.375C6.42801 7.375 6.42641 7.375 6.42481 7.375C6.42322 7.375 6.42162 7.375 6.42003 7.375C6.41844 7.375 6.41684 7.375 6.41525 7.375C6.41366 7.375 6.41207 7.375 6.41049 7.375C6.4089 7.375 6.40731 7.375 6.40573 7.375C6.40414 7.375 6.40256 7.375 6.40098 7.375C6.39939 7.375 6.39781 7.375 6.39623 7.375C6.39465 7.375 6.39308 7.375 6.3915 7.375C6.38993 7.375 6.38835 7.375 6.38678 7.375C6.3852 7.375 6.38363 7.375 6.38206 7.375C6.38049 7.375 6.37892 7.375 6.37736 7.375C6.37579 7.375 6.37422 7.375 6.37266 7.375C6.37109 7.375 6.36953 7.375 6.36797 7.375C6.36641 7.375 6.36485 7.375 6.36329 7.375C6.36173 7.375 6.36018 7.375 6.35862 7.375C6.35707 7.375 6.35551 7.375 6.35396 7.375C6.35241 7.375 6.35086 7.375 6.34931 7.375C6.34776 7.375 6.34621 7.375 6.34467 7.375C6.34312 7.375 6.34158 7.375 6.34004 7.375C6.33849 7.375 6.33695 7.375 6.33541 7.375C6.33388 7.375 6.33234 7.375 6.3308 7.375C6.32927 7.375 6.32773 7.375 6.3262 7.375C6.32467 7.375 6.32314 7.375 6.32161 7.375C6.32008 7.375 6.31855 7.375 6.31702 7.375C6.3155 7.375 6.31397 7.375 6.31245 7.375C6.31093 7.375 6.30941 7.375 6.30789 7.375C6.30637 7.375 6.30485 7.375 6.30333 7.375C6.30182 7.375 6.3003 7.375 6.29879 7.375C6.29728 7.375 6.29577 7.375 6.29426 7.375C6.29275 7.375 6.29124 7.375 6.28974 7.375C6.28823 7.375 6.28673 7.375 6.28522 7.375C6.28372 7.375 6.28222 7.375 6.28072 7.375C6.27922 7.375 6.27773 7.375 6.27623 7.375C6.27474 7.375 6.27324 7.375 6.27175 7.375C6.27026 7.375 6.26877 7.375 6.26728 7.375C6.26579 7.375 6.26431 7.375 6.26282 7.375C6.26134 7.375 6.25985 7.375 6.25837 7.375C6.25689 7.375 6.25541 7.375 6.25394 7.375C6.25246 7.375 6.25098 7.375 6.24951 7.375C6.24804 7.375 6.24656 7.375 6.24509 7.375C6.24362 7.375 6.24216 7.375 6.24069 7.375C6.23922 7.375 6.23776 7.375 6.2363 7.375C6.23483 7.375 6.23337 7.375 6.23191 7.375C6.23046 7.375 6.229 7.375 6.22754 7.375C6.22609 7.375 6.22464 7.375 6.22319 7.375C6.22173 7.375 6.22028 7.375 6.21884 7.375C6.21739 7.375 6.21594 7.375 6.2145 7.375C6.21306 7.375 6.21162 7.375 6.21018 7.375C6.20874 7.375 6.2073 7.375 6.20586 7.375C6.20443 7.375 6.20299 7.375 6.20156 7.375C6.20013 7.375 6.1987 7.375 6.19727 7.375C6.19584 7.375 6.19442 7.375 6.19299 7.375C6.19157 7.375 6.19015 7.375 6.18873 7.375C6.18731 7.375 6.18589 7.375 6.18448 7.375C6.18306 7.375 6.18165 7.375 6.18023 7.375C6.17882 7.375 6.17741 7.375 6.176 7.375C6.1746 7.375 6.17319 7.375 6.17179 7.375C6.17038 7.375 6.16898 7.375 6.16758 7.375C6.16618 7.375 6.16478 7.375 6.16339 7.375C6.16199 7.375 6.1606 7.375 6.15921 7.375C6.15782 7.375 6.15643 7.375 6.15504 7.375C6.15365 7.375 6.15227 7.375 6.15089 7.375C6.1495 7.375 6.14812 7.375 6.14674 7.375C6.14536 7.375 6.14399 7.375 6.14261 7.375C6.14124 7.375 6.13987 7.375 6.1385 7.375C6.13713 7.375 6.13576 7.375 6.13439 7.375C6.13303 7.375 6.13166 7.375 6.1303 7.375C6.12894 7.375 6.12758 7.375 6.12622 7.375C6.12487 7.375 6.12351 7.375 6.12216 7.375C6.1208 7.375 6.11945 7.375 6.1181 7.375C6.11676 7.375 6.11541 7.375 6.11407 7.375C6.11272 7.375 6.11138 7.375 6.11004 7.375C6.1087 7.375 6.10736 7.375 6.10603 7.375C6.10469 7.375 6.10336 7.375 6.10203 7.375C6.1007 7.375 6.09937 7.375 6.09804 7.375C6.09672 7.375 6.09539 7.375 6.09407 7.375C6.09275 7.375 6.09143 7.375 6.09011 7.375C6.0888 7.375 6.08748 7.375 6.08617 7.375C6.08486 7.375 6.08355 7.375 6.08224 7.375C6.08093 7.375 6.07962 7.375 6.07832 7.375C6.07702 7.375 6.07572 7.375 6.07442 7.375C6.07312 7.375 6.07182 7.375 6.07053 7.375C6.06923 7.375 6.06794 7.375 6.06665 7.375C6.06536 7.375 6.06408 7.375 6.06279 7.375C6.06151 7.375 6.06023 7.375 6.05895 7.375C6.05766 7.375 6.05639 7.375 6.05511 7.375C6.05384 7.375 6.05256 7.375 6.05129 7.375C6.05002 7.375 6.04876 7.375 6.04749 7.375C6.04622 7.375 6.04496 7.375 6.0437 7.375C6.04244 7.375 6.04118 7.375 6.03993 7.375C6.03867 7.375 6.03742 7.375 6.03617 7.375C6.03491 7.375 6.03367 7.375 6.03242 7.375C6.03117 7.375 6.02993 7.375 6.02869 7.375C6.02745 7.375 6.02621 7.375 6.02497 7.375C6.02374 7.375 6.0225 7.375 6.02127 7.375C6.02004 7.375 6.01881 7.375 6.01759 7.375C6.01636 7.375 6.01514 7.375 6.01391 7.375C6.01269 7.375 6.01147 7.375 6.01026 7.375C6.00904 7.375 6.00783 7.375 6.00662 7.375C6.00541 7.375 6.0042 7.375 6.00299 7.375C6.00179 7.375 6.00058 7.375 5.99938 7.375C5.99818 7.375 5.99698 7.375 5.99579 7.375C5.99459 7.375 5.9934 7.375 5.99221 7.375C5.99102 7.375 5.98983 7.375 5.98864 7.375C5.98746 7.375 5.98627 7.375 5.98509 7.375C5.98391 7.375 5.98274 7.375 5.98156 7.375C5.98039 7.375 5.97921 7.375 5.97804 7.375C5.97687 7.375 5.97571 7.375 5.97454 7.375C5.97338 7.375 5.97222 7.375 5.97106 7.375C5.9699 7.375 5.96874 7.375 5.96759 7.375C5.96643 7.375 5.96528 7.375 5.96413 7.375C5.96299 7.375 5.96184 7.375 5.9607 7.375C5.95955 7.375 5.95841 7.375 5.95728 7.375C5.95614 7.375 5.955 7.375 5.95387 7.375C5.95274 7.375 5.95161 7.375 5.95048 7.375C5.94936 7.375 5.94823 7.375 5.94711 7.375C5.94599 7.375 5.94487 7.375 5.94375 7.375C5.94264 7.375 5.94152 7.375 5.94041 7.375C5.9393 7.375 5.9382 7.375 5.93709 7.375C5.93599 7.375 5.93488 7.375 5.93379 7.375C5.93269 7.375 5.93159 7.375 5.9305 7.375C5.9294 7.375 5.92831 7.375 5.92722 7.375C5.92614 7.375 5.92505 7.375 5.92397 7.375C5.92288 7.375 5.9218 7.375 5.92073 7.375C5.91965 7.375 5.91858 7.375 5.91751 7.375C5.91644 7.375 5.91537 7.375 5.9143 7.375C5.91324 7.375 5.91217 7.375 5.91111 7.375C5.91005 7.375 5.909 7.375 5.90794 7.375C5.90689 7.375 5.90584 7.375 5.90479 7.375C5.90374 7.375 5.9027 7.375 5.90165 7.375C5.90061 7.375 5.89957 7.375 5.89854 7.375C5.8975 7.375 5.89646 7.375 5.89543 7.375C5.8944 7.375 5.89338 7.375 5.89235 7.375C5.89133 7.375 5.8903 7.375 5.88928 7.375C5.88827 7.375 5.88725 7.375 5.88624 7.375C5.88522 7.375 5.88421 7.375 5.88321 7.375C5.8822 7.375 5.8812 7.375 5.88019 7.375C5.87919 7.375 5.87819 7.375 5.8772 7.375C5.8762 7.375 5.87521 7.375 5.87422 7.375C5.87323 7.375 5.87225 7.375 5.87126 7.375C5.87028 7.375 5.8693 7.375 5.86832 7.375C5.86735 7.375 5.86637 7.375 5.8654 7.375C5.86443 7.375 5.86346 7.375 5.8625 7.375C5.86153 7.375 5.86057 7.375 5.85961 7.375C5.85865 7.375 5.8577 7.375 5.85674 7.375C5.85579 7.375 5.85484 7.375 5.85389 7.375C5.85295 7.375 5.85201 7.375 5.85106 7.375C5.85012 7.375 5.84919 7.375 5.84825 7.375C5.84732 7.375 5.84639 7.375 5.84546 7.375C5.84453 7.375 5.84361 7.375 5.84269 7.375C5.84176 7.375 5.84085 7.375 5.83993 7.375C5.83901 7.375 5.8381 7.375 5.83719 7.375C5.83628 7.375 5.83538 7.375 5.83448 7.375C5.83357 7.375 5.83267 7.375 5.83178 7.375C5.83088 7.375 5.82999 7.375 5.8291 7.375C5.82821 7.375 5.82732 7.375 5.82644 7.375C5.82555 7.375 5.82467 7.375 5.8238 7.375C5.82292 7.375 5.82205 7.375 5.82117 7.375C5.8203 7.375 5.81944 7.375 5.81857 7.375C5.81771 7.375 5.81685 7.375 5.81599 7.375C5.81513 7.375 5.81428 7.375 5.81343 7.375C5.81257 7.375 5.81173 7.375 5.81088 7.375C5.81004 7.375 5.8092 7.375 5.80836 7.375C5.80752 7.375 5.80669 7.375 5.80585 7.375C5.80502 7.375 5.80419 7.375 5.80337 7.375C5.80254 7.375 5.80172 7.375 5.8009 7.375C5.80009 7.375 5.79927 7.375 5.79846 7.375C5.79765 7.375 5.79684 7.375 5.79604 7.375C5.79523 7.375 5.79443 7.375 5.79363 7.375C5.79283 7.375 5.79204 7.375 5.79125 7.375C5.79045 7.375 5.78967 7.375 5.78888 7.375C5.7881 7.375 5.78732 7.375 5.78654 7.375C5.78576 7.375 5.78499 7.375 5.78421 7.375C5.78344 7.375 5.78268 7.375 5.78191 7.375C5.78115 7.375 5.78039 7.375 5.77963 7.375C5.77887 7.375 5.77812 7.375 5.77737 7.375C5.77662 7.375 5.77587 7.375 5.77513 7.375C5.77438 7.375 5.77364 7.375 5.7729 7.375C5.77217 7.375 5.77143 7.375 5.7707 7.375C5.76997 7.375 5.76925 7.375 5.76853 7.375C5.7678 7.375 5.76708 7.375 5.76637 7.375C5.76565 7.375 5.76494 7.375 5.76423 7.375C5.76352 7.375 5.76282 7.375 5.76211 7.375C5.76141 7.375 5.76071 7.375 5.76002 7.375C5.75932 7.375 5.75863 7.375 5.75795 7.375C5.75726 7.375 5.75657 7.375 5.75589 7.375C5.75521 7.375 5.75454 7.375 5.75386 7.375C5.75319 7.375 5.75252 7.375 5.75185 7.375C5.75119 7.375 5.75052 7.375 5.74986 7.375C5.74921 7.375 5.74855 7.375 5.7479 7.375C5.74725 7.375 5.7466 7.375 5.74595 7.375C5.74531 7.375 5.74467 7.375 5.74403 7.375C5.74339 7.375 5.74276 7.375 5.74213 7.375C5.7415 7.375 5.74087 7.375 5.74025 7.375C5.73963 7.375 5.73901 7.375 5.73839 7.375C5.73778 7.375 5.73716 7.375 5.73656 7.375C5.73595 7.375 5.73534 7.375 5.73474 7.375C5.73414 7.375 5.73354 7.375 5.73295 7.375C5.73236 7.375 5.73177 7.375 5.73118 7.375C5.73059 7.375 5.73001 7.375 5.72943 7.375C5.72885 7.375 5.72828 7.375 5.72771 7.375C5.72714 7.375 5.72657 7.375 5.72601 7.375C5.72544 7.375 5.72488 7.375 5.72433 7.375C5.72377 7.375 5.72322 7.375 5.72267 7.375C5.72212 7.375 5.72158 7.375 5.72103 7.375C5.72049 7.375 5.71996 7.375 5.71942 7.375C5.71889 7.375 5.71836 7.375 5.71783 7.375C5.71731 7.375 5.71679 7.375 5.71627 7.375C5.71575 7.375 5.71523 7.375 5.71472 7.375C5.71421 7.375 5.71371 7.375 5.7132 7.375C5.7127 7.375 5.7122 7.375 5.71171 7.375C5.71121 7.375 5.71072 7.375 5.71023 7.375C5.70974 7.375 5.70926 7.375 5.70878 7.375C5.7083 7.375 5.70782 7.375 5.70735 7.375C5.70688 7.375 5.70641 7.375 5.70595 7.375C5.70548 7.375 5.70502 7.375 5.70457 7.375C5.70411 7.375 5.70366 7.375 5.70321 7.375C5.70276 7.375 5.70231 7.375 5.70187 7.375C5.70143 7.375 5.701 7.375 5.70056 7.375C5.70013 7.375 5.6997 7.375 5.69928 7.375C5.69885 7.375 5.69843 7.375 5.69801 7.375C5.6976 7.375 5.69718 7.375 5.69677 7.375C5.69636 7.375 5.69596 7.375 5.69556 7.375C5.69516 7.375 5.69476 7.375 5.69437 7.375C5.69397 7.375 5.69358 7.375 5.6932 7.375C5.69281 7.375 5.69243 7.375 5.69206 7.375C5.69168 7.375 5.69131 7.375 5.69094 7.375C5.69057 7.375 5.6902 7.375 5.68984 7.375C5.68948 7.375 5.68912 7.375 5.68877 7.375C5.68842 7.375 5.68807 7.375 5.68772 7.375C5.68738 7.375 5.68704 7.375 5.6867 7.375C5.68637 7.375 5.68603 7.375 5.68571 7.375C5.68538 7.375 5.68505 7.375 5.68473 7.375C5.68441 7.375 5.6841 7.375 5.68378 7.375C5.68347 7.375 5.68316 7.375 5.68286 7.375C5.68256 7.375 5.68226 7.375 5.68196 7.375C5.68167 7.375 5.68138 7.375 5.68109 7.375C5.6808 7.375 5.68052 7.375 5.68024 7.375C5.67996 7.375 5.67969 7.375 5.67942 7.375C5.67915 7.375 5.67888 7.375 5.67862 7.375C5.67836 7.375 5.6781 7.375 5.67784 7.375C5.67759 7.375 5.67734 7.375 5.6771 7.375C5.67685 7.375 5.67661 7.375 5.67637 7.375C5.67614 7.375 5.6759 7.375 5.67567 7.375C5.67545 7.375 5.67522 7.375 5.675 7.375C5.67478 7.375 5.67457 7.375 5.67436 7.375C5.67414 7.375 5.67394 7.375 5.67373 7.375C5.67353 7.375 5.67333 7.375 5.67314 7.375C5.67294 7.375 5.67275 7.375 5.67257 7.375C5.67238 7.375 5.6722 7.375 5.67203 7.375C5.67185 7.375 5.67168 7.375 5.67151 7.375C5.67134 7.375 5.67117 7.375 5.67101 7.375C5.67085 7.375 5.6707 7.375 5.67055 7.375C5.6704 7.375 5.67025 7.375 5.67011 7.375C5.66997 7.375 5.66983 7.375 5.66969 7.375C5.66956 7.375 5.66943 7.375 5.66931 7.375C5.66918 7.375 5.66906 7.375 5.66894 7.375C5.66883 7.375 5.66872 7.375 5.66861 7.375C5.6685 7.375 5.6684 7.375 5.6683 7.375C5.6682 7.375 5.66811 7.375 5.66802 7.375C5.66793 7.375 5.66784 7.375 5.66776 7.375C5.66768 7.375 5.6676 7.375 5.66753 7.375C5.66746 7.375 5.66739 7.375 5.66733 7.375C5.66727 7.375 5.66721 7.375 5.66715 7.375C5.6671 7.375 5.66705 7.375 5.66701 7.375C5.66696 7.375 5.66692 7.375 5.66688 7.375C5.66685 7.375 5.66682 7.375 5.66679 7.375C5.66676 7.375 5.66674 7.375 5.66672 7.375C5.6667 7.375 5.66669 7.375 5.66668 7.375C5.66667 7.375 5.66667 7.375 5.66667 7.875C5.66667 8.375 5.66667 8.375 5.66668 8.375C5.66669 8.375 5.6667 8.375 5.66672 8.375C5.66674 8.375 5.66676 8.375 5.66679 8.375C5.66682 8.375 5.66685 8.375 5.66688 8.375C5.66692 8.375 5.66696 8.375 5.66701 8.375C5.66705 8.375 5.6671 8.375 5.66715 8.375C5.66721 8.375 5.66727 8.375 5.66733 8.375C5.66739 8.375 5.66746 8.375 5.66753 8.375C5.6676 8.375 5.66768 8.375 5.66776 8.375C5.66784 8.375 5.66793 8.375 5.66802 8.375C5.66811 8.375 5.6682 8.375 5.6683 8.375C5.6684 8.375 5.6685 8.375 5.66861 8.375C5.66872 8.375 5.66883 8.375 5.66894 8.375C5.66906 8.375 5.66918 8.375 5.66931 8.375C5.66943 8.375 5.66956 8.375 5.66969 8.375C5.66983 8.375 5.66997 8.375 5.67011 8.375C5.67025 8.375 5.6704 8.375 5.67055 8.375C5.6707 8.375 5.67085 8.375 5.67101 8.375C5.67117 8.375 5.67134 8.375 5.67151 8.375C5.67168 8.375 5.67185 8.375 5.67203 8.375C5.6722 8.375 5.67238 8.375 5.67257 8.375C5.67275 8.375 5.67294 8.375 5.67314 8.375C5.67333 8.375 5.67353 8.375 5.67373 8.375C5.67394 8.375 5.67414 8.375 5.67436 8.375C5.67457 8.375 5.67478 8.375 5.675 8.375C5.67522 8.375 5.67545 8.375 5.67567 8.375C5.6759 8.375 5.67614 8.375 5.67637 8.375C5.67661 8.375 5.67685 8.375 5.6771 8.375C5.67734 8.375 5.67759 8.375 5.67784 8.375C5.6781 8.375 5.67836 8.375 5.67862 8.375C5.67888 8.375 5.67915 8.375 5.67942 8.375C5.67969 8.375 5.67996 8.375 5.68024 8.375C5.68052 8.375 5.6808 8.375 5.68109 8.375C5.68138 8.375 5.68167 8.375 5.68196 8.375C5.68226 8.375 5.68256 8.375 5.68286 8.375C5.68316 8.375 5.68347 8.375 5.68378 8.375C5.6841 8.375 5.68441 8.375 5.68473 8.375C5.68505 8.375 5.68538 8.375 5.68571 8.375C5.68603 8.375 5.68637 8.375 5.6867 8.375C5.68704 8.375 5.68738 8.375 5.68772 8.375C5.68807 8.375 5.68842 8.375 5.68877 8.375C5.68912 8.375 5.68948 8.375 5.68984 8.375C5.6902 8.375 5.69057 8.375 5.69094 8.375C5.69131 8.375 5.69168 8.375 5.69206 8.375C5.69243 8.375 5.69281 8.375 5.6932 8.375C5.69358 8.375 5.69397 8.375 5.69437 8.375C5.69476 8.375 5.69516 8.375 5.69556 8.375C5.69596 8.375 5.69636 8.375 5.69677 8.375C5.69718 8.375 5.6976 8.375 5.69801 8.375C5.69843 8.375 5.69885 8.375 5.69928 8.375C5.6997 8.375 5.70013 8.375 5.70056 8.375C5.701 8.375 5.70143 8.375 5.70187 8.375C5.70231 8.375 5.70276 8.375 5.70321 8.375C5.70366 8.375 5.70411 8.375 5.70457 8.375C5.70502 8.375 5.70548 8.375 5.70595 8.375C5.70641 8.375 5.70688 8.375 5.70735 8.375C5.70782 8.375 5.7083 8.375 5.70878 8.375C5.70926 8.375 5.70974 8.375 5.71023 8.375C5.71072 8.375 5.71121 8.375 5.71171 8.375C5.7122 8.375 5.7127 8.375 5.7132 8.375C5.71371 8.375 5.71421 8.375 5.71472 8.375C5.71523 8.375 5.71575 8.375 5.71627 8.375C5.71679 8.375 5.71731 8.375 5.71783 8.375C5.71836 8.375 5.71889 8.375 5.71942 8.375C5.71996 8.375 5.72049 8.375 5.72103 8.375C5.72158 8.375 5.72212 8.375 5.72267 8.375C5.72322 8.375 5.72377 8.375 5.72433 8.375C5.72488 8.375 5.72544 8.375 5.72601 8.375C5.72657 8.375 5.72714 8.375 5.72771 8.375C5.72828 8.375 5.72885 8.375 5.72943 8.375C5.73001 8.375 5.73059 8.375 5.73118 8.375C5.73177 8.375 5.73236 8.375 5.73295 8.375C5.73354 8.375 5.73414 8.375 5.73474 8.375C5.73534 8.375 5.73595 8.375 5.73656 8.375C5.73716 8.375 5.73778 8.375 5.73839 8.375C5.73901 8.375 5.73963 8.375 5.74025 8.375C5.74087 8.375 5.7415 8.375 5.74213 8.375C5.74276 8.375 5.74339 8.375 5.74403 8.375C5.74467 8.375 5.74531 8.375 5.74595 8.375C5.7466 8.375 5.74725 8.375 5.7479 8.375C5.74855 8.375 5.74921 8.375 5.74986 8.375C5.75052 8.375 5.75119 8.375 5.75185 8.375C5.75252 8.375 5.75319 8.375 5.75386 8.375C5.75454 8.375 5.75521 8.375 5.75589 8.375C5.75657 8.375 5.75726 8.375 5.75795 8.375C5.75863 8.375 5.75932 8.375 5.76002 8.375C5.76071 8.375 5.76141 8.375 5.76211 8.375C5.76282 8.375 5.76352 8.375 5.76423 8.375C5.76494 8.375 5.76565 8.375 5.76637 8.375C5.76708 8.375 5.7678 8.375 5.76853 8.375C5.76925 8.375 5.76997 8.375 5.7707 8.375C5.77143 8.375 5.77217 8.375 5.7729 8.375C5.77364 8.375 5.77438 8.375 5.77513 8.375C5.77587 8.375 5.77662 8.375 5.77737 8.375C5.77812 8.375 5.77887 8.375 5.77963 8.375C5.78039 8.375 5.78115 8.375 5.78191 8.375C5.78268 8.375 5.78344 8.375 5.78421 8.375C5.78499 8.375 5.78576 8.375 5.78654 8.375C5.78732 8.375 5.7881 8.375 5.78888 8.375C5.78967 8.375 5.79045 8.375 5.79125 8.375C5.79204 8.375 5.79283 8.375 5.79363 8.375C5.79443 8.375 5.79523 8.375 5.79604 8.375C5.79684 8.375 5.79765 8.375 5.79846 8.375C5.79927 8.375 5.80009 8.375 5.8009 8.375C5.80172 8.375 5.80254 8.375 5.80337 8.375C5.80419 8.375 5.80502 8.375 5.80585 8.375C5.80669 8.375 5.80752 8.375 5.80836 8.375C5.8092 8.375 5.81004 8.375 5.81088 8.375C5.81173 8.375 5.81257 8.375 5.81343 8.375C5.81428 8.375 5.81513 8.375 5.81599 8.375C5.81685 8.375 5.81771 8.375 5.81857 8.375C5.81944 8.375 5.8203 8.375 5.82117 8.375C5.82205 8.375 5.82292 8.375 5.8238 8.375C5.82467 8.375 5.82555 8.375 5.82644 8.375C5.82732 8.375 5.82821 8.375 5.8291 8.375C5.82999 8.375 5.83088 8.375 5.83178 8.375C5.83267 8.375 5.83357 8.375 5.83448 8.375C5.83538 8.375 5.83628 8.375 5.83719 8.375C5.8381 8.375 5.83901 8.375 5.83993 8.375C5.84085 8.375 5.84176 8.375 5.84269 8.375C5.84361 8.375 5.84453 8.375 5.84546 8.375C5.84639 8.375 5.84732 8.375 5.84825 8.375C5.84919 8.375 5.85012 8.375 5.85106 8.375C5.85201 8.375 5.85295 8.375 5.85389 8.375C5.85484 8.375 5.85579 8.375 5.85674 8.375C5.8577 8.375 5.85865 8.375 5.85961 8.375C5.86057 8.375 5.86153 8.375 5.8625 8.375C5.86346 8.375 5.86443 8.375 5.8654 8.375C5.86637 8.375 5.86735 8.375 5.86832 8.375C5.8693 8.375 5.87028 8.375 5.87126 8.375C5.87225 8.375 5.87323 8.375 5.87422 8.375C5.87521 8.375 5.8762 8.375 5.8772 8.375C5.87819 8.375 5.87919 8.375 5.88019 8.375C5.8812 8.375 5.8822 8.375 5.88321 8.375C5.88421 8.375 5.88522 8.375 5.88624 8.375C5.88725 8.375 5.88827 8.375 5.88928 8.375C5.8903 8.375 5.89133 8.375 5.89235 8.375C5.89338 8.375 5.8944 8.375 5.89543 8.375C5.89646 8.375 5.8975 8.375 5.89854 8.375C5.89957 8.375 5.90061 8.375 5.90165 8.375C5.9027 8.375 5.90374 8.375 5.90479 8.375C5.90584 8.375 5.90689 8.375 5.90794 8.375C5.909 8.375 5.91005 8.375 5.91111 8.375C5.91217 8.375 5.91324 8.375 5.9143 8.375C5.91537 8.375 5.91644 8.375 5.91751 8.375C5.91858 8.375 5.91965 8.375 5.92073 8.375C5.9218 8.375 5.92288 8.375 5.92397 8.375C5.92505 8.375 5.92614 8.375 5.92722 8.375C5.92831 8.375 5.9294 8.375 5.9305 8.375C5.93159 8.375 5.93269 8.375 5.93379 8.375C5.93488 8.375 5.93599 8.375 5.93709 8.375C5.9382 8.375 5.9393 8.375 5.94041 8.375C5.94152 8.375 5.94264 8.375 5.94375 8.375C5.94487 8.375 5.94599 8.375 5.94711 8.375C5.94823 8.375 5.94936 8.375 5.95048 8.375C5.95161 8.375 5.95274 8.375 5.95387 8.375C5.955 8.375 5.95614 8.375 5.95728 8.375C5.95841 8.375 5.95955 8.375 5.9607 8.375C5.96184 8.375 5.96299 8.375 5.96413 8.375C5.96528 8.375 5.96643 8.375 5.96759 8.375C5.96874 8.375 5.9699 8.375 5.97106 8.375C5.97222 8.375 5.97338 8.375 5.97454 8.375C5.97571 8.375 5.97687 8.375 5.97804 8.375C5.97921 8.375 5.98039 8.375 5.98156 8.375C5.98274 8.375 5.98391 8.375 5.98509 8.375C5.98627 8.375 5.98746 8.375 5.98864 8.375C5.98983 8.375 5.99102 8.375 5.99221 8.375C5.9934 8.375 5.99459 8.375 5.99579 8.375C5.99698 8.375 5.99818 8.375 5.99938 8.375C6.00058 8.375 6.00179 8.375 6.00299 8.375C6.0042 8.375 6.00541 8.375 6.00662 8.375C6.00783 8.375 6.00904 8.375 6.01026 8.375C6.01147 8.375 6.01269 8.375 6.01391 8.375C6.01514 8.375 6.01636 8.375 6.01759 8.375C6.01881 8.375 6.02004 8.375 6.02127 8.375C6.0225 8.375 6.02374 8.375 6.02497 8.375C6.02621 8.375 6.02745 8.375 6.02869 8.375C6.02993 8.375 6.03117 8.375 6.03242 8.375C6.03367 8.375 6.03491 8.375 6.03617 8.375C6.03742 8.375 6.03867 8.375 6.03993 8.375C6.04118 8.375 6.04244 8.375 6.0437 8.375C6.04496 8.375 6.04622 8.375 6.04749 8.375C6.04876 8.375 6.05002 8.375 6.05129 8.375C6.05256 8.375 6.05384 8.375 6.05511 8.375C6.05639 8.375 6.05766 8.375 6.05895 8.375C6.06023 8.375 6.06151 8.375 6.06279 8.375C6.06408 8.375 6.06536 8.375 6.06665 8.375C6.06794 8.375 6.06923 8.375 6.07053 8.375C6.07182 8.375 6.07312 8.375 6.07442 8.375C6.07572 8.375 6.07702 8.375 6.07832 8.375C6.07962 8.375 6.08093 8.375 6.08224 8.375C6.08355 8.375 6.08486 8.375 6.08617 8.375C6.08748 8.375 6.0888 8.375 6.09011 8.375C6.09143 8.375 6.09275 8.375 6.09407 8.375C6.09539 8.375 6.09672 8.375 6.09804 8.375C6.09937 8.375 6.1007 8.375 6.10203 8.375C6.10336 8.375 6.10469 8.375 6.10603 8.375C6.10736 8.375 6.1087 8.375 6.11004 8.375C6.11138 8.375 6.11272 8.375 6.11407 8.375C6.11541 8.375 6.11676 8.375 6.1181 8.375C6.11945 8.375 6.1208 8.375 6.12216 8.375C6.12351 8.375 6.12487 8.375 6.12622 8.375C6.12758 8.375 6.12894 8.375 6.1303 8.375C6.13166 8.375 6.13303 8.375 6.13439 8.375C6.13576 8.375 6.13713 8.375 6.1385 8.375C6.13987 8.375 6.14124 8.375 6.14261 8.375C6.14399 8.375 6.14536 8.375 6.14674 8.375C6.14812 8.375 6.1495 8.375 6.15089 8.375C6.15227 8.375 6.15365 8.375 6.15504 8.375C6.15643 8.375 6.15782 8.375 6.15921 8.375C6.1606 8.375 6.16199 8.375 6.16339 8.375C6.16478 8.375 6.16618 8.375 6.16758 8.375C6.16898 8.375 6.17038 8.375 6.17179 8.375C6.17319 8.375 6.1746 8.375 6.176 8.375C6.17741 8.375 6.17882 8.375 6.18023 8.375C6.18165 8.375 6.18306 8.375 6.18448 8.375C6.18589 8.375 6.18731 8.375 6.18873 8.375C6.19015 8.375 6.19157 8.375 6.19299 8.375C6.19442 8.375 6.19584 8.375 6.19727 8.375C6.1987 8.375 6.20013 8.375 6.20156 8.375C6.20299 8.375 6.20443 8.375 6.20586 8.375C6.2073 8.375 6.20874 8.375 6.21018 8.375C6.21162 8.375 6.21306 8.375 6.2145 8.375C6.21594 8.375 6.21739 8.375 6.21884 8.375C6.22028 8.375 6.22173 8.375 6.22319 8.375C6.22464 8.375 6.22609 8.375 6.22754 8.375C6.229 8.375 6.23046 8.375 6.23191 8.375C6.23337 8.375 6.23483 8.375 6.2363 8.375C6.23776 8.375 6.23922 8.375 6.24069 8.375C6.24216 8.375 6.24362 8.375 6.24509 8.375C6.24656 8.375 6.24804 8.375 6.24951 8.375C6.25098 8.375 6.25246 8.375 6.25394 8.375C6.25541 8.375 6.25689 8.375 6.25837 8.375C6.25985 8.375 6.26134 8.375 6.26282 8.375C6.26431 8.375 6.26579 8.375 6.26728 8.375C6.26877 8.375 6.27026 8.375 6.27175 8.375C6.27324 8.375 6.27474 8.375 6.27623 8.375C6.27773 8.375 6.27922 8.375 6.28072 8.375C6.28222 8.375 6.28372 8.375 6.28522 8.375C6.28673 8.375 6.28823 8.375 6.28974 8.375C6.29124 8.375 6.29275 8.375 6.29426 8.375C6.29577 8.375 6.29728 8.375 6.29879 8.375C6.3003 8.375 6.30182 8.375 6.30333 8.375C6.30485 8.375 6.30637 8.375 6.30789 8.375C6.30941 8.375 6.31093 8.375 6.31245 8.375C6.31397 8.375 6.3155 8.375 6.31702 8.375C6.31855 8.375 6.32008 8.375 6.32161 8.375C6.32314 8.375 6.32467 8.375 6.3262 8.375C6.32773 8.375 6.32927 8.375 6.3308 8.375C6.33234 8.375 6.33388 8.375 6.33541 8.375C6.33695 8.375 6.33849 8.375 6.34004 8.375C6.34158 8.375 6.34312 8.375 6.34467 8.375C6.34621 8.375 6.34776 8.375 6.34931 8.375C6.35086 8.375 6.35241 8.375 6.35396 8.375C6.35551 8.375 6.35707 8.375 6.35862 8.375C6.36018 8.375 6.36173 8.375 6.36329 8.375C6.36485 8.375 6.36641 8.375 6.36797 8.375C6.36953 8.375 6.37109 8.375 6.37266 8.375C6.37422 8.375 6.37579 8.375 6.37736 8.375C6.37892 8.375 6.38049 8.375 6.38206 8.375C6.38363 8.375 6.3852 8.375 6.38678 8.375C6.38835 8.375 6.38993 8.375 6.3915 8.375C6.39308 8.375 6.39465 8.375 6.39623 8.375C6.39781 8.375 6.39939 8.375 6.40098 8.375C6.40256 8.375 6.40414 8.375 6.40573 8.375C6.40731 8.375 6.4089 8.375 6.41049 8.375C6.41207 8.375 6.41366 8.375 6.41525 8.375C6.41684 8.375 6.41844 8.375 6.42003 8.375C6.42162 8.375 6.42322 8.375 6.42481 8.375C6.42641 8.375 6.42801 8.375 6.42961 8.375C6.43121 8.375 6.43281 8.375 6.43441 8.375C6.43601 8.375 6.43761 8.375 6.43922 8.375C6.44082 8.375 6.44243 8.375 6.44403 8.375C6.44564 8.375 6.44725 8.375 6.44886 8.375C6.45047 8.375 6.45208 8.375 6.45369 8.375C6.45531 8.375 6.45692 8.375 6.45854 8.375C6.46015 8.375 6.46177 8.375 6.46338 8.375C6.465 8.375 6.46662 8.375 6.46824 8.375C6.46986 8.375 6.47148 8.375 6.47311 8.375C6.47473 8.375 6.47635 8.375 6.47798 8.375C6.4796 8.375 6.48123 8.375 6.48286 8.375C6.48449 8.375 6.48612 8.375 6.48775 8.375C6.48938 8.375 6.49101 8.375 6.49264 8.375C6.49427 8.375 6.49591 8.375 6.49754 8.375C6.49918 8.375 6.50082 8.375 6.50245 8.375C6.50409 8.375 6.50573 8.375 6.50737 8.375C6.50901 8.375 6.51065 8.375 6.51229 8.375C6.51394 8.375 6.51558 8.375 6.51723 8.375C6.51887 8.375 6.52052 8.375 6.52216 8.375C6.52381 8.375 6.52546 8.375 6.52711 8.375C6.52876 8.375 6.53041 8.375 6.53206 8.375C6.53371 8.375 6.53537 8.375 6.53702 8.375C6.53867 8.375 6.54033 8.375 6.54198 8.375C6.54364 8.375 6.5453 8.375 6.54696 8.375C6.54861 8.375 6.55027 8.375 6.55194 8.375C6.5536 8.375 6.55526 8.375 6.55692 8.375C6.55858 8.375 6.56025 8.375 6.56191 8.375C6.56358 8.375 6.56524 8.375 6.56691 8.375C6.56858 8.375 6.57024 8.375 6.57191 8.375C6.57358 8.375 6.57525 8.375 6.57692 8.375C6.5786 8.375 6.58027 8.375 6.58194 8.375C6.58361 8.375 6.58529 8.375 6.58696 8.375C6.58864 8.375 6.59032 8.375 6.59199 8.375C6.59367 8.375 6.59535 8.375 6.59703 8.375C6.59871 8.375 6.60039 8.375 6.60207 8.375C6.60375 8.375 6.60543 8.375 6.60711 8.375C6.6088 8.375 6.61048 8.375 6.61217 8.375C6.61385 8.375 6.61554 8.375 6.61722 8.375C6.61891 8.375 6.6206 8.375 6.62229 8.375C6.62398 8.375 6.62567 8.375 6.62736 8.375C6.62905 8.375 6.63074 8.375 6.63243 8.375C6.63412 8.375 6.63582 8.375 6.63751 8.375C6.63921 8.375 6.6409 8.375 6.6426 8.375C6.64429 8.375 6.64599 8.375 6.64769 8.375C6.64938 8.375 6.65108 8.375 6.65278 8.375C6.65448 8.375 6.65618 8.375 6.65788 8.375C6.65958 8.375 6.66129 8.375 6.66299 8.375C6.66469 8.375 6.6664 8.375 6.6681 8.375C6.6698 8.375 6.67151 8.375 6.67322 8.375C6.67492 8.375 6.67663 8.375 6.67834 8.375C6.68004 8.375 6.68175 8.375 6.68346 8.375C6.68517 8.375 6.68688 8.375 6.68859 8.375C6.6903 8.375 6.69201 8.375 6.69373 8.375C6.69544 8.375 6.69715 8.375 6.69886 8.375C6.70058 8.375 6.70229 8.375 6.70401 8.375C6.70572 8.375 6.70744 8.375 6.70916 8.375C6.71087 8.375 6.71259 8.375 6.71431 8.375C6.71603 8.375 6.71775 8.375 6.71946 8.375C6.72118 8.375 6.7229 8.375 6.72463 8.375C6.72635 8.375 6.72807 8.375 6.72979 8.375C6.73151 8.375 6.73324 8.375 6.73496 8.375C6.73668 8.375 6.73841 8.375 6.74013 8.375C6.74186 8.375 6.74358 8.375 6.74531 8.375C6.74704 8.375 6.74876 8.375 6.75049 8.375C6.75222 8.375 6.75395 8.375 6.75567 8.375C6.7574 8.375 6.75913 8.375 6.76086 8.375C6.76259 8.375 6.76432 8.375 6.76605 8.375C6.76779 8.375 6.76952 8.375 6.77125 8.375C6.77298 8.375 6.77471 8.375 6.77645 8.375C6.77818 8.375 6.77992 8.375 6.78165 8.375C6.78338 8.375 6.78512 8.375 6.78686 8.375C6.78859 8.375 6.79033 8.375 6.79206 8.375C6.7938 8.375 6.79554 8.375 6.79728 8.375C6.79902 8.375 6.80075 8.375 6.80249 8.375C6.80423 8.375 6.80597 8.375 6.80771 8.375C6.80945 8.375 6.81119 8.375 6.81293 8.375C6.81467 8.375 6.81641 8.375 6.81816 8.375C6.8199 8.375 6.82164 8.375 6.82338 8.375C6.82513 8.375 6.82687 8.375 6.82861 8.375C6.83036 8.375 6.8321 8.375 6.83385 8.375C6.83559 8.375 6.83734 8.375 6.83908 8.375C6.84083 8.375 6.84257 8.375 6.84432 8.375C6.84607 8.375 6.84781 8.375 6.84956 8.375C6.85131 8.375 6.85305 8.375 6.8548 8.375C6.85655 8.375 6.8583 8.375 6.86005 8.375C6.8618 8.375 6.86354 8.375 6.86529 8.375C6.86704 8.375 6.86879 8.375 6.87054 8.375C6.87229 8.375 6.87404 8.375 6.8758 8.375C6.87755 8.375 6.8793 8.375 6.88105 8.375C6.8828 8.375 6.88455 8.375 6.88631 8.375C6.88806 8.375 6.88981 8.375 6.89156 8.375C6.89332 8.375 6.89507 8.375 6.89682 8.375C6.89858 8.375 6.90033 8.375 6.90208 8.375C6.90384 8.375 6.90559 8.375 6.90735 8.375C6.9091 8.375 6.91086 8.375 6.91261 8.375C6.91437 8.375 6.91612 8.375 6.91788 8.375C6.91964 8.375 6.92139 8.375 6.92315 8.375C6.9249 8.375 6.92666 8.375 6.92842 8.375C6.93017 8.375 6.93193 8.375 6.93369 8.375C6.93544 8.375 6.9372 8.375 6.93896 8.375C6.94072 8.375 6.94248 8.375 6.94423 8.375C6.94599 8.375 6.94775 8.375 6.94951 8.375C6.95127 8.375 6.95302 8.375 6.95478 8.375C6.95654 8.375 6.9583 8.375 6.96006 8.375C6.96182 8.375 6.96358 8.375 6.96534 8.375C6.9671 8.375 6.96886 8.375 6.97062 8.375C6.97238 8.375 6.97414 8.375 6.9759 8.375C6.97766 8.375 6.97942 8.375 6.98118 8.375C6.98294 8.375 6.9847 8.375 6.98646 8.375C6.98822 8.375 6.98998 8.375 6.99174 8.375C6.9935 8.375 6.99526 8.375 6.99702 8.375C6.99878 8.375 7.00054 8.375 7.0023 8.375C7.00406 8.375 7.00583 8.375 7.00759 8.375C7.00935 8.375 7.01111 8.375 7.01287 8.375C7.01463 8.375 7.01639 8.375 7.01815 8.375C7.01991 8.375 7.02168 8.375 7.02344 8.375C7.0252 8.375 7.02696 8.375 7.02872 8.375C7.03048 8.375 7.03224 8.375 7.034 8.375C7.03577 8.375 7.03753 8.375 7.03929 8.375C7.04105 8.375 7.04281 8.375 7.04457 8.375C7.04633 8.375 7.04809 8.375 7.04985 8.375C7.05162 8.375 7.05338 8.375 7.05514 8.375C7.0569 8.375 7.05866 8.375 7.06042 8.375C7.06218 8.375 7.06394 8.375 7.0657 8.375C7.06746 8.375 7.06923 8.375 7.07099 8.375C7.07275 8.375 7.07451 8.375 7.07627 8.375C7.07803 8.375 7.07979 8.375 7.08155 8.375C7.08331 8.375 7.08507 8.375 7.08683 8.375C7.08859 8.375 7.09035 8.375 7.09211 8.375C7.09387 8.375 7.09563 8.375 7.09739 8.375C7.09915 8.375 7.10091 8.375 7.10267 8.375C7.10442 8.375 7.10618 8.375 7.10794 8.375C7.1097 8.375 7.11146 8.375 7.11322 8.375C7.11498 8.375 7.11674 8.375 7.11849 8.375C7.12025 8.375 7.12201 8.375 7.12377 8.375C7.12552 8.375 7.12728 8.375 7.12904 8.375C7.1308 8.375 7.13255 8.375 7.13431 8.375C7.13607 8.375 7.13782 8.375 7.13958 8.375C7.14134 8.375 7.14309 8.375 7.14485 8.375C7.14661 8.375 7.14836 8.375 7.15012 8.375C7.15187 8.375 7.15363 8.375 7.15538 8.375C7.15714 8.375 7.15889 8.375 7.16065 8.375C7.1624 8.375 7.16415 8.375 7.16591 8.375C7.16766 8.375 7.16942 8.375 7.17117 8.375C7.17292 8.375 7.17467 8.375 7.17643 8.375C7.17818 8.375 7.17993 8.375 7.18168 8.375C7.18344 8.375 7.18519 8.375 7.18694 8.375C7.18869 8.375 7.19044 8.375 7.19219 8.375C7.19394 8.375 7.19569 8.375 7.19744 8.375C7.19919 8.375 7.20094 8.375 7.20269 8.375C7.20444 8.375 7.20619 8.375 7.20793 8.375C7.20968 8.375 7.21143 8.375 7.21318 8.375C7.21493 8.375 7.21667 8.375 7.21842 8.375C7.22017 8.375 7.22191 8.375 7.22366 8.375C7.2254 8.375 7.22715 8.375 7.22889 8.375C7.23064 8.375 7.23238 8.375 7.23413 8.375C7.23587 8.375 7.23762 8.375 7.23936 8.375C7.2411 8.375 7.24284 8.375 7.24459 8.375C7.24633 8.375 7.24807 8.375 7.24981 8.375C7.25155 8.375 7.25329 8.375 7.25503 8.375C7.25677 8.375 7.25851 8.375 7.26025 8.375C7.26199 8.375 7.26373 8.375 7.26547 8.375C7.26721 8.375 7.26895 8.375 7.27068 8.375C7.27242 8.375 7.27416 8.375 7.27589 8.375C7.27763 8.375 7.27936 8.375 7.2811 8.375C7.28283 8.375 7.28457 8.375 7.2863 8.375C7.28804 8.375 7.28977 8.375 7.2915 8.375C7.29324 8.375 7.29497 8.375 7.2967 8.375C7.29843 8.375 7.30016 8.375 7.30189 8.375C7.30362 8.375 7.30535 8.375 7.30708 8.375C7.30881 8.375 7.31054 8.375 7.31227 8.375C7.31399 8.375 7.31572 8.375 7.31745 8.375C7.31918 8.375 7.3209 8.375 7.32263 8.375C7.32435 8.375 7.32608 8.375 7.3278 8.375C7.32952 8.375 7.33125 8.375 7.33297 8.375C7.33469 8.375 7.33642 8.375 7.33814 8.375C7.33986 8.375 7.34158 8.375 7.3433 8.375C7.34502 8.375 7.34674 8.375 7.34846 8.375C7.35018 8.375 7.35189 8.375 7.35361 8.375C7.35533 8.375 7.35704 8.375 7.35876 8.375C7.36048 8.375 7.36219 8.375 7.36391 8.375C7.36562 8.375 7.36733 8.375 7.36905 8.375C7.37076 8.375 7.37247 8.375 7.37418 8.375C7.37589 8.375 7.3776 8.375 7.37931 8.375C7.38102 8.375 7.38273 8.375 7.38444 8.375C7.38615 8.375 7.38786 8.375 7.38956 8.375C7.39127 8.375 7.39297 8.375 7.39468 8.375C7.39638 8.375 7.39809 8.375 7.39979 8.375C7.40149 8.375 7.4032 8.375 7.4049 8.375C7.4066 8.375 7.4083 8.375 7.41 8.375C7.4117 8.375 7.4134 8.375 7.4151 8.375C7.4168 8.375 7.41849 8.375 7.42019 8.375C7.42189 8.375 7.42358 8.375 7.42528 8.375C7.42697 8.375 7.42867 8.375 7.43036 8.375C7.43205 8.375 7.43374 8.375 7.43544 8.375C7.43713 8.375 7.43882 8.375 7.44051 8.375C7.4422 8.375 7.44388 8.375 7.44557 8.375C7.44726 8.375 7.44895 8.375 7.45063 8.375C7.45232 8.375 7.454 8.375 7.45569 8.375C7.45737 8.375 7.45905 8.375 7.46073 8.375C7.46242 8.375 7.4641 8.375 7.46578 8.375C7.46746 8.375 7.46913 8.375 7.47081 8.375C7.47249 8.375 7.47417 8.375 7.47584 8.375C7.47752 8.375 7.47919 8.375 7.48087 8.375C7.48254 8.375 7.48421 8.375 7.48589 8.375C7.48756 8.375 7.48923 8.375 7.4909 8.375C7.49257 8.375 7.49424 8.375 7.49591 8.375C7.49757 8.375 7.49924 8.375 7.50091 8.375C7.50257 8.375 7.50424 8.375 7.5059 8.375C7.50756 8.375 7.50923 8.375 7.51089 8.375C7.51255 8.375 7.51421 8.375 7.51587 8.375C7.51753 8.375 7.51918 8.375 7.52084 8.375C7.5225 8.375 7.52415 8.375 7.52581 8.375C7.52746 8.375 7.52912 8.375 7.53077 8.375C7.53242 8.375 7.53407 8.375 7.53572 8.375C7.53737 8.375 7.53902 8.375 7.54067 8.375C7.54232 8.375 7.54397 8.375 7.54561 8.375C7.54726 8.375 7.5489 8.375 7.55054 8.375C7.55219 8.375 7.55383 8.375 7.55547 8.375C7.55711 8.375 7.55875 8.375 7.56039 8.375C7.56203 8.375 7.56367 8.375 7.5653 8.375C7.56694 8.375 7.56857 8.375 7.57021 8.375C7.57184 8.375 7.57347 8.375 7.5751 8.375C7.57674 8.375 7.57837 8.375 7.57999 8.375C7.58162 8.375 7.58325 8.375 7.58488 8.375C7.5865 8.375 7.58813 8.375 7.58975 8.375C7.59138 8.375 7.593 8.375 7.59462 8.375C7.59624 8.375 7.59786 8.375 7.59948 8.375C7.6011 8.375 7.60271 8.375 7.60433 8.375C7.60595 8.375 7.60756 8.375 7.60917 8.375C7.61079 8.375 7.6124 8.375 7.61401 8.375C7.61562 8.375 7.61723 8.375 7.61884 8.375C7.62045 8.375 7.62205 8.375 7.62366 8.375C7.62526 8.375 7.62687 8.375 7.62847 8.375C7.63007 8.375 7.63168 8.375 7.63328 8.375C7.63487 8.375 7.63647 8.375 7.63807 8.375C7.63967 8.375 7.64126 8.375 7.64286 8.375C7.64445 8.375 7.64605 8.375 7.64764 8.375C7.64923 8.375 7.65082 8.375 7.65241 8.375C7.654 8.375 7.65558 8.375 7.65717 8.375C7.65875 8.375 7.66034 8.375 7.66192 8.375C7.66351 8.375 7.66509 8.375 7.66667 8.375V7.375ZM2.96875 10.4375H3V9.4375H2.96875V10.4375ZM4.66667 12.5H4.69792V11.5H4.66667V12.5ZM6 10.4375H6.03125V9.4375H6V10.4375ZM7.66667 12.5H7.69792V11.5H7.66667V12.5ZM8.96875 10.4375H9V9.4375H8.96875V10.4375Z" fill="white"/>
</svg>
