<svg width="33" height="32" viewBox="0 0 33 32" fill="none" xmlns="http://www.w3.org/2000/svg">
<path d="M17.0545 1.02128C17.0545 0.457241 16.5972 0 16.0332 0C15.4692 0 15.0119 0.457241 15.0119 1.02128V3.74468C15.0119 4.30872 15.4692 4.76596 16.0332 4.76596C16.5972 4.76596 17.0545 4.30872 17.0545 3.74468V1.02128Z" fill="url(#paint0_linear_5904_3585)"/>
<path d="M6.1638 4.68629C5.76496 4.28746 5.11833 4.28746 4.71949 4.68629C4.32066 5.08512 4.32066 5.73176 4.71949 6.13059L6.64523 8.05633C7.04407 8.45516 7.6907 8.45516 8.08954 8.05633C8.48837 7.6575 8.48837 7.01086 8.08954 6.61203L6.1638 4.68629Z" fill="url(#paint1_linear_5904_3585)"/>
<path d="M27.3469 6.13059C27.7457 5.73176 27.7457 5.08512 27.3469 4.68629C26.9481 4.28746 26.3014 4.28746 25.9026 4.68629L23.9769 6.61203C23.578 7.01086 23.578 7.6575 23.9769 8.05633C24.3757 8.45516 25.0223 8.45517 25.4212 8.05633L27.3469 6.13059Z" fill="url(#paint2_linear_5904_3585)"/>
<path d="M16.0332 6.80851C10.9569 6.80851 6.84171 10.9237 6.84171 16C6.84171 21.0763 10.9569 25.1915 16.0332 25.1915C21.1095 25.1915 25.2247 21.0763 25.2247 16C25.2247 10.9237 21.1095 6.80851 16.0332 6.80851Z" fill="url(#paint3_linear_5904_3585)"/>
<path d="M1.05448 14.9787C0.490444 14.9787 0.0332031 15.436 0.0332031 16C0.0332031 16.564 0.490444 17.0213 1.05448 17.0213H3.77788C4.34192 17.0213 4.79916 16.564 4.79916 16C4.79916 15.436 4.34192 14.9787 3.77788 14.9787H1.05448Z" fill="url(#paint4_linear_5904_3585)"/>
<path d="M28.2885 14.9787C27.7245 14.9787 27.2672 15.436 27.2672 16C27.2672 16.564 27.7245 17.0213 28.2885 17.0213H31.0119C31.576 17.0213 32.0332 16.564 32.0332 16C32.0332 15.436 31.576 14.9787 31.0119 14.9787H28.2885Z" fill="url(#paint5_linear_5904_3585)"/>
<path d="M8.08954 25.388C8.48837 24.9891 8.48837 24.3425 8.08954 23.9437C7.6907 23.5448 7.04407 23.5448 6.64523 23.9437L4.71949 25.8694C4.32066 26.2682 4.32066 26.9149 4.71949 27.3137C5.11833 27.7125 5.76496 27.7125 6.1638 27.3137L8.08954 25.388Z" fill="url(#paint6_linear_5904_3585)"/>
<path d="M25.4212 23.9437C25.0223 23.5448 24.3757 23.5448 23.9769 23.9437C23.578 24.3425 23.578 24.9891 23.9769 25.388L25.9026 27.3137C26.3014 27.7125 26.9481 27.7125 27.3469 27.3137C27.7457 26.9149 27.7457 26.2682 27.3469 25.8694L25.4212 23.9437Z" fill="url(#paint7_linear_5904_3585)"/>
<path d="M17.0545 28.2553C17.0545 27.6913 16.5972 27.234 16.0332 27.234C15.4692 27.234 15.0119 27.6913 15.0119 28.2553V30.9787C15.0119 31.5428 15.4692 32 16.0332 32C16.5972 32 17.0545 31.5428 17.0545 30.9787V28.2553Z" fill="url(#paint8_linear_5904_3585)"/>
<defs>
<linearGradient id="paint0_linear_5904_3585" x1="0.0332033" y1="32" x2="32.7151" y2="0.71224" gradientUnits="userSpaceOnUse">
<stop stop-color="white"/>
<stop offset="1" stop-color="#FFECD6"/>
</linearGradient>
<linearGradient id="paint1_linear_5904_3585" x1="0.0332033" y1="32" x2="32.7151" y2="0.71224" gradientUnits="userSpaceOnUse">
<stop stop-color="white"/>
<stop offset="1" stop-color="#FFECD6"/>
</linearGradient>
<linearGradient id="paint2_linear_5904_3585" x1="0.0332033" y1="32" x2="32.7151" y2="0.71224" gradientUnits="userSpaceOnUse">
<stop stop-color="white"/>
<stop offset="1" stop-color="#FFECD6"/>
</linearGradient>
<linearGradient id="paint3_linear_5904_3585" x1="0.0332033" y1="32" x2="32.7151" y2="0.71224" gradientUnits="userSpaceOnUse">
<stop stop-color="white"/>
<stop offset="1" stop-color="#FFECD6"/>
</linearGradient>
<linearGradient id="paint4_linear_5904_3585" x1="0.0332033" y1="32" x2="32.7151" y2="0.71224" gradientUnits="userSpaceOnUse">
<stop stop-color="white"/>
<stop offset="1" stop-color="#FFECD6"/>
</linearGradient>
<linearGradient id="paint5_linear_5904_3585" x1="0.0332033" y1="32" x2="32.7151" y2="0.71224" gradientUnits="userSpaceOnUse">
<stop stop-color="white"/>
<stop offset="1" stop-color="#FFECD6"/>
</linearGradient>
<linearGradient id="paint6_linear_5904_3585" x1="0.0332033" y1="32" x2="32.7151" y2="0.71224" gradientUnits="userSpaceOnUse">
<stop stop-color="white"/>
<stop offset="1" stop-color="#FFECD6"/>
</linearGradient>
<linearGradient id="paint7_linear_5904_3585" x1="0.0332033" y1="32" x2="32.7151" y2="0.71224" gradientUnits="userSpaceOnUse">
<stop stop-color="white"/>
<stop offset="1" stop-color="#FFECD6"/>
</linearGradient>
<linearGradient id="paint8_linear_5904_3585" x1="0.0332033" y1="32" x2="32.7151" y2="0.71224" gradientUnits="userSpaceOnUse">
<stop stop-color="white"/>
<stop offset="1" stop-color="#FFECD6"/>
</linearGradient>
</defs>
</svg>
