<svg width="39" height="39" viewBox="0 0 39 39" fill="none" xmlns="http://www.w3.org/2000/svg">
<rect x="3" y="3" width="33" height="33" rx="6" fill="#26354D" stroke="#132033" stroke-width="5"/>
<g clip-path="url(#clip0)">
<path d="M11.6023 17.7219C11.7064 17.7635 11.8271 17.7635 11.9312 17.7136L15.1827 16.2356C15.3909 16.1357 15.4783 15.8859 15.3784 15.6777C15.2826 15.4779 15.0453 15.3863 14.8413 15.4779L12.564 16.5145C13.6506 13.263 16.6773 11.0898 20.1619 11.0898C23.8131 11.0898 27.0063 13.5295 27.9264 17.0224C27.9846 17.2431 28.2136 17.3763 28.4343 17.318C28.6549 17.2598 28.7882 17.0308 28.7298 16.8101C27.714 12.955 24.1919 10.2572 20.1619 10.2572C16.3193 10.2572 12.9761 12.6552 11.7688 16.2439L10.8113 13.8501C10.7405 13.6336 10.5032 13.5129 10.2867 13.5836C10.0702 13.6544 9.9495 13.8917 10.0203 14.1082C10.0244 14.1249 10.0328 14.1415 10.0411 14.1582L11.3692 17.4887C11.4108 17.5928 11.494 17.6803 11.6023 17.7219Z" fill="white" fill-opacity="0.7"/>
<path d="M29.9747 23.8668C29.9705 23.8585 29.9664 23.8501 29.9664 23.8418L28.6383 20.5113C28.5967 20.4072 28.5134 20.3197 28.4052 20.2781C28.3011 20.2365 28.1804 20.2407 28.0763 20.2864L24.8248 21.7644C24.6124 21.8518 24.5125 22.0974 24.6 22.3098C24.6874 22.5221 24.933 22.622 25.1453 22.5346C25.1536 22.5304 25.162 22.5263 25.1703 22.5221L27.4476 21.4854C26.3527 24.7369 23.3218 26.9102 19.8414 26.9102C16.1902 26.9102 12.997 24.4705 12.0769 20.9775C12.0187 20.7569 11.7897 20.6237 11.569 20.682C11.3484 20.7402 11.2152 20.9692 11.2735 21.1899C12.2851 25.0492 15.8114 27.7428 19.8414 27.7428C23.6841 27.7428 27.023 25.3448 28.2345 21.756L29.192 24.1499C29.2712 24.3664 29.5085 24.4788 29.7249 24.3997C29.9414 24.3206 30.0538 24.0833 29.9747 23.8668Z" fill="white" fill-opacity="0.7"/>
</g>
<defs>
<clipPath id="clip0">
<rect width="20" height="20" fill="white" transform="translate(10 9)"/>
</clipPath>
</defs>
</svg>
