<svg width="59" height="59" viewBox="0 0 59 59" fill="none" xmlns="http://www.w3.org/2000/svg">
<path d="M59 29.5C59 43.9453 48.6171 55.9658 34.9063 58.5051C33.1544 58.8303 31.3471 59 29.5 59C27.4699 59 25.488 58.7953 23.5735 58.404C10.1215 55.6611 0 43.7623 0 29.5C0 21.6362 3.07768 14.4888 8.09498 9.20158C8.38514 8.8946 8.68256 8.59476 8.98598 8.30091C14.2948 3.16192 21.5277 0 29.5 0C37.4723 0 44.7052 3.16192 50.0139 8.30091C50.1392 8.42133 50.2632 8.54417 50.386 8.66689C55.7093 14.0022 59 21.3677 59 29.5Z" fill="#1A2B44"/>
<path d="M34.668 25.2551V20.0683H48.0335V12H11.5184V20.0682H24.8829V25.2751C14.0874 25.7795 6 27.8466 6 30.3205C6 32.7942 14.0874 34.8614 24.8829 35.3659V51.5298C26.5359 51.8385 28.2472 52 30 52C31.5948 52 33.1553 51.8661 34.668 51.6096V35.3858C45.6881 34.9184 54 32.8284 54 30.3205C54 27.8125 45.6881 25.7225 34.668 25.2551ZM30 33.5086C17.9579 33.5086 8.19578 31.8509 8.19578 29.8056C8.19578 28.0596 15.31 26.5956 24.883 26.2051V32.1359C26.5059 32.3496 28.1412 32.457 29.7755 32.457C31.4109 32.457 33.0462 32.3496 34.6681 32.1359V26.187C44.4667 26.5509 51.8033 28.0319 51.8033 29.8055C51.8032 31.8509 42.041 33.5086 30 33.5086Z" fill="#ECF4FF"/>
</svg>
