<svg width="9" height="4" viewBox="0 0 9 4" fill="none" xmlns="http://www.w3.org/2000/svg">
<path d="M8.86719 0.929688C8.86719 1.7526 8.6224 2.44792 8.13281 3.01562C7.64844 3.57812 7.04948 3.85938 6.33594 3.85938C5.96094 3.85938 5.60677 3.79167 5.27344 3.65625C4.9401 3.51562 4.55208 3.2526 4.10938 2.86719C3.67188 2.48177 3.35677 2.24219 3.16406 2.14844C2.97135 2.05469 2.76562 2.00781 2.54688 2.00781C2.14062 2.00781 1.82812 2.14844 1.60938 2.42969C1.39062 2.70573 1.28125 3.08854 1.28125 3.57812L0.0234375 3.59375C0.0234375 2.76042 0.263021 2.07552 0.742188 1.53906C1.22135 1.0026 1.82292 0.734375 2.54688 0.734375C2.94271 0.734375 3.32292 0.817708 3.6875 0.984375C4.05208 1.15104 4.46354 1.44531 4.92188 1.86719C5.38021 2.28385 5.77604 2.51823 6.10938 2.57031L6.33594 2.58594C6.73177 2.58594 7.05208 2.4349 7.29688 2.13281C7.54688 1.83073 7.67188 1.43229 7.67188 0.9375L8.86719 0.929688Z" fill="#6C7B92"/>
</svg>
