<svg width="48" height="40" viewBox="0 0 48 40" fill="none" xmlns="http://www.w3.org/2000/svg">
<path d="M28.668 13.2551V8.06828H42.0335V0H5.51836V8.06819H18.8829V13.2751C8.08736 13.7795 0 15.8466 0 18.3205C0 20.7942 8.08736 22.8614 18.8829 23.3659V39.5298C20.5359 39.8385 22.2472 40 24 40C25.5948 40 27.1553 39.8661 28.668 39.6096V23.3858C39.6881 22.9184 48 20.8284 48 18.3205C48 15.8125 39.6881 13.7225 28.668 13.2551ZM24 21.5086C11.9579 21.5086 2.19578 19.8509 2.19578 17.8056C2.19578 16.0596 9.30997 14.5956 18.883 14.2051V20.1359C20.5059 20.3496 22.1412 20.457 23.7755 20.457C25.4109 20.457 27.0462 20.3496 28.6681 20.1359V14.187C38.4667 14.5509 45.8033 16.0319 45.8033 17.8055C45.8032 19.8509 36.041 21.5086 24 21.5086Z" fill="#F0EFEB"/>
</svg>
