<svg width="103" height="21" viewBox="0 0 103 21" fill="none" xmlns="http://www.w3.org/2000/svg">
<path d="M31.9036 5.53461C34.1344 5.53461 35.7144 6.80969 35.7144 8.79481C35.7416 9.19067 35.6684 9.58696 35.5016 9.94785C35.3347 10.3087 35.0795 10.6228 34.7589 10.8617C35.8875 11.4379 36.5646 12.4268 36.5646 13.9249C36.5646 16.0178 34.8454 17.713 32.5055 17.713H23.9735V5.53461H31.9036ZM26.7686 10.226H32.0052C32.288 10.2097 32.5527 10.0831 32.7411 9.87396C32.9295 9.66481 33.0261 9.3903 33.0096 9.11079C33.0096 8.58292 32.72 7.99556 31.7832 7.99556H26.7686V10.226ZM26.7686 15.2223H32.4115C33.303 15.2223 33.8372 14.6721 33.8372 13.9249C33.8452 13.7484 33.8152 13.5723 33.7492 13.4081C33.6832 13.2439 33.5827 13.0955 33.4543 12.9725C33.326 12.8496 33.1727 12.7549 33.0046 12.6948C32.8365 12.6347 32.6574 12.6105 32.4792 12.6238H26.7686V15.2223Z" fill="#304B57"/>
<path d="M49.5998 5.53461V8.02158H41.1994V10.2521H48.7534V12.7427H41.1994V15.1665H49.912V17.6981H38.4307V5.53461H49.5998Z" fill="#304B57"/>
<path d="M59.2528 5.53461C62.1495 5.53461 64.3352 7.4491 64.3352 10.3115C64.3625 11.1401 64.1534 11.9595 63.7316 12.676C63.3098 13.3926 62.6924 13.9774 61.9501 14.3636L63.8311 17.7093H60.799L59.3506 14.9992H54.7611V17.7093H51.9735V5.53461H59.2528ZM54.7724 12.4937H59.14C60.5657 12.4937 61.5476 11.7242 61.5476 10.3115C61.5476 8.8989 60.5657 8.04389 59.14 8.04389H54.7724V12.4937Z" fill="#304B57"/>
<path d="M68.9471 5.53461V17.713H66.1633V5.53461H68.9471Z" fill="#304B57"/>
<path d="M79.1082 5.53461C81.339 5.53461 82.919 6.80969 82.919 8.79481C82.9462 9.19067 82.873 9.58696 82.7062 9.94785C82.5393 10.3087 82.2841 10.6228 81.9635 10.8617C83.0921 11.4379 83.7692 12.4268 83.7692 13.9249C83.7692 16.0178 82.05 17.713 79.7101 17.713H71.1781V5.53461H79.1082ZM73.9619 10.226H79.1985C79.4813 10.2097 79.7461 10.0831 79.9344 9.87396C80.1228 9.66481 80.2194 9.3903 80.2029 9.11079C80.2029 8.58292 79.9133 7.99556 78.9765 7.99556H73.9619V10.226ZM73.9619 15.2223H79.6236C80.5152 15.2223 81.0494 14.6721 81.0494 13.9249C81.0573 13.7484 81.0273 13.5723 80.9613 13.4081C80.8953 13.2439 80.7948 13.0955 80.6665 12.9725C80.5381 12.8496 80.3848 12.7549 80.2167 12.6948C80.0486 12.6347 79.8696 12.6105 79.6913 12.6238H73.9619V15.2223Z" fill="#304B57"/>
<path d="M88.4038 5.53461V17.713H85.62V5.53461H88.4038Z" fill="#304B57"/>
<path d="M103 5.53461V7.99928H97.9854V17.713H95.2016V7.99928H90.187V5.53461H103Z" fill="#304B57"/>
<path d="M10.2203 17.8743H7.86719V20.339C7.86719 20.704 8.1619 21 8.52542 21H9.56201C9.92552 21 10.2203 20.704 10.2203 20.339V17.8743H10.2203Z" fill="url(#paint0_linear_5621_173481)"/>
<path d="M9.04376 17.8743H7.86719V19.4388C7.95062 19.3418 8.07176 19.2179 8.22542 19.1069C8.56693 18.8602 9.04376 19.1086 9.04376 19.5311V21H9.56201C9.92552 21 10.2203 20.704 10.2203 20.339V19.4015V17.8743H9.04376V17.8743Z" fill="#845E5A"/>
<path d="M18.0003 16.9689C17.9683 16.8926 17.9197 16.8244 17.861 16.766C17.382 16.2898 14.6382 13.5185 13.8542 11.7661H9.03134H4.20858C3.42448 13.5186 0.680627 16.2898 0.201664 16.766C0.143076 16.8244 0.0943465 16.8925 0.0623851 16.9689C-0.00992188 17.1416 -0.0113954 17.2963 0.0177713 17.4249C0.0737673 17.6719 0.276206 17.8568 0.522497 17.9116C1.18937 18.0599 1.61427 17.6672 2.16869 17.6672C3.07285 17.6672 2.76203 18.8254 3.6662 18.8254C4.57047 18.8254 4.5098 18.1529 5.41401 18.1529C6.31823 18.1529 6.31838 19.0724 7.2227 19.0724C8.12712 19.0724 8.12702 18.2507 9.03139 18.2507C9.93581 18.2507 9.93571 19.0724 10.8401 19.0724C11.7444 19.0724 11.7445 18.1529 12.6488 18.1529C13.5531 18.1529 13.4924 18.8254 14.3966 18.8254C15.3008 18.8254 14.99 17.6672 15.8941 17.6672C16.4486 17.6672 16.8734 18.0599 17.5403 17.9116C17.7866 17.8568 17.9891 17.6719 18.045 17.4249C18.0741 17.2963 18.0726 17.1416 18.0003 16.9689Z" fill="url(#paint1_linear_5621_173481)"/>
<path d="M18.0005 16.9697C17.9686 16.8932 17.92 16.8249 17.8613 16.7665C17.5083 16.4156 15.9187 14.8112 14.7956 13.2901C14.7468 13.224 14.699 13.1581 14.6521 13.0924C14.6508 13.0907 14.6496 13.089 14.6484 13.0872C14.6034 13.0244 14.5597 12.9617 14.5167 12.8993C14.5135 12.8947 14.5102 12.89 14.5071 12.8854C14.4669 12.8268 14.4279 12.7687 14.3897 12.7108C14.3843 12.7026 14.3786 12.6944 14.3733 12.6862C14.3379 12.6322 14.3038 12.5788 14.2703 12.5255C14.2631 12.5141 14.2556 12.5026 14.2486 12.4913C14.2177 12.4417 14.1883 12.3928 14.1593 12.3441C14.1508 12.3298 14.1417 12.3152 14.1334 12.301C14.1066 12.2552 14.0814 12.2102 14.0563 12.1653C14.0473 12.1491 14.0376 12.1325 14.0288 12.1163C14.0046 12.0719 13.9822 12.0283 13.9599 11.9848C13.952 11.9693 13.9432 11.9534 13.9355 11.938C13.9065 11.8797 13.8792 11.8224 13.854 11.7662H11.3388H9.03123H4.20846C4.00353 12.2243 3.6641 12.752 3.26685 13.29C3.58494 13.212 3.86842 13.0585 4.25826 13.1695C4.90821 13.3543 4.69413 14.0049 5.48707 14.1703C6.15846 14.3104 6.55607 13.6918 7.31461 13.7792C8.2108 13.8824 8.064 14.5602 9.03128 14.5602C9.99856 14.5602 9.85176 13.8825 10.7479 13.7792C10.7702 13.7766 10.7921 13.7747 10.8137 13.7733C11.3605 13.7382 11.8438 14.1304 11.9557 14.6691C12.1087 15.4059 12.2626 16.1604 12.4159 16.9281C12.4857 17.2775 12.4826 17.64 12.3887 17.9836C12.3679 18.0601 12.343 18.1341 12.3134 18.2038C12.4105 18.172 12.5203 18.153 12.6488 18.153C12.6867 18.153 12.7222 18.1547 12.7569 18.157C12.7686 18.1577 12.7802 18.1586 12.7916 18.1597C12.8192 18.1622 12.8459 18.1651 12.8715 18.169C12.8805 18.1703 12.8895 18.1718 12.8983 18.1732C12.9237 18.1776 12.948 18.1826 12.9716 18.1882C12.9812 18.1905 12.9908 18.1928 13.0002 18.1953C13.0257 18.2021 13.0505 18.2092 13.0741 18.2174C13.0806 18.2196 13.0866 18.2221 13.093 18.2244C13.1122 18.2315 13.1309 18.2389 13.1491 18.2467C13.1565 18.2499 13.164 18.253 13.1712 18.2564C13.1927 18.2662 13.2135 18.2766 13.2336 18.2873C13.2395 18.2905 13.2452 18.2939 13.2511 18.2972C13.2675 18.3064 13.2836 18.3159 13.2992 18.3257C13.3046 18.329 13.3101 18.3324 13.3154 18.3358C13.3343 18.3479 13.3527 18.3604 13.3707 18.3732C13.6476 18.5693 13.8382 18.8255 14.3965 18.8255C15.3007 18.8255 14.9899 17.6673 15.894 17.6673C16.4485 17.6673 16.8734 18.06 17.5402 17.9117C17.7865 17.8569 17.989 17.672 18.045 17.425C18.0739 17.2966 18.0725 17.1421 18.0005 16.9697Z" fill="#16606E"/>
<path d="M3.99361 18.115C4.58086 18.115 5.05692 17.637 5.05692 17.0473C5.05692 16.4575 4.58086 15.9795 3.99361 15.9795C3.40636 15.9795 2.9303 16.4575 2.9303 17.0473C2.9303 17.637 3.40636 18.115 3.99361 18.115Z" fill="#16606E"/>
<path d="M3.84843 17.6515C4.39776 17.6515 4.84309 17.2043 4.84309 16.6526C4.84309 16.101 4.39776 15.6538 3.84843 15.6538C3.29909 15.6538 2.85376 16.101 2.85376 16.6526C2.85376 17.2043 3.29909 17.6515 3.84843 17.6515Z" fill="url(#paint2_radial_5621_173481)"/>
<path d="M3.60669 16.7746C3.80726 16.7746 3.96985 16.6113 3.96985 16.4099C3.96985 16.2085 3.80726 16.0452 3.60669 16.0452C3.40612 16.0452 3.24353 16.2085 3.24353 16.4099C3.24353 16.6113 3.40612 16.7746 3.60669 16.7746Z" fill="#FFB6B6"/>
<path d="M13.8194 15.3799C14.3688 15.3799 14.8141 14.9327 14.8141 14.3811C14.8141 13.8295 14.3688 13.3823 13.8194 13.3823C13.2701 13.3823 12.8248 13.8295 12.8248 14.3811C12.8248 14.9327 13.2701 15.3799 13.8194 15.3799Z" fill="url(#paint3_radial_5621_173481)"/>
<path d="M13.5776 14.503C13.7782 14.503 13.9408 14.3397 13.9408 14.1383C13.9408 13.9369 13.7782 13.7736 13.5776 13.7736C13.3771 13.7736 13.2145 13.9369 13.2145 14.1383C13.2145 14.3397 13.3771 14.503 13.5776 14.503Z" fill="#FFB6B6"/>
<path d="M12.4432 19.608C12.9408 19.608 13.3441 19.203 13.3441 18.7034C13.3441 18.2038 12.9408 17.7988 12.4432 17.7988C11.9457 17.7988 11.5424 18.2038 11.5424 18.7034C11.5424 19.203 11.9457 19.608 12.4432 19.608Z" fill="url(#paint4_radial_5621_173481)"/>
<path d="M12.2242 18.8139C12.4059 18.8139 12.5532 18.666 12.5532 18.4836C12.5532 18.3011 12.4059 18.1532 12.2242 18.1532C12.0425 18.1532 11.8953 18.3011 11.8953 18.4836C11.8953 18.666 12.0425 18.8139 12.2242 18.8139Z" fill="#FFB6B6"/>
<path d="M12.8333 16.54C10.2698 16.54 8.13921 16.1101 6.60451 15.6562C4.56025 15.0517 3.21548 14.3179 2.71558 14.0194C2.59632 13.9482 2.56121 13.7911 2.63804 13.6751C2.70979 13.5668 2.85308 13.5332 2.96477 13.5991C3.44515 13.8828 4.78575 14.6122 6.76162 15.1943C9.03845 15.8651 12.6595 16.4814 17.0667 15.6556C17.1979 15.631 17.3247 15.7162 17.3505 15.8477V15.8478C17.3766 15.9805 17.2902 16.1099 17.1578 16.1347C15.6147 16.4238 14.1655 16.54 12.8333 16.54Z" fill="white"/>
<path d="M15.2632 11.6261C14.6661 10.984 12.4088 8.48974 12.0507 7.09933H9.03138H6.01201C5.65399 8.48974 3.39667 10.984 2.79956 11.6261C2.64895 11.788 2.59128 12.0215 2.66704 12.2296C2.75449 12.4699 2.9579 12.5592 2.9579 12.5592C3.62777 12.855 3.95912 12.3009 4.56862 12.4864C5.17629 12.6713 4.97619 13.3219 5.71755 13.4873C6.3453 13.6274 6.71705 13.0087 7.42629 13.0961C8.2642 13.1994 8.127 13.8772 9.03138 13.8772C9.9358 13.8772 9.79855 13.1994 10.6365 13.0961C11.3458 13.0087 11.7175 13.6274 12.3452 13.4873C13.0866 13.3219 12.8865 12.6713 13.4941 12.4864C14.1037 12.3009 14.435 12.855 15.1049 12.5592C15.1049 12.5592 15.3083 12.4699 15.3957 12.2296C15.4715 12.0215 15.4138 11.788 15.2632 11.6261Z" fill="url(#paint5_linear_5621_173481)"/>
<path d="M15.2629 11.6257C14.841 11.1721 13.5927 9.79589 12.7689 8.53652C12.7062 8.44075 12.6461 8.34563 12.5888 8.25164C12.5825 8.24139 12.5765 8.23118 12.5703 8.22093C12.5424 8.17465 12.5152 8.12867 12.4888 8.08305C12.4781 8.06453 12.4676 8.04606 12.4571 8.02769C12.4415 8.00014 12.4262 7.97269 12.4113 7.94549C12.3938 7.9136 12.3767 7.88196 12.3601 7.85053C12.3501 7.8315 12.3403 7.81257 12.3306 7.79374C12.311 7.75567 12.2919 7.71781 12.2739 7.68046C12.2675 7.66719 12.2615 7.65408 12.2553 7.64097C12.2388 7.60611 12.2229 7.57157 12.2079 7.53748C12.2039 7.52856 12.1998 7.51947 12.1959 7.51059C12.1781 7.46947 12.1617 7.42911 12.1462 7.3892C12.1424 7.37951 12.1386 7.36986 12.1349 7.36027C12.1197 7.32011 12.1056 7.28057 12.0929 7.24174C12.0904 7.23439 12.0882 7.2272 12.0859 7.21985C12.0728 7.17898 12.0608 7.13861 12.0507 7.09943H10.291H9.03132H6.01196C5.90673 7.50809 5.63681 8.01228 5.29382 8.53668C5.68915 8.44207 5.92116 8.1151 6.34875 8.23384C7.09957 8.44233 6.83051 9.09771 7.56461 9.22058C8.12258 9.31395 8.35511 8.53132 9.03132 8.56428C9.8956 8.56428 10.6988 9.21292 11.088 10.6197C11.2572 11.2311 11.3771 11.8388 11.5034 12.4797C11.5679 12.8065 11.317 13.1146 10.9853 13.1077L10.9798 13.1075C11.2433 13.157 11.4632 13.2901 11.6873 13.3893C11.6873 13.3894 11.6873 13.3896 11.6873 13.3897C11.6913 13.3914 11.6953 13.3929 11.6993 13.3947C11.7121 13.4003 11.725 13.4057 11.7379 13.4111C11.752 13.4169 11.7661 13.4227 11.7803 13.4281C11.7912 13.4324 11.8023 13.4364 11.8132 13.4404C11.8291 13.4461 11.845 13.4517 11.861 13.4568C11.8708 13.46 11.8808 13.463 11.8907 13.4659C11.9078 13.471 11.925 13.4757 11.9423 13.4799C11.9517 13.4822 11.961 13.4843 11.9705 13.4863C11.9884 13.4903 12.0066 13.4937 12.025 13.4966C12.0341 13.498 12.0432 13.4993 12.0524 13.5004C12.0712 13.5027 12.0903 13.5045 12.1095 13.5057C12.1187 13.5062 12.1279 13.5067 12.1372 13.5068C12.1567 13.5074 12.1764 13.5071 12.1963 13.5063C12.2058 13.5058 12.2154 13.5052 12.2251 13.5045C12.245 13.5029 12.2653 13.5005 12.2858 13.4974C12.2912 13.4966 12.2966 13.4964 12.3021 13.4955L12.3016 13.4947C12.3161 13.4922 12.3303 13.4907 12.3451 13.4873C13.0865 13.3219 12.8864 12.6713 13.494 12.4864C14.1036 12.301 14.4349 12.855 15.1048 12.5593C15.1048 12.5593 15.3082 12.4699 15.3956 12.2296C15.4715 12.0214 15.4135 11.7877 15.2629 11.6257Z" fill="#16606E"/>
<path d="M6.27366 10.7638C6.7424 10.7638 7.12239 10.3822 7.12239 9.91152C7.12239 9.44082 6.7424 9.05923 6.27366 9.05923C5.80492 9.05923 5.42493 9.44082 5.42493 9.91152C5.42493 10.3822 5.80492 10.7638 6.27366 10.7638Z" fill="#16606E"/>
<path d="M5.48388 11.6123C4.73652 11.6123 3.94577 11.541 3.12051 11.3722C2.98682 11.3449 2.90105 11.2128 2.93103 11.0791C2.95999 10.9501 3.08642 10.8675 3.21548 10.8939C6.14917 11.4944 8.63179 10.81 10.2137 10.1182C11.5679 9.52598 12.5071 8.82973 12.8769 8.53235C12.9771 8.45173 13.1222 8.46398 13.2083 8.5597L13.2088 8.56031C13.3024 8.66441 13.2898 8.8256 13.1811 8.91352C12.7897 9.23003 11.8308 9.94047 10.4248 10.5578C9.21929 11.0871 7.51162 11.6123 5.48388 11.6123Z" fill="white"/>
<path d="M6.05502 10.4488C6.53569 10.4488 6.92534 10.0575 6.92534 9.57481C6.92534 9.09213 6.53569 8.70084 6.05502 8.70084C5.57435 8.70084 5.18469 9.09213 5.18469 9.57481C5.18469 10.0575 5.57435 10.4488 6.05502 10.4488Z" fill="url(#paint6_radial_5621_173481)"/>
<path d="M5.84342 9.68145C6.01893 9.68145 6.1612 9.53857 6.1612 9.36233C6.1612 9.18609 6.01893 9.04321 5.84342 9.04321C5.66791 9.04321 5.52563 9.18609 5.52563 9.36233C5.52563 9.53857 5.66791 9.68145 5.84342 9.68145Z" fill="#FFB6B6"/>
<path d="M13.4438 7.13242C12.8514 6.66482 10.2023 4.47754 9.03134 1.87537C7.86035 4.47754 5.21132 6.66482 4.61889 7.13242C4.42305 7.28703 4.39897 7.5816 4.57554 7.7581C4.6009 7.78341 4.61965 7.79647 4.61965 7.79647C5.51858 8.17003 5.72682 7.39975 6.34872 7.57242C7.09953 7.78091 6.83047 8.43629 7.56457 8.55916C8.12255 8.65254 8.35507 7.8699 9.03129 7.90281C9.70756 7.86985 9.94008 8.65254 10.4981 8.55916C11.2321 8.43629 10.963 7.78091 11.7139 7.57242C12.3358 7.39975 12.544 8.17003 13.443 7.79647C13.443 7.79647 13.4617 7.78341 13.487 7.7581C13.6638 7.5816 13.6397 7.28703 13.4438 7.13242Z" fill="url(#paint7_linear_5621_173481)"/>
<path d="M13.4438 7.13242C12.8514 6.66482 10.2024 4.47754 9.03137 1.87537C9.03137 1.87537 9.61857 4.17057 10.4374 7.733C10.5133 8.06334 10.2399 8.37388 9.90505 8.33041L9.89967 8.32964C10.0797 8.47823 10.2591 8.59911 10.4981 8.55911C10.5423 8.55171 10.5824 8.54212 10.6198 8.53104C10.6198 8.53109 10.6198 8.5312 10.6199 8.5313C10.6216 8.53079 10.6232 8.53018 10.625 8.52961C10.6355 8.52645 10.6454 8.52298 10.6555 8.51951C10.664 8.5166 10.6725 8.51369 10.6807 8.51058C10.6904 8.50686 10.6999 8.50298 10.7092 8.49895C10.7166 8.49573 10.7241 8.49242 10.7314 8.489C10.7404 8.48476 10.7494 8.48043 10.7579 8.47588C10.7646 8.47247 10.7709 8.46884 10.7772 8.46527C10.7857 8.46042 10.7943 8.45558 10.8024 8.45047C10.8077 8.44716 10.8127 8.44358 10.8179 8.44017C10.8493 8.41904 10.8776 8.39618 10.9032 8.37174C10.9052 8.36975 10.9074 8.36791 10.9094 8.36597C10.9171 8.35837 10.9245 8.35051 10.9318 8.3426C10.9345 8.33964 10.9373 8.33674 10.94 8.33373C10.9472 8.32577 10.954 8.31765 10.9607 8.30944C10.9631 8.30658 10.9656 8.30367 10.9679 8.30076C10.9748 8.29214 10.9816 8.28336 10.9881 8.27448C10.9897 8.27234 10.9913 8.27025 10.9929 8.26811C11.044 8.19789 11.0857 8.12151 11.1305 8.04497L11.1304 8.04487C11.2407 7.85638 11.3708 7.66768 11.714 7.57237C12.3359 7.39969 12.5441 8.16998 13.4431 7.79642C13.4431 7.79642 13.4619 7.78336 13.4872 7.75805C13.6638 7.5816 13.6398 7.28703 13.4438 7.13242Z" fill="#16606E"/>
<path d="M11.3957 6.20323C8.99921 6.20323 7.50602 5.32334 6.97812 4.94799C6.86054 4.86436 6.84077 4.69745 6.93554 4.58846L6.92532 4.60025L6.93666 4.58714C7.01811 4.49309 7.15657 4.47585 7.25851 4.54703C7.78132 4.91227 9.47146 5.90146 12.1816 5.68312C12.3127 5.67256 12.4283 5.76925 12.442 5.90065V5.90075C12.4561 6.03714 12.3552 6.15843 12.219 6.1695C11.9337 6.19262 11.6591 6.20323 11.3957 6.20323Z" fill="white"/>
<path d="M10.6649 8.80746C11.1455 8.80746 11.5352 8.41616 11.5352 7.93348C11.5352 7.4508 11.1455 7.05951 10.6649 7.05951C10.1842 7.05951 9.79456 7.4508 9.79456 7.93348C9.79456 8.41616 10.1842 8.80746 10.6649 8.80746Z" fill="url(#paint8_radial_5621_173481)"/>
<path d="M10.4533 8.04018C10.6288 8.04018 10.7711 7.89731 10.7711 7.72106C10.7711 7.54482 10.6288 7.40195 10.4533 7.40195C10.2778 7.40195 10.1355 7.54482 10.1355 7.72106C10.1355 7.89731 10.2778 8.04018 10.4533 8.04018Z" fill="#FFB6B6"/>
<path d="M10.4621 1.09803C10.254 1.0318 9.89667 0.928826 9.605 0.899537C9.605 0.899537 9.36425 0.448059 9.11913 0.049138C9.07889 -0.0163793 8.98366 -0.0163793 8.94342 0.049138C8.69835 0.448059 8.45754 0.899537 8.45754 0.899537C8.16588 0.928826 7.80851 1.0318 7.60043 1.09803C7.52324 1.12257 7.50526 1.22411 7.56969 1.27335C7.86913 1.50205 8.3078 1.75744 8.3078 1.75744C8.24149 1.93501 8.14052 2.33199 8.07447 2.60309C8.05201 2.6954 8.15805 2.76423 8.23285 2.70601L9.03127 2.08467L9.82965 2.70596C9.9045 2.76418 10.0106 2.69535 9.98808 2.60304C9.92203 2.33194 9.82106 1.93501 9.7547 1.75739C9.7547 1.75739 10.1935 1.502 10.4928 1.2733C10.5573 1.22411 10.5393 1.12257 10.4621 1.09803Z" fill="url(#paint9_linear_5621_173481)"/>
<path d="M9.82975 2.70601C9.90459 2.76423 10.0107 2.6954 9.98818 2.60309C9.92212 2.33199 9.82116 1.93506 9.7548 1.75744C9.7548 1.75744 10.1936 1.50205 10.493 1.27335C10.5574 1.22411 10.5394 1.12262 10.4622 1.09803C10.2541 1.0318 9.89677 0.928826 9.6051 0.899537C9.6051 0.899537 9.36435 0.448059 9.11923 0.0491381C9.09911 0.0163794 9.06521 0 9.03137 0V2.08467L9.82975 2.70601Z" fill="#FD904F"/>
<defs>
<linearGradient id="paint0_linear_5621_173481" x1="8.73088" y1="20.8342" x2="9.19167" y2="18.3564" gradientUnits="userSpaceOnUse">
<stop offset="0.0054" stop-color="#F0C5A7"/>
<stop offset="1" stop-color="#C48D7A"/>
</linearGradient>
<linearGradient id="paint1_linear_5621_173481" x1="8.73061" y1="14.7758" x2="9.33779" y2="19.7641" gradientUnits="userSpaceOnUse">
<stop offset="0.0054" stop-color="#209E9A"/>
<stop offset="1" stop-color="#16606E"/>
</linearGradient>
<radialGradient id="paint2_radial_5621_173481" cx="0" cy="0" r="1" gradientUnits="userSpaceOnUse" gradientTransform="translate(3.6981 16.4468) scale(2.61695 2.62791)">
<stop offset="0.0054" stop-color="#E24F3B"/>
<stop offset="0.9483" stop-color="#C62C1C"/>
</radialGradient>
<radialGradient id="paint3_radial_5621_173481" cx="0" cy="0" r="1" gradientUnits="userSpaceOnUse" gradientTransform="translate(13.6282 14.2302) scale(2.48186 2.49227)">
<stop offset="0.0054" stop-color="#E24F3B"/>
<stop offset="0.9483" stop-color="#C62C1C"/>
</radialGradient>
<radialGradient id="paint4_radial_5621_173481" cx="0" cy="0" r="1" gradientUnits="userSpaceOnUse" gradientTransform="translate(12.2792 18.4427) scale(2.21536 2.22465)">
<stop offset="0.0054" stop-color="#E24F3B"/>
<stop offset="0.9483" stop-color="#C62C1C"/>
</radialGradient>
<linearGradient id="paint5_linear_5621_173481" x1="8.91241" y1="9.29179" x2="9.21604" y2="16.246" gradientUnits="userSpaceOnUse">
<stop offset="0.0054" stop-color="#209E9A"/>
<stop offset="1" stop-color="#16606E"/>
</linearGradient>
<radialGradient id="paint6_radial_5621_173481" cx="0" cy="0" r="1" gradientUnits="userSpaceOnUse" gradientTransform="translate(5.86962 9.37005) scale(2.03248 2.04099)">
<stop offset="0.0054" stop-color="#E24F3B"/>
<stop offset="0.971" stop-color="#C62C1C"/>
</radialGradient>
<linearGradient id="paint7_linear_5621_173481" x1="8.43345" y1="3.64504" x2="9.57182" y2="10.8625" gradientUnits="userSpaceOnUse">
<stop offset="1e-08" stop-color="#209E9A"/>
<stop offset="1" stop-color="#115760"/>
</linearGradient>
<radialGradient id="paint8_radial_5621_173481" cx="0" cy="0" r="1" gradientUnits="userSpaceOnUse" gradientTransform="translate(10.5043 7.79016) scale(2.35925 2.36914)">
<stop offset="0.0054" stop-color="#E24F3B"/>
<stop offset="1" stop-color="#C62C1C"/>
</radialGradient>
<linearGradient id="paint9_linear_5621_173481" x1="8.77555" y1="0.720237" x2="9.84111" y2="3.11055" gradientUnits="userSpaceOnUse">
<stop offset="0.0054" stop-color="#FFF7A2"/>
<stop offset="1" stop-color="#FD904F"/>
</linearGradient>
</defs>
</svg>
